<?xml version="1.0" encoding="UTF-8" standalone="no"?>
<!-- Created with Inkscape (http://www.inkscape.org/) -->
<svg
   xmlns:dc="http://purl.org/dc/elements/1.1/"
   xmlns:cc="http://web.resource.org/cc/"
   xmlns:rdf="http://www.w3.org/1999/02/22-rdf-syntax-ns#"
   xmlns:svg="http://www.w3.org/2000/svg"
   xmlns="http://www.w3.org/2000/svg"
   xmlns:xlink="http://www.w3.org/1999/xlink"
   xmlns:sodipodi="http://sodipodi.sourceforge.net/DTD/sodipodi-0.dtd"
   xmlns:inkscape="http://www.inkscape.org/namespaces/inkscape"
   width="48"
   height="48"
   id="svg3259"
   sodipodi:version="0.32"
   inkscape:version="0.45"
   version="1.0"
   sodipodi:docbase="/home/elijah/crabgrass/public/images/smallsvgs"
   sodipodi:docname="bullhorn2.svg"
   inkscape:output_extension="org.inkscape.output.svg.inkscape"
   sodipodi:modified="true">
  <defs
     id="defs3261">
    <linearGradient
       inkscape:collect="always"
       id="linearGradient3156">
      <stop
         style="stop-color:#636363;stop-opacity:1;"
         offset="0"
         id="stop3158" />
      <stop
         style="stop-color:#636363;stop-opacity:0;"
         offset="1"
         id="stop3160" />
    </linearGradient>
    <radialGradient
       inkscape:collect="always"
       xlink:href="#linearGradient3156"
       id="radialGradient3164"
       cx="39.464287"
       cy="61.82143"
       fx="39.464287"
       fy="61.82143"
       r="33.392857"
       gradientTransform="matrix(1,0,0,0.2834225,0,44.299848)"
       gradientUnits="userSpaceOnUse" />
    <linearGradient
       id="linearGradient3297">
      <stop
         id="stop3299"
         offset="0"
         style="stop-color:#7c7c7c;stop-opacity:1;" />
      <stop
         id="stop3301"
         offset="1"
         style="stop-color:#ffffff;stop-opacity:1;" />
    </linearGradient>
    <linearGradient
       inkscape:collect="always"
       xlink:href="#linearGradient3297"
       id="linearGradient3287"
       x1="349.76532"
       y1="536.42676"
       x2="353.80591"
       y2="522.0321"
       gradientUnits="userSpaceOnUse"
       gradientTransform="matrix(0.6213374,0,0,0.6213374,-181.26428,-305.30365)" />
    <linearGradient
       inkscape:collect="always"
       id="linearGradient3259">
      <stop
         style="stop-color:#ff2a2a;stop-opacity:1"
         offset="0"
         id="stop3261" />
      <stop
         style="stop-color:#550000;stop-opacity:1"
         offset="1"
         id="stop3263" />
    </linearGradient>
    <linearGradient
       inkscape:collect="always"
       xlink:href="#linearGradient3259"
       id="linearGradient3251"
       x1="306.32877"
       y1="515.21356"
       x2="304.561"
       y2="531.37604"
       gradientUnits="userSpaceOnUse"
       gradientTransform="matrix(0.6213374,0,0,0.6213374,-178.75912,-304.96963)" />
    <linearGradient
       inkscape:collect="always"
       xlink:href="#linearGradient3245"
       id="linearGradient3279"
       x1="329.56226"
       y1="549.30621"
       x2="328.04703"
       y2="510.41534"
       gradientUnits="userSpaceOnUse"
       gradientTransform="matrix(0.6213374,0,0,0.6213374,-181.26428,-305.30365)" />
    <linearGradient
       id="linearGradient3245">
      <stop
         style="stop-color:#000000;stop-opacity:1;"
         offset="0"
         id="stop3247" />
      <stop
         style="stop-color:#ffffff;stop-opacity:1;"
         offset="1"
         id="stop3249" />
    </linearGradient>
    <linearGradient
       inkscape:collect="always"
       xlink:href="#linearGradient3245"
       id="linearGradient3295"
       x1="328.53677"
       y1="531.12347"
       x2="366.55441"
       y2="531.12347"
       gradientUnits="userSpaceOnUse"
       gradientTransform="matrix(0.5999382,0,0,0.6189,-173.69447,-304.08751)" />
  </defs>
  <sodipodi:namedview
     id="base"
     pagecolor="#ffffff"
     bordercolor="#666666"
     borderopacity="1.0"
     gridtolerance="10000"
     guidetolerance="10"
     objecttolerance="10"
     inkscape:pageopacity="0.0"
     inkscape:pageshadow="2"
     inkscape:zoom="7.9195959"
     inkscape:cx="19.777781"
     inkscape:cy="26.891678"
     inkscape:document-units="px"
     inkscape:current-layer="layer1"
     width="48px"
     height="48px"
     inkscape:window-width="872"
     inkscape:window-height="624"
     inkscape:window-x="4"
     inkscape:window-y="45" />
  <metadata
     id="metadata3264">
    <rdf:RDF>
      <cc:Work
         rdf:about="">
        <dc:format>image/svg+xml</dc:format>
        <dc:type
           rdf:resource="http://purl.org/dc/dcmitype/StillImage" />
      </cc:Work>
    </rdf:RDF>
  </metadata>
  <g
     inkscape:label="Layer 1"
     inkscape:groupmode="layer"
     id="layer1">
    <path
       sodipodi:type="arc"
       style="opacity:0.37912089;fill:url(#radialGradient3164);fill-opacity:1;stroke:none;stroke-width:1.80200005;stroke-miterlimit:4;stroke-dasharray:none;stroke-opacity:0.704918"
       id="path2183"
       sodipodi:cx="39.464287"
       sodipodi:cy="61.82143"
       sodipodi:rx="33.392857"
       sodipodi:ry="9.4642859"
       d="M 72.857143 61.82143 A 33.392857 9.4642859 0 1 1  6.0714302,61.82143 A 33.392857 9.4642859 0 1 1  72.857143 61.82143 z"
       transform="matrix(0.6613277,0,0,0.6613277,-1.9232494,-0.9507006)" />
    <path
       style="fill:none;fill-opacity:1;fill-rule:evenodd;stroke:#393939;stroke-width:1.51927996;stroke-linecap:butt;stroke-linejoin:miter;stroke-miterlimit:4;stroke-dasharray:none;stroke-opacity:1"
       d="M 41.058771,8.0581272 C 40.929806,8.051805 40.799471,8.0641849 40.666108,8.0787937 C 38.309089,8.0949367 36.338769,9.8107114 34.672826,11.344099 C 34.494028,11.571503 34.336156,11.809356 34.17683,12.04676 L 32.647509,12.997418 L 32.647509,12.935419 L 32.606176,13.018085 L 29.464869,14.940069 L 24.918241,15.87006 L 19.730951,15.87006 L 18.883625,15.787395 L 18.242964,15.188067 L 5.4917389,13.472747 L 3.9624185,14.774736 C 3.3021356,14.657252 2.2884326,14.650737 2.2884326,14.650737 L 1.1931086,16.841386 L 1.0277766,18.887368 C 1.0277766,18.887368 1.1931086,20.450364 1.1931086,21.078017 C 1.1931086,21.705657 1.3377741,22.958668 1.3377741,22.958668 L 3.0530929,23.53733 L 3.9210856,25.397313 L 6.1324001,26.017308 L 9.6043714,26.740635 L 11.092358,28.455954 L 14.088999,29.695944 L 14.398997,31.121932 L 16.44498,37.073882 L 18.160298,43.046498 L 20.992936,43.455262 L 21.799758,43.233825 L 22.771333,41.618352 C 22.771333,41.618352 22.638634,40.854309 22.010987,39.285196 C 21.383341,37.71609 20.20628,33.477911 20.20628,33.477911 C 20.20628,33.477911 19.9172,31.31799 19.9172,30.690344 C 19.9172,30.115669 20.27082,28.769172 20.226947,28.476621 C 20.831368,28.474604 21.301605,28.435288 21.301605,28.435288 L 24.752909,30.315939 L 27.894216,32.981917 L 31.200854,37.383879 L 32.833508,39.016532 L 32.52351,38.065873 C 33.419007,39.565136 34.761707,40.760228 36.305478,41.62051 C 37.990521,41.30659 39.757066,40.817056 41.058771,39.61586 C 42.852265,37.947469 44.173717,36.142434 44.675408,33.622577 C 46.507893,30.126046 46.612992,25.92537 47.114053,22.111342 C 47.118762,18.401624 46.298815,15.625925 44.964738,12.274091 C 44.43639,10.504034 42.993287,8.1529814 41.058771,8.0581272 z M 9.6870367,24.839318 L 9.7490362,24.859985 L 9.5423719,25.12865 L 9.6870367,24.839318 z "
       id="path2190"
       sodipodi:nodetypes="cccccccccccccccccscccccccccccccscsccccccccccccccccc" />
    <path
       style="fill:url(#linearGradient3295);fill-opacity:1;fill-rule:evenodd;stroke:#ffffff;stroke-width:1.83853757;stroke-linecap:butt;stroke-linejoin:miter;stroke-miterlimit:4;stroke-dasharray:none;stroke-opacity:0.32240439"
       d="M 36.143092,41.348457 L 33.112941,39.160321 L 30.688825,34.002553 L 30.082791,25.718875 L 31.90088,16.966302 C 31.90088,16.966302 33.112941,12.433719 34.628017,11.027062 C 36.143092,9.6203986 39.17323,7.9011447 39.17323,7.9011447 C 39.17323,7.9011447 42.960919,7.9011447 43.56694,9.1515104 C 44.172967,10.401883 45.536533,13.996682 45.536533,13.996682 C 45.536533,13.996682 47.354628,18.685561 46.900098,20.717399 C 46.44558,22.749248 46.597084,23.843323 46.44558,25.875159 C 46.29407,27.907016 45.688042,30.720337 45.688042,30.720337 L 43.415435,36.659577 L 39.627754,40.41068 L 36.143092,41.348457 z "
       id="path2251" />
    <path
       style="fill:url(#linearGradient3279);fill-opacity:1;fill-rule:evenodd;stroke:none;stroke-width:1px;stroke-linecap:butt;stroke-linejoin:miter;stroke-opacity:1"
       d="M 34.331993,11.836521 L 29.467743,14.817839 L 24.917319,15.759305 L 19.739235,15.759305 L 18.767163,15.642852 L 17.19805,17.996518 C 17.19805,17.996518 16.727317,19.722543 16.727317,20.507103 C 16.727317,21.291662 16.727317,23.017688 16.88423,23.802241 C 17.041136,24.5868 17.668783,26.783559 17.668783,26.783559 C 17.668783,26.783559 19.551715,28.352671 20.179369,28.352671 C 20.807015,28.352671 21.308348,28.312218 21.308348,28.312218 L 24.760399,30.195151 L 27.89863,32.862649 L 31.193768,37.256167 L 32.841341,38.903739 L 31.036855,33.607979 L 30.487669,28.469125 L 30.958402,20.152829 L 34.331993,11.836521 z "
       id="path2253"
       sodipodi:nodetypes="ccccccsscsccccccccc" />
    <path
       style="fill:url(#linearGradient3251);fill-opacity:1;fill-rule:evenodd;stroke:none;stroke-width:1px;stroke-linecap:butt;stroke-linejoin:miter;stroke-opacity:1"
       d="M 18.949253,15.701049 L 18.243152,15.073409 L 5.5002537,13.348197 L 3.460408,15.074222 C 3.460408,15.074222 2.3620286,17.270981 2.2051154,17.898634 C 2.0482022,18.526274 2.2051154,20.095387 2.2051154,20.095387 L 2.8327617,22.919798 L 3.9311412,25.273464 L 6.1279065,25.90111 L 9.9268446,26.68485 L 9.2207442,25.664924 L 9.6914775,24.723457 L 12.986616,25.351097 L 15.654114,26.29257 L 18.792339,27.861689 L 17.066314,24.723457 L 16.59558,21.114499 L 17.066314,18.447001 L 18.08624,16.720975 L 18.949253,15.701049 z "
       id="path2255"
       sodipodi:nodetypes="ccccsccccccccccccccc" />
    <path
       style="fill:#434343;fill-opacity:1;fill-rule:evenodd;stroke:none;stroke-width:1px;stroke-linecap:butt;stroke-linejoin:miter;stroke-opacity:1"
       d="M 21.459831,43.552826 L 22.696122,41.826801 C 22.696122,41.826801 22.510648,40.462159 21.883002,38.893046 C 21.255354,37.323933 20.204545,33.353586 20.204545,33.353586 C 20.204545,33.353586 19.852724,30.671877 19.852724,30.04423 C 19.852724,29.416578 20.204545,28.175508 20.204545,28.175508 L 17.772419,26.998669 L 18.164693,33.039759 L 20.047632,39.068955 L 21.459831,43.552826 z "
       id="path2257"
       sodipodi:nodetypes="ccscsccccc" />
    <path
       style="fill:#bebebe;fill-opacity:1;fill-rule:evenodd;stroke:none;stroke-width:1px;stroke-linecap:butt;stroke-linejoin:miter;stroke-opacity:1"
       d="M 21.459837,43.395914 L 18.164693,42.925174 L 16.438667,36.962544 L 14.398822,30.999907 L 14.084995,29.587708 L 11.103684,28.332416 L 8.9069249,25.821837 L 9.7699307,24.723457 L 16.046394,25.743377 L 17.850874,27.077123 C 17.850874,27.077123 18.007786,31.156821 18.007786,31.941373 C 18.007786,32.725933 19.80516,38.488876 19.80516,38.488876 L 21.459837,43.395914 z "
       id="path2259"
       sodipodi:nodetypes="ccccccccccscc" />
    <path
       style="fill:url(#linearGradient3287);fill-opacity:1;fill-rule:evenodd;stroke:none;stroke-width:1px;stroke-linecap:butt;stroke-linejoin:miter;stroke-opacity:1"
       d="M 30.879943,27.684572 L 39.666984,27.998391 L 41.07919,26.42928 L 41.706829,23.604874 L 40.608456,21.408115 C 40.608456,21.408115 40.451544,21.408115 39.353164,21.094289 C 38.254779,20.780476 31.978328,19.05445 31.978328,19.05445 L 30.409216,23.604874 L 30.879943,27.684572 z "
       id="path2261" />
    <path
       style="fill:#636363;fill-opacity:1;fill-rule:evenodd;stroke:none;stroke-width:0.89853692px;stroke-linecap:butt;stroke-linejoin:miter;stroke-opacity:1"
       d="M 39.196198,28.186831 L 38.066353,25.336628 L 38.568505,22.644779 L 39.949437,21.219684 L 41.581442,23.594848 L 41.204829,26.286697 L 40.20051,27.711793 L 39.196198,28.186831 z "
       id="path2263" />
    <path
       style="fill:#800000;fill-opacity:1;fill-rule:evenodd;stroke:none;stroke-width:1px;stroke-linecap:butt;stroke-linejoin:miter;stroke-opacity:1"
       d="M 4.1673277,14.681123 C 3.539688,14.524209 2.2843954,14.524209 2.2843954,14.524209 L 1.1860159,16.720975 L 1.0291028,18.76082 C 1.0291028,18.76082 1.1860159,20.329933 1.1860159,20.957586 C 1.1860159,21.585226 1.3429292,22.840518 1.3429292,22.840518 L 3.6965946,23.625072 C 3.6965946,23.625072 2.7551284,22.055959 2.7551284,21.114493 C 2.7551284,20.17302 2.9120417,18.290088 2.9120417,18.290088 C 2.9120417,18.290088 2.441302,16.564061 3.0689549,16.093329 C 3.6965946,15.622596 4.1673277,14.994949 4.1673277,14.681123 z "
       id="path2265" />
    <path
       style="fill:none;fill-opacity:1;fill-rule:evenodd;stroke:#000000;stroke-width:0.61545396px;stroke-linecap:butt;stroke-linejoin:miter;stroke-opacity:0.32240439"
       d="M 36.311281,41.495694 C 34.202136,40.32035 32.443341,38.561165 31.730787,36.183937 C 30.607634,34.422444 30.615212,32.343335 30.490797,30.336324 C 30.173254,27.740064 30.08451,25.070747 30.862483,22.545685 C 31.657247,18.656708 32.165802,14.424666 34.678615,11.228687 C 36.34456,9.6952999 38.31845,7.9678924 40.675469,7.9517495 C 42.809289,7.7180429 44.395245,10.27129 44.958816,12.159354 C 46.292893,15.511189 47.127118,18.274625 47.122409,21.984343 C 46.621348,25.798373 46.516461,30.01812 44.683975,33.514652 C 44.182285,36.03451 42.851013,37.837923 41.057518,39.506314 C 39.755814,40.707504 37.996325,41.181775 36.311281,41.495694 z "
       id="path3304"
       sodipodi:nodetypes="ccccccccccc" />
    <path
       style="fill:none;fill-rule:evenodd;stroke:#e6e6e6;stroke-width:1.22512376;stroke-linecap:butt;stroke-linejoin:miter;stroke-miterlimit:4;stroke-dasharray:none;stroke-opacity:0.81420767"
       d="M 31.099966,36.76277 L 29.990721,33.183254 L 29.436098,29.379998 L 29.325174,25.688619 L 29.879797,21.326071 L 30.767192,16.739796 L 32.652916,12.824689"
       id="path3315" />
  </g>
</svg>
