<?xml version="1.0" encoding="UTF-8" standalone="no"?>
<!-- Created with Inkscape (http://www.inkscape.org/) -->
<svg
   xmlns:dc="http://purl.org/dc/elements/1.1/"
   xmlns:cc="http://web.resource.org/cc/"
   xmlns:rdf="http://www.w3.org/1999/02/22-rdf-syntax-ns#"
   xmlns:svg="http://www.w3.org/2000/svg"
   xmlns="http://www.w3.org/2000/svg"
   xmlns:xlink="http://www.w3.org/1999/xlink"
   xmlns:sodipodi="http://inkscape.sourceforge.net/DTD/sodipodi-0.dtd"
   xmlns:inkscape="http://www.inkscape.org/namespaces/inkscape"
   version="1.0"
   width="128"
   height="128"
   id="svg1325"
   sodipodi:version="0.32"
   inkscape:version="0.43"
   sodipodi:docname="invites.svg"
   sodipodi:docbase="/home/elijah/nest/public/images/svg">
  <metadata
     id="metadata25">
    <rdf:RDF>
      <cc:Work
         rdf:about="">
        <dc:format>image/svg+xml</dc:format>
        <dc:type
           rdf:resource="http://purl.org/dc/dcmitype/StillImage" />
      </cc:Work>
    </rdf:RDF>
  </metadata>
  <sodipodi:namedview
     inkscape:window-height="816"
     inkscape:window-width="890"
     inkscape:pageshadow="2"
     inkscape:pageopacity="0.0"
     borderopacity="1.0"
     bordercolor="#666666"
     pagecolor="#ffffff"
     id="base"
     inkscape:zoom="3.265625"
     inkscape:cx="75.01355"
     inkscape:cy="62.131637"
     inkscape:window-x="302"
     inkscape:window-y="73"
     inkscape:current-layer="layer1" />
  <defs
     id="defs1327">
    <linearGradient
       id="linearGradient2209">
      <stop
         style="stop-color:#c48600;stop-opacity:1"
         offset="0"
         id="stop2211" />
      <stop
         style="stop-color:#e0bc00;stop-opacity:0.49803922"
         offset="0.21428572"
         id="stop2215" />
      <stop
         style="stop-color:#fcf300;stop-opacity:0"
         offset="1"
         id="stop2213" />
    </linearGradient>
    <linearGradient
       id="linearGradient3232">
      <stop
         style="stop-color:#c48600;stop-opacity:1"
         offset="0"
         id="stop3234" />
      <stop
         style="stop-color:#fcf300;stop-opacity:0"
         offset="1"
         id="stop3236" />
    </linearGradient>
    <linearGradient
       id="linearGradient2068">
      <stop
         style="stop-color:#000000;stop-opacity:0.18431373"
         offset="0"
         id="stop2070" />
      <stop
         style="stop-color:#000000;stop-opacity:0"
         offset="1"
         id="stop2072" />
    </linearGradient>
    <radialGradient
       cx="134.22906"
       cy="230.49648"
       r="104.69867"
       fx="134.22906"
       fy="230.49648"
       id="radialGradient2074"
       xlink:href="#linearGradient2068"
       gradientUnits="userSpaceOnUse"
       gradientTransform="matrix(1,0,-2.116277e-19,0.179487,-2.611707e-15,189.1253)" />
    <linearGradient
       x1="33.094803"
       y1="74.060173"
       x2="72.509209"
       y2="82.600777"
       id="linearGradient2328"
       xlink:href="#linearGradient3232"
       gradientUnits="userSpaceOnUse"
       gradientTransform="matrix(1.410122,2.35444e-17,-2.35444e-17,1.410122,-45.81031,-47.16476)" />
    <linearGradient
       x1="69.623062"
       y1="77.844521"
       x2="104.14171"
       y2="80.939064"
       id="linearGradient1805"
       xlink:href="#linearGradient2209"
       gradientUnits="userSpaceOnUse"
       gradientTransform="matrix(1.184894,1.978384e-17,-2.35444e-17,1.410122,-22.49009,-47.16476)" />
    <radialGradient
       inkscape:collect="always"
       xlink:href="#linearGradient2068"
       id="radialGradient1339"
       gradientUnits="userSpaceOnUse"
       gradientTransform="matrix(0.546326,0,1.266268e-2,0.179487,-11.68844,54.4859)"
       cx="134.22906"
       cy="230.49648"
       fx="134.22906"
       fy="230.49648"
       r="104.69867" />
    <linearGradient
       inkscape:collect="always"
       xlink:href="#linearGradient2209"
       id="linearGradient1341"
       gradientUnits="userSpaceOnUse"
       gradientTransform="matrix(1.184894,6.346243e-17,-7.552555e-17,1.410122,-22.49009,-47.16476)"
       x1="69.623062"
       y1="77.844521"
       x2="104.14171"
       y2="80.939064" />
    <linearGradient
       inkscape:collect="always"
       xlink:href="#linearGradient3232"
       id="linearGradient1343"
       gradientUnits="userSpaceOnUse"
       gradientTransform="matrix(1.410122,7.552555e-17,-7.552555e-17,1.410122,-45.81031,-47.16476)"
       x1="33.094803"
       y1="74.060173"
       x2="72.509209"
       y2="82.600777" />
  </defs>
  <g
     id="layer1"
     transform="matrix(1.104305,0,0,1.104305,-7.317741,-6.762095)">
    <path
       d="M 121.76258,95.85708 C 122.50246,106.23741 97.4849,114.65365 65.889107,114.65365 C 34.29332,114.65365 8.0882331,106.23741 7.3634725,95.85708 C 6.6235842,85.47675 31.641152,77.06051 63.236939,77.06051 C 94.832729,77.06051 121.03782,85.47675 121.76258,95.85708 z "
       style="opacity:1;color:#000000;fill:url(#radialGradient1339);fill-opacity:1;fill-rule:evenodd;stroke:none;stroke-width:3.43375301;stroke-linecap:round;stroke-linejoin:round;marker:none;marker-start:none;marker-mid:none;marker-end:none;stroke-miterlimit:4;stroke-dasharray:none;stroke-dashoffset:0;stroke-opacity:0.4;visibility:visible;display:inline;overflow:visible"
       id="path2066" />
    <path
       d="M 23.200392,10.482482 L 123.81272,4.5814958 C 125.12404,4.5814958 126.17973,5.6371818 126.17973,6.9485048 L 124.75294,78.079601 C 124.75294,79.390924 123.69725,80.44661 122.38593,80.44661 L 29.437406,71.447874 C 28.126084,71.447874 27.070398,70.392188 27.070398,69.080865 L 20.833384,12.849491 C 20.833384,11.538168 21.88907,10.482482 23.200392,10.482482 z "
       transform="matrix(0.971872,0.235511,-0.245873,0.969302,0,0)"
       style="color:#000000;fill:#fffb95;fill-opacity:1;fill-rule:nonzero;stroke:#000000;stroke-width:1.73417156;stroke-linecap:butt;stroke-linejoin:round;marker:none;marker-start:none;marker-mid:none;marker-end:none;stroke-miterlimit:4;stroke-dashoffset:0;stroke-opacity:1;visibility:visible;display:inline;overflow:visible;stroke-dasharray:none"
       id="rect3230" />
    <g
       transform="matrix(0.936808,0.349845,-0.349845,0.936808,24.44607,-15.683)"
       id="g2321">
      <path
         d="M 63.925636,35.603306 L 102.32955,37.82041 L 91.280781,110.51841 L 57.419,104.14507 L 63.925636,35.603306 z "
         transform="matrix(0.974774,-0.223196,0.223196,0.974774,0,0)"
         style="color:#000000;fill:url(#linearGradient1341);fill-opacity:1;fill-rule:nonzero;stroke:none;stroke-width:2.70000005;stroke-linecap:butt;stroke-linejoin:round;marker:none;marker-start:none;marker-mid:none;marker-end:none;stroke-miterlimit:4;stroke-dashoffset:0;stroke-opacity:1;visibility:visible;display:inline;overflow:visible"
         id="rect2243"
         sodipodi:nodetypes="ccccc" />
      <path
         d="M -2.7094121,31.82868 L 64.310736,35.710232 L 57.204355,104.10869 L -3.1245084,92.063299 L -2.7094121,31.82868 z "
         transform="matrix(0.974774,-0.223196,0.223196,0.974774,0,0)"
         style="opacity:0.64640886;color:#000000;fill:url(#linearGradient1343);fill-opacity:1;fill-rule:nonzero;stroke:none;stroke-width:2.70000005;stroke-linecap:butt;stroke-linejoin:round;marker:none;marker-start:none;marker-mid:none;marker-end:none;stroke-miterlimit:4;stroke-dashoffset:0;stroke-opacity:1;visibility:visible;display:inline;overflow:visible"
         id="rect2241"
         sodipodi:nodetypes="ccccc" />
      <path
         d="M 70.98279,29.116366 C 70.931137,29.13849 70.885454,29.17271 70.849333,29.216335 C 66.989865,32.676374 63.18893,36.319356 60.555697,40.959389 C 60.545238,40.977821 60.543618,41.001885 60.533195,41.020349 C 59.885132,41.824352 59.278366,43.081073 59.139693,43.973258 C 59.10437,44.200518 59.105562,44.400486 59.177022,44.619458 C 59.212752,44.728943 59.26804,44.840269 59.380849,44.926719 C 59.493657,45.013168 59.641364,45.046513 59.766129,45.041352 C 60.015658,45.03103 60.210595,44.923765 60.454355,44.746341 C 60.698116,44.568916 60.984028,44.318911 61.322607,43.963644 C 61.341888,43.94457 61.35899,43.923305 61.373596,43.900247 C 63.464943,40.928431 66.08591,38.244374 67.627622,34.805122 C 68.827132,34.394266 69.695407,34.60773 70.302217,35.107666 C 70.928891,35.623967 71.311352,36.497403 71.376625,37.465745 C 71.441899,38.434087 71.194623,39.474915 70.626344,40.245563 C 70.058066,41.016211 69.180007,41.537225 67.913891,41.540221 C 67.894773,41.540309 67.875723,41.541938 67.856918,41.545094 C 65.811864,41.908672 64.061268,43.281092 62.381024,44.197806 C 61.540902,44.656164 60.727797,44.984926 59.914544,45.087692 C 59.101291,45.190459 58.281674,45.078384 57.386935,44.536434 C 57.325681,44.491769 57.25297,44.467089 57.178555,44.465704 C 55.851538,44.583017 54.029739,43.530956 52.432397,42.451214 C 51.633726,41.911343 50.878733,41.397522 50.245326,41.014809 C 49.928622,40.823453 49.63751,40.654385 49.365372,40.558757 C 49.093235,40.463128 48.831145,40.414462 48.558779,40.539197 C 48.507125,40.561321 48.461443,40.595541 48.425322,40.639166 C 48.348035,40.742203 48.330039,40.88043 48.377916,41.003299 C 48.425791,41.126169 48.532517,41.215661 48.659064,41.239047 C 49.209078,41.349882 49.567235,41.576887 49.778876,41.792654 C 49.990515,42.008421 50.010321,42.221044 50.00065,42.275487 C 49.995815,42.302709 50.016729,42.296028 50.003643,42.30475 C 49.990555,42.31347 49.937625,42.328452 49.832724,42.319369 C 49.627873,42.30163 49.218759,42.14732 48.678444,41.709675 C 48.669657,41.700743 48.655799,41.691813 48.646965,41.68285 C 47.373467,40.390514 45.609861,38.755952 43.887675,38.134556 C 43.02061,37.821702 42.129196,37.772657 41.368909,38.231932 C 40.634305,38.675693 40.091666,39.587261 39.752069,40.967802 C 39.29475,41.405949 38.963294,41.802095 38.78626,42.20161 C 38.600033,42.621876 38.57292,43.046863 38.681026,43.420844 C 38.897237,44.168804 39.563176,44.644687 40.256354,45.057165 C 40.949533,45.469642 41.721235,45.822423 42.236607,46.157046 C 42.494293,46.324358 42.686327,46.488286 42.771733,46.613077 C 42.797102,46.650143 42.768079,46.673933 42.780708,46.700862 C 31.049411,48.352563 19.289634,49.860507 7.4439492,50.431897 C 7.2789089,50.451938 7.1505194,50.584418 7.1320288,50.753756 C 6.9236016,52.352903 7.220927,53.440279 7.9318458,54.079893 C 8.6427646,54.719508 9.6358427,54.849963 10.708288,54.816494 C 12.853177,54.749555 15.459953,54.005616 17.000783,54.248734 C 17.029342,54.25977 17.059055,54.267145 17.089235,54.270685 C 29.632912,53.382275 42.067823,51.465928 54.257062,48.493884 C 54.361719,48.987557 54.326791,49.484161 54.073781,50.074007 C 53.766269,50.790913 53.222224,51.573892 52.614465,52.383152 C 51.417961,53.976354 49.944494,55.668051 49.515805,57.489129 C 49.508993,57.518069 49.502573,57.550341 49.496294,57.579351 C 46.521293,63.772963 44.231228,70.762594 45.596449,77.89651 C 45.84894,79.651005 46.372538,81.852522 47.362712,83.648997 C 48.352886,85.44547 49.900545,86.861446 52.020155,86.763234 C 52.148627,86.751339 52.259893,86.670469 52.312624,86.550664 C 52.365356,86.430859 52.351677,86.290022 52.276664,86.180455 C 48.550001,80.365981 47.472507,73.211502 47.461243,66.343115 C 49.405854,59.848293 54.196618,54.872002 57.991504,49.325646 C 59.822279,49.525757 61.476629,50.871205 62.767314,52.754456 C 64.100729,54.700056 65.022715,57.148357 65.405986,59.170265 C 65.41587,59.189925 65.427405,59.208693 65.440455,59.226352 C 67.898375,65.967199 69.794038,73.031765 73.144834,79.495488 C 73.363325,80.828823 74.034934,82.154281 74.941674,82.736343 C 75.412025,83.038274 76.005096,83.089596 76.494896,82.751074 C 76.97281,82.420768 77.329054,81.804138 77.591304,80.827185 C 81.038824,77.245726 81.077718,71.82765 77.802722,67.998359 C 77.791415,67.979421 77.779581,67.961195 77.768253,67.942271 C 74.141988,61.884987 69.468073,56.529618 64.650671,51.501199 C 64.62262,51.479819 64.591831,51.462576 64.559228,51.449984 C 63.529359,50.847411 62.03231,49.4092 61.520954,48.433389 C 61.393116,48.189437 61.319741,47.95794 61.315698,47.831072 C 61.311656,47.704204 61.328189,47.675956 61.408703,47.616492 C 61.569729,47.497564 62.243183,47.395456 63.515132,47.701974 C 67.240597,48.499234 70.79761,46.988491 74.306781,47.575868 C 74.316793,47.58539 74.327302,47.594346 74.338258,47.602695 C 79.848004,48.112218 85.344389,47.842216 90.758242,46.877085 C 90.767689,46.875904 90.777281,46.875829 90.786728,46.874648 C 98.124417,45.957845 105.47093,45.156726 112.82036,44.281526 C 112.91742,44.271088 113.00548,44.221013 113.06476,44.142549 C 113.12278,44.075736 113.15476,43.989109 113.15477,43.898706 C 113.12261,43.259066 112.9865,42.739347 112.73685,42.340491 C 112.48721,41.941634 112.11409,41.679684 111.70706,41.543042 C 110.89296,41.269758 109.9254,41.422761 108.90642,41.694047 C 107.88743,41.965334 106.81035,42.382752 105.81623,42.666802 C 104.8221,42.95085 103.92411,43.099414 103.3184,42.969012 C 103.28058,42.956059 103.24108,42.949468 103.20146,42.949496 C 94.587044,43.736051 85.839003,43.539306 77.199523,44.671826 C 77.189992,44.672256 77.18049,44.673068 77.171037,44.674262 C 73.613002,45.576446 69.880787,46.063071 66.212759,45.700157 C 70.066121,43.744239 74.177753,41.881163 76.748319,38.009872 C 78.442136,36.69667 78.843376,35.027519 78.2546,33.63046 C 77.665926,32.233643 76.219378,31.142019 74.472689,30.647955 C 74.430533,30.636032 74.395269,30.610384 74.35276,30.599179 C 73.387259,29.973772 72.340826,29.335322 71.128213,29.133445 C 71.081147,29.117782 71.031681,29.111972 70.98279,29.116366 z "
         style="fill:#e90000;fill-opacity:1;stroke:#000000;stroke-width:0.85030825;stroke-miterlimit:4;stroke-dasharray:none;stroke-opacity:1"
         id="path2270" />
    </g>
  </g>
</svg>
