<?xml version="1.0" encoding="UTF-8" standalone="no"?>
<!-- Created with Inkscape (http://www.inkscape.org/) -->
<svg
   xmlns:a="http://ns.adobe.com/AdobeSVGViewerExtensions/3.0/"
   xmlns:svg="http://www.w3.org/2000/svg"
   xmlns="http://www.w3.org/2000/svg"
   version="1.0"
   width="128"
   height="128"
   viewBox="0 0 256 256"
   id="svg153"
   xml:space="preserve">
  <defs
   id="defs201" />
  
  <g
   style="stroke:#000000"
   id="Layer_2">
    <path
   d="M 256,256 L 0,256 L 0,0 L 256,0 L 256,256 z "
   style="fill:none;stroke:none"
   id="path155" />
  </g>
  <g
   style="stroke:#000000"
   id="Layer_1">
    <path
   d="M 38.847,80.402 C 38.834,79.927 38.797,79.461 38.797,78.983 C 38.797,77.487 38.9,76.006 39.046,74.537 C 36.367,78.204 34.268,85.008 34.53,86.745 L 35.219,91.377 C 33.148,93.028 32.092,97.368 34.185,97.981 C 37.763,99.026 41.267,100.221 44.588,101.454 C 41.439,95.55 39.484,89.225 38.955,82.625 C 38.194,81.783 37.642,81.136 37.642,81.136 L 38.846,80.399 L 38.847,80.402 z "
   style="fill:none;stroke:none"
   id="path157" />
    <path
   d="M 38.957,82.628 C 38.896,81.891 38.874,81.146 38.848,80.402"
   style="stroke:none"
   id="path158" />
    <linearGradient
   x1="132.27341"
   y1="239.666"
   x2="132.27341"
   y2="261.66559"
   id="XMLID_1_"
   gradientUnits="userSpaceOnUse">
      <stop
   style="stop-color:#000000;stop-opacity:1"
   offset="0"
   id="stop160" />
      <stop
   style="stop-color:#999999;stop-opacity:1"
   offset="1"
   id="stop161" />
      <a:midPointStop
   id="midPointStop162"
   style="stop-color:#000000"
   offset="0" />
      <a:midPointStop
   id="midPointStop163"
   style="stop-color:#000000"
   offset="0.5" />
      <a:midPointStop
   id="midPointStop164"
   style="stop-color:#999999"
   offset="1" />
    </linearGradient>
    <path
   d="M 35.607,231.333 C 35.607,242.931 78.886,252.333 132.274,252.333 C 185.662,252.333 228.941,242.931 228.941,231.333 C 228.941,219.735 185.662,210.333 132.274,210.333 C 78.886,210.333 35.607,219.735 35.607,231.333 z "
   style="opacity:0.36000001;fill:url(#XMLID_1_);stroke:none"
   id="path165" />
    <g
   id="g166">
      <path
   d="M 256,252.188 L 9.216,252.188 L 9.216,5.402 L 256,5.402 L 256,252.188 z "
   style="fill:none;stroke:none"
   id="path167" />
      <path
   d="M 8.547,123.236 C 8.547,188.636 61.676,241.845 126.981,241.845 C 192.291,241.845 245.424,188.636 245.424,123.236 C 245.425,58.041 192.291,5 126.981,5 C 61.676,5.002 8.547,58.042 8.547,123.236 z "
   style="fill:#0a0701;stroke:none"
   id="path168" />
      <radialGradient
   cx="-108.6909"
   cy="412.4248"
   r="138.5231"
   fx="-108.6909"
   fy="412.4248"
   id="XMLID_2_"
   gradientUnits="userSpaceOnUse"
   gradientTransform="matrix(1.1009,0,0,-1.0433,241.2153,627.9246)">
        <stop
   style="stop-color:#dddde8;stop-opacity:1"
   offset="0"
   id="stop170" />
        <stop
   style="stop-color:#c6c9db;stop-opacity:1"
   offset="0.30340001"
   id="stop171" />
        <stop
   style="stop-color:#9497bb;stop-opacity:1"
   offset="1"
   id="stop172" />
        <a:midPointStop
   id="midPointStop173"
   style="stop-color:#DDDDE8"
   offset="0" />
        <a:midPointStop
   id="midPointStop174"
   style="stop-color:#DDDDE8"
   offset="0.5" />
        <a:midPointStop
   id="midPointStop175"
   style="stop-color:#C6C9DB"
   offset="0.3034" />
        <a:midPointStop
   id="midPointStop176"
   style="stop-color:#C6C9DB"
   offset="0.5" />
        <a:midPointStop
   id="midPointStop177"
   style="stop-color:#9497BB"
   offset="1" />
      </radialGradient>
      <path
   d="M 126.981,233.278 C 187.646,233.278 236.855,183.863 236.855,123.236 C 236.855,62.995 187.648,13.569 126.981,13.569 C 66.749,13.571 17.116,62.996 17.116,123.236 C 17.116,183.861 66.749,233.278 126.981,233.278 z "
   style="fill:url(#XMLID_2_);stroke:none"
   id="path178" />
      <radialGradient
   cx="-127.0229"
   cy="510.25491"
   r="145.8222"
   fx="-127.0229"
   fy="510.25491"
   id="XMLID_3_"
   gradientUnits="userSpaceOnUse"
   gradientTransform="matrix(1,0,0,-1,224.5,604.5)">
        <stop
   style="stop-color:#6095c1;stop-opacity:1"
   offset="0"
   id="stop180" />
        <stop
   style="stop-color:#567eb9;stop-opacity:1"
   offset="0.55620003"
   id="stop181" />
        <stop
   style="stop-color:#0e2b8d;stop-opacity:1"
   offset="1"
   id="stop182" />
        <a:midPointStop
   id="midPointStop183"
   style="stop-color:#6095C1"
   offset="0" />
        <a:midPointStop
   id="midPointStop184"
   style="stop-color:#6095C1"
   offset="0.5" />
        <a:midPointStop
   id="midPointStop185"
   style="stop-color:#567EB9"
   offset="0.5562" />
        <a:midPointStop
   id="midPointStop186"
   style="stop-color:#567EB9"
   offset="0.5" />
        <a:midPointStop
   id="midPointStop187"
   style="stop-color:#0E2B8D"
   offset="1" />
      </radialGradient>
      <path
   d="M 90.487,25.654 C 89.944,25.654 89.349,25.877 88.74,26.221 C 90.17,25.803 90.845,25.654 90.487,25.654 z M 125.863,32.557 L 126.219,27.38 L 120.756,27.726 L 121.483,32.557 L 125.863,32.557 z M 64.23,121.988 C 63.133,120.953 63.867,116.463 63.867,116.463 C 63.867,116.463 47.454,107.837 29.584,102.652 C 27.379,102.013 28.493,97.476 30.673,95.754 L 29.946,90.906 C 29.584,88.496 33.596,76.759 37.608,75.727 C 41.619,74.685 37.242,82.628 37.242,82.628 L 33.231,85.045 C 33.231,85.045 37.97,90.566 39.069,90.566 C 40.161,90.566 41.984,87.802 41.984,87.802 L 36.879,84.359 L 41.621,82.281 L 41.919,80.459 L 42.714,80.208 L 50.563,68.321 C 55.987,66.1 62.654,63.352 63.501,62.946 C 64.96,62.26 75.17,56.394 76.994,55.011 C 78.822,53.624 82.827,53.975 84.282,53.975 C 85.746,53.975 87.933,53.283 88.297,49.478 C 88.662,45.682 90.122,44.989 91.217,46.028 C 92.31,47.058 90.119,48.787 92.675,49.478 C 95.229,50.172 97.412,51.898 99.238,50.172 C 100.573,48.906 98.787,47.468 97.585,46.379 L 117.835,46.379 L 120.026,40.155 L 115.286,39.467 L 97.774,37.741 L 97.774,35.669 L 96.378,35.903 C 98.273,25.486 109.535,27.204 101.059,21.172 C 100.542,20.803 93.128,32.858 91.241,32.625 C 87.823,32.173 83.403,32.139 82.46,33.25 C 81.219,34.717 85.257,28.2 88.737,26.222 C 83.185,27.861 65.639,33.863 47.086,53.623 C 29.353,72.515 22.285,97.965 22.285,98.855 C 22.285,100.578 25.934,101.271 26.298,103.346 C 26.663,105.409 19.373,112.32 19.373,115.771 C 19.373,117.363 17.651,138.645 23.744,156.174 C 30.86,176.636 46.049,193.723 47.815,194.846 L 51.458,193.114 C 51.458,193.114 43.071,178.268 42.709,176.884 C 42.346,175.511 52.191,155.479 56.931,156.175 C 61.67,156.857 60.579,158.246 63.497,156.519 C 66.414,154.794 68.235,140.631 71.518,139.258 C 74.803,137.87 78.446,136.147 78.088,132.695 C 77.719,129.233 65.321,123.027 64.23,121.988 z M 143.365,20.475 L 133.521,17.018 L 135.345,22.548 L 143.365,20.475 z M 106.532,33.25 C 107.628,33.25 129.509,18.754 127.319,18.402 C 125.135,18.06 124.768,18.402 118.927,17.713 C 113.095,17.02 106.89,26.001 105.435,27.383 C 103.981,28.768 104.47,33.251 106.53,33.251 L 106.532,33.251 L 106.532,33.25 z M 206.939,137.359 L 209.764,133.695 L 206.939,132.701 L 204.824,135.365 L 202.355,139.018 L 204.47,140.02 L 206.939,137.359 z M 219.293,149.347 L 218.585,144.021 L 214.003,144.021 L 213.65,148.006 L 209.406,147.351 L 208.355,143.018 L 206.238,141.692 L 203.762,144.683 L 201.298,144.021 L 200.586,146.344 L 203.411,147.017 L 203.411,168.645 L 213.402,171.048 C 213.174,171.45 212.999,171.785 212.94,171.967 C 212.229,174.301 215.76,175.305 218.229,174.301 C 219.15,173.93 222.053,170.994 223.876,166.654 C 226.42,160.607 228.643,152.622 229.088,149.796 L 230.233,147.353 L 223.171,150.014 L 219.289,149.351 L 219.293,149.347 z M 234.119,109.076 L 232.277,105.506 C 230.092,93.2 225.088,77.437 214.357,61.153 C 198.21,36.676 153.284,22.557 153.284,22.557 L 150.817,25.544 L 149.404,23.223 L 145.873,21.885 L 145.873,24.881 L 149.054,27.547 L 146.935,28.545 L 138.815,29.208 L 120.461,39.194 L 122.222,47.178 L 120.102,47.849 L 119.049,49.509 L 125.05,58.489 L 125.403,61.49 L 120.463,62.486 L 120.463,68.473 L 117.643,69.137 L 117.996,73.799 L 93.986,90.445 L 94.692,99.755 C 96.456,102.087 110.227,116.068 110.227,116.068 C 110.227,116.068 126.106,116.725 129.638,114.734 C 133.169,112.738 130.697,116.728 131.758,117.728 C 132.813,118.732 133.169,125.712 134.226,126.382 C 135.283,127.046 134.226,131.036 135.637,132.372 C 137.048,133.694 137.048,149.68 137.048,149.68 C 137.048,149.68 145.521,163.982 145.521,167.645 C 145.521,171.305 145.168,170.972 151.876,170.643 C 158.584,170.31 159.991,167.645 161.401,166.655 C 162.818,165.651 162.818,163.323 164.231,161.322 C 165.644,159.323 168.108,151.672 171.289,149.014 C 174.466,146.346 182.937,144.348 183.64,139.693 C 184.347,135.034 187.523,131.372 187.523,131.372 L 202.786,115.227 L 202.354,117.4 L 202,125.711 L 206.589,124.051 L 206.238,115.06 L 204.589,113.317 L 204.824,113.064 C 204.824,113.064 203.762,111.072 202.355,111.072 C 200.942,111.072 192.466,113.064 191.057,112.736 C 189.644,112.4 183.639,96.425 182.58,95.768 C 181.522,95.101 174.817,84.116 174.817,84.116 C 174.817,84.116 190.347,102.756 192.818,110.072 C 194.253,114.333 199.638,110.366 204.021,105.918 L 205.178,108.743 L 207.999,108.072 L 207.646,104.745 L 210.824,104.745 L 210.824,109.738 L 209.762,112.4 L 209.401,116.725 L 212.227,119.392 L 213.645,117.067 L 218.225,112.737 L 223.523,110.072 L 224.935,112.737 L 225.644,116.399 L 224.227,120.389 L 221.404,122.72 L 219.994,128.711 L 219.994,131.698 L 216.821,129.705 L 216.467,123.388 L 211.88,123.723 L 209.762,129.37 L 212.939,134.038 L 220.348,135.036 L 226.354,129.37 L 227.058,118.398 L 229.725,114.873 C 231.466,119.344 232.708,124.024 232.708,128.382 C 232.708,133.16 234.893,125.07 233.034,110.499 L 234.116,109.077 L 234.116,109.076 L 234.119,109.076 z M 145.168,75.134 L 126.107,74.459 L 134.22,67.806 L 138.457,67.806 L 145.165,72.461 L 145.165,75.132 L 145.168,75.134 z M 168.468,72.804 L 168.468,75.799 L 160.35,75.799 L 161.057,77.798 L 156.112,78.469 L 155.759,80.128 L 152.23,79.465 L 145.875,78.129 L 146.936,76.469 L 147.997,74.463 L 151.525,70.808 L 152.938,73.473 L 158.236,73.139 L 161.058,70.143 L 171.996,72.139 L 168.471,72.808 L 168.468,72.804 z M 169.168,68.474 L 164.936,69.138 L 164.232,66.14 L 169.518,65.479 L 170.229,62.485 L 174.118,66.484 L 169.169,68.473 L 169.169,68.474 L 169.168,68.474 z M 189.645,171.962 L 187.17,173.961 L 187.523,178.96 L 190.703,178.96 L 190.703,174.638 L 193.528,170.971 L 193.528,163.319 L 191.763,162.977 L 189.648,171.962 L 189.645,171.962 z M 166,161.992 C 166,161.992 163.526,162.644 166.349,163.648 C 169.168,164.652 180.465,147.35 180.465,147.35 L 170.935,153.332 L 165.997,161.991 L 166,161.991 L 166,161.992 z M 146.784,225.77 L 144.673,223.76 L 140.437,223.085 L 139.732,225.101 L 134.087,224.439 L 133.734,221.756 L 129.501,221.756 L 124.913,224.439 L 116.8,224.439 L 116.098,222.42 L 103.044,221.074 L 100.924,223.085 L 95.634,221.754 L 94.93,217.054 L 92.461,216.714 L 89.637,221.754 L 80.115,221.414 C 81.816,222.222 96.043,230.706 117.856,232.484 C 146.784,234.82 160.545,227.785 160.545,227.785 L 159.485,226.776 L 146.784,225.772 L 146.784,225.77 z "
   style="fill:url(#XMLID_3_);stroke:none"
   id="path188" />
      <path
   d=""
   style="stroke:none"
   id="path189" />
      <path
   d="M 119.296,17.37 C 118.618,17.29 117.938,17.35 117.257,17.507 C 117.978,17.46 118.697,17.422 119.42,17.387 C 119.375,17.382 119.344,17.376 119.296,17.371 L 119.296,17.37 z "
   style="stroke:none"
   id="path190" />
      <path
   d="M 90.854,25.38 C 90.31,25.38 89.711,25.603 89.104,25.951 C 90.533,25.527 91.21,25.38 90.854,25.38 z "
   style="stroke:none"
   id="path191" />
      <radialGradient
   cx="69.482903"
   cy="32.540001"
   r="159.6564"
   fx="69.482903"
   fy="32.540001"
   id="XMLID_4_"
   gradientUnits="userSpaceOnUse">
        <stop
   style="stop-color:#f0f0f0;stop-opacity:1"
   offset="0"
   id="stop193" />
        <stop
   style="stop-color:#c6c9db;stop-opacity:1"
   offset="1"
   id="stop194" />
        <a:midPointStop
   id="midPointStop195"
   style="stop-color:#F0F0F0"
   offset="0" />
        <a:midPointStop
   id="midPointStop196"
   style="stop-color:#F0F0F0"
   offset="0.5" />
        <a:midPointStop
   id="midPointStop197"
   style="stop-color:#C6C9DB"
   offset="1" />
      </radialGradient>
      <path
   d="M 220.878,66.411 C 201.591,34.81 166.749,13.569 126.982,13.569 C 66.749,13.571 17.116,62.996 17.116,123.236 C 17.116,124.796 17.169,126.343 17.235,127.888 C 35.442,132.31 55.631,134.792 76.91,134.792 C 150.998,134.793 212.072,104.945 220.878,66.411 z "
   style="opacity:0.5;fill:url(#XMLID_4_);stroke:none"
   id="path198" />
      <path
   d="M 231.715,128.377 C 231.715,118.637 230.241,109.237 227.526,100.373 C 227.65,102.69 227.723,105.022 227.723,107.373 C 227.723,159.507 197.138,204.176 153.663,222.972 C 198.056,214.455 231.715,175.29 231.715,128.377 z "
   style="opacity:0.6;fill:#f0f0f0;stroke:none"
   id="path199" />
    </g>
  </g>
</svg>