<?xml version="1.0" encoding="UTF-8" standalone="no"?>
<!-- Created with Inkscape (http://www.inkscape.org/) -->
<svg
   xmlns:svg="http://www.w3.org/2000/svg"
   xmlns="http://www.w3.org/2000/svg"
   xmlns:xlink="http://www.w3.org/1999/xlink"
   version="1.0"
   width="128"
   height="128"
   id="svg2056">
  <defs
     id="defs2058">
    <linearGradient
       id="linearGradient3846">
      <stop
         style="stop-color:#000000;stop-opacity:0.36915886"
         offset="0"
         id="stop3848" />
      <stop
         style="stop-color:#000000;stop-opacity:0"
         offset="1"
         id="stop3850" />
    </linearGradient>
    <linearGradient
       id="linearGradient2949">
      <stop
         style="stop-color:#ffffff;stop-opacity:1"
         offset="0"
         id="stop2951" />
      <stop
         style="stop-color:#ffffff;stop-opacity:0.34901962"
         offset="1"
         id="stop2953" />
    </linearGradient>
    <linearGradient
       x1="23.93084"
       y1="1.3738344"
       x2="23.93084"
       y2="41.417618"
       id="linearGradient2955"
       xlink:href="#linearGradient2949"
       gradientUnits="userSpaceOnUse"
       gradientTransform="matrix(2.410821,0,0,2.410821,5.99363,2.532929)" />
    <radialGradient
       cx="22.875"
       cy="37.875"
       r="23.625"
       fx="22.875"
       fy="41.732147"
       id="radialGradient3852"
       xlink:href="#linearGradient3846"
       gradientUnits="userSpaceOnUse"
       gradientTransform="matrix(1,0,0,0.259259,-2.114194e-17,28.05556)" />
  </defs>
  <g
     id="layer1">
    <path
       d="M 46.5 37.875 A 23.625 6.125 0 1 1  -0.75,37.875 A 23.625 6.125 0 1 1  46.5 37.875 z"
       transform="matrix(2.693122,0,0,2.693122,2.519841,-1.464146)"
       style="opacity:0.68518521;color:#000000;fill:url(#radialGradient3852);fill-opacity:1;fill-rule:nonzero;stroke:none;stroke-width:1;stroke-linecap:round;stroke-linejoin:round;marker:none;marker-start:none;marker-mid:none;marker-end:none;stroke-miterlimit:4;stroke-dasharray:none;stroke-dashoffset:0;stroke-opacity:0.34901961;visibility:visible;display:inline;overflow:visible"
       id="path2963" />
    <path
       d="M 64.359062,18.314195 L 17.482051,101.01857 L 111.33394,101.01857 L 64.359062,18.314195 z "
       style="color:#000000;fill:#ececec;fill-opacity:1;fill-rule:nonzero;stroke:#de1212;stroke-width:10.7724905;stroke-linecap:round;stroke-linejoin:round;marker:none;marker-start:none;marker-mid:none;marker-end:none;stroke-miterlimit:4;stroke-dasharray:none;stroke-dashoffset:0;stroke-opacity:1;visibility:visible;display:inline;overflow:visible"
       id="rect2064" />
    <path
       d="M 61.413482,83.554218 L 70.388606,83.554218 L 70.388606,93.067178 L 61.413482,93.067178 L 61.413482,83.554218 M 61.413482,42.880438 L 70.388606,42.880438 L 70.388606,64.898062 L 69.279323,76.89851 L 62.589999,76.89851 L 61.413482,64.898062 L 61.413482,42.880438"
       style="font-size:28.55579948px;font-style:normal;font-variant:normal;font-weight:bold;font-stretch:normal;text-align:start;line-height:125%;writing-mode:lr-tb;text-anchor:start;opacity:0.42592594;fill:#000000;fill-opacity:1;stroke:none;stroke-width:1px;stroke-linecap:butt;stroke-linejoin:miter;stroke-opacity:1;font-family:Bitstream Vera Sans Mono"
       id="text2957" />
    <path
       d="M 58.773934,81.668826 L 67.749058,81.668826 L 67.749058,91.181783 L 58.773934,91.181783 L 58.773934,81.668826 M 58.773934,40.995045 L 67.749058,40.995045 L 67.749058,63.01267 L 66.639772,75.013115 L 59.950449,75.013115 L 58.773934,63.01267 L 58.773934,40.995045"
       style="font-size:28.55579948px;font-style:normal;font-variant:normal;font-weight:bold;font-stretch:normal;text-align:start;line-height:125%;writing-mode:lr-tb;text-anchor:start;fill:#000000;fill-opacity:1;stroke:none;stroke-width:1px;stroke-linecap:butt;stroke-linejoin:miter;stroke-opacity:1;font-family:Bitstream Vera Sans Mono"
       id="text2943" />
    <path
       d="M 62.131118,17.532295 L 14.922608,100.05665 C 14.267791,101.19083 15.135633,103.44205 17.211705,103.44205 L 109.11453,103.44205 C 113.66219,103.44205 113.61253,100.29681 112.27935,98.163738 L 66.521566,17.609349 C 65.013253,15.252611 63.262353,15.929713 62.131118,17.532295 z "
       style="opacity:1;color:#000000;fill:none;fill-opacity:1;fill-rule:nonzero;stroke:url(#linearGradient2955);stroke-width:2.69312334;stroke-linecap:round;stroke-linejoin:round;marker:none;marker-start:none;marker-mid:none;marker-end:none;stroke-miterlimit:4;stroke-dasharray:none;stroke-dashoffset:0;stroke-opacity:1;visibility:visible;display:inline;overflow:visible"
       id="path2947" />
    <path
       d="M 59.263253,13.948817 L 11.53802,98.030092 C 9.1239043,101.94806 11.868179,107.62201 17.11727,107.62201 L 111.01615,107.62201 C 117.16195,107.62201 119.24759,101.16176 117.24897,97.76555 L 69.276198,14.037105 C 67.553637,11.098751 61.745379,10.922401 59.263253,13.948817 z "
       style="opacity:1;color:#000000;fill:none;fill-opacity:1;fill-rule:nonzero;stroke:#951717;stroke-width:2.69312239;stroke-linecap:round;stroke-linejoin:round;marker:none;marker-start:none;marker-mid:none;marker-end:none;stroke-miterlimit:4;stroke-dasharray:none;stroke-dashoffset:0;stroke-opacity:1;visibility:visible;display:inline;overflow:visible"
       id="path3872" />
  </g>
</svg>
