<?xml version="1.0" encoding="UTF-8" standalone="no"?>
<!-- Created with Sodipodi ("http://www.sodipodi.com/") -->
<svg
   xmlns:a="http://ns.adobe.com/AdobeSVGViewerExtensions/3.0/"
   xmlns:i="&amp;ns_ai;"
   xmlns:dc="http://purl.org/dc/elements/1.1/"
   xmlns:cc="http://web.resource.org/cc/"
   xmlns:rdf="http://www.w3.org/1999/02/22-rdf-syntax-ns#"
   xmlns:svg="http://www.w3.org/2000/svg"
   xmlns="http://www.w3.org/2000/svg"
   xmlns:xlink="http://www.w3.org/1999/xlink"
   xmlns:sodipodi="http://inkscape.sourceforge.net/DTD/sodipodi-0.dtd"
   xmlns:inkscape="http://www.inkscape.org/namespaces/inkscape"
   width="128"
   height="128"
   viewBox="0 0 256 256"
   style="overflow:visible;enable-background:new 0 0 256 256"
   xml:space="preserve"
   id="svg153"
   sodipodi:version="0.32"
   sodipodi:docname="x-office-database.svg"
   sodipodi:docbase="/data/img/icons/Chimera/scalable/mimetypes/media"
   inkscape:version="0.43"
   version="1.0"><metadata
   id="metadata29"><rdf:RDF><cc:Work
       rdf:about=""><dc:format>image/svg+xml</dc:format><dc:type
         rdf:resource="http://purl.org/dc/dcmitype/StillImage" /></cc:Work></rdf:RDF></metadata>
  <defs
   id="defs222"><linearGradient
   y2="193.126"
   x2="96.3745"
   y1="205.376"
   x1="108.6245"
   gradientUnits="userSpaceOnUse"
   id="XMLID_11_">
      <stop
   id="stop253"
   style="stop-color:#FFFFFF"
   offset="0" />
      <stop
   id="stop254"
   style="stop-color:#3399FF"
   offset="1" />
      <a:midPointStop
   id="midPointStop255"
   style="stop-color:#FFFFFF"
   offset="0" />
      <a:midPointStop
   id="midPointStop256"
   style="stop-color:#FFFFFF"
   offset="0.5" />
      <a:midPointStop
   id="midPointStop257"
   style="stop-color:#3399FF"
   offset="1" />
    </linearGradient><linearGradient
   y2="188.2337"
   x2="76.2674"
   y1="180.4834"
   x1="68.5171"
   gradientUnits="userSpaceOnUse"
   id="XMLID_10_">
      <stop
   id="stop246"
   style="stop-color:#F9F9F9"
   offset="0" />
      <stop
   id="stop247"
   style="stop-color:#3399FF"
   offset="1" />
      <a:midPointStop
   id="midPointStop248"
   style="stop-color:#F9F9F9"
   offset="0" />
      <a:midPointStop
   id="midPointStop249"
   style="stop-color:#F9F9F9"
   offset="0.5" />
      <a:midPointStop
   id="midPointStop250"
   style="stop-color:#3399FF"
   offset="1" />
    </linearGradient><linearGradient
   y2="153.2793"
   x2="155.7832"
   y1="153.2793"
   x1="56.5273"
   gradientUnits="userSpaceOnUse"
   id="XMLID_9_">
      <stop
   id="stop230"
   style="stop-color:#0066CC"
   offset="0" />
      <stop
   id="stop231"
   style="stop-color:#0D73D9"
   offset="0.1414" />
      <stop
   id="stop232"
   style="stop-color:#2288EE"
   offset="0.4377" />
      <stop
   id="stop233"
   style="stop-color:#2F95FB"
   offset="0.7273" />
      <stop
   id="stop234"
   style="stop-color:#3399FF"
   offset="1" />
      <a:midPointStop
   id="midPointStop235"
   style="stop-color:#0066CC"
   offset="0" />
      <a:midPointStop
   id="midPointStop236"
   style="stop-color:#0066CC"
   offset="0.5" />
      <a:midPointStop
   id="midPointStop237"
   style="stop-color:#0D73D9"
   offset="0.1414" />
      <a:midPointStop
   id="midPointStop238"
   style="stop-color:#0D73D9"
   offset="0.5" />
      <a:midPointStop
   id="midPointStop239"
   style="stop-color:#2288EE"
   offset="0.4377" />
      <a:midPointStop
   id="midPointStop240"
   style="stop-color:#2288EE"
   offset="0.5" />
      <a:midPointStop
   id="midPointStop241"
   style="stop-color:#2F95FB"
   offset="0.7273" />
      <a:midPointStop
   id="midPointStop242"
   style="stop-color:#2F95FB"
   offset="0.5" />
      <a:midPointStop
   id="midPointStop243"
   style="stop-color:#3399FF"
   offset="1" />
    </linearGradient><linearGradient
   id="linearGradient11317"><stop
     id="stop11319"
     offset="0.00000000"
     style="stop-color:#000000;stop-opacity:0.48958334;" /><stop
     id="stop11321"
     offset="1"
     style="stop-color:#000000;stop-opacity:0;" /></linearGradient><linearGradient
   inkscape:collect="always"
   xlink:href="#linearGradient11317"
   id="linearGradient1369"
   gradientUnits="userSpaceOnUse"
   gradientTransform="matrix(3.239914,0,0,1.881907,15.04708,-83.77053)"
   x1="49.781834"
   y1="173.45737"
   x2="62.504456"
   y2="157.02299" /><linearGradient
   id="linearGradient2211"><stop
     id="stop2213"
     offset="0"
     style="stop-color:#dedede;stop-opacity:1;" /><stop
     id="stop2215"
     offset="1"
     style="stop-color:#ffffff;stop-opacity:1;" /></linearGradient><linearGradient
   id="linearGradient10457"><stop
     id="stop10459"
     offset="0"
     style="stop-color:#000000;stop-opacity:0.71428573;" /><stop
     id="stop10461"
     offset="1"
     style="stop-color:#000000;stop-opacity:0;" /></linearGradient><radialGradient
   inkscape:collect="always"
   xlink:href="#linearGradient10457"
   id="radialGradient1351"
   gradientUnits="userSpaceOnUse"
   gradientTransform="scale(2.110067,0.473919)"
   cx="24.734711"
   cy="210.29031"
   fx="24.734711"
   fy="210.29031"
   r="20.929369" />
    <linearGradient
   id="XMLID_1_"
   gradientUnits="userSpaceOnUse"
   x1="131.2803"
   y1="242.2021"
   x2="131.2803"
   y2="225.9855">
      <stop
   offset="0"
   style="stop-color:#CCCCCC"
   id="stop156" />
      <stop
   offset="1"
   style="stop-color:#000000"
   id="stop157" />
      <a:midPointStop
   offset="0"
   style="stop-color:#CCCCCC"
   id="midPointStop158" />
      <a:midPointStop
   offset="0.5"
   style="stop-color:#CCCCCC"
   id="midPointStop159" />
      <a:midPointStop
   offset="1"
   style="stop-color:#000000"
   id="midPointStop160" />
    </linearGradient>
    <linearGradient
   id="XMLID_2_"
   gradientUnits="userSpaceOnUse"
   x1="101.2012"
   y1="49.471699"
   x2="130.5948"
   y2="153.53371"
   gradientTransform="matrix(1.195649,0,0,1.195649,-16.98509,-42.69663)">
      <stop
   offset="0"
   style="stop-color:#D4D4D4"
   id="stop164" />
      <stop
   offset="1"
   style="stop-color:#F0F0F0"
   id="stop165" />
      <a:midPointStop
   offset="0"
   style="stop-color:#D4D4D4"
   id="midPointStop166" />
      <a:midPointStop
   offset="0.5"
   style="stop-color:#D4D4D4"
   id="midPointStop167" />
      <a:midPointStop
   offset="1"
   style="stop-color:#F0F0F0"
   id="midPointStop168" />
    </linearGradient>
    <radialGradient
   id="XMLID_3_"
   cx="122.9863"
   cy="61.2827"
   r="7.46"
   fx="122.9863"
   fy="61.2827"
   gradientTransform="matrix(0.8964,3.46e-2,-0.3107,1.1036,32.3881,-10.5311)"
   gradientUnits="userSpaceOnUse">
      <stop
   offset="0.8595"
   style="stop-color:#C2C2C2"
   id="stop174" />
      <stop
   offset="1"
   style="stop-color:#000000"
   id="stop175" />
      <a:midPointStop
   offset="0.8595"
   style="stop-color:#C2C2C2"
   id="midPointStop176" />
      <a:midPointStop
   offset="0.5"
   style="stop-color:#C2C2C2"
   id="midPointStop177" />
      <a:midPointStop
   offset="1"
   style="stop-color:#000000"
   id="midPointStop178" />
    </radialGradient>
    <radialGradient
   id="XMLID_4_"
   cx="183.2773"
   cy="65.596703"
   r="8.1346998"
   fx="183.2773"
   fy="65.596703"
   gradientTransform="matrix(0.8964,3.46e-2,-0.3107,1.1036,32.3881,-10.5311)"
   gradientUnits="userSpaceOnUse">
      <stop
   offset="0.8595"
   style="stop-color:#C2C2C2"
   id="stop181" />
      <stop
   offset="1"
   style="stop-color:#000000"
   id="stop182" />
      <a:midPointStop
   offset="0.8595"
   style="stop-color:#C2C2C2"
   id="midPointStop183" />
      <a:midPointStop
   offset="0.5"
   style="stop-color:#C2C2C2"
   id="midPointStop184" />
      <a:midPointStop
   offset="1"
   style="stop-color:#000000"
   id="midPointStop185" />
    </radialGradient>
  <linearGradient
   inkscape:collect="always"
   xlink:href="#linearGradient2211"
   id="linearGradient2209"
   x1="213.3185"
   y1="69.450134"
   x2="199.65854"
   y2="69.350571"
   gradientUnits="userSpaceOnUse"
   gradientTransform="matrix(1.194834,4.415806e-2,-4.415806e-2,1.194834,-54.48974,-54.12795)" /></defs>
  <sodipodi:namedview
   id="base"
   inkscape:zoom="1.6791666"
   inkscape:cx="103.83483"
   inkscape:cy="18.015039"
   inkscape:window-width="996"
   inkscape:window-height="643"
   inkscape:window-x="276"
   inkscape:window-y="29"
   inkscape:current-layer="svg153" />
  <path
   transform="matrix(2.707034,0.148295,-0.263566,2.548187,9.435841,-36.04555)"
   d="M 96.354244 99.660515 A 44.162361 9.9188194 0 1 1  8.0295219,99.660515 A 44.162361 9.9188194 0 1 1  96.354244 99.660515 z"
   sodipodi:ry="9.9188194"
   sodipodi:rx="44.162361"
   sodipodi:cy="99.660515"
   sodipodi:cx="52.191883"
   id="path9697"
   style="opacity:0.60792954;fill:url(#radialGradient1351);fill-opacity:1;stroke:none;stroke-width:3;stroke-linecap:round;stroke-linejoin:round;stroke-miterlimit:4;stroke-opacity:1"
   sodipodi:type="arc" /><path
   id="path8926"
   d="M 189.86622,196.78795 L 195.66591,242.66018 L 232.75771,222.99027 L 189.86622,196.78795 z "
   style="fill:url(#linearGradient1369);fill-opacity:1;fill-rule:evenodd;stroke:none;stroke-width:1px;stroke-linecap:butt;stroke-linejoin:miter;stroke-opacity:1"
   sodipodi:nodetypes="cccc" />
  
  <path
   style="font-size:12px;fill:url(#XMLID_2_);stroke:#000000;stroke-width:4.9579215;stroke-miterlimit:4;stroke-dasharray:none;stroke-opacity:1"
   d="M 29.344375,208.44191 C 28.557356,212.1155 30.106631,213.87723 34.168438,214.3122 L 185.16789,242.08743 C 190.48964,243.27525 196.16959,240.87704 197.20835,236.95289 L 224.664,61.028715 C 225.25703,59.564933 224.24795,57.745126 222.88284,55.569295 L 190.48353,9.52304 C 189.16548,7.9985518 186.96633,6.4740636 184.13779,5.9565639 L 73.624745,10.143028 C 70.875349,9.5923319 67.614111,11.654127 66.281598,14.994614 L 29.344375,208.44191 z "
   id="path169"
   sodipodi:nodetypes="ccccccccccc" />
  <path
   style="font-size:12px;fill:none"
   d="M 6.1064917,187.5664 L 81.19211,22.955289 C 83.237867,16.76541 101.55762,5.8168442 109.64619,7.2576026 L 250.58701,19.106493 C 248.93463,18.110517 246.98214,17.359648 244.78691,16.96867 L 107.11021,3.3322832 C 99.020441,1.8915248 80.701893,12.841287 78.657332,19.029972 L 3.5705181,183.64227 C 2.4047598,187.17063 3.5023661,190.69779 6.1579043,193.34617 C 5.5146451,191.5216 5.4512752,189.5464 6.1064917,187.5664 z "
   id="path170" />
  <g
   id="g171"
   style="font-size:12px;stroke:#000000" />
  <path
   style="font-size:12px;fill:#cccccc;fill-opacity:1"
   d="M 186.55419,217.53746 C 184.1416,221.7938 181.36487,223.53626 173.01249,223.3731 L 62.724143,217.11033 L 180.6795,232.94729 C 188.81287,234.12389 190.55178,231.99893 192.39585,225.74599 L 221.23067,64.918948 L 186.55419,217.53746 z "
   id="path172"
   sodipodi:nodetypes="ccccccc" />
  
  
  
  
  <g
   id="Layer_2"
   style="stroke:#000000">
    <path
   style="fill:none;stroke:none"
   d="M 256,256 L 0,256 L 0,0 L 256,0 L 256,256 z "
   id="path220" />
  </g>
<path
   style="opacity:1;color:#000000;fill:#b3b3b3;fill-opacity:1;fill-rule:nonzero;stroke:none;stroke-width:1;stroke-linecap:butt;stroke-linejoin:miter;marker:none;marker-start:none;marker-mid:none;marker-end:none;stroke-miterlimit:4;stroke-dasharray:none;stroke-dashoffset:0;stroke-opacity:1;visibility:visible;display:inline;overflow:visible"
   d="M 181.45799,49.934332 L 182.44436,61.864547 C 182.74941,64.063218 184.96458,65.18331 186.44929,65.200452 L 225.26329,59.02742 L 181.45799,49.934332 z "
   id="path2204"
   sodipodi:nodetypes="ccccc" /><path
   style="font-size:12px;fill:#000000;fill-opacity:1;overflow:visible"
   d="M 191.14458,226.40538 C 189.63672,231.23179 186.93032,234.11718 178.79054,232.98417 L 63.588955,217.06144 L 183.95225,240.83168 C 192.09196,241.96349 193.81916,239.82901 195.62879,233.56602 L 219.74488,75.325282 L 191.14458,226.40538 z "
   id="path3075"
   sodipodi:nodetypes="ccccccc" /><path
   sodipodi:nodetypes="cccc"
   id="path2212"
   d="M 189.76837,7.082875 L 174.33826,46.185206 C 174.34733,47.196952 174.56618,49.097423 177.2695,49.814544 L 225.51795,58.868327"
   style="fill:none;fill-opacity:0.75;fill-rule:evenodd;stroke:#000000;stroke-width:4.52679777;stroke-linecap:butt;stroke-linejoin:round;stroke-miterlimit:4;stroke-dasharray:none;stroke-opacity:1" /><path
   style="fill:url(#linearGradient2209);fill-opacity:1;fill-rule:evenodd;stroke:none;stroke-width:1px;stroke-linecap:butt;stroke-linejoin:miter;stroke-opacity:1;overflow:visible"
   d="M 189.98687,7.8281162 L 175.86635,44.645619 C 175.52326,45.396158 175.59862,46.874697 176.9488,47.598748 L 225.48273,57.608394"
   id="path2202"
   sodipodi:nodetypes="cccc" /><g
   transform="matrix(1.293004,0,0,1.293004,-49.46702,-88.87333)"
   style="overflow:visible"
   id="g1470"><path
     i:knockout="Off"
     style="opacity:0.36000001;fill:#999999;stroke:none"
     d="M 112.419,99.131 C 112.419,99.131 112.419,162.391 112.419,174.85 C 106.699,172.741 100.009,171.561 93.075,171.561 C 72.689,171.561 56.72,181.195 56.72,193.495 C 56.72,205.794 72.689,215.429 93.075,215.429 C 113.462,215.429 129.431,205.794 129.431,193.495 C 129.431,192.186 129.194,190.883 128.829,189.595 C 128.829,188.595 128.829,136.818 128.829,123.901 C 131.789,126.067 135.148,128.451 139.72,129.171 C 147.373,130.374 154.04,127.909 159.923,125.735 L 162.395,124.833 L 159.389,115.704 C 154.149,117.291 150.28,114.178 144.402,108.964 C 140.016,105.074 135.132,100.797 128.83,99.541 C 128.83,99.484 128.83,99.153 128.83,99.153 C 128.83,99.153 126.695,99.153 125.315,99.153 C 125.084,99.152 124.854,99.146 124.621,99.153 C 124.491,99.153 122.533,99.153 122.533,99.153 L 117.225,99.133 L 112.419,99.133 L 112.419,99.131 z "
     id="path227" /><path
     i:knockout="Off"
     style="stroke:none"
     d="M 109.226,96.938 C 109.226,96.938 109.226,164.794 109.226,173.522 C 103.243,170.863 95.822,169.368 88.076,169.368 C 68.703,169.368 53.528,178.209 53.528,189.494 C 53.528,200.779 68.703,209.62 88.076,209.62 C 107.449,209.62 122.624,200.779 122.624,189.494 C 122.624,188.257 122.395,187.022 122.023,185.807 C 122.023,185.145 122.023,124.714 122.023,116.421 C 122.883,116.983 123.743,117.596 124.623,118.241 C 127.482,120.336 130.723,122.711 135,123.383 C 142.189,124.513 148.346,122.238 154.299,120.037 L 156.79,119.127 L 154.913,113.43 C 148.439,115.391 143.695,111.184 138.202,106.313 C 133.668,102.292 128.577,97.84 122.022,97.099 C 122.022,97.086 122.022,96.957 122.022,96.957 C 122.022,96.957 121.132,96.957 120.285,96.957 C 120.064,96.955 119.845,96.95 119.62,96.957 C 119.429,96.957 117.532,96.957 117.532,96.957 L 112.224,96.937 L 109.226,96.937 L 109.226,96.938 z "
     id="path228" /><path
     style="fill:url(#XMLID_9_);stroke:none"
     d="M 119.621,99.958 L 119.022,100.176 L 119.022,99.958 L 117.533,99.958 L 117.533,99.938 L 112.225,99.938 L 112.225,178.496 C 106.44,174.754 97.777,172.368 88.075,172.368 C 70.652,172.368 56.527,180.036 56.527,189.494 C 56.527,198.953 70.652,206.62 88.075,206.62 C 105.498,206.62 119.623,198.953 119.623,189.494 C 119.623,188.354 119.414,187.242 119.022,186.165 L 119.022,111.665 C 125.005,113.331 128.892,119.386 135.465,120.419 C 142.843,121.579 149.33,118.599 155.782,116.301 C 140.757,120.853 133.91,99.409 119.621,99.958 z "
     id="path244" /><path
     style="opacity:0.5;fill:url(#XMLID_10_);stroke:none"
     d="M 84.646,173.755 C 69.418,174.86 57.729,181.325 57.729,189.137 C 57.729,192.201 59.533,195.055 62.637,197.462 C 63.623,187.853 72.01,179.357 84.646,173.755 z "
     id="path251" /><path
     style="opacity:0.5;fill:url(#XMLID_11_);stroke:none"
     d="M 111.156,183.638 C 111.779,184.79 112.111,185.997 112.111,187.242 C 112.111,195.29 98.256,201.814 81.164,201.814 C 80.927,201.814 80.692,201.808 80.458,201.804 C 83.919,202.767 87.897,203.316 92.131,203.316 C 105.488,203.316 116.318,197.868 116.318,191.147 C 116.317,188.313 114.387,185.706 111.156,183.638 z "
     id="path258" /></g></svg>