<?xml version="1.0" encoding="UTF-8" standalone="no"?>
<!-- Created with Inkscape (http://www.inkscape.org/) -->
<svg
   xmlns:i="&amp;amp;ns_ai;"
   xmlns:a="http://ns.adobe.com/AdobeSVGViewerExtensions/3.0/"
   xmlns:dc="http://purl.org/dc/elements/1.1/"
   xmlns:cc="http://web.resource.org/cc/"
   xmlns:rdf="http://www.w3.org/1999/02/22-rdf-syntax-ns#"
   xmlns:svg="http://www.w3.org/2000/svg"
   xmlns="http://www.w3.org/2000/svg"
   xmlns:xlink="http://www.w3.org/1999/xlink"
   xmlns:sodipodi="http://inkscape.sourceforge.net/DTD/sodipodi-0.dtd"
   xmlns:inkscape="http://www.inkscape.org/namespaces/inkscape"
   version="1.0"
   width="128"
   height="128"
   viewBox="0 0 256 256"
   id="svg153"
   xml:space="preserve"
   sodipodi:version="0.32"
   inkscape:version="0.43"
   sodipodi:docname="file.svg"
   sodipodi:docbase="/data/img/icons/Chimera/scalable/mimetypes/media"><metadata
   id="metadata32"><rdf:RDF><cc:Work
       rdf:about=""><dc:format>image/svg+xml</dc:format><dc:type
         rdf:resource="http://purl.org/dc/dcmitype/StillImage" /></cc:Work></rdf:RDF></metadata><sodipodi:namedview
   inkscape:window-height="627"
   inkscape:window-width="797"
   inkscape:pageshadow="2"
   inkscape:pageopacity="0.0"
   borderopacity="1.0"
   bordercolor="#666666"
   pagecolor="#ffffff"
   id="base"
   inkscape:zoom="3.265625"
   inkscape:cx="25.022274"
   inkscape:cy="56.475229"
   inkscape:window-x="233"
   inkscape:window-y="181"
   inkscape:current-layer="svg153" />
  <defs
   id="defs222"><linearGradient
     gradientTransform="matrix(1.012852,0,0,1.012852,-214.2086,-11.37961)"
     id="linearGradient2278"
     gradientUnits="userSpaceOnUse"
     x1="113.8916"
     y1="161.0986"
     x2="85.1533"
     y2="89.0965"><stop
       offset="0"
       style="stop-color:#D4CCBF"
       id="stop2280" /><stop
       offset="1"
       style="stop-color:#FFFFFF"
       id="stop2282" /><a:midPointStop
       offset="0"
       style="stop-color:#D4CCBF"
       id="midPointStop240" /><a:midPointStop
       offset="0.5"
       style="stop-color:#D4CCBF"
       id="midPointStop241" /><a:midPointStop
       offset="1"
       style="stop-color:#FFFFFF"
       id="midPointStop242" /></linearGradient><linearGradient
     inkscape:collect="always"
     xlink:href="#linearGradient2278"
     id="linearGradient3102"
     gradientUnits="userSpaceOnUse"
     gradientTransform="matrix(0.659394,0,0,0.659394,196.0516,266.3023)"
     x1="113.8916"
     y1="161.0986"
     x2="85.153297"
     y2="89.096497" /><linearGradient
     gradientTransform="matrix(1.152813,0,0,1.211985,-226.8458,-37.51228)"
     id="linearGradient2266"
     gradientUnits="userSpaceOnUse"
     x1="97.8135"
     y1="156.7998"
     x2="97.8135"
     y2="95.1987"><stop
       offset="0"
       style="stop-color:#F0EBE6"
       id="stop2268" /><stop
       offset="1"
       style="stop-color:#9D9282"
       id="stop2270" /><a:midPointStop
       offset="0"
       style="stop-color:#F0EBE6"
       id="midPointStop202" /><a:midPointStop
       offset="0.5"
       style="stop-color:#F0EBE6"
       id="midPointStop203" /><a:midPointStop
       offset="1"
       style="stop-color:#9D9282"
       id="midPointStop204" /></linearGradient><linearGradient
     inkscape:collect="always"
     xlink:href="#linearGradient2266"
     id="linearGradient3122"
     gradientUnits="userSpaceOnUse"
     gradientTransform="matrix(0.750512,0,0,0.789035,187.8245,249.2893)"
     x1="97.813499"
     y1="156.7998"
     x2="97.813499"
     y2="95.1987" /><linearGradient
     gradientTransform="matrix(1.012852,0,0,1.012852,-214.2086,-11.37961)"
     id="linearGradient2272"
     gradientUnits="userSpaceOnUse"
     x1="97.813"
     y1="96.6973"
     x2="97.813"
     y2="160.5492"><stop
       offset="0"
       style="stop-color:#F0EBE6"
       id="stop2274" /><stop
       offset="1"
       style="stop-color:#C2BAAD"
       id="stop2276" /><a:midPointStop
       offset="0"
       style="stop-color:#F0EBE6"
       id="midPointStop195" /><a:midPointStop
       offset="0.5"
       style="stop-color:#F0EBE6"
       id="midPointStop196" /><a:midPointStop
       offset="1"
       style="stop-color:#C2BAAD"
       id="midPointStop197" /></linearGradient><linearGradient
     inkscape:collect="always"
     xlink:href="#linearGradient2272"
     id="linearGradient3125"
     gradientUnits="userSpaceOnUse"
     gradientTransform="matrix(0.659394,0,0,0.659394,196.0516,266.3023)"
     x1="97.813004"
     y1="96.697304"
     x2="97.813004"
     y2="160.54919" /><linearGradient
     id="linearGradient2348"
     inkscape:collect="always"><stop
       id="stop2350"
       offset="0"
       style="stop-color:#eba44b;stop-opacity:1" /><stop
       id="stop2352"
       offset="1"
       style="stop-color:#686c6f;stop-opacity:1" /></linearGradient><linearGradient
     inkscape:collect="always"
     xlink:href="#linearGradient2348"
     id="linearGradient2346"
     x1="247.78453"
     y1="249.59372"
     x2="247.89578"
     y2="226.72899"
     gradientUnits="userSpaceOnUse"
     gradientTransform="matrix(3.626989,0,0,3.626989,-807.1515,-767.2759)" /><linearGradient
     id="linearGradient2212"><stop
       id="stop2214"
       offset="0"
       style="stop-color:#d4d4d4;stop-opacity:1" /><stop
       id="stop2216"
       offset="1"
       style="stop-color:#f0f0f0;stop-opacity:1" /></linearGradient><linearGradient
     id="linearGradient11317"><stop
       style="stop-color:#000000;stop-opacity:0.48958334"
       offset="0"
       id="stop11319" /><stop
       style="stop-color:#000000;stop-opacity:0"
       offset="1"
       id="stop11321" /></linearGradient><linearGradient
     x1="49.781834"
     y1="173.45737"
     x2="62.504456"
     y2="157.02299"
     id="linearGradient1369"
     xlink:href="#linearGradient11317"
     gradientUnits="userSpaceOnUse"
     gradientTransform="matrix(3.239914,0,0,1.881907,15.04708,-83.77053)" /><linearGradient
     id="linearGradient2211"><stop
       style="stop-color:#dedede;stop-opacity:1"
       offset="0"
       id="stop2213" /><stop
       style="stop-color:#ffffff;stop-opacity:1"
       offset="1"
       id="stop2215" /></linearGradient><linearGradient
     id="linearGradient10457"><stop
       style="stop-color:#000000;stop-opacity:0.71428573"
       offset="0"
       id="stop10459" /><stop
       style="stop-color:#000000;stop-opacity:0"
       offset="1"
       id="stop10461" /></linearGradient><radialGradient
     cx="24.734711"
     cy="210.29031"
     r="20.929369"
     fx="24.734711"
     fy="210.29031"
     id="radialGradient1351"
     xlink:href="#linearGradient10457"
     gradientUnits="userSpaceOnUse"
     gradientTransform="scale(2.110067,0.473919)" /><linearGradient
     x1="213.3185"
     y1="69.450134"
     x2="199.65854"
     y2="69.350571"
     id="linearGradient2209"
     xlink:href="#linearGradient2211"
     gradientUnits="userSpaceOnUse"
     gradientTransform="matrix(1.194834,4.415806e-2,-4.415806e-2,1.194834,-54.48974,-54.12795)" /><linearGradient
     inkscape:collect="always"
     xlink:href="#linearGradient2212"
     id="linearGradient2210"
     x1="100.77267"
     y1="15.772676"
     x2="142.30296"
     y2="146.83488"
     gradientUnits="userSpaceOnUse" /><linearGradient
     inkscape:collect="always"
     xlink:href="#linearGradient2348"
     id="linearGradient2375"
     gradientUnits="userSpaceOnUse"
     gradientTransform="matrix(3.614359,0,0,3.626989,-803.821,-767.2759)"
     x1="247.78453"
     y1="249.59372"
     x2="247.89578"
     y2="226.72899" /></defs>
  
  <path
   d="M 96.354244 99.660515 A 44.162361 9.9188194 0 1 1  8.0295219,99.660515 A 44.162361 9.9188194 0 1 1  96.354244 99.660515 z"
   transform="matrix(2.707034,0.148295,-0.263566,2.548187,9.435841,-36.04555)"
   style="opacity:0.60792954;fill:url(#radialGradient1351);fill-opacity:1;stroke:none;stroke-width:3;stroke-linecap:round;stroke-linejoin:round;stroke-miterlimit:4;stroke-opacity:1"
   id="path9697" /><path
   d="M 189.86622,196.78795 L 195.66591,242.66018 L 232.75771,222.99027 L 189.86622,196.78795 z "
   style="fill:url(#linearGradient1369);fill-opacity:1.0;fill-rule:evenodd;stroke:none;stroke-width:1px;stroke-linecap:butt;stroke-linejoin:miter;stroke-opacity:1"
   id="path8926" />
  
  <path
   d="M 29.344375,208.44191 C 28.557356,212.1155 30.106631,213.87723 34.168438,214.3122 L 185.16789,242.08743 C 190.48964,243.27525 196.16959,240.87704 197.20835,236.95289 L 224.664,61.028715 C 225.25703,59.564933 224.24795,57.745126 222.88284,55.569295 L 190.48353,9.52304 C 189.16548,7.9985518 186.96633,6.4740636 184.13779,5.9565639 L 73.624745,10.143028 C 70.875349,9.5923319 67.614111,11.654127 66.281598,14.994614 L 29.344375,208.44191 z "
   style="stroke:#000000;stroke-width:4.9579215;stroke-miterlimit:4;stroke-dasharray:none;stroke-opacity:1;fill-opacity:1.0;fill:url(#linearGradient2210)"
   id="path169" />
  <path
   d="M 6.1064917,187.5664 L 81.19211,22.955289 C 83.237867,16.76541 101.55762,5.8168442 109.64619,7.2576026 L 250.58701,19.106493 C 248.93463,18.110517 246.98214,17.359648 244.78691,16.96867 L 107.11021,3.3322832 C 99.020441,1.8915248 80.701893,12.841287 78.657332,19.029972 L 3.5705181,183.64227 C 2.4047598,187.17063 3.5023661,190.69779 6.1579043,193.34617 C 5.5146451,191.5216 5.4512752,189.5464 6.1064917,187.5664 z "
   style="font-size:12px;fill:none"
   id="path170" />
  <g
   style="font-size:12px;stroke:#000000"
   id="g171" />
  <path
   d="M 186.55419,217.53746 C 184.1416,221.7938 181.36487,223.53626 173.01249,223.3731 L 62.724143,217.11033 L 180.6795,232.94729 C 188.81287,234.12389 190.55178,231.99893 192.39585,225.74599 L 221.23067,64.918948 L 186.55419,217.53746 z "
   style="font-size:12px;fill:#cccccc;fill-opacity:1"
   id="path172" />
  
  
  
  
  <g
   style="stroke:#000000"
   id="Layer_2">
    <path
   d="M 256,256 L 0,256 L 0,0 L 256,0 L 256,256 z "
   style="fill:none;stroke:none"
   id="path220" />
  </g>
<path
   d="M 181.45799,49.934332 L 182.44436,61.864547 C 182.74941,64.063218 184.96458,65.18331 186.44929,65.200452 L 225.26329,59.02742 L 181.45799,49.934332 z "
   style="opacity:1;color:#000000;fill:#b3b3b3;fill-opacity:1;fill-rule:nonzero;stroke:none;stroke-width:1;stroke-linecap:butt;stroke-linejoin:miter;marker:none;marker-start:none;marker-mid:none;marker-end:none;stroke-miterlimit:4;stroke-dasharray:none;stroke-dashoffset:0;stroke-opacity:1;visibility:visible;display:inline;overflow:visible"
   id="path2204" /><path
   d="M 191.14458,226.40538 C 189.63672,231.23179 186.93032,234.11718 178.79054,232.98417 L 63.588955,217.06144 L 183.95225,240.83168 C 192.09196,241.96349 193.81916,239.82901 195.62879,233.56602 L 219.74488,75.325282 L 191.14458,226.40538 z "
   style="font-size:12px;fill:#000000;fill-opacity:1;overflow:visible"
   id="path3075" /><path
   d="M 189.76837,7.082875 L 174.33826,46.185206 C 174.34733,47.196952 174.56618,49.097423 177.2695,49.814544 L 225.51795,58.868327"
   style="fill:none;fill-opacity:0.75;fill-rule:evenodd;stroke:#000000;stroke-width:4.52679777;stroke-linecap:butt;stroke-linejoin:round;stroke-miterlimit:4;stroke-dasharray:none;stroke-opacity:1"
   id="path2212" /><path
   d="M 189.98687,7.8281162 L 175.86635,44.645619 C 175.52326,45.396158 175.59862,46.874697 176.9488,47.598748 L 225.48273,57.608394"
   style="fill:url(#linearGradient2209);fill-opacity:1;fill-rule:evenodd;stroke:none;stroke-width:1px;stroke-linecap:butt;stroke-linejoin:miter;stroke-opacity:1;overflow:visible"
   id="path2202" /><g
   id="g2284"
   transform="matrix(2,0,0,2,-430.1737,-577.7469)"><path
     i:knockout="Off"
     style="opacity:0.35;fill:#999999;stroke:none;overflow:visible"
     d="M 231.74391,320.161 C 228.08891,320.161 225.11501,323.13488 225.11501,326.79056 L 225.11501,376.83595 C 225.11501,380.49228 228.08831,383.46549 231.74391,383.46549 L 298.58611,383.46549 C 302.24181,383.46549 305.21501,380.49228 305.21501,376.83595 L 305.21501,326.7899 C 305.21501,323.13422 302.24181,320.16034 298.58611,320.16034 L 231.74391,320.16034 L 231.74391,320.161 z "
     id="path190" /><path
     i:knockout="Off"
     style="stroke:none;overflow:visible"
     d="M 227.12821,315.54524 C 223.47321,315.54524 220.49931,318.51912 220.49931,322.1748 L 220.49931,372.22019 C 220.49931,375.87652 223.47251,378.84974 227.12821,378.84974 L 293.97031,378.84974 C 297.62601,378.84974 300.59921,375.87652 300.59921,372.22019 L 300.59921,322.17414 C 300.59921,318.51846 297.62601,315.54458 293.97031,315.54458 L 227.12821,315.54458 L 227.12821,315.54524 z "
     id="path191" /><path
     i:knockout="Off"
     style="fill:url(#linearGradient3125);fill-opacity:1;stroke:none;overflow:visible"
     d="M 297.94781,372.22019 C 297.94781,374.41729 296.16741,376.1983 293.97031,376.1983 L 227.12821,376.1983 C 224.93171,376.1983 223.15071,374.41729 223.15071,372.22019 L 223.15071,322.17414 C 223.15071,319.97703 224.93171,318.19667 227.12821,318.19667 L 293.97031,318.19667 C 296.16741,318.19667 297.94781,319.97769 297.94781,322.17414 L 297.94781,372.22019 z "
     id="path198" /><path
     i:knockout="Off"
     style="fill:url(#linearGradient3122);fill-opacity:1;stroke:none;overflow:visible"
     d="M 228.49171,322.80206 C 228.49171,327.82506 228.49171,367.83625 228.49171,372.85923 C 233.48111,372.85923 288.98901,372.85923 293.97691,372.85923 C 293.97691,367.83625 293.97691,327.82506 293.97691,322.80206 C 288.98901,322.80206 233.48111,322.80206 228.49171,322.80206 z "
     id="path205" /><path
     i:knockout="Off"
     style="fill:none;stroke:#242424;stroke-width:1.67270231;stroke-linejoin:round;stroke-opacity:1;overflow:visible"
     d="M 229.28281,323.59418 C 229.28281,329.33147 229.28281,366.18214 229.28281,371.92033 C 234.86691,371.92033 287.21541,371.92033 292.79871,371.92033 C 292.79871,366.18214 292.79871,329.33147 292.79871,323.59418 C 287.21461,323.59418 234.86691,323.59418 229.28281,323.59418 z "
     id="path236" /><path
     i:knockout="Off"
     style="fill:url(#linearGradient3102);fill-opacity:1;stroke:none;overflow:visible"
     d="M 292.94561,319.19103 L 228.32171,319.19103 C 226.19781,319.19103 224.47611,320.84546 224.47611,322.88695 L 224.47611,369.396 C 224.47611,369.69536 224.51831,369.98483 224.58951,370.26244 L 226.39101,370.26244 C 226.28481,369.92615 226.22281,369.56942 226.22281,369.19949 L 226.22281,324.66863 C 226.22281,322.62714 227.94451,320.97271 230.06781,320.97271 L 296.22941,320.97271 C 295.55551,319.90582 294.33961,319.19103 292.94561,319.19103 z "
     id="path243" /><path
     i:knockout="Off"
     style="opacity:0.4;fill:#9d9282;stroke:none;overflow:visible"
     d="M 295.54301,358.19025 C 290.33311,367.42705 301.46431,374.7694 282.28061,375.00612 C 278.46401,375.05295 275.03841,375.50726 271.98811,376.19897 L 293.97101,376.19897 C 296.16811,376.19897 297.94841,374.41794 297.94841,372.22084 L 297.94841,352.47132 C 297.19541,354.71196 296.39161,356.68551 295.54301,358.19025 z "
     id="path251" /></g><g
   id="g2369"
   transform="matrix(0.990906,0,0,1.108021,5.9926,12.31645)"
   style="stroke:none"><rect
     ry="1.0721768"
     rx="0.83479381"
     y="52.848267"
     x="24.200438"
     height="85.149643"
     width="125.0679"
     id="rect2338"
     style="opacity:1;color:#000000;fill:url(#linearGradient2375);fill-opacity:1;fill-rule:nonzero;stroke:none;stroke-width:4.89643717;stroke-linecap:butt;stroke-linejoin:round;marker:none;marker-start:none;marker-mid:none;marker-end:none;stroke-miterlimit:4;stroke-dasharray:none;stroke-dashoffset:0;stroke-opacity:1;visibility:visible;display:inline;overflow:visible" /><path
     id="path1461"
     d="M 102.63476,131.96602 L 102.2611,115.47859 L 93.293144,96.930205 L 88.43549,90.335232 L 82.083164,89.098681 L 78.346506,95.281477 L 74.236196,96.930205 L 71.246876,96.518032 L 77.599201,92.396169 L 79.841182,87.862128 L 79.467497,83.32809 L 75.357186,81.679329 L 71.994215,78.381844 L 80.962174,81.267157 L 83.577841,85.389023 L 91.798462,87.449957 L 92.172116,75.496568 L 83.577841,70.138149 L 77.225516,68.489388 L 66.762879,69.725941 L 76.851863,64.779731 L 63.773559,56.123827 L 60.036935,55.299447 L 68.631208,54.475066 L 80.962174,63.543179 L 92.172116,69.313768 L 96.282459,76.320911 L 110.10808,70.138149 L 103.38209,58.596932 L 102.63476,54.887238 L 107.11875,59.833483 L 111.60272,67.252836 L 116.46036,65.191903 L 122.81268,62.306589 L 123.56003,54.475066 L 125.05468,53.650685 L 125.05468,59.421312 L 129.16498,57.360379 L 133.64898,58.18476 L 132.52799,59.833483 L 129.16498,59.833483 L 126.923,61.070037 L 131.03331,65.191903 L 124.68102,63.95535 L 118.32869,68.489388 L 112.7237,72.199082 L 99.271776,80.854986 L 96.282459,92.808379 L 105.25043,108.88363 L 110.85542,110.53235 L 120.57068,101.87645 L 113.84473,94.457094 L 113.84473,87.037748 L 116.46036,93.632724 L 122.81268,99.403342 L 129.53867,94.044922 L 123.18634,87.037748 L 113.47104,82.915882 L 116.08672,79.618396 L 121.6917,84.564644 L 122.439,76.733119 L 131.03331,76.733119 L 134.39632,67.665008 L 137.01195,67.252836 L 134.39632,76.733119 L 142.24329,75.908739 L 144.85891,70.962492 L 146.72725,75.908739 L 142.9906,78.794052 L 142.9906,87.037748 L 140.00126,84.564644 L 140.00126,79.206225 L 126.54935,81.267157 L 126.54935,85.801195 L 132.52799,91.159613 L 138.50664,86.213404 L 141.49595,89.098681 L 133.64898,93.632724 L 135.5173,94.457094 L 140.00126,94.457094 L 140.37495,98.166796 L 131.407,98.166796 L 121.6917,107.64704 L 120.57068,108.88363 L 131.03331,109.70797 L 135.14362,105.58611 L 135.5173,111.76891 L 128.79133,113.82983 L 125.80201,117.53953 L 123.93368,113.00547 L 114.59204,113.82983 L 111.22906,119.60042 L 109.73439,130.31726 L 109.73439,132.7904 L 102.63476,131.96602 z "
     style="fill:#000000;fill-opacity:1;fill-rule:evenodd;stroke:none;stroke-width:1px;stroke-linecap:butt;stroke-linejoin:miter;stroke-opacity:1" /><path
     id="path2336"
     d="M 51.570672,114.53859 C 41.764747,114.74304 33.853458,121.36992 33.85346,129.48008 C 33.85346,129.65388 33.922648,129.80996 33.929828,129.98232 L 70.20429,129.98232 C 70.211293,129.81207 70.20429,129.65172 70.20429,129.48008 C 70.20429,121.24118 62.050978,114.53859 52.028875,114.53859 C 51.872279,114.53859 51.726321,114.53533 51.570672,114.53859 z "
     style="opacity:1;color:#000000;fill:#fcd926;fill-opacity:1;fill-rule:nonzero;stroke:none;stroke-width:2.70000005;stroke-linecap:butt;stroke-linejoin:round;marker:none;marker-start:none;marker-mid:none;marker-end:none;stroke-miterlimit:4;stroke-dasharray:none;stroke-dashoffset:0;stroke-opacity:1;visibility:visible;display:inline;overflow:visible" /><rect
     ry="0"
     rx="0"
     y="129.73322"
     x="24.090395"
     height="8.3650932"
     width="125.32221"
     id="rect2363"
     style="opacity:1;color:#000000;fill:#312e30;fill-opacity:1;fill-rule:nonzero;stroke:none;stroke-width:2.70000005;stroke-linecap:butt;stroke-linejoin:round;marker:none;marker-start:none;marker-mid:none;marker-end:none;stroke-miterlimit:4;stroke-dasharray:none;stroke-dashoffset:0;stroke-opacity:1;visibility:visible;display:inline;overflow:visible" /></g></svg>