<?xml version="1.0" encoding="UTF-8" standalone="no"?>
<!-- Created with Sodipodi ("http://www.sodipodi.com/") -->
<svg
   xmlns:a="http://ns.adobe.com/AdobeSVGViewerExtensions/3.0/"
   xmlns:dc="http://purl.org/dc/elements/1.1/"
   xmlns:cc="http://web.resource.org/cc/"
   xmlns:rdf="http://www.w3.org/1999/02/22-rdf-syntax-ns#"
   xmlns:svg="http://www.w3.org/2000/svg"
   xmlns="http://www.w3.org/2000/svg"
   xmlns:xlink="http://www.w3.org/1999/xlink"
   xmlns:sodipodi="http://inkscape.sourceforge.net/DTD/sodipodi-0.dtd"
   xmlns:inkscape="http://www.inkscape.org/namespaces/inkscape"
   width="128"
   height="128"
   viewBox="0 0 256 256"
   style="overflow:visible;enable-background:new 0 0 256 256"
   xml:space="preserve"
   id="svg153"
   sodipodi:version="0.32"
   sodipodi:docname="gnome-mime-application-pgp.svg"
   sodipodi:docbase="/data/img/icons/Chimera/scalable/mimetypes/other"
   inkscape:version="0.43"
   version="1.0"><metadata
   id="metadata29"><rdf:RDF><cc:Work
       rdf:about=""><dc:format>image/svg+xml</dc:format><dc:type
         rdf:resource="http://purl.org/dc/dcmitype/StillImage" /></cc:Work></rdf:RDF></metadata>
  <defs
   id="defs222"><linearGradient
     inkscape:collect="always"
     id="linearGradient5516"><stop
       style="stop-color:#ffffff;stop-opacity:1;"
       offset="0"
       id="stop5518" /><stop
       style="stop-color:#ffffff;stop-opacity:0;"
       offset="1"
       id="stop5520" /></linearGradient><linearGradient
     inkscape:collect="always"
     xlink:href="#linearGradient5516"
     id="linearGradient5557"
     gradientUnits="userSpaceOnUse"
     x1="9.6558256"
     y1="32.608093"
     x2="21.721691"
     y2="32.608093" /><linearGradient
     inkscape:collect="always"
     id="linearGradient5497"><stop
       style="stop-color:#ffffff;stop-opacity:1;"
       offset="0"
       id="stop5499" /><stop
       style="stop-color:#ffffff;stop-opacity:0;"
       offset="1"
       id="stop5501" /></linearGradient><linearGradient
     inkscape:collect="always"
     xlink:href="#linearGradient5497"
     id="linearGradient5555"
     gradientUnits="userSpaceOnUse"
     x1="20.029211"
     y1="25.933079"
     x2="33.151798"
     y2="25.933079" /><linearGradient
     inkscape:collect="always"
     id="linearGradient5534"><stop
       style="stop-color:#cacaca;stop-opacity:1.0000000"
       offset="0"
       id="stop5536" /><stop
       style="stop-color:#aaaaaa;stop-opacity:1.0000000"
       offset="1"
       id="stop5538" /></linearGradient><linearGradient
     inkscape:collect="always"
     xlink:href="#linearGradient5534"
     id="linearGradient5553"
     gradientUnits="userSpaceOnUse"
     x1="22.594528"
     y1="11.197558"
     x2="22.594528"
     y2="21.974314" /><linearGradient
     inkscape:collect="always"
     id="linearGradient5505"><stop
       style="stop-color:#9e8a3b;stop-opacity:1.0000000"
       offset="0"
       id="stop5507" /><stop
       style="stop-color:#c2a83e;stop-opacity:1.0000000"
       offset="1"
       id="stop5509" /></linearGradient><linearGradient
     inkscape:collect="always"
     xlink:href="#linearGradient5505"
     id="linearGradient5551"
     gradientUnits="userSpaceOnUse"
     x1="32.954464"
     y1="34.581417"
     x2="17.328409"
     y2="34.384083" /><linearGradient
     id="linearGradient11317"><stop
       id="stop11319"
       offset="0.00000000"
       style="stop-color:#000000;stop-opacity:0.48958334;" /><stop
       id="stop11321"
       offset="1"
       style="stop-color:#000000;stop-opacity:0;" /></linearGradient><linearGradient
     inkscape:collect="always"
     xlink:href="#linearGradient11317"
     id="linearGradient1369"
     gradientUnits="userSpaceOnUse"
     gradientTransform="matrix(3.239914,0,0,1.881907,15.04708,-83.77053)"
     x1="49.781834"
     y1="173.45737"
     x2="62.504456"
     y2="157.02299" /><linearGradient
     id="linearGradient2211"><stop
       id="stop2213"
       offset="0"
       style="stop-color:#dedede;stop-opacity:1;" /><stop
       id="stop2215"
       offset="1"
       style="stop-color:#ffffff;stop-opacity:1;" /></linearGradient><linearGradient
     id="linearGradient10457"><stop
       id="stop10459"
       offset="0"
       style="stop-color:#000000;stop-opacity:0.71428573;" /><stop
       id="stop10461"
       offset="1"
       style="stop-color:#000000;stop-opacity:0;" /></linearGradient><radialGradient
     inkscape:collect="always"
     xlink:href="#linearGradient10457"
     id="radialGradient1351"
     gradientUnits="userSpaceOnUse"
     gradientTransform="scale(2.110067,0.473919)"
     cx="24.734711"
     cy="210.29031"
     fx="24.734711"
     fy="210.29031"
     r="20.929369" /><linearGradient
     id="XMLID_2_"
     gradientUnits="userSpaceOnUse"
     x1="101.2012"
     y1="49.471699"
     x2="130.5948"
     y2="153.53371"
     gradientTransform="matrix(1.195649,0,0,1.195649,-16.98509,-42.69663)">
      <stop
   offset="0"
   style="stop-color:#D4D4D4"
   id="stop164" />
      <stop
   offset="1"
   style="stop-color:#F0F0F0"
   id="stop165" />
      <a:midPointStop
   offset="0"
   style="stop-color:#D4D4D4"
   id="midPointStop166" />
      <a:midPointStop
   offset="0.5"
   style="stop-color:#D4D4D4"
   id="midPointStop167" />
      <a:midPointStop
   offset="1"
   style="stop-color:#F0F0F0"
   id="midPointStop168" />
    </linearGradient><linearGradient
     inkscape:collect="always"
     xlink:href="#linearGradient2211"
     id="linearGradient2209"
     x1="213.3185"
     y1="69.450134"
     x2="199.65854"
     y2="69.350571"
     gradientUnits="userSpaceOnUse"
     gradientTransform="matrix(1.194834,4.415806e-2,-4.415806e-2,1.194834,-54.48974,-54.12795)" /></defs>
  <sodipodi:namedview
   id="base"
   inkscape:zoom="2.3747002"
   inkscape:cx="138.2572"
   inkscape:cy="73.788627"
   inkscape:window-width="996"
   inkscape:window-height="643"
   inkscape:window-x="276"
   inkscape:window-y="29"
   inkscape:current-layer="svg153" />
  <path
   transform="matrix(2.707034,0.148295,-0.263566,2.548187,9.435841,-36.04555)"
   d="M 96.354244 99.660515 A 44.162361 9.9188194 0 1 1  8.0295219,99.660515 A 44.162361 9.9188194 0 1 1  96.354244 99.660515 z"
   sodipodi:ry="9.9188194"
   sodipodi:rx="44.162361"
   sodipodi:cy="99.660515"
   sodipodi:cx="52.191883"
   id="path9697"
   style="opacity:0.60792954;fill:url(#radialGradient1351);fill-opacity:1;stroke:none;stroke-width:3;stroke-linecap:round;stroke-linejoin:round;stroke-miterlimit:4;stroke-opacity:1"
   sodipodi:type="arc" /><path
   id="path8926"
   d="M 189.86622,196.78795 L 195.66591,242.66018 L 232.75771,222.99027 L 189.86622,196.78795 z "
   style="fill:url(#linearGradient1369);fill-opacity:1;fill-rule:evenodd;stroke:none;stroke-width:1px;stroke-linecap:butt;stroke-linejoin:miter;stroke-opacity:1"
   sodipodi:nodetypes="cccc" />
  
  <path
   style="font-size:12px;fill:url(#XMLID_2_);stroke:#000000;stroke-width:4.9579215;stroke-miterlimit:4;stroke-dasharray:none;stroke-opacity:1"
   d="M 29.344375,208.44191 C 28.557356,212.1155 30.106631,213.87723 34.168438,214.3122 L 185.16789,242.08743 C 190.48964,243.27525 196.16959,240.87704 197.20835,236.95289 L 224.664,61.028715 C 225.25703,59.564933 224.24795,57.745126 222.88284,55.569295 L 190.48353,9.52304 C 189.16548,7.9985518 186.96633,6.4740636 184.13779,5.9565639 L 73.624745,10.143028 C 70.875349,9.5923319 67.614111,11.654127 66.281598,14.994614 L 29.344375,208.44191 z "
   id="path169"
   sodipodi:nodetypes="ccccccccccc" />
  <path
   style="font-size:12px;fill:none"
   d="M 6.1064917,187.5664 L 81.19211,22.955289 C 83.237867,16.76541 101.55762,5.8168442 109.64619,7.2576026 L 250.58701,19.106493 C 248.93463,18.110517 246.98214,17.359648 244.78691,16.96867 L 107.11021,3.3322832 C 99.020441,1.8915248 80.701893,12.841287 78.657332,19.029972 L 3.5705181,183.64227 C 2.4047598,187.17063 3.5023661,190.69779 6.1579043,193.34617 C 5.5146451,191.5216 5.4512752,189.5464 6.1064917,187.5664 z "
   id="path170" />
  <g
   id="g171"
   style="font-size:12px;stroke:#000000" />
  <path
   style="font-size:12px;fill:#cccccc;fill-opacity:1"
   d="M 186.55419,217.53746 C 184.1416,221.7938 181.36487,223.53626 173.01249,223.3731 L 62.724143,217.11033 L 180.6795,232.94729 C 188.81287,234.12389 190.55178,231.99893 192.39585,225.74599 L 221.23067,64.918948 L 186.55419,217.53746 z "
   id="path172"
   sodipodi:nodetypes="ccccccc" />
  
  
  
  
  <g
   id="Layer_2"
   style="stroke:#000000">
    <path
   style="fill:none;stroke:none"
   d="M 256,256 L 0,256 L 0,0 L 256,0 L 256,256 z "
   id="path220" />
  </g>
<path
   style="opacity:1;color:#000000;fill:#b3b3b3;fill-opacity:1;fill-rule:nonzero;stroke:none;stroke-width:1;stroke-linecap:butt;stroke-linejoin:miter;marker:none;marker-start:none;marker-mid:none;marker-end:none;stroke-miterlimit:4;stroke-dasharray:none;stroke-dashoffset:0;stroke-opacity:1;visibility:visible;display:inline;overflow:visible"
   d="M 181.45799,49.934332 L 182.44436,61.864547 C 182.74941,64.063218 184.96458,65.18331 186.44929,65.200452 L 225.26329,59.02742 L 181.45799,49.934332 z "
   id="path2204"
   sodipodi:nodetypes="ccccc" /><path
   style="font-size:12px;fill:#000000;fill-opacity:1;overflow:visible"
   d="M 191.14458,226.40538 C 189.63672,231.23179 186.93032,234.11718 178.79054,232.98417 L 63.588955,217.06144 L 183.95225,240.83168 C 192.09196,241.96349 193.81916,239.82901 195.62879,233.56602 L 219.74488,75.325282 L 191.14458,226.40538 z "
   id="path3075"
   sodipodi:nodetypes="ccccccc" /><path
   sodipodi:nodetypes="cccc"
   id="path2212"
   d="M 189.76837,7.082875 L 174.33826,46.185206 C 174.34733,47.196952 174.56618,49.097423 177.2695,49.814544 L 225.51795,58.868327"
   style="fill:none;fill-opacity:0.75;fill-rule:evenodd;stroke:#000000;stroke-width:4.52679777;stroke-linecap:butt;stroke-linejoin:round;stroke-miterlimit:4;stroke-dasharray:none;stroke-opacity:1" /><path
   style="fill:url(#linearGradient2209);fill-opacity:1;fill-rule:evenodd;stroke:none;stroke-width:1px;stroke-linecap:butt;stroke-linejoin:miter;stroke-opacity:1;overflow:visible"
   d="M 189.98687,7.8281162 L 175.86635,44.645619 C 175.52326,45.396158 175.59862,46.874697 176.9488,47.598748 L 225.48273,57.608394"
   id="path2202"
   sodipodi:nodetypes="cccc" /><path
   style="opacity:0.13736264;color:#000000;fill:#000000;fill-opacity:1;fill-rule:nonzero;stroke:#000000;stroke-width:9.50013065;stroke-linecap:butt;stroke-linejoin:miter;marker:none;marker-start:none;marker-mid:none;marker-end:none;stroke-miterlimit:4;stroke-dasharray:none;stroke-dashoffset:0;stroke-opacity:1;visibility:visible;display:inline;overflow:visible"
   d="M 77.214818,42.073067 C 60.905668,42.855427 47.384372,56.224327 44.027318,72.010567 C 41.258882,77.696247 40.118518,87.042387 41.839818,93.260567 C 36.287014,93.744327 30.92118,94.856687 26.214818,97.448067 C 26.214818,118.51011 26.214816,139.57351 26.214818,160.63557 C 27.110908,166.86753 23.370506,175.78801 30.902318,178.88557 C 51.555718,186.47675 74.242492,185.31893 95.902318,184.69807 C 108.95211,182.98121 124.5799,184.11177 134.96482,175.01057 C 135.69616,153.31693 135.06778,131.45171 135.27732,109.69807 C 134.18453,105.18101 137.87434,97.664567 132.58982,95.635567 C 128.6888,94.875907 124.77578,94.236327 120.83982,93.760567 C 121.48022,91.861987 121.34994,89.446587 120.08982,86.510567 C 119.52814,68.263947 110.65072,46.669287 90.652318,43.135567 C 87.411882,42.437627 84.089128,42.135727 80.777318,42.135567 C 79.591886,42.060167 78.374884,42.017427 77.214818,42.073067 z M 80.277318,57.073067 C 95.458082,56.534307 103.67134,73.581967 104.46482,87.010567 C 103.75848,89.096427 103.57731,90.915607 103.83982,92.448067 C 90.290246,91.845067 76.66402,92.171607 63.152318,92.260567 C 60.993306,92.487327 58.780818,92.617487 56.527318,92.698067 C 56.519962,78.092487 62.027866,60.446387 77.964818,57.323067 C 78.745162,57.208987 79.530724,57.099567 80.277318,57.073067 z "
   id="path1431" /><g
   id="g5542"
   transform="matrix(4.115771,0,0,4.115771,-26.00778,-8.490833)"><path
     sodipodi:nodetypes="ccccc"
     id="rect3304"
     d="M 10.471344,23.41729 C 10.471344,21.636122 36.970512,21.715832 36.970512,23.41729 L 36.970512,41.941424 C 36.970512,45.524356 10.471344,45.848798 10.471344,41.941424 L 10.471344,23.41729 z "
     style="color:#000000;fill:url(#linearGradient5551);fill-opacity:1;fill-rule:nonzero;stroke:#393316;stroke-width:1.15411341;stroke-linecap:butt;stroke-linejoin:miter;marker:none;marker-start:none;marker-mid:none;marker-end:none;stroke-miterlimit:4;stroke-dasharray:none;stroke-dashoffset:0;stroke-opacity:1;visibility:visible;display:inline;overflow:visible" /><path
     sodipodi:nodetypes="ccccc"
     id="path4033"
     d="M 11.013345,23.701065 C 11.013345,21.962288 36.428514,22.0401 36.428514,23.701065 L 36.428514,23.701065 C 36.428514,25.448515 11.013345,25.442015 11.013345,23.701065 L 11.013345,23.701065 z "
     style="color:#000000;fill:#ffffff;fill-opacity:0.39800995;fill-rule:nonzero;stroke:none;stroke-width:2;stroke-linecap:butt;stroke-linejoin:miter;marker:none;marker-start:none;marker-mid:none;marker-end:none;stroke-miterlimit:4;stroke-dashoffset:0;stroke-opacity:1;visibility:visible;display:inline;overflow:visible" /><path
     sodipodi:nodetypes="csczcss"
     id="path4761"
     d="M 23.719218,9.9827813 C 17.015881,9.9827813 14.081445,15.489667 14.081445,23.091275 C 14.081445,23.982637 17.862652,24.256597 17.862652,23.091275 C 17.605665,17.700851 20.050477,13.624948 23.719218,13.624948 C 27.38796,13.624948 29.575784,17.440681 29.575784,22.840423 C 29.575784,24.368992 33.35699,24.004229 33.35699,22.840423 C 33.35699,15.238815 30.630727,9.9827813 23.719218,9.9827813 z "
     style="opacity:1;color:#000000;fill:url(#linearGradient5553);fill-opacity:1;fill-rule:nonzero;stroke:#393316;stroke-width:1.15411341;stroke-linecap:butt;stroke-linejoin:miter;marker:none;marker-start:none;marker-mid:none;marker-end:none;stroke-miterlimit:4;stroke-dasharray:none;stroke-dashoffset:0;stroke-opacity:1;visibility:visible;display:inline;overflow:visible" /><path
     sodipodi:nodetypes="cc"
     id="path4769"
     d="M 11.306755,23.902568 C 19.989369,26.270554 33.041161,25.585876 36.297141,23.908553"
     style="fill:none;fill-opacity:1;fill-rule:evenodd;stroke:url(#linearGradient5555);stroke-width:0.84994984px;stroke-linecap:round;stroke-linejoin:miter;stroke-opacity:1" /><path
     sodipodi:nodetypes="ccccc"
     id="rect5513"
     d="M 11.445263,25.208139 C 11.445263,25.208139 16.082568,26.490798 20.325209,26.096134 L 20.325209,43.658693 C 20.325209,43.658693 13.714583,43.560027 11.445263,41.685372 L 11.445263,25.208139 z "
     style="color:#000000;fill:url(#linearGradient5557);fill-opacity:1;fill-rule:nonzero;stroke:none;stroke-width:1;stroke-linecap:round;stroke-linejoin:miter;marker:none;marker-start:none;marker-mid:none;marker-end:none;stroke-miterlimit:4;stroke-dashoffset:0;stroke-opacity:1;visibility:visible;display:inline;overflow:visible" /><path
     sodipodi:nodetypes="csccccsc"
     id="rect5524"
     d="M 23.923477,28.576178 C 21.839111,28.576178 20.150478,30.265484 20.150478,32.35068 C 20.150478,33.619941 20.816152,34.691728 21.776771,35.376789 L 20.161067,41.242098 L 26.818278,41.786934 L 25.544328,35.458661 C 26.525801,34.776245 27.696476,33.63615 27.696476,32.35068 C 27.696476,30.265484 26.007842,28.576178 23.923477,28.576178 z "
     style="color:#000000;fill:#ffffff;fill-opacity:1;fill-rule:nonzero;stroke:none;stroke-width:1;stroke-linecap:round;stroke-linejoin:miter;marker:none;marker-start:none;marker-mid:none;marker-end:none;stroke-miterlimit:4;stroke-dashoffset:0;stroke-opacity:1;visibility:visible;display:inline;overflow:visible" /><path
     sodipodi:nodetypes="csccccsc"
     id="path5532"
     d="M 22.938269,28.541295 C 20.935664,28.541295 19.313269,30.16369 19.313269,32.166295 C 19.313269,33.385283 20.544827,34.61195 21.467765,35.269877 L 20.125769,41.228795 L 25.719519,41.228795 L 24.525522,35.301127 C 25.468496,34.645741 26.563269,33.40085 26.563269,32.166295 C 26.563269,30.16369 24.940873,28.541295 22.938269,28.541295 z "
     style="color:#000000;fill:#424242;fill-opacity:1;fill-rule:nonzero;stroke:none;stroke-width:1;stroke-linecap:round;stroke-linejoin:miter;marker:none;marker-start:none;marker-mid:none;marker-end:none;stroke-miterlimit:4;stroke-dashoffset:0;stroke-opacity:1;visibility:visible;display:inline;overflow:visible" /></g></svg>