<?xml version="1.0" encoding="UTF-8" standalone="no"?>
<!-- Created with Sodipodi ("http://www.sodipodi.com/") -->
<svg
   xmlns:a="http://ns.adobe.com/AdobeSVGViewerExtensions/3.0/"
   xmlns:dc="http://purl.org/dc/elements/1.1/"
   xmlns:cc="http://web.resource.org/cc/"
   xmlns:rdf="http://www.w3.org/1999/02/22-rdf-syntax-ns#"
   xmlns:svg="http://www.w3.org/2000/svg"
   xmlns="http://www.w3.org/2000/svg"
   xmlns:xlink="http://www.w3.org/1999/xlink"
   xmlns:sodipodi="http://inkscape.sourceforge.net/DTD/sodipodi-0.dtd"
   xmlns:inkscape="http://www.inkscape.org/namespaces/inkscape"
   width="128"
   height="128"
   viewBox="0 0 256 256"
   style="overflow:visible;enable-background:new 0 0 256 256"
   xml:space="preserve"
   id="svg153"
   sodipodi:version="0.32"
   sodipodi:docname="gnome-mime-application-msword.svg"
   sodipodi:docbase="/data/img/icons/Chimera/scalable/mimetypes/office"
   inkscape:version="0.43"
   version="1.0"><metadata
   id="metadata29"><rdf:RDF><cc:Work
       rdf:about=""><dc:format>image/svg+xml</dc:format><dc:type
         rdf:resource="http://purl.org/dc/dcmitype/StillImage" /></cc:Work></rdf:RDF></metadata>
  <defs
   id="defs222"><linearGradient
     inkscape:collect="always"
     id="linearGradient5609"><stop
       style="stop-color:#ffffff;stop-opacity:1;"
       offset="0"
       id="stop5611" /><stop
       style="stop-color:#ffffff;stop-opacity:0;"
       offset="1"
       id="stop5613" /></linearGradient><linearGradient
     inkscape:collect="always"
     xlink:href="#linearGradient5609"
     id="linearGradient5688"
     gradientUnits="userSpaceOnUse"
     x1="-37.551353"
     y1="16.355305"
     x2="-37.551353"
     y2="36.116608" /><linearGradient
     inkscape:collect="always"
     id="linearGradient5599"><stop
       style="stop-color:#ffffff;stop-opacity:1;"
       offset="0"
       id="stop5601" /><stop
       style="stop-color:#ffffff;stop-opacity:0;"
       offset="1"
       id="stop5603" /></linearGradient><linearGradient
     inkscape:collect="always"
     xlink:href="#linearGradient5599"
     id="linearGradient5686"
     gradientUnits="userSpaceOnUse"
     x1="-56.659863"
     y1="18.405304"
     x2="-56.659863"
     y2="36.417706" /><linearGradient
     inkscape:collect="always"
     id="linearGradient5589"><stop
       style="stop-color:#ffffff;stop-opacity:0.52763820"
       offset="0"
       id="stop5591" /><stop
       style="stop-color:#ffffff;stop-opacity:0;"
       offset="1"
       id="stop5593" /></linearGradient><linearGradient
     inkscape:collect="always"
     xlink:href="#linearGradient5589"
     id="linearGradient5684"
     gradientUnits="userSpaceOnUse"
     x1="-37.720459"
     y1="6.8042164"
     x2="-37.720467"
     y2="17.518354" /><linearGradient
     inkscape:collect="always"
     id="linearGradient5577"><stop
       style="stop-color:#ffffff;stop-opacity:0.45728642"
       offset="0"
       id="stop5579" /><stop
       style="stop-color:#ffffff;stop-opacity:0;"
       offset="1"
       id="stop5581" /></linearGradient><linearGradient
     inkscape:collect="always"
     xlink:href="#linearGradient5577"
     id="linearGradient5682"
     gradientUnits="userSpaceOnUse"
     x1="-57.817585"
     y1="9.3724308"
     x2="-57.817585"
     y2="20.300785" /><linearGradient
     inkscape:collect="always"
     id="linearGradient5649"><stop
       style="stop-color:#5a7ce3;stop-opacity:1;"
       offset="0"
       id="stop5651" /><stop
       style="stop-color:#3353b6;stop-opacity:1.0000000"
       offset="1"
       id="stop5653" /></linearGradient><linearGradient
     inkscape:collect="always"
     xlink:href="#linearGradient5649"
     id="linearGradient5680"
     gradientUnits="userSpaceOnUse"
     x1="-60.806911"
     y1="38.917446"
     x2="-50.995358"
     y2="38.917446" /><linearGradient
     inkscape:collect="always"
     id="linearGradient5657"><stop
       style="stop-color:#e1e431;stop-opacity:1;"
       offset="0"
       id="stop5659" /><stop
       style="stop-color:#b7ba18;stop-opacity:1.0000000"
       offset="1"
       id="stop5661" /></linearGradient><linearGradient
     inkscape:collect="always"
     xlink:href="#linearGradient5657"
     id="linearGradient5678"
     gradientUnits="userSpaceOnUse"
     x1="-43.468815"
     y1="36.406410"
     x2="-31.033216"
     y2="36.406410" /><linearGradient
     inkscape:collect="always"
     id="linearGradient5617"><stop
       style="stop-color:#d41f1f;stop-opacity:1.0000000"
       offset="0"
       id="stop5619" /><stop
       style="stop-color:#bb1a1a;stop-opacity:1.0000000"
       offset="1"
       id="stop5621" /></linearGradient><linearGradient
     inkscape:collect="always"
     xlink:href="#linearGradient5617"
     id="linearGradient5676"
     gradientUnits="userSpaceOnUse"
     x1="-60.687336"
     y1="22.296789"
     x2="-51.232391"
     y2="22.296789" /><linearGradient
     inkscape:collect="always"
     id="linearGradient5641"><stop
       style="stop-color:#2fb732;stop-opacity:1;"
       offset="0"
       id="stop5643" /><stop
       style="stop-color:#269a2a;stop-opacity:1.0000000"
       offset="1"
       id="stop5645" /></linearGradient><linearGradient
     inkscape:collect="always"
     xlink:href="#linearGradient5641"
     id="linearGradient5674"
     gradientUnits="userSpaceOnUse"
     x1="-42.631805"
     y1="20.503193"
     x2="-32.467346"
     y2="20.503193" /><linearGradient
     id="linearGradient7648"
     gradientUnits="userSpaceOnUse"
     x1="21.9326"
     y1="24.6274"
     x2="21.9326"
     y2="7.1091"
     style="stroke-dasharray:none;stroke-miterlimit:4.0000000;stroke-width:1.2166667"><stop
       offset="0"
       style="stop-color:#8595bc;stop-opacity:1;"
       id="stop7650" /><stop
       offset="1"
       style="stop-color:#041a3b;stop-opacity:1;"
       id="stop7652" /></linearGradient><linearGradient
     id="linearGradient11317"><stop
       id="stop11319"
       offset="0.00000000"
       style="stop-color:#000000;stop-opacity:0.48958334;" /><stop
       id="stop11321"
       offset="1"
       style="stop-color:#000000;stop-opacity:0;" /></linearGradient><linearGradient
     inkscape:collect="always"
     xlink:href="#linearGradient11317"
     id="linearGradient1369"
     gradientUnits="userSpaceOnUse"
     gradientTransform="matrix(3.239914,0,0,1.881907,15.04708,-83.77053)"
     x1="49.781834"
     y1="173.45737"
     x2="62.504456"
     y2="157.02299" /><linearGradient
     id="linearGradient2211"><stop
       id="stop2213"
       offset="0"
       style="stop-color:#dedede;stop-opacity:1;" /><stop
       id="stop2215"
       offset="1"
       style="stop-color:#ffffff;stop-opacity:1;" /></linearGradient><linearGradient
     id="linearGradient10457"><stop
       id="stop10459"
       offset="0"
       style="stop-color:#000000;stop-opacity:0.71428573;" /><stop
       id="stop10461"
       offset="1"
       style="stop-color:#000000;stop-opacity:0;" /></linearGradient><radialGradient
     inkscape:collect="always"
     xlink:href="#linearGradient10457"
     id="radialGradient1351"
     gradientUnits="userSpaceOnUse"
     gradientTransform="scale(2.110067,0.473919)"
     cx="24.734711"
     cy="210.29031"
     fx="24.734711"
     fy="210.29031"
     r="20.929369" /><linearGradient
     id="XMLID_2_"
     gradientUnits="userSpaceOnUse"
     x1="101.2012"
     y1="49.471699"
     x2="130.5948"
     y2="153.53371"
     gradientTransform="matrix(1.195649,0,0,1.195649,-16.98509,-42.69663)">
      <stop
   offset="0"
   style="stop-color:#D4D4D4"
   id="stop164" />
      <stop
   offset="1"
   style="stop-color:#F0F0F0"
   id="stop165" />
      <a:midPointStop
   offset="0"
   style="stop-color:#D4D4D4"
   id="midPointStop166" />
      <a:midPointStop
   offset="0.5"
   style="stop-color:#D4D4D4"
   id="midPointStop167" />
      <a:midPointStop
   offset="1"
   style="stop-color:#F0F0F0"
   id="midPointStop168" />
    </linearGradient><linearGradient
     inkscape:collect="always"
     xlink:href="#linearGradient2211"
     id="linearGradient2209"
     x1="213.3185"
     y1="69.450134"
     x2="199.65854"
     y2="69.350571"
     gradientUnits="userSpaceOnUse"
     gradientTransform="matrix(1.194834,4.415806e-2,-4.415806e-2,1.194834,-54.48974,-54.12795)" /><linearGradient
     inkscape:collect="always"
     xlink:href="#linearGradient7648"
     id="linearGradient1538"
     gradientUnits="userSpaceOnUse"
     gradientTransform="matrix(1.098989,-1.682659e-17,2.583187e-17,-0.797757,-1.953865,37.324)"
     x1="21.9326"
     y1="24.627399"
     x2="21.9326"
     y2="7.1090999" /></defs>
  <sodipodi:namedview
   id="base"
   inkscape:zoom="4.7494004"
   inkscape:cx="72.012705"
   inkscape:cy="68.053823"
   inkscape:window-width="797"
   inkscape:window-height="575"
   inkscape:window-x="31"
   inkscape:window-y="0"
   inkscape:current-layer="svg153" />
  <path
   transform="matrix(2.707034,0.148295,-0.263566,2.548187,9.435841,-36.04555)"
   d="M 96.354244 99.660515 A 44.162361 9.9188194 0 1 1  8.0295219,99.660515 A 44.162361 9.9188194 0 1 1  96.354244 99.660515 z"
   sodipodi:ry="9.9188194"
   sodipodi:rx="44.162361"
   sodipodi:cy="99.660515"
   sodipodi:cx="52.191883"
   id="path9697"
   style="opacity:0.60792954;fill:url(#radialGradient1351);fill-opacity:1;stroke:none;stroke-width:3;stroke-linecap:round;stroke-linejoin:round;stroke-miterlimit:4;stroke-opacity:1"
   sodipodi:type="arc" /><path
   id="path8926"
   d="M 189.86622,196.78795 L 195.66591,242.66018 L 232.75771,222.99027 L 189.86622,196.78795 z "
   style="fill:url(#linearGradient1369);fill-opacity:1;fill-rule:evenodd;stroke:none;stroke-width:1px;stroke-linecap:butt;stroke-linejoin:miter;stroke-opacity:1"
   sodipodi:nodetypes="cccc" />
  
  <path
   style="font-size:12px;fill:url(#XMLID_2_);stroke:#000000;stroke-width:4.9579215;stroke-miterlimit:4;stroke-dasharray:none;stroke-opacity:1"
   d="M 29.344375,208.44191 C 28.557356,212.1155 30.106631,213.87723 34.168438,214.3122 L 185.16789,242.08743 C 190.48964,243.27525 196.16959,240.87704 197.20835,236.95289 L 224.664,61.028715 C 225.25703,59.564933 224.24795,57.745126 222.88284,55.569295 L 190.48353,9.52304 C 189.16548,7.9985518 186.96633,6.4740636 184.13779,5.9565639 L 73.624745,10.143028 C 70.875349,9.5923319 67.614111,11.654127 66.281598,14.994614 L 29.344375,208.44191 z "
   id="path169"
   sodipodi:nodetypes="ccccccccccc" /><path
   sodipodi:nodetypes="cc"
   id="path13660"
   d="M 205.25545,44.950931 L 76.835234,47.368614"
   style="fill:#000000;fill-opacity:0.15789466;fill-rule:evenodd;stroke:#000000;stroke-width:4.98235083px;stroke-linecap:square;stroke-linejoin:miter;stroke-opacity:0.19298245;display:inline" /><path
   sodipodi:nodetypes="cc"
   id="path13662"
   d="M 170.0783,76.454662 L 72.463097,74.343003"
   style="fill:#000000;fill-opacity:0.15789466;fill-rule:evenodd;stroke:#000000;stroke-width:4.98234844px;stroke-linecap:square;stroke-linejoin:miter;stroke-opacity:0.19298245;display:inline" /><path
   sodipodi:nodetypes="cc"
   id="path13668"
   d="M 181.53901,171.14063 L 56.376063,160.73894"
   style="fill:#000000;fill-opacity:0.15789466;fill-rule:evenodd;stroke:#000000;stroke-width:4.98234844px;stroke-linecap:square;stroke-linejoin:miter;stroke-opacity:0.19298245;display:inline" /><path
   sodipodi:nodetypes="cc"
   id="path13682"
   d="M 117.72289,195.86533 L 51.241089,186.6934"
   style="fill:#000000;fill-opacity:0.15789466;fill-rule:evenodd;stroke:#000000;stroke-width:4.98234844px;stroke-linecap:square;stroke-linejoin:miter;stroke-opacity:0.19298245;display:inline" /><path
   sodipodi:nodetypes="cc"
   id="path2464"
   d="M 203.94889,61.765268 L 74.743461,60.744599"
   style="fill:#000000;fill-opacity:0.15789466;fill-rule:evenodd;stroke:#000000;stroke-width:4.98235083px;stroke-linecap:square;stroke-linejoin:miter;stroke-opacity:0.19298245;display:inline" /><path
   sodipodi:nodetypes="cc"
   id="path2470"
   d="M 184.21293,155.53345 L 59.049909,147.18622"
   style="fill:#000000;fill-opacity:0.15789466;fill-rule:evenodd;stroke:#000000;stroke-width:4.98234844px;stroke-linecap:square;stroke-linejoin:miter;stroke-opacity:0.19298245;display:inline" /><path
   sodipodi:nodetypes="cc"
   id="path2472"
   d="M 177.84299,187.22301 L 53.7944,173.47803"
   style="fill:#000000;fill-opacity:0.15789466;fill-rule:evenodd;stroke:#000000;stroke-width:4.98234844px;stroke-linecap:square;stroke-linejoin:miter;stroke-opacity:0.19298245;display:inline" />
  <path
   style="font-size:12px;fill:none"
   d="M 6.1064917,187.5664 L 81.19211,22.955289 C 83.237867,16.76541 101.55762,5.8168442 109.64619,7.2576026 L 250.58701,19.106493 C 248.93463,18.110517 246.98214,17.359648 244.78691,16.96867 L 107.11021,3.3322832 C 99.020441,1.8915248 80.701893,12.841287 78.657332,19.029972 L 3.5705181,183.64227 C 2.4047598,187.17063 3.5023661,190.69779 6.1579043,193.34617 C 5.5146451,191.5216 5.4512752,189.5464 6.1064917,187.5664 z "
   id="path170" />
  <g
   id="g171"
   style="font-size:12px;stroke:#000000" />
  <path
   style="font-size:12px;fill:#cccccc;fill-opacity:1"
   d="M 186.55419,217.53746 C 184.1416,221.7938 181.36487,223.53626 173.01249,223.3731 L 62.724143,217.11033 L 180.6795,232.94729 C 188.81287,234.12389 190.55178,231.99893 192.39585,225.74599 L 221.23067,64.918948 L 186.55419,217.53746 z "
   id="path172"
   sodipodi:nodetypes="ccccccc" />
  
  
  
  
  <g
   id="Layer_2"
   style="stroke:#000000">
    <path
   style="fill:none;stroke:none"
   d="M 256,256 L 0,256 L 0,0 L 256,0 L 256,256 z "
   id="path220" />
  </g>
<path
   style="opacity:1;color:#000000;fill:#b3b3b3;fill-opacity:1;fill-rule:nonzero;stroke:none;stroke-width:1;stroke-linecap:butt;stroke-linejoin:miter;marker:none;marker-start:none;marker-mid:none;marker-end:none;stroke-miterlimit:4;stroke-dasharray:none;stroke-dashoffset:0;stroke-opacity:1;visibility:visible;display:inline;overflow:visible"
   d="M 181.45799,49.934332 L 182.44436,61.864547 C 182.74941,64.063218 184.96458,65.18331 186.44929,65.200452 L 225.26329,59.02742 L 181.45799,49.934332 z "
   id="path2204"
   sodipodi:nodetypes="ccccc" /><path
   style="font-size:12px;fill:#000000;fill-opacity:1;overflow:visible"
   d="M 191.14458,226.40538 C 189.63672,231.23179 186.93032,234.11718 178.79054,232.98417 L 63.588955,217.06144 L 183.95225,240.83168 C 192.09196,241.96349 193.81916,239.82901 195.62879,233.56602 L 219.74488,75.325282 L 191.14458,226.40538 z "
   id="path3075"
   sodipodi:nodetypes="ccccccc" /><path
   sodipodi:nodetypes="cccc"
   id="path2212"
   d="M 189.76837,7.082875 L 174.33826,46.185206 C 174.34733,47.196952 174.56618,49.097423 177.2695,49.814544 L 225.51795,58.868327"
   style="fill:none;fill-opacity:0.75;fill-rule:evenodd;stroke:#000000;stroke-width:4.52679777;stroke-linecap:butt;stroke-linejoin:round;stroke-miterlimit:4;stroke-dasharray:none;stroke-opacity:1" /><path
   style="fill:url(#linearGradient2209);fill-opacity:1;fill-rule:evenodd;stroke:none;stroke-width:1px;stroke-linecap:butt;stroke-linejoin:miter;stroke-opacity:1;overflow:visible"
   d="M 189.98687,7.8281162 L 175.86635,44.645619 C 175.52326,45.396158 175.59862,46.874697 176.9488,47.598748 L 225.48273,57.608394"
   id="path2202"
   sodipodi:nodetypes="cccc" /><g
   id="g5376"
   style="opacity:0.66477272;display:inline"
   transform="matrix(4.161634,0.203305,-0.101058,3.69505,36.38365,30.68816)"><g
     id="g1519"
     transform="matrix(0.995704,1.186922e-4,-0.155457,1.004296,4.769709,-7.48501e-2)"><g
       id="g7654"
       transform="matrix(0.608902,-3.278164e-3,1.924285e-6,0.606298,12.82506,10.6298)"><path
         id="path7644"
         d="M 5.512695,30 L 39.643234,30 L 39.643234,19.627375 L 5.512695,19.627375 L 5.512695,30 z "
         style="fill:url(#linearGradient1538);fill-opacity:1;fill-rule:nonzero;stroke:none;stroke-width:1.2166667;stroke-miterlimit:4" /><path
         style="fill:#729fcf;fill-opacity:1;fill-rule:nonzero;stroke:none;stroke-width:1.2166667;stroke-miterlimit:4"
         d="M 5.512695,5.6791358 L 39.643234,5.6791358 L 39.643234,19.627375 L 5.512695,19.627375 L 5.512695,5.6791358 z "
         id="path16203" /><g
         id="g16205"
         style="fill-rule:nonzero;stroke:#000000;stroke-width:2.00241709;stroke-miterlimit:4"
         transform="matrix(1.189217,0,0,1.189217,-3.525355,-6.535408)"><g
           id="g16207"><path
             style="opacity:0.04999994;fill:#e8f52f;stroke:none"
             d="M 18.4,15.4 C 18.4,17.6 16.6,19.5 14.3,19.5 C 12.1,19.5 10.2,17.7 10.2,15.4 C 10.2,13.2 12,11.3 14.3,11.3 C 16.5,11.3 18.4,13.1 18.4,15.4 z "
             id="path16209" /><path
             style="opacity:0.20829994;fill:#ecf751;stroke:none"
             d="M 18,15.4 C 18,17.4 16.4,19.1 14.3,19.1 C 12.3,19.1 10.6,17.5 10.6,15.4 C 10.6,13.4 12.2,11.7 14.3,11.7 C 16.3,11.7 18,13.3 18,15.4 L 18,15.4 z "
             id="path16211" /><path
             style="opacity:0.36669994;fill:#f0f972;stroke:none"
             d="M 17.6,15.4 C 17.6,17.2 16.1,18.7 14.3,18.7 C 12.5,18.7 11,17.2 11,15.4 C 11,13.6 12.5,12.1 14.3,12.1 C 16.1,12.1 17.6,13.6 17.6,15.4 L 17.6,15.4 z "
             id="path16213" /><path
             style="opacity:0.525;fill:#f4fa95;stroke:none"
             d="M 17.2,15.4 C 17.2,17 15.9,18.3 14.3,18.3 C 12.7,18.3 11.4,17 11.4,15.4 C 11.4,13.8 12.7,12.5 14.3,12.5 C 15.9,12.5 17.2,13.8 17.2,15.4 z "
             id="path16215" /><path
             style="opacity:0.6833;fill:#f7fcb7;stroke:none"
             d="M 16.8,15.4 C 16.8,16.8 15.7,17.9 14.3,17.9 C 12.9,17.9 11.8,16.8 11.8,15.4 C 11.8,14 12.9,12.9 14.3,12.9 C 15.7,12.9 16.8,14 16.8,15.4 L 16.8,15.4 z "
             id="path16217" /><path
             style="opacity:0.8417;fill:#fbfddb;stroke:none"
             d="M 16.4,15.4 C 16.4,16.6 15.4,17.5 14.3,17.5 C 13.2,17.5 12.2,16.5 12.2,15.4 C 12.2,14.3 13.2,13.3 14.3,13.3 C 15.4,13.3 16.4,14.3 16.4,15.4 z "
             id="path16219" /><path
             style="fill:#ffffff;stroke:none"
             d="M 16,15.4 C 16,16.4 15.2,17.2 14.2,17.2 C 13.2,17.2 12.4,16.4 12.4,15.4 C 12.4,14.4 13.2,13.6 14.2,13.6 C 15.2,13.6 16,14.4 16,15.4 L 16,15.4 z "
             id="path16221" /></g></g><path
         style="opacity:0.3;fill-rule:nonzero;stroke:none;stroke-width:1.2166667;stroke-miterlimit:4"
         d="M 25.015859,21.649044 L 33.697148,21.649044 L 35.362052,22.124732 L 32.507931,22.124732 C 32.507931,22.124732 35.362052,22.362574 36.789115,24.146401 C 38.216174,25.811305 35.12421,27.832976 35.12421,27.832976 C 35.12421,27.832976 35.12421,27.832976 35.12421,27.832976 C 35.005288,27.47621 34.291756,24.622087 32.864696,23.43287 C 31.794399,22.481496 30.605182,22.243652 30.605182,22.243652 L 25.015859,22.243652 L 25.015859,21.767966 L 25.015859,21.649044 z "
         id="path16223" /><path
         style="opacity:0.3;fill-rule:nonzero;stroke:none;stroke-width:1.2166667;stroke-miterlimit:4"
         d="M 30.724106,22.362574 L 25.729391,22.362574 L 35.005288,27.595131 L 30.724106,22.362574 L 30.724106,22.362574 z "
         id="path16225" /><path
         style="fill:#515151;fill-rule:nonzero;stroke:none;stroke-width:1.2166667;stroke-miterlimit:4"
         d="M 25.015859,21.767966 L 33.697148,21.767966 L 35.005288,20.935513 L 32.151167,20.935513 C 32.151167,20.935513 34.767443,20.459827 35.12421,17.486782 C 35.480973,14.513739 31.080869,11.183931 31.080869,11.183931 C 31.080869,11.183931 31.080869,11.183931 31.080869,11.302853 C 31.19979,12.016383 32.389007,17.011096 31.556557,18.913846 C 31.19979,20.578747 30.129495,20.935513 30.129495,20.935513 L 24.659094,20.935513 L 24.896938,21.767966 L 25.015859,21.767966 z "
         id="path16227" /><path
         style="fill:#515151;fill-rule:nonzero;stroke:none;stroke-width:1.2166667;stroke-miterlimit:4"
         d="M 30.248418,20.459827 L 25.253704,20.459827 L 31.19979,11.421773 L 30.248418,20.459827 z "
         id="path16229" /></g><rect
       style="opacity:1;color:#000000;fill:none;fill-opacity:1;fill-rule:nonzero;stroke:#9e9e9e;stroke-width:0.99999863;stroke-linecap:butt;stroke-linejoin:miter;marker:none;marker-start:none;marker-mid:none;marker-end:none;stroke-miterlimit:4;stroke-dasharray:none;stroke-dashoffset:0;stroke-opacity:1;visibility:visible;display:inline;overflow:visible"
       id="rect8163"
       width="20.195536"
       height="13.911405"
       x="16.508501"
       y="14.485752"
       ry="0" /></g></g><g
   id="g5559"
   transform="matrix(2.867227,0.972534,-0.972534,2.867227,242.5899,73.04017)"><path
     sodipodi:nodetypes="cccccc"
     id="rect3522"
     d="M -38.342084,8.3045251 C -40.811447,8.5989261 -43.259768,9.4281381 -45.698672,10.271985 L -45.698672,24.671508 C -40.603502,23.298304 -35.109779,22.378508 -29.70237,24.757049 L -29.70237,10.072388 C -32.643174,8.3256991 -35.505068,7.9662931 -38.342084,8.3045251 z "
     style="color:#000000;fill:url(#linearGradient5674);fill-opacity:1;fill-rule:nonzero;stroke:#0e4d0e;stroke-width:1.65470541;stroke-linecap:butt;stroke-linejoin:round;marker:none;marker-start:none;marker-mid:none;marker-end:none;stroke-miterlimit:4;stroke-dasharray:none;stroke-dashoffset:4.5038178;stroke-opacity:1;visibility:visible;display:inline;overflow:visible" /><path
     sodipodi:nodetypes="ccccc"
     id="path3531"
     d="M -63.86203,10.072388 L -63.86203,24.757049 C -60.40018,29.168879 -54.8339,27.338887 -48.40749,25.441383 L -48.40749,11.155916 C -53.4714,12.825249 -58.56056,13.922284 -63.86203,10.072388 z "
     style="color:#000000;fill:url(#linearGradient5676);fill-opacity:1;fill-rule:nonzero;stroke:#581111;stroke-width:1.65470541;stroke-linecap:butt;stroke-linejoin:round;marker:none;marker-start:none;marker-mid:none;marker-end:none;stroke-miterlimit:4;stroke-dasharray:none;stroke-dashoffset:4.5038178;stroke-opacity:1;visibility:visible;display:inline;overflow:visible" /><path
     sodipodi:nodetypes="cccccc"
     id="path3533"
     d="M -38.113973,26.125717 C -40.594578,26.06121 -43.156804,26.588597 -45.698672,27.237759 L -45.698672,41.722824 C -40.218089,40.229101 -34.674853,39.665872 -29.70237,44.232047 L -29.70237,29.262247 C -32.333104,27.03316 -35.170444,26.202262 -38.113973,26.125717 z "
     style="color:#000000;fill:url(#linearGradient5678);fill-opacity:1;fill-rule:nonzero;stroke:#565510;stroke-width:2.06838179;stroke-linecap:butt;stroke-linejoin:round;marker:none;marker-start:none;marker-mid:none;marker-end:none;stroke-miterlimit:4;stroke-dasharray:none;stroke-dashoffset:4.5038178;stroke-opacity:1;visibility:visible;display:inline;overflow:visible" /><path
     sodipodi:nodetypes="ccccc"
     id="path3535"
     d="M -48.40749,27.922093 C -53.96916,29.514016 -59.39976,31.287859 -63.86203,29.262247 L -63.86203,44.232047 C -59.37027,46.271048 -53.96111,44.204739 -48.40749,42.464185 L -48.40749,27.922093 z "
     style="color:#000000;fill:url(#linearGradient5680);fill-opacity:1;fill-rule:nonzero;stroke:#0f274f;stroke-width:1.65470541;stroke-linecap:butt;stroke-linejoin:round;marker:none;marker-start:none;marker-mid:none;marker-end:none;stroke-miterlimit:4;stroke-dasharray:none;stroke-dashoffset:4.5038178;stroke-opacity:1;visibility:visible;display:inline;overflow:visible" /><path
     transform="translate(-6.410841e-8,-3.937494e-6)"
     sodipodi:nodetypes="ccccc"
     id="path5575"
     d="M -63.86203,10.072388 L -63.86203,18.600796 C -57.993064,16.428035 -54.883745,17.976604 -48.40749,19.28513 L -48.40749,11.155916 C -53.4714,12.825249 -58.56056,13.922284 -63.86203,10.072388 z "
     style="opacity:0.7263682;color:#000000;fill:url(#linearGradient5682);fill-opacity:1;fill-rule:nonzero;stroke:none;stroke-width:0.20803756;stroke-linecap:butt;stroke-linejoin:round;marker:none;marker-start:none;marker-mid:none;marker-end:none;stroke-miterlimit:4;stroke-dasharray:none;stroke-dashoffset:4.5038178;stroke-opacity:1;visibility:visible;display:inline;overflow:visible" /><path
     transform="translate(-6.410841e-8,-3.937494e-6)"
     sodipodi:nodetypes="cccccc"
     id="path5587"
     d="M -38.342084,8.3045251 C -40.811447,8.5989261 -43.259768,9.4281381 -45.698672,10.271985 L -45.698672,17.061925 C -40.617451,14.128284 -35.109779,14.768925 -29.70237,17.147466 L -29.70237,10.072388 C -32.643174,8.3256991 -35.505068,7.9662931 -38.342084,8.3045251 z "
     style="opacity:0.7761194;color:#000000;fill:url(#linearGradient5684);fill-opacity:1;fill-rule:nonzero;stroke:none;stroke-width:0.20803756;stroke-linecap:butt;stroke-linejoin:round;marker:none;marker-start:none;marker-mid:none;marker-end:none;stroke-miterlimit:4;stroke-dasharray:none;stroke-dashoffset:4.5038178;stroke-opacity:1;visibility:visible;display:inline;overflow:visible" /><path
     transform="translate(-6.410841e-8,-3.937494e-6)"
     sodipodi:nodetypes="ccccc"
     id="path5597"
     d="M -48.40749,27.922093 C -53.96916,29.514016 -59.39976,31.287859 -63.86203,29.262247 L -63.86203,38.313482 C -61.376316,34.0081 -54.828235,34.825187 -48.40749,36.54562 L -48.40749,27.922093 z "
     style="opacity:0.77114425;color:#000000;fill:url(#linearGradient5686);fill-opacity:1;fill-rule:nonzero;stroke:none;stroke-width:0.20803756;stroke-linecap:butt;stroke-linejoin:round;marker:none;marker-start:none;marker-mid:none;marker-end:none;stroke-miterlimit:4;stroke-dasharray:none;stroke-dashoffset:4.5038178;stroke-opacity:1;visibility:visible;display:inline;overflow:visible" /><path
     transform="translate(-6.410841e-8,-3.937494e-6)"
     sodipodi:nodetypes="cccccc"
     id="path5607"
     d="M -38.113973,26.125717 C -40.594578,26.06121 -43.156804,26.588597 -45.698672,27.237759 L -45.698672,33.605935 C -40.218089,32.112212 -34.674853,31.548983 -29.70237,36.115158 L -29.70237,29.262247 C -32.333104,27.03316 -35.170444,26.202262 -38.113973,26.125717 z "
     style="opacity:0.71144278;color:#000000;fill:url(#linearGradient5688);fill-opacity:1;fill-rule:nonzero;stroke:none;stroke-width:0.20803756;stroke-linecap:butt;stroke-linejoin:round;marker:none;marker-start:none;marker-mid:none;marker-end:none;stroke-miterlimit:4;stroke-dasharray:none;stroke-dashoffset:4.5038178;stroke-opacity:1;visibility:visible;display:inline;overflow:visible" /></g></svg>