<?xml version="1.0" encoding="UTF-8" standalone="no"?>
<!-- Created with Sodipodi ("http://www.sodipodi.com/") -->
<svg
   xmlns:a="http://ns.adobe.com/AdobeSVGViewerExtensions/3.0/"
   xmlns:dc="http://purl.org/dc/elements/1.1/"
   xmlns:cc="http://web.resource.org/cc/"
   xmlns:rdf="http://www.w3.org/1999/02/22-rdf-syntax-ns#"
   xmlns:svg="http://www.w3.org/2000/svg"
   xmlns="http://www.w3.org/2000/svg"
   xmlns:xlink="http://www.w3.org/1999/xlink"
   xmlns:sodipodi="http://inkscape.sourceforge.net/DTD/sodipodi-0.dtd"
   xmlns:inkscape="http://www.inkscape.org/namespaces/inkscape"
   width="128"
   height="128"
   viewBox="0 0 256 256"
   style="overflow:visible;enable-background:new 0 0 256 256"
   xml:space="preserve"
   id="svg153"
   sodipodi:version="0.32"
   sodipodi:docname="x-office-base.svg"
   sodipodi:docbase="/data/img/icons/Chimera/scalable/mimetypes/office"
   inkscape:version="0.43"
   version="1.0"><metadata
   id="metadata29"><rdf:RDF><cc:Work
       rdf:about=""><dc:format>image/svg+xml</dc:format><dc:type
         rdf:resource="http://purl.org/dc/dcmitype/StillImage" /></cc:Work></rdf:RDF></metadata>
  <defs
   id="defs222"><linearGradient
     id="linearGradient4231"><stop
       id="stop4233"
       offset="0"
       style="stop-color:#32464b;stop-opacity:1;" /><stop
       id="stop4235"
       offset="1"
       style="stop-color:#e9f0f1;stop-opacity:1;" /></linearGradient><linearGradient
     id="linearGradient2384"><stop
       style="stop-color:#e2e2e2;stop-opacity:1;"
       offset="0"
       id="stop2386" /><stop
       style="stop-color:#474747;stop-opacity:1;"
       offset="1"
       id="stop2388" /></linearGradient><linearGradient
     inkscape:collect="always"
     xlink:href="#linearGradient2384"
     id="linearGradient2447"
     gradientUnits="userSpaceOnUse"
     gradientTransform="matrix(1.429315,0,0,1,-300.246,-40.31146)"
     x1="26.712187"
     y1="106.9031"
     x2="24.318859"
     y2="96.934219" /><radialGradient
     inkscape:collect="always"
     xlink:href="#linearGradient3665"
     id="radialGradient2445"
     gradientUnits="userSpaceOnUse"
     gradientTransform="matrix(0.524032,0,0,0.486559,-371.9026,-4.721192)"
     cx="211.60207"
     cy="113.10805"
     fx="211.60207"
     fy="113.10805"
     r="53.717434" /><linearGradient
     id="linearGradient2316"><stop
       style="stop-color:#c0c0c0;stop-opacity:1;"
       offset="0"
       id="stop2318" /><stop
       style="stop-color:#373737;stop-opacity:1;"
       offset="1"
       id="stop2320" /></linearGradient><linearGradient
     inkscape:collect="always"
     xlink:href="#linearGradient2316"
     id="linearGradient2443"
     gradientUnits="userSpaceOnUse"
     gradientTransform="matrix(0.599602,0,0,0.325558,-365.1949,5.83661)"
     x1="209.51004"
     y1="278.96658"
     x2="334.97629"
     y2="435.53052" /><linearGradient
     id="linearGradient2914"><stop
       style="stop-color:#cbcbcb;stop-opacity:1;"
       offset="0"
       id="stop2916" /><stop
       style="stop-color:#474747;stop-opacity:1;"
       offset="1"
       id="stop2918" /></linearGradient><linearGradient
     inkscape:collect="always"
     xlink:href="#linearGradient2914"
     id="linearGradient2441"
     gradientUnits="userSpaceOnUse"
     gradientTransform="matrix(0.631664,0,0,0.309034,-365.1949,5.83661)"
     x1="235.75317"
     y1="285.14722"
     x2="334.75375"
     y2="437.32922" /><radialGradient
     inkscape:collect="always"
     xlink:href="#linearGradient3665"
     id="radialGradient2439"
     gradientUnits="userSpaceOnUse"
     gradientTransform="matrix(0.387179,0,0,0.504174,-365.1949,5.83661)"
     cx="264.97308"
     cy="239.3893"
     fx="264.97308"
     fy="239.3893"
     r="230.98981" /><radialGradient
     inkscape:collect="always"
     xlink:href="#linearGradient3036"
     id="radialGradient2437"
     gradientUnits="userSpaceOnUse"
     gradientTransform="matrix(0.372821,0,0,0.52359,-365.1949,5.83661)"
     cx="394.8071"
     cy="335.73883"
     fx="394.8071"
     fy="335.73883"
     r="54.393486" /><linearGradient
     inkscape:collect="always"
     xlink:href="#linearGradient3036"
     id="linearGradient2435"
     gradientUnits="userSpaceOnUse"
     gradientTransform="matrix(0.677927,0,0,0.287945,-365.1949,5.83661)"
     x1="208.90097"
     y1="608.96948"
     x2="187.99234"
     y2="646.17664" /><radialGradient
     inkscape:collect="always"
     xlink:href="#linearGradient3665"
     id="radialGradient2433"
     gradientUnits="userSpaceOnUse"
     gradientTransform="matrix(0.702612,0,0,0.277828,-365.1949,5.83661)"
     cx="314.15039"
     cy="463.8114"
     fx="314.15039"
     fy="463.8114"
     r="47.28022" /><radialGradient
     inkscape:collect="always"
     xlink:href="#linearGradient11793"
     id="radialGradient2431"
     gradientUnits="userSpaceOnUse"
     gradientTransform="matrix(0.668036,0,0,0.292208,-365.1949,5.83661)"
     cx="398.33551"
     cy="397.50015"
     fx="398.33551"
     fy="397.50015"
     r="86.741104" /><radialGradient
     inkscape:collect="always"
     xlink:href="#linearGradient11793"
     id="radialGradient2429"
     gradientUnits="userSpaceOnUse"
     gradientTransform="matrix(0.711727,0,0,0.27427,-365.1949,5.83661)"
     cx="382.02158"
     cy="483.98965"
     fx="382.02158"
     fy="483.98965"
     r="62.762577" /><linearGradient
     inkscape:collect="always"
     xlink:href="#linearGradient11793"
     id="linearGradient2427"
     gradientUnits="userSpaceOnUse"
     gradientTransform="matrix(0.38208,0,0,0.510902,-365.1949,5.83661)"
     x1="395.74567"
     y1="292.34103"
     x2="426.67255"
     y2="292.34103" /><linearGradient
     inkscape:collect="always"
     xlink:href="#linearGradient3036"
     id="linearGradient2425"
     gradientUnits="userSpaceOnUse"
     gradientTransform="matrix(0.273844,0,0,0.712835,-365.1949,5.83661)"
     x1="512.39142"
     y1="281.69412"
     x2="593.20197"
     y2="241.04013" /><radialGradient
     inkscape:collect="always"
     xlink:href="#linearGradient3036"
     id="radialGradient2423"
     gradientUnits="userSpaceOnUse"
     gradientTransform="matrix(0.615306,0,0,0.31725,-365.1949,5.83661)"
     cx="262.29004"
     cy="588.35461"
     fx="262.29004"
     fy="588.35461"
     r="57.946537" /><linearGradient
     id="linearGradient3665"><stop
       id="stop3666"
       offset="0.00000000"
       style="stop-color:#fffaf4;stop-opacity:1.0000000;" /><stop
       id="stop3667"
       offset="1.0000000"
       style="stop-color:#bcbcbc;stop-opacity:1.0000000;" /></linearGradient><linearGradient
     id="linearGradient11793"><stop
       id="stop11794"
       offset="0.00000000"
       style="stop-color:#b4a396;stop-opacity:1.0000000;" /><stop
       id="stop11795"
       offset="1.0000000"
       style="stop-color:#060505;stop-opacity:1.0000000;" /></linearGradient><linearGradient
     id="linearGradient3036"><stop
       id="stop3037"
       offset="0.00000000"
       style="stop-color:#dcc15e;stop-opacity:1.0000000;" /><stop
       id="stop3038"
       offset="1.0000000"
       style="stop-color:#8c673c;stop-opacity:1.0000000;" /></linearGradient><linearGradient
     id="linearGradient2279"><stop
       style="stop-color:#32464b;stop-opacity:1;"
       offset="0"
       id="stop2281" /><stop
       style="stop-color:#e9f0f1;stop-opacity:1;"
       offset="1"
       id="stop2283" /></linearGradient><linearGradient
     id="linearGradient11317"><stop
       id="stop11319"
       offset="0.00000000"
       style="stop-color:#000000;stop-opacity:0.48958334;" /><stop
       id="stop11321"
       offset="1"
       style="stop-color:#000000;stop-opacity:0;" /></linearGradient><linearGradient
     inkscape:collect="always"
     xlink:href="#linearGradient11317"
     id="linearGradient1369"
     gradientUnits="userSpaceOnUse"
     gradientTransform="matrix(3.239914,0,0,1.881907,15.04708,-83.77053)"
     x1="49.781834"
     y1="173.45737"
     x2="62.504456"
     y2="157.02299" /><linearGradient
     id="linearGradient2211"><stop
       id="stop2213"
       offset="0"
       style="stop-color:#dedede;stop-opacity:1;" /><stop
       id="stop2215"
       offset="1"
       style="stop-color:#ffffff;stop-opacity:1;" /></linearGradient><linearGradient
     id="linearGradient10457"><stop
       id="stop10459"
       offset="0"
       style="stop-color:#000000;stop-opacity:0.71428573;" /><stop
       id="stop10461"
       offset="1"
       style="stop-color:#000000;stop-opacity:0;" /></linearGradient><radialGradient
     inkscape:collect="always"
     xlink:href="#linearGradient10457"
     id="radialGradient1351"
     gradientUnits="userSpaceOnUse"
     gradientTransform="scale(2.110067,0.473919)"
     cx="24.734711"
     cy="210.29031"
     fx="24.734711"
     fy="210.29031"
     r="20.929369" /><linearGradient
     id="XMLID_2_"
     gradientUnits="userSpaceOnUse"
     x1="101.2012"
     y1="49.471699"
     x2="130.5948"
     y2="153.53371"
     gradientTransform="matrix(1.195649,0,0,1.195649,-16.98509,-42.69663)">
      <stop
   offset="0"
   style="stop-color:#D4D4D4"
   id="stop164" />
      <stop
   offset="1"
   style="stop-color:#F0F0F0"
   id="stop165" />
      <a:midPointStop
   offset="0"
   style="stop-color:#D4D4D4"
   id="midPointStop166" />
      <a:midPointStop
   offset="0.5"
   style="stop-color:#D4D4D4"
   id="midPointStop167" />
      <a:midPointStop
   offset="1"
   style="stop-color:#F0F0F0"
   id="midPointStop168" />
    </linearGradient><linearGradient
     inkscape:collect="always"
     xlink:href="#linearGradient2211"
     id="linearGradient2209"
     x1="213.3185"
     y1="69.450134"
     x2="199.65854"
     y2="69.350571"
     gradientUnits="userSpaceOnUse"
     gradientTransform="matrix(1.194834,4.415806e-2,-4.415806e-2,1.194834,-54.48974,-54.12795)" /><linearGradient
     inkscape:collect="always"
     xlink:href="#linearGradient2279"
     id="linearGradient2255"
     gradientUnits="userSpaceOnUse"
     x1="194.55063"
     y1="100.26798"
     x2="78.610435"
     y2="97.885849" /><linearGradient
     inkscape:collect="always"
     xlink:href="#linearGradient2279"
     id="linearGradient2257"
     gradientUnits="userSpaceOnUse"
     x1="154.0336"
     y1="89.846146"
     x2="64.317619"
     y2="89.846146" /><linearGradient
     inkscape:collect="always"
     xlink:href="#linearGradient2279"
     id="linearGradient2259"
     gradientUnits="userSpaceOnUse"
     x1="194.55063"
     y1="100.26798"
     x2="78.610435"
     y2="97.885849" /><linearGradient
     inkscape:collect="always"
     xlink:href="#linearGradient2279"
     id="linearGradient2261"
     gradientUnits="userSpaceOnUse"
     x1="158.83978"
     y1="94.934563"
     x2="64.317619"
     y2="89.846146" /><linearGradient
     inkscape:collect="always"
     xlink:href="#linearGradient4231"
     id="linearGradient2263"
     gradientUnits="userSpaceOnUse"
     x1="194.55063"
     y1="100.26798"
     x2="78.610435"
     y2="97.885849" /><linearGradient
     inkscape:collect="always"
     xlink:href="#linearGradient4231"
     id="linearGradient2265"
     gradientUnits="userSpaceOnUse"
     x1="158.23901"
     y1="89.846146"
     x2="64.317619"
     y2="89.846146" /><linearGradient
     inkscape:collect="always"
     xlink:href="#linearGradient2279"
     id="linearGradient4261"
     gradientUnits="userSpaceOnUse"
     x1="194.55063"
     y1="100.26798"
     x2="78.610435"
     y2="97.885849" /><linearGradient
     inkscape:collect="always"
     xlink:href="#linearGradient2279"
     id="linearGradient4263"
     gradientUnits="userSpaceOnUse"
     x1="154.0336"
     y1="89.846146"
     x2="64.317619"
     y2="89.846146" /><linearGradient
     inkscape:collect="always"
     xlink:href="#linearGradient2279"
     id="linearGradient4265"
     gradientUnits="userSpaceOnUse"
     x1="194.55063"
     y1="100.26798"
     x2="78.610435"
     y2="97.885849" /><linearGradient
     inkscape:collect="always"
     xlink:href="#linearGradient2279"
     id="linearGradient4267"
     gradientUnits="userSpaceOnUse"
     x1="158.83978"
     y1="94.934563"
     x2="64.317619"
     y2="89.846146" /><linearGradient
     inkscape:collect="always"
     xlink:href="#linearGradient4231"
     id="linearGradient4269"
     gradientUnits="userSpaceOnUse"
     x1="194.55063"
     y1="100.26798"
     x2="78.610435"
     y2="97.885849" /><linearGradient
     inkscape:collect="always"
     xlink:href="#linearGradient4231"
     id="linearGradient4271"
     gradientUnits="userSpaceOnUse"
     x1="158.23901"
     y1="89.846146"
     x2="64.317619"
     y2="89.846146" /><linearGradient
     inkscape:collect="always"
     xlink:href="#linearGradient4231"
     id="linearGradient4290"
     gradientUnits="userSpaceOnUse"
     x1="194.55063"
     y1="100.26798"
     x2="78.610435"
     y2="97.885849" /><linearGradient
     inkscape:collect="always"
     xlink:href="#linearGradient4231"
     id="linearGradient4292"
     gradientUnits="userSpaceOnUse"
     x1="158.23901"
     y1="89.846146"
     x2="64.317619"
     y2="89.846146" /><linearGradient
     inkscape:collect="always"
     xlink:href="#linearGradient4231"
     id="linearGradient4300"
     gradientUnits="userSpaceOnUse"
     x1="194.55063"
     y1="100.26798"
     x2="78.610435"
     y2="97.885849" /><linearGradient
     inkscape:collect="always"
     xlink:href="#linearGradient4231"
     id="linearGradient4302"
     gradientUnits="userSpaceOnUse"
     x1="158.23901"
     y1="89.846146"
     x2="64.317619"
     y2="89.846146" /><linearGradient
     inkscape:collect="always"
     xlink:href="#linearGradient4231"
     id="linearGradient4304"
     gradientUnits="userSpaceOnUse"
     x1="194.55063"
     y1="100.26798"
     x2="78.610435"
     y2="97.885849" /><linearGradient
     inkscape:collect="always"
     xlink:href="#linearGradient4231"
     id="linearGradient4306"
     gradientUnits="userSpaceOnUse"
     x1="158.23901"
     y1="89.846146"
     x2="64.317619"
     y2="89.846146" /><linearGradient
     inkscape:collect="always"
     xlink:href="#linearGradient4231"
     id="linearGradient4326"
     gradientUnits="userSpaceOnUse"
     x1="194.55063"
     y1="100.26798"
     x2="78.610435"
     y2="97.885849" /><linearGradient
     inkscape:collect="always"
     xlink:href="#linearGradient4231"
     id="linearGradient4328"
     gradientUnits="userSpaceOnUse"
     x1="158.23901"
     y1="89.846146"
     x2="64.317619"
     y2="89.846146" /><linearGradient
     inkscape:collect="always"
     xlink:href="#linearGradient4231"
     id="linearGradient4330"
     gradientUnits="userSpaceOnUse"
     x1="194.55063"
     y1="100.26798"
     x2="78.610435"
     y2="97.885849" /><linearGradient
     inkscape:collect="always"
     xlink:href="#linearGradient4231"
     id="linearGradient4332"
     gradientUnits="userSpaceOnUse"
     x1="158.23901"
     y1="89.846146"
     x2="64.317619"
     y2="89.846146" /><linearGradient
     inkscape:collect="always"
     xlink:href="#linearGradient4231"
     id="linearGradient4334"
     gradientUnits="userSpaceOnUse"
     x1="194.55063"
     y1="100.26798"
     x2="78.610435"
     y2="97.885849" /><linearGradient
     inkscape:collect="always"
     xlink:href="#linearGradient4231"
     id="linearGradient4336"
     gradientUnits="userSpaceOnUse"
     x1="158.23901"
     y1="89.846146"
     x2="64.317619"
     y2="89.846146" /><linearGradient
     inkscape:collect="always"
     xlink:href="#linearGradient4231"
     id="linearGradient4343"
     gradientUnits="userSpaceOnUse"
     x1="194.55063"
     y1="100.26798"
     x2="78.610435"
     y2="97.885849" /><linearGradient
     inkscape:collect="always"
     xlink:href="#linearGradient4231"
     id="linearGradient4346"
     gradientUnits="userSpaceOnUse"
     x1="194.55063"
     y1="100.26798"
     x2="78.610435"
     y2="97.885849"
     gradientTransform="matrix(2,0,0,2,-273.3979,-140.9472)" /><linearGradient
     inkscape:collect="always"
     xlink:href="#linearGradient4231"
     id="linearGradient4349"
     gradientUnits="userSpaceOnUse"
     gradientTransform="matrix(2,0,0,2,-273.3979,-140.9472)"
     x1="194.55063"
     y1="100.26798"
     x2="78.610435"
     y2="97.885849" /><linearGradient
     inkscape:collect="always"
     xlink:href="#linearGradient4231"
     id="linearGradient4352"
     gradientUnits="userSpaceOnUse"
     gradientTransform="matrix(2,0,0,2,-273.3979,-140.9472)"
     x1="194.55063"
     y1="100.26798"
     x2="78.610435"
     y2="97.885849" /><linearGradient
     inkscape:collect="always"
     xlink:href="#linearGradient4231"
     id="linearGradient4370"
     gradientUnits="userSpaceOnUse"
     x1="194.55063"
     y1="100.26798"
     x2="78.610435"
     y2="97.885849" /><linearGradient
     inkscape:collect="always"
     xlink:href="#linearGradient4231"
     id="linearGradient4372"
     gradientUnits="userSpaceOnUse"
     x1="158.23901"
     y1="89.846146"
     x2="64.317619"
     y2="89.846146" /><linearGradient
     inkscape:collect="always"
     xlink:href="#linearGradient4231"
     id="linearGradient4374"
     gradientUnits="userSpaceOnUse"
     x1="194.55063"
     y1="100.26798"
     x2="78.610435"
     y2="97.885849" /><linearGradient
     inkscape:collect="always"
     xlink:href="#linearGradient4231"
     id="linearGradient4376"
     gradientUnits="userSpaceOnUse"
     x1="158.23901"
     y1="89.846146"
     x2="64.317619"
     y2="89.846146" /><linearGradient
     inkscape:collect="always"
     xlink:href="#linearGradient4231"
     id="linearGradient4378"
     gradientUnits="userSpaceOnUse"
     x1="194.55063"
     y1="100.26798"
     x2="78.610435"
     y2="97.885849" /><linearGradient
     inkscape:collect="always"
     xlink:href="#linearGradient4231"
     id="linearGradient4380"
     gradientUnits="userSpaceOnUse"
     x1="158.23901"
     y1="89.846146"
     x2="64.317619"
     y2="89.846146" /></defs>
  <sodipodi:namedview
   id="base"
   inkscape:zoom="2.3747002"
   inkscape:cx="133.71903"
   inkscape:cy="71.62532"
   inkscape:window-width="996"
   inkscape:window-height="643"
   inkscape:window-x="276"
   inkscape:window-y="29"
   inkscape:current-layer="svg153" />
  <path
   transform="matrix(2.707034,0.148295,-0.263566,2.548187,9.435841,-36.04555)"
   d="M 96.354244 99.660515 A 44.162361 9.9188194 0 1 1  8.0295219,99.660515 A 44.162361 9.9188194 0 1 1  96.354244 99.660515 z"
   sodipodi:ry="9.9188194"
   sodipodi:rx="44.162361"
   sodipodi:cy="99.660515"
   sodipodi:cx="52.191883"
   id="path9697"
   style="opacity:0.60792954;fill:url(#radialGradient1351);fill-opacity:1;stroke:none;stroke-width:3;stroke-linecap:round;stroke-linejoin:round;stroke-miterlimit:4;stroke-opacity:1"
   sodipodi:type="arc" /><path
   id="path8926"
   d="M 189.86622,196.78795 L 195.66591,242.66018 L 232.75771,222.99027 L 189.86622,196.78795 z "
   style="fill:url(#linearGradient1369);fill-opacity:1;fill-rule:evenodd;stroke:none;stroke-width:1px;stroke-linecap:butt;stroke-linejoin:miter;stroke-opacity:1"
   sodipodi:nodetypes="cccc" />
  
  <path
   style="font-size:12px;fill:url(#XMLID_2_);stroke:#000000;stroke-width:4.9579215;stroke-miterlimit:4;stroke-dasharray:none;stroke-opacity:1"
   d="M 29.344375,208.44191 C 28.557356,212.1155 30.106631,213.87723 34.168438,214.3122 L 185.16789,242.08743 C 190.48964,243.27525 196.16959,240.87704 197.20835,236.95289 L 224.664,61.028715 C 225.25703,59.564933 224.24795,57.745126 222.88284,55.569295 L 190.48353,9.52304 C 189.16548,7.9985518 186.96633,6.4740636 184.13779,5.9565639 L 73.624745,10.143028 C 70.875349,9.5923319 67.614111,11.654127 66.281598,14.994614 L 29.344375,208.44191 z "
   id="path169"
   sodipodi:nodetypes="ccccccccccc" />
  <path
   style="font-size:12px;fill:none"
   d="M 6.1064917,187.5664 L 81.19211,22.955289 C 83.237867,16.76541 101.55762,5.8168442 109.64619,7.2576026 L 250.58701,19.106493 C 248.93463,18.110517 246.98214,17.359648 244.78691,16.96867 L 107.11021,3.3322832 C 99.020441,1.8915248 80.701893,12.841287 78.657332,19.029972 L 3.5705181,183.64227 C 2.4047598,187.17063 3.5023661,190.69779 6.1579043,193.34617 C 5.5146451,191.5216 5.4512752,189.5464 6.1064917,187.5664 z "
   id="path170" />
  <g
   id="g171"
   style="font-size:12px;stroke:#000000" />
  <path
   style="font-size:12px;fill:#cccccc;fill-opacity:1"
   d="M 186.55419,217.53746 C 184.1416,221.7938 181.36487,223.53626 173.01249,223.3731 L 62.724143,217.11033 L 180.6795,232.94729 C 188.81287,234.12389 190.55178,231.99893 192.39585,225.74599 L 221.23067,64.918948 L 186.55419,217.53746 z "
   id="path172"
   sodipodi:nodetypes="ccccccc" />
  
  
  
  
  <g
   id="Layer_2"
   style="stroke:#000000">
    <path
   style="fill:none;stroke:none"
   d="M 256,256 L 0,256 L 0,0 L 256,0 L 256,256 z "
   id="path220" />
  </g>
<path
   style="opacity:1;color:#000000;fill:#b3b3b3;fill-opacity:1;fill-rule:nonzero;stroke:none;stroke-width:1;stroke-linecap:butt;stroke-linejoin:miter;marker:none;marker-start:none;marker-mid:none;marker-end:none;stroke-miterlimit:4;stroke-dasharray:none;stroke-dashoffset:0;stroke-opacity:1;visibility:visible;display:inline;overflow:visible"
   d="M 181.45799,49.934332 L 182.44436,61.864547 C 182.74941,64.063218 184.96458,65.18331 186.44929,65.200452 L 225.26329,59.02742 L 181.45799,49.934332 z "
   id="path2204"
   sodipodi:nodetypes="ccccc" /><path
   style="font-size:12px;fill:#000000;fill-opacity:1;overflow:visible"
   d="M 191.14458,226.40538 C 189.63672,231.23179 186.93032,234.11718 178.79054,232.98417 L 63.588955,217.06144 L 183.95225,240.83168 C 192.09196,241.96349 193.81916,239.82901 195.62879,233.56602 L 219.74488,75.325282 L 191.14458,226.40538 z "
   id="path3075"
   sodipodi:nodetypes="ccccccc" /><path
   sodipodi:nodetypes="cccc"
   id="path2212"
   d="M 189.76837,7.082875 L 174.33826,46.185206 C 174.34733,47.196952 174.56618,49.097423 177.2695,49.814544 L 225.51795,58.868327"
   style="fill:none;fill-opacity:0.75;fill-rule:evenodd;stroke:#000000;stroke-width:4.52679777;stroke-linecap:butt;stroke-linejoin:round;stroke-miterlimit:4;stroke-dasharray:none;stroke-opacity:1" /><path
   style="fill:url(#linearGradient2209);fill-opacity:1;fill-rule:evenodd;stroke:none;stroke-width:1px;stroke-linecap:butt;stroke-linejoin:miter;stroke-opacity:1;overflow:visible"
   d="M 189.98687,7.8281162 L 175.86635,44.645619 C 175.52326,45.396158 175.59862,46.874697 176.9488,47.598748 L 225.48273,57.608394"
   id="path2202"
   sodipodi:nodetypes="cccc" /><g
   style="overflow:visible"
   id="g2339"
   transform="translate(216.3276,32.51604)" /><g
   style="overflow:visible"
   id="g2345"
   transform="translate(216.6253,7.662509)" /><g
   id="g4357"
   transform="translate(-204.6574,-6.316583)"><g
     transform="translate(203.9154,46.1984)"
     id="g4308"
     style="overflow:visible"><path
       id="path4310"
       d="M 133.4771,25.802799 C 119.54481,26.475933 105.11715,27.396337 92.311512,33.41949 C 88.238233,36.183099 90.45293,41.362274 90.328692,45.309487 C 88.747108,50.095826 92.575267,53.299576 96.996793,53.729716 C 103.8912,56.40945 91.129293,56.511413 90.565188,60.70538 C 89.670295,64.96923 91.129635,69.495756 90.592123,73.899914 C 89.589227,78.572495 102.87707,77.766224 95.623694,80.821915 C 89.371106,81.984931 90.455272,89.049045 91.041262,93.697178 C 89.335966,98.684765 93.380309,101.4168 97.677944,102.2717 C 111.84819,107.14347 127.05322,107.47696 141.88142,107.83771 C 157.76663,107.88694 173.87104,106.14123 188.83575,100.56228 C 194.15874,100.34358 193.57813,94.245239 193.1221,90.553515 C 194.50918,84.883438 190.17841,81.448306 185.28221,80.194442 C 180.9845,76.495452 191.42822,78.086534 192.3324,74.477615 C 193.02412,70.320334 192.98571,65.526431 192.18161,61.275462 C 190.34631,57.087213 181.59958,56.038112 180.77828,54.336757 C 185.24226,52.547528 194.14344,52.301968 192.32952,45.564382 C 193.93789,39.490309 191.39023,33.181771 184.92367,31.66916 C 173.42691,27.096524 160.83435,26.249067 148.58512,25.863879 C 143.54982,25.756558 138.5131,25.791413 133.4771,25.802799 z "
       style="opacity:0.22099448;fill:#000000;fill-opacity:1;fill-rule:evenodd;stroke:none;stroke-width:5.19999981;stroke-linecap:butt;stroke-linejoin:miter;stroke-miterlimit:4;stroke-dasharray:none;stroke-opacity:1" /></g><g
     transform="translate(193.5865,40.0183)"
     id="g4284"
     style="overflow:visible"><path
       style="fill:url(#linearGradient4370);fill-opacity:1;fill-rule:evenodd;stroke:#000000;stroke-width:2.5999999;stroke-linecap:butt;stroke-linejoin:miter;stroke-miterlimit:4;stroke-dasharray:none;stroke-opacity:1"
       d="M 90.818862,85.975179 L 91.116629,99.455698 C 91.116629,99.455698 103.91578,108.36117 145.60795,107.79317 C 177.76511,107.35192 193.25063,98.562398 193.25063,98.562398 L 192.95286,84.784112 C 192.95286,84.784112 184.91316,74.064509 142.92805,74.362275 C 100.94293,74.660042 91.414396,85.677412 90.818862,85.975179 z "
       id="path4286"
       sodipodi:nodetypes="ccsccsc" /><path
       sodipodi:type="arc"
       style="opacity:0.60220995;color:#000000;fill:url(#linearGradient4372);fill-opacity:1;fill-rule:evenodd;stroke:none;stroke-width:3.6500001;stroke-linecap:butt;stroke-linejoin:round;marker:none;marker-start:none;marker-mid:none;marker-end:none;stroke-miterlimit:4;stroke-dasharray:none;stroke-dashoffset:0;stroke-opacity:1;visibility:visible;display:inline;overflow:visible"
       id="path4288"
       sodipodi:cx="138.75931"
       sodipodi:cy="89.846146"
       sodipodi:rx="51.215881"
       sodipodi:ry="13.101738"
       d="M 189.97519 89.846146 A 51.215881 13.101738 0 1 1  87.543427,89.846146 A 51.215881 13.101738 0 1 1  189.97519 89.846146 z"
       transform="matrix(0.991279,0,0,0.897727,3.443364,5.466726)" /></g><g
     transform="translate(193.1654,16.26195)"
     id="g4294"
     style="overflow:visible"><path
       style="fill:url(#linearGradient4374);fill-opacity:1;fill-rule:evenodd;stroke:#000000;stroke-width:2.5999999;stroke-linecap:butt;stroke-linejoin:miter;stroke-miterlimit:4;stroke-dasharray:none;stroke-opacity:1"
       d="M 90.818862,85.975179 L 91.116629,99.455698 C 91.116629,99.455698 103.91578,108.36117 145.60795,107.79317 C 177.76511,107.35192 193.25063,98.562398 193.25063,98.562398 L 192.95286,84.784112 C 192.95286,84.784112 184.91316,74.064509 142.92805,74.362275 C 100.94293,74.660042 91.414396,85.677412 90.818862,85.975179 z "
       id="path4296"
       sodipodi:nodetypes="ccsccsc" /><path
       sodipodi:type="arc"
       style="opacity:0.60220995;color:#000000;fill:url(#linearGradient4376);fill-opacity:1;fill-rule:evenodd;stroke:none;stroke-width:3.6500001;stroke-linecap:butt;stroke-linejoin:round;marker:none;marker-start:none;marker-mid:none;marker-end:none;stroke-miterlimit:4;stroke-dasharray:none;stroke-dashoffset:0;stroke-opacity:1;visibility:visible;display:inline;overflow:visible"
       id="path4298"
       sodipodi:cx="138.75931"
       sodipodi:cy="89.846146"
       sodipodi:rx="51.215881"
       sodipodi:ry="13.101738"
       d="M 189.97519 89.846146 A 51.215881 13.101738 0 1 1  87.543427,89.846146 A 51.215881 13.101738 0 1 1  189.97519 89.846146 z"
       transform="matrix(0.991279,0,0,0.897727,3.443364,5.466726)" /></g><g
     transform="translate(192.895,-8.527994)"
     id="g4255"><path
       style="fill:url(#linearGradient4378);fill-opacity:1;fill-rule:evenodd;stroke:#000000;stroke-width:2.5999999;stroke-linecap:butt;stroke-linejoin:miter;stroke-miterlimit:4;stroke-dasharray:none;stroke-opacity:1"
       d="M 90.818862,85.975179 L 91.116629,99.455698 C 91.116629,99.455698 103.91578,108.36117 145.60795,107.79317 C 177.76511,107.35192 193.25063,98.562398 193.25063,98.562398 L 192.95286,84.784112 C 192.95286,84.784112 184.91316,74.064509 142.92805,74.362275 C 100.94293,74.660042 91.414396,85.677412 90.818862,85.975179 z "
       id="path4257"
       sodipodi:nodetypes="ccsccsc" /><path
       sodipodi:type="arc"
       style="opacity:0.60220995;color:#000000;fill:url(#linearGradient4380);fill-opacity:1;fill-rule:evenodd;stroke:none;stroke-width:3.6500001;stroke-linecap:butt;stroke-linejoin:round;marker:none;marker-start:none;marker-mid:none;marker-end:none;stroke-miterlimit:4;stroke-dasharray:none;stroke-dashoffset:0;stroke-opacity:1;visibility:visible;display:inline;overflow:visible"
       id="path4259"
       sodipodi:cx="138.75931"
       sodipodi:cy="89.846146"
       sodipodi:rx="51.215881"
       sodipodi:ry="13.101738"
       d="M 189.97519 89.846146 A 51.215881 13.101738 0 1 1  87.543427,89.846146 A 51.215881 13.101738 0 1 1  189.97519 89.846146 z"
       transform="matrix(0.991279,0,0,0.897727,3.443364,5.466726)" /></g></g><path
   style="opacity:0.29120878;fill:#000000;fill-opacity:1;fill-rule:evenodd;stroke:#000000;stroke-width:5.03493977;stroke-linecap:butt;stroke-linejoin:miter;stroke-miterlimit:4;stroke-dasharray:none;stroke-opacity:1;overflow:visible"
   d="M 94.608711,74.689919 C 75.449227,78.008996 75.643812,101.44872 66.252466,114.59325 C 55.969678,132.15129 43.32574,154.29006 54.725138,174.38114 C 64.144144,185.341 96.418023,187.8856 80.837925,208.36046 C 78.074176,219.11409 45.083189,217.95783 60.847987,227.35136 C 82.618845,230.51793 80.737714,206.13659 91.093111,194.99108 C 97.171152,203.9353 90.851528,227.10837 77.989666,230.81104 C 61.847739,227.07273 57.070202,248.66355 76.186359,242.44301 C 92.08729,236.10346 93.042138,215.68822 98.196716,201.61335 C 103.02727,185.08838 121.40066,193.40406 133.1819,187.63853 C 149.12503,182.4899 166.2946,175.86731 183.00448,181.88147 C 196.41495,183.48292 186.78466,166.37845 200.46533,172.88288 C 204.01568,170.42691 198.49222,165.78289 206.34608,163.08038 C 209.31574,152.99144 186.14609,161.52143 180.27997,153.1546 C 162.91346,143.01931 142.77062,139.69715 125.7529,128.76037 C 105.64445,127.57572 88.337534,113.80605 102.48013,93.145815 C 107.30781,85.738575 106.108,73.016152 94.608711,74.689919 z "
   id="path1516" /><g
   style="overflow:visible"
   id="g2403"
   transform="translate(291.3417,39.91333)"><path
     id="path1632"
     d="M -248.21452,35.300194 C -253.81002,36.371928 -261.41596,37.527441 -262.81379,44.184299 C -266.17721,49.282562 -273.04708,49.552572 -278.38812,51.240965 C -281.21637,51.082966 -286.18991,56.873622 -283.39978,57.660584 C -281.29434,56.095483 -276.99437,58.539924 -274.11154,57.174466 C -270.61792,56.716415 -266.24393,55.04894 -264.77678,59.141425 C -262.61758,69.177263 -263.79407,77.651732 -265.57371,84.968542 C -268.4873,97.824452 -270.36378,111.88639 -264.79259,124.27985 C -259.9091,135.50349 -250.99532,142.73274 -239.76877,147.07582 C -233.41633,149.68676 -226.74217,151.41655 -220.02702,152.80019 C -220.34856,156.18321 -221.29479,158.88111 -219.84623,162.17404 C -220.37176,167.25596 -220.68245,172.40473 -221.78045,177.39666 C -224.69469,182.05709 -231.83005,179.13014 -236.56854,180.36861 C -239.34483,180.53572 -242.44429,179.09272 -239.72449,182.59564 C -237.03257,186.51378 -248.59025,188.6035 -241.50859,188.60126 C -235.74115,187.56121 -229.57725,192.73262 -224.46654,188.938 C -219.36585,185.99711 -215.37055,181.01282 -217.41851,174.982 C -217.58162,167.85006 -215.90013,160.86432 -215.21452,153.80019 C -210.62814,154.83374 -209.32831,160.9377 -208.27714,164.78467 C -208.45267,168.44827 -210.77577,171.66291 -207.79305,175.03925 C -207.95519,181.02154 -207.94804,187.00832 -208.21452,192.98769 C -213.36641,193.61154 -220.77664,192.37647 -224.46834,192.56925 C -221.78904,198.29603 -231.3558,199.96888 -232.9161,201.48246 C -229.17976,203.3506 -224.32098,202.36122 -221.26056,205.64011 C -216.47009,208.67746 -211.73981,203.24963 -207.64927,201.2371 C -203.31864,198.63498 -203.19966,194.34685 -204.58176,190.24008 C -203.95369,184.56501 -205.36798,178.54167 -203.50615,173.09972 C -201.26249,167.33935 -208.11393,161.80716 -204.79776,156.46166 C -201.389,152.92068 -196.01652,154.85287 -191.69264,153.73075 C -185.81168,153.19561 -179.98505,152.12878 -174.51676,149.84787 C -165.44985,146.79615 -156.12768,144.56689 -147.08952,141.42519 C -136.83883,142.63061 -126.5191,144.2501 -116.17596,143.36268 C -112.28714,139.98401 -121.07107,137.55442 -123.55181,136.19883 C -126.1881,135.54821 -130.09449,132.6156 -125.20584,134.05609 C -113.8764,136.11651 -102.69034,138.95473 -91.277019,140.55019 C -94.87674,137.99263 -99.499239,137.49489 -103.5292,135.8037 C -108.45996,134.20047 -113.42924,132.71645 -118.33952,131.05019 C -111.73474,129.0634 -104.80535,127.74679 -98.777019,124.23769 C -97.911668,120.39507 -105.73333,121.68135 -108.36683,120.81813 C -116.6292,120.0964 -124.92839,120.04755 -133.21452,119.86269 C -143.93633,111.74973 -157.1921,108.34093 -169.65199,103.87752 C -177.55252,101.39977 -185.75832,99.46689 -192.84624,95.011204 C -201.57446,90.329915 -211.07279,87.32093 -220.75106,85.378367 C -226.68363,83.59434 -233.07819,79.639513 -234.48544,73.20883 C -234.51816,67.16311 -230.29162,62.048236 -230.2394,55.959736 C -229.54409,48.246606 -232.91589,39.261616 -240.39973,36.051017 C -242.90988,35.195551 -245.60022,35.283913 -248.21452,35.300194 z "
     style="fill:#000000;fill-opacity:1;fill-rule:evenodd;stroke:#000000;stroke-width:6;stroke-linecap:butt;stroke-linejoin:round;stroke-miterlimit:4;stroke-dasharray:none;stroke-opacity:1;overflow:visible"
     sodipodi:nodetypes="ccccccccccccccccccccccccccccccccccccccccccccccc" /><path
     d="M -204.78762,193.08856 C -202.30855,193.46792 -202.44844,201.27037 -219.69675,207.33445 C -223.9333,202.23422 -228.0866,203.90844 -233.58301,201.61485 C -235.87691,200.65763 -221.08012,200.10292 -225.08213,192.20316 C -218.31729,193.73095 -211.60848,193.1296 -204.78762,193.08856 z "
     id="path1486"
     style="fill:url(#radialGradient2423);fill-opacity:1;fill-rule:evenodd;stroke:none;stroke-width:0.25pt;stroke-linecap:butt;stroke-linejoin:miter;stroke-opacity:1"
     sodipodi:nodetypes="ccscc" /><path
     d="M -209.07853,159.65791 L -206.59761,159.77893 C -200.58693,175.26955 -205.22605,171.75996 -204.78231,177.38741 L -204.8854,194.10866 C -201.81156,199.23208 -219.82885,207.51937 -219.81644,206.61295 C -205.57122,197.76732 -206.57175,195.24035 -206.75908,195.32729 C -217.46023,200.29366 -231.85472,201.71596 -233.6861,201.53652 C -233.2589,200.71387 -218.39854,199.33564 -209.52781,194.47945 C -218.13687,193.81404 -217.69121,194.07609 -224.85064,192.2029 C -218.03311,193.56454 -212.28993,193.40128 -208.53394,193.16695 L -208.17088,174.42241 C -208.2919,173.19203 -211.74099,173.59543 -208.53394,166.91914 L -209.07853,159.65791 z "
     id="path1488"
     style="fill:url(#linearGradient2425);fill-opacity:1;fill-rule:evenodd;stroke:none;stroke-width:0.25pt;stroke-linecap:butt;stroke-linejoin:miter;stroke-opacity:1"
     sodipodi:nodetypes="cccccsccccccc" /><path
     d="M -213.91935,152.94127 C -203.55193,174.42241 -208.97769,154.99862 -202.24088,154.39352 C -202.24088,154.39352 -205.81098,147.37433 -206.05302,147.37433 C -212.10405,147.07178 -213.91935,152.94127 -213.91935,152.94127 z "
     id="path1490"
     style="fill:url(#linearGradient2427);fill-opacity:1;fill-rule:evenodd;stroke:none;stroke-width:0.25pt;stroke-linecap:butt;stroke-linejoin:miter;stroke-opacity:1" /><path
     d="M -129.0744,133.59913 L -127.34169,126.19575 L -118.36313,131.39386 C -64.91178,148.03834 -103.13632,138.21968 -129.0744,133.59913 z "
     id="path1492"
     style="fill:url(#radialGradient2429);fill-opacity:1;fill-rule:evenodd;stroke:none;stroke-width:0.25pt;stroke-linecap:butt;stroke-linejoin:miter;stroke-opacity:1" /><path
     d="M -135.53267,135.48935 C -85.44172,123.3079 -87.48946,120.7351 -133.79996,120.05252 L -135.53267,135.48935 z "
     id="path1494"
     style="fill:url(#radialGradient2431);fill-opacity:1;fill-rule:evenodd;stroke:none;stroke-width:0.25pt;stroke-linecap:butt;stroke-linejoin:miter;stroke-opacity:1" /><path
     d="M -148.13416,141.47506 C -138.84056,142.68271 -90.00976,149.40351 -131.5947,133.12657 L -148.60672,130.60627 L -148.13416,141.47506 z "
     id="path1496"
     style="fill:url(#radialGradient2433);fill-opacity:1;fill-rule:evenodd;stroke:none;stroke-width:0.25pt;stroke-linecap:butt;stroke-linejoin:miter;stroke-opacity:1" /><path
     d="M -219.24985,180.05379 C -217.34005,185.24123 -224.64375,188.57049 -229.08275,191.20292 C -233.75403,187.69301 -240.43834,189.98993 -245.18704,188.33821 C -238.94147,186.14451 -238.735,182.9443 -241.54809,180.36349 C -232.79913,181.3442 -226.68259,180.15703 -219.24985,180.05379 z "
     id="path1498"
     style="fill:url(#linearGradient2435);fill-opacity:1;fill-rule:evenodd;stroke:none;stroke-width:0.25pt;stroke-linecap:butt;stroke-linejoin:miter;stroke-opacity:1" /><path
     d="M -220.55243,149.98492 L -215.51567,150.53239 C -215.29668,158.85399 -219.34798,169.91295 -217.15809,181.08142 C -220.66742,187.34045 -225.80267,189.88312 -229.31201,191.26442 C -225.3502,188.54034 -220.76901,184.50004 -222.30434,182.39535 C -229.9004,185.21349 -237.18677,186.79285 -244.86025,188.52705 C -237.62918,185.16144 -230.0884,182.57006 -223.39929,180.75293 C -229.79091,181.37675 -236.10511,181.07149 -242.34187,180.53394 C -235.49899,180.67001 -229.12066,180.2641 -222.74232,179.54849 C -221.46488,175.57018 -220.40643,167.10259 -220.22394,160.05843 C -223.2168,158.48901 -219.74947,155.38666 -220.33344,154.58369 L -220.55243,149.98492 z "
     id="path1500"
     style="fill:url(#radialGradient2437);fill-opacity:1;fill-rule:evenodd;stroke:none;stroke-width:0.25pt;stroke-linecap:butt;stroke-linejoin:miter;stroke-opacity:1" /><path
     sodipodi:nodetypes="cssscsscccsc"
     d="M -266.59116,87.782809 C -263.2009,77.591407 -263.34839,73.680171 -264.15708,63.36766 C -264.59579,57.773151 -268.70243,52.280449 -265.43598,47.912307 C -261.15635,42.189257 -263.9869,38.99666 -252.89929,36.407212 C -239.75577,33.337617 -235.62104,38.405765 -232.50498,44.819596 C -226.60126,57.320106 -235.72872,68.97581 -235.00676,73.15981 C -233.88139,79.68177 -225.7928,84.59991 -219.96839,85.81078 C -198.59774,90.25362 -192.87255,96.19837 -185.2877,99.2608 C -163.85612,106.06249 -127.97184,116.2688 -130.01698,126.94189 C -128.48338,140.33795 -162.65946,144.63154 -181.43136,152.42608 C -192.28698,154.0548 -205.77038,156.02215 -214.44316,154.19764 C -231.35176,150.64056 -279.27015,144.50117 -266.59116,87.782809 z "
     id="path1502"
     style="fill:url(#radialGradient2439);fill-opacity:1;fill-rule:evenodd;stroke:none;stroke-width:0.25pt;stroke-linecap:butt;stroke-linejoin:miter;stroke-opacity:1" /><path
     d="M -217.92167,105.63092 C -228.42452,103.68594 -219.28429,93.43749 -216.2879,91.16032 C -210.15216,86.49733 -181.90079,104.07494 -155.37137,110.76564 C -147.18304,113.2941 -141.56207,117.22295 -138.97526,120.4516 C -136.38845,123.68025 -141.254,133.67741 -145.91881,131.77134 C -168.98618,124.30264 -194.85431,113.09961 -217.92167,105.63092 z "
     id="path1504"
     style="fill:url(#linearGradient2441);fill-opacity:1;fill-rule:evenodd;stroke:none;stroke-width:0.25pt;stroke-linecap:butt;stroke-linejoin:miter;stroke-opacity:1" /><path
     d="M -225.18579,103.81521 C -198.1925,105.84217 -207.98127,97.93205 -142.87108,131.69838 C -146.48008,135.99951 -164.92055,149.49616 -184.39922,153.05571 C -191.71608,151.67144 -187.76103,144.05795 -206.34981,148.9029 C -209.41498,151.17706 -227.60827,137.58154 -231.56333,134.36805 C -234.05996,125.37029 -237.14985,119.63545 -222.59028,117.60848 C -238.28693,111.23094 -232.32962,106.33656 -225.18579,103.81521 z "
     id="path1506"
     style="fill:url(#linearGradient2443);fill-opacity:1;fill-rule:evenodd;stroke:none;stroke-width:0.25pt;stroke-linecap:butt;stroke-linejoin:miter;stroke-opacity:1" /><path
     sodipodi:nodetypes="csccs"
     d="M -260.28926,40.086667 C -262.97861,42.894197 -270.84386,55.200818 -268.77465,54.899611 C -264.81087,54.322617 -252.43199,60.590128 -250.0469,67.327908 C -248.09738,61.821568 -244.25869,38.378778 -237.04915,49.012024 C -234.02009,39.75299 -250.79195,30.171998 -260.28926,40.086667 z "
     id="path1508"
     style="fill:url(#radialGradient2445);fill-opacity:1;fill-rule:evenodd;stroke:none;stroke-width:0.25pt;stroke-linecap:butt;stroke-linejoin:miter;stroke-opacity:1;overflow:visible" /><path
     d="M -284.844,58.456068 C -284.29951,55.473038 -283.61428,52.445696 -278.88235,51.454753 C -270.31404,49.660413 -266.23985,47.438504 -262.76918,45.548435 C -263.68076,46.644486 -265.98362,49.617099 -266.19917,51.039504 C -266.30694,51.750706 -259.59066,53.884235 -259.96171,53.914704 L -265.28712,54.351996 C -271.35952,54.685481 -278.97221,53.984298 -284.844,58.456068 z "
     id="path1513"
     style="opacity:1;color:#000000;fill:#ffe71e;fill-opacity:1;fill-rule:evenodd;stroke:#ab8c1c;stroke-width:0.2428882;stroke-linecap:butt;stroke-linejoin:miter;marker:none;marker-start:none;marker-mid:none;marker-end:none;stroke-miterlimit:4;stroke-dasharray:none;stroke-dashoffset:0;stroke-opacity:1;visibility:visible;display:inline;overflow:visible"
     sodipodi:nodetypes="cscsscc" /><path
     d="M -252.56616,45.954411 C -251.88556,44.424472 -247.25836,42.769921 -245.63728,43.910212 C -244.99072,44.365014 -245.08542,48.99661 -247.97813,49.299467 C -250.65095,49.579301 -252.87871,46.656996 -252.56616,45.954411 z "
     id="path1515"
     style="fill:#000000;fill-opacity:1;fill-rule:evenodd;stroke:none;stroke-width:0.25pt;stroke-linecap:butt;stroke-linejoin:miter;stroke-opacity:1;overflow:visible" /><path
     sodipodi:nodetypes="cscc"
     id="path1517"
     d="M -265.48665,55.668345 C -265.48665,55.668345 -263.98192,59.037195 -264.13239,63.353528 C -264.29169,67.922908 -248.63365,69.038447 -248.63365,69.038447 C -248.63365,69.038447 -256.45826,56.194727 -265.48665,55.668345 z "
     style="opacity:0.45303865;fill:url(#linearGradient2447);fill-opacity:1;fill-rule:evenodd;stroke:none;stroke-width:1px;stroke-linecap:butt;stroke-linejoin:miter;stroke-opacity:1;overflow:visible" /><path
     sodipodi:nodetypes="cccccccccc"
     id="path1510"
     d="M -282.79905,57.458291 L -277.79137,58.500227 L -271.74805,57.506968 L -265.56664,56.598511 L -259.19525,54.071136 L -264.94338,54.455624 L -273.45554,54.277111 L -279.09058,55.535852 L -281.77922,56.593193 L -282.79905,57.458291 z "
     style="fill:#ffe71e;fill-opacity:1;fill-rule:evenodd;stroke:#ab8c1c;stroke-width:0.2388097;stroke-linecap:butt;stroke-linejoin:miter;stroke-miterlimit:4;stroke-dasharray:none;stroke-opacity:1;overflow:visible" /><path
     id="path1519"
     d="M -272.84013,52.822783 C -271.62075,51.867812 -268.26744,51.867812 -268.26744,51.867812 L -271.3159,53.300266 L -272.84013,52.822783 z "
     style="fill:#b0921c;fill-opacity:1;fill-rule:evenodd;stroke:none;stroke-width:1px;stroke-linecap:butt;stroke-linejoin:miter;stroke-opacity:1;overflow:visible" /></g><g
   style="overflow:visible"
   id="g4314"
   transform="translate(272.9768,117.1909)" /><g
   style="overflow:visible"
   id="g4320"
   transform="translate(272.7064,92.40093)" /></svg>