<?xml version="1.0" encoding="UTF-8" standalone="no"?>
<!-- Created with Sodipodi ("http://www.sodipodi.com/") -->
<svg
   xmlns:i="&amp;ns_ai;"
   xmlns:a="http://ns.adobe.com/AdobeSVGViewerExtensions/3.0/"
   xmlns:dc="http://purl.org/dc/elements/1.1/"
   xmlns:cc="http://web.resource.org/cc/"
   xmlns:rdf="http://www.w3.org/1999/02/22-rdf-syntax-ns#"
   xmlns:svg="http://www.w3.org/2000/svg"
   xmlns="http://www.w3.org/2000/svg"
   xmlns:xlink="http://www.w3.org/1999/xlink"
   xmlns:sodipodi="http://inkscape.sourceforge.net/DTD/sodipodi-0.dtd"
   xmlns:inkscape="http://www.inkscape.org/namespaces/inkscape"
   width="128"
   height="128"
   viewBox="0 0 256 256"
   style="overflow:visible;enable-background:new 0 0 256 256"
   xml:space="preserve"
   id="svg153"
   sodipodi:version="0.32"
   sodipodi:docname="x-office-web.svg"
   sodipodi:docbase="/data/img/icons/Chimera/scalable/mimetypes/office"
   inkscape:version="0.43"
   version="1.0"><metadata
   id="metadata29"><rdf:RDF><cc:Work
       rdf:about=""><dc:format>image/svg+xml</dc:format><dc:type
         rdf:resource="http://purl.org/dc/dcmitype/StillImage" /></cc:Work></rdf:RDF></metadata>
  <defs
   id="defs222"><linearGradient
     id="linearGradient2384"><stop
       style="stop-color:#e2e2e2;stop-opacity:1;"
       offset="0"
       id="stop2386" /><stop
       style="stop-color:#474747;stop-opacity:1;"
       offset="1"
       id="stop2388" /></linearGradient><linearGradient
     inkscape:collect="always"
     xlink:href="#linearGradient2384"
     id="linearGradient2447"
     gradientUnits="userSpaceOnUse"
     gradientTransform="matrix(1.429315,0,0,1,-300.246,-40.31146)"
     x1="26.712187"
     y1="106.9031"
     x2="24.318859"
     y2="96.934219" /><radialGradient
     inkscape:collect="always"
     xlink:href="#linearGradient3665"
     id="radialGradient2445"
     gradientUnits="userSpaceOnUse"
     gradientTransform="matrix(0.524032,0,0,0.486559,-371.9026,-4.721192)"
     cx="211.60207"
     cy="113.10805"
     fx="211.60207"
     fy="113.10805"
     r="53.717434" /><linearGradient
     id="linearGradient2316"><stop
       style="stop-color:#c0c0c0;stop-opacity:1;"
       offset="0"
       id="stop2318" /><stop
       style="stop-color:#373737;stop-opacity:1;"
       offset="1"
       id="stop2320" /></linearGradient><linearGradient
     inkscape:collect="always"
     xlink:href="#linearGradient2316"
     id="linearGradient2443"
     gradientUnits="userSpaceOnUse"
     gradientTransform="matrix(0.599602,0,0,0.325558,-365.1949,5.83661)"
     x1="209.51004"
     y1="278.96658"
     x2="334.97629"
     y2="435.53052" /><linearGradient
     id="linearGradient2914"><stop
       style="stop-color:#cbcbcb;stop-opacity:1;"
       offset="0"
       id="stop2916" /><stop
       style="stop-color:#474747;stop-opacity:1;"
       offset="1"
       id="stop2918" /></linearGradient><linearGradient
     inkscape:collect="always"
     xlink:href="#linearGradient2914"
     id="linearGradient2441"
     gradientUnits="userSpaceOnUse"
     gradientTransform="matrix(0.631664,0,0,0.309034,-365.1949,5.83661)"
     x1="235.75317"
     y1="285.14722"
     x2="334.75375"
     y2="437.32922" /><radialGradient
     inkscape:collect="always"
     xlink:href="#linearGradient3665"
     id="radialGradient2439"
     gradientUnits="userSpaceOnUse"
     gradientTransform="matrix(0.387179,0,0,0.504174,-365.1949,5.83661)"
     cx="264.97308"
     cy="239.3893"
     fx="264.97308"
     fy="239.3893"
     r="230.98981" /><radialGradient
     inkscape:collect="always"
     xlink:href="#linearGradient3036"
     id="radialGradient2437"
     gradientUnits="userSpaceOnUse"
     gradientTransform="matrix(0.372821,0,0,0.52359,-365.1949,5.83661)"
     cx="394.8071"
     cy="335.73883"
     fx="394.8071"
     fy="335.73883"
     r="54.393486" /><linearGradient
     inkscape:collect="always"
     xlink:href="#linearGradient3036"
     id="linearGradient2435"
     gradientUnits="userSpaceOnUse"
     gradientTransform="matrix(0.677927,0,0,0.287945,-365.1949,5.83661)"
     x1="208.90097"
     y1="608.96948"
     x2="187.99234"
     y2="646.17664" /><radialGradient
     inkscape:collect="always"
     xlink:href="#linearGradient3665"
     id="radialGradient2433"
     gradientUnits="userSpaceOnUse"
     gradientTransform="matrix(0.702612,0,0,0.277828,-365.1949,5.83661)"
     cx="314.15039"
     cy="463.8114"
     fx="314.15039"
     fy="463.8114"
     r="47.28022" /><radialGradient
     inkscape:collect="always"
     xlink:href="#linearGradient11793"
     id="radialGradient2431"
     gradientUnits="userSpaceOnUse"
     gradientTransform="matrix(0.668036,0,0,0.292208,-365.1949,5.83661)"
     cx="398.33551"
     cy="397.50015"
     fx="398.33551"
     fy="397.50015"
     r="86.741104" /><radialGradient
     inkscape:collect="always"
     xlink:href="#linearGradient11793"
     id="radialGradient2429"
     gradientUnits="userSpaceOnUse"
     gradientTransform="matrix(0.711727,0,0,0.27427,-365.1949,5.83661)"
     cx="382.02158"
     cy="483.98965"
     fx="382.02158"
     fy="483.98965"
     r="62.762577" /><linearGradient
     inkscape:collect="always"
     xlink:href="#linearGradient11793"
     id="linearGradient2427"
     gradientUnits="userSpaceOnUse"
     gradientTransform="matrix(0.38208,0,0,0.510902,-365.1949,5.83661)"
     x1="395.74567"
     y1="292.34103"
     x2="426.67255"
     y2="292.34103" /><linearGradient
     inkscape:collect="always"
     xlink:href="#linearGradient3036"
     id="linearGradient2425"
     gradientUnits="userSpaceOnUse"
     gradientTransform="matrix(0.273844,0,0,0.712835,-365.1949,5.83661)"
     x1="512.39142"
     y1="281.69412"
     x2="593.20197"
     y2="241.04013" /><radialGradient
     inkscape:collect="always"
     xlink:href="#linearGradient3036"
     id="radialGradient2423"
     gradientUnits="userSpaceOnUse"
     gradientTransform="matrix(0.615306,0,0,0.31725,-365.1949,5.83661)"
     cx="262.29004"
     cy="588.35461"
     fx="262.29004"
     fy="588.35461"
     r="57.946537" /><radialGradient
     gradientUnits="userSpaceOnUse"
     gradientTransform="matrix(0.516047,0,0,-0.489047,361.7194,456.514)"
     fy="443.5469"
     fx="-153.2056"
     r="80.829"
     cy="443.5469"
     cx="-153.2056"
     id="XMLID_5_">
      <stop
   id="stop194"
   style="stop-color:#DDDDE8"
   offset="0" />
      <stop
   id="stop195"
   style="stop-color:#C6C9DB"
   offset="0.3034" />
      <stop
   id="stop196"
   style="stop-color:#9497BB"
   offset="1" />
      <a:midPointStop
   id="midPointStop197"
   style="stop-color:#DDDDE8"
   offset="0" />
      <a:midPointStop
   id="midPointStop198"
   style="stop-color:#DDDDE8"
   offset="0.5" />
      <a:midPointStop
   id="midPointStop199"
   style="stop-color:#C6C9DB"
   offset="0.3034" />
      <a:midPointStop
   id="midPointStop200"
   style="stop-color:#C6C9DB"
   offset="0.5" />
      <a:midPointStop
   id="midPointStop201"
   style="stop-color:#9497BB"
   offset="1" />
    </radialGradient><radialGradient
     gradientUnits="userSpaceOnUse"
     gradientTransform="matrix(0.46875,0,0,-0.46875,353.8841,445.5337)"
     fy="499.6602"
     fx="-165.9985"
     r="85.0879"
     cy="499.6602"
     cx="-165.9985"
     id="XMLID_6_">
      <stop
   id="stop204"
   style="stop-color:#6095C1"
   offset="0" />
      <stop
   id="stop205"
   style="stop-color:#567EB9"
   offset="0.5562" />
      <stop
   id="stop206"
   style="stop-color:#0E2B8D"
   offset="1" />
      <a:midPointStop
   id="midPointStop207"
   style="stop-color:#6095C1"
   offset="0" />
      <a:midPointStop
   id="midPointStop208"
   style="stop-color:#6095C1"
   offset="0.5" />
      <a:midPointStop
   id="midPointStop209"
   style="stop-color:#567EB9"
   offset="0.5562" />
      <a:midPointStop
   id="midPointStop210"
   style="stop-color:#567EB9"
   offset="0.5" />
      <a:midPointStop
   id="midPointStop211"
   style="stop-color:#0E2B8D"
   offset="1" />
    </radialGradient><radialGradient
     gradientUnits="userSpaceOnUse"
     fy="68.8354"
     fx="42.166"
     r="93.1601"
     cy="68.8354"
     cx="42.166"
     id="XMLID_7_"
     gradientTransform="matrix(0.46875,0,0,0.46875,248.6497,162.1743)">
      <stop
   id="stop219"
   style="stop-color:#F0F0F0"
   offset="0" />
      <stop
   id="stop220"
   style="stop-color:#C6C9DB"
   offset="1" />
      <a:midPointStop
   id="midPointStop221"
   style="stop-color:#F0F0F0"
   offset="0" />
      <a:midPointStop
   id="midPointStop222"
   style="stop-color:#F0F0F0"
   offset="0.5" />
      <a:midPointStop
   id="midPointStop223"
   style="stop-color:#C6C9DB"
   offset="1" />
    </radialGradient><linearGradient
     id="linearGradient3665"><stop
       id="stop3666"
       offset="0.00000000"
       style="stop-color:#fffaf4;stop-opacity:1.0000000;" /><stop
       id="stop3667"
       offset="1.0000000"
       style="stop-color:#bcbcbc;stop-opacity:1.0000000;" /></linearGradient><linearGradient
     id="linearGradient11793"><stop
       id="stop11794"
       offset="0.00000000"
       style="stop-color:#b4a396;stop-opacity:1.0000000;" /><stop
       id="stop11795"
       offset="1.0000000"
       style="stop-color:#060505;stop-opacity:1.0000000;" /></linearGradient><linearGradient
     id="linearGradient3036"><stop
       id="stop3037"
       offset="0.00000000"
       style="stop-color:#dcc15e;stop-opacity:1.0000000;" /><stop
       id="stop3038"
       offset="1.0000000"
       style="stop-color:#8c673c;stop-opacity:1.0000000;" /></linearGradient><linearGradient
     id="linearGradient11317"><stop
       id="stop11319"
       offset="0.00000000"
       style="stop-color:#000000;stop-opacity:0.48958334;" /><stop
       id="stop11321"
       offset="1"
       style="stop-color:#000000;stop-opacity:0;" /></linearGradient><linearGradient
     inkscape:collect="always"
     xlink:href="#linearGradient11317"
     id="linearGradient1369"
     gradientUnits="userSpaceOnUse"
     gradientTransform="matrix(3.239914,0,0,1.881907,15.04708,-83.77053)"
     x1="49.781834"
     y1="173.45737"
     x2="62.504456"
     y2="157.02299" /><linearGradient
     id="linearGradient2211"><stop
       id="stop2213"
       offset="0"
       style="stop-color:#dedede;stop-opacity:1;" /><stop
       id="stop2215"
       offset="1"
       style="stop-color:#ffffff;stop-opacity:1;" /></linearGradient><linearGradient
     id="linearGradient10457"><stop
       id="stop10459"
       offset="0"
       style="stop-color:#000000;stop-opacity:0.71428573;" /><stop
       id="stop10461"
       offset="1"
       style="stop-color:#000000;stop-opacity:0;" /></linearGradient><radialGradient
     inkscape:collect="always"
     xlink:href="#linearGradient10457"
     id="radialGradient1351"
     gradientUnits="userSpaceOnUse"
     gradientTransform="scale(2.110067,0.473919)"
     cx="24.734711"
     cy="210.29031"
     fx="24.734711"
     fy="210.29031"
     r="20.929369" /><linearGradient
     id="XMLID_2_"
     gradientUnits="userSpaceOnUse"
     x1="101.2012"
     y1="49.471699"
     x2="130.5948"
     y2="153.53371"
     gradientTransform="matrix(1.195649,0,0,1.195649,-16.98509,-42.69663)">
      <stop
   offset="0"
   style="stop-color:#D4D4D4"
   id="stop164" />
      <stop
   offset="1"
   style="stop-color:#F0F0F0"
   id="stop165" />
      <a:midPointStop
   offset="0"
   style="stop-color:#D4D4D4"
   id="midPointStop166" />
      <a:midPointStop
   offset="0.5"
   style="stop-color:#D4D4D4"
   id="midPointStop167" />
      <a:midPointStop
   offset="1"
   style="stop-color:#F0F0F0"
   id="midPointStop168" />
    </linearGradient><linearGradient
     inkscape:collect="always"
     xlink:href="#linearGradient2211"
     id="linearGradient2209"
     x1="213.3185"
     y1="69.450134"
     x2="199.65854"
     y2="69.350571"
     gradientUnits="userSpaceOnUse"
     gradientTransform="matrix(1.194834,4.415806e-2,-4.415806e-2,1.194834,-54.48974,-54.12795)" /><radialGradient
     inkscape:collect="always"
     xlink:href="#XMLID_5_"
     id="radialGradient1595"
     gradientUnits="userSpaceOnUse"
     gradientTransform="matrix(0.516047,0,0,-0.489047,361.7194,456.514)"
     cx="-153.2056"
     cy="443.5469"
     fx="-153.2056"
     fy="443.5469"
     r="80.829" /><radialGradient
     inkscape:collect="always"
     xlink:href="#XMLID_6_"
     id="radialGradient1597"
     gradientUnits="userSpaceOnUse"
     gradientTransform="matrix(0.46875,0,0,-0.46875,353.8841,445.5337)"
     cx="-165.9985"
     cy="499.6602"
     fx="-165.9985"
     fy="499.6602"
     r="85.0879" /><radialGradient
     inkscape:collect="always"
     xlink:href="#XMLID_7_"
     id="radialGradient1599"
     gradientUnits="userSpaceOnUse"
     gradientTransform="matrix(0.46875,0,0,0.46875,248.6497,162.1743)"
     cx="42.166"
     cy="68.8354"
     fx="42.166"
     fy="68.8354"
     r="93.1601" /></defs>
  <sodipodi:namedview
   id="base"
   inkscape:zoom="4.7494004"
   inkscape:cx="93.041891"
   inkscape:cy="51.568819"
   inkscape:window-width="996"
   inkscape:window-height="643"
   inkscape:window-x="276"
   inkscape:window-y="29"
   inkscape:current-layer="svg153" />
  <path
   transform="matrix(2.707034,0.148295,-0.263566,2.548187,9.435841,-36.04555)"
   d="M 96.354244 99.660515 A 44.162361 9.9188194 0 1 1  8.0295219,99.660515 A 44.162361 9.9188194 0 1 1  96.354244 99.660515 z"
   sodipodi:ry="9.9188194"
   sodipodi:rx="44.162361"
   sodipodi:cy="99.660515"
   sodipodi:cx="52.191883"
   id="path9697"
   style="opacity:0.60792954;fill:url(#radialGradient1351);fill-opacity:1;stroke:none;stroke-width:3;stroke-linecap:round;stroke-linejoin:round;stroke-miterlimit:4;stroke-opacity:1"
   sodipodi:type="arc" /><path
   id="path8926"
   d="M 189.86622,196.78795 L 195.66591,242.66018 L 232.75771,222.99027 L 189.86622,196.78795 z "
   style="fill:url(#linearGradient1369);fill-opacity:1;fill-rule:evenodd;stroke:none;stroke-width:1px;stroke-linecap:butt;stroke-linejoin:miter;stroke-opacity:1"
   sodipodi:nodetypes="cccc" />
  
  <path
   style="font-size:12px;fill:url(#XMLID_2_);stroke:#000000;stroke-width:4.9579215;stroke-miterlimit:4;stroke-dasharray:none;stroke-opacity:1"
   d="M 29.344375,208.44191 C 28.557356,212.1155 30.106631,213.87723 34.168438,214.3122 L 185.16789,242.08743 C 190.48964,243.27525 196.16959,240.87704 197.20835,236.95289 L 224.664,61.028715 C 225.25703,59.564933 224.24795,57.745126 222.88284,55.569295 L 190.48353,9.52304 C 189.16548,7.9985518 186.96633,6.4740636 184.13779,5.9565639 L 73.624745,10.143028 C 70.875349,9.5923319 67.614111,11.654127 66.281598,14.994614 L 29.344375,208.44191 z "
   id="path169"
   sodipodi:nodetypes="ccccccccccc" />
  <path
   style="font-size:12px;fill:none"
   d="M 6.1064917,187.5664 L 81.19211,22.955289 C 83.237867,16.76541 101.55762,5.8168442 109.64619,7.2576026 L 250.58701,19.106493 C 248.93463,18.110517 246.98214,17.359648 244.78691,16.96867 L 107.11021,3.3322832 C 99.020441,1.8915248 80.701893,12.841287 78.657332,19.029972 L 3.5705181,183.64227 C 2.4047598,187.17063 3.5023661,190.69779 6.1579043,193.34617 C 5.5146451,191.5216 5.4512752,189.5464 6.1064917,187.5664 z "
   id="path170" />
  <g
   id="g171"
   style="font-size:12px;stroke:#000000" />
  <path
   style="font-size:12px;fill:#cccccc;fill-opacity:1"
   d="M 186.55419,217.53746 C 184.1416,221.7938 181.36487,223.53626 173.01249,223.3731 L 62.724143,217.11033 L 180.6795,232.94729 C 188.81287,234.12389 190.55178,231.99893 192.39585,225.74599 L 221.23067,64.918948 L 186.55419,217.53746 z "
   id="path172"
   sodipodi:nodetypes="ccccccc" />
  
  
  
  
  <g
   id="Layer_2"
   style="stroke:#000000">
    <path
   style="fill:none;stroke:none"
   d="M 256,256 L 0,256 L 0,0 L 256,0 L 256,256 z "
   id="path220" />
  </g>
<path
   style="opacity:1;color:#000000;fill:#b3b3b3;fill-opacity:1;fill-rule:nonzero;stroke:none;stroke-width:1;stroke-linecap:butt;stroke-linejoin:miter;marker:none;marker-start:none;marker-mid:none;marker-end:none;stroke-miterlimit:4;stroke-dasharray:none;stroke-dashoffset:0;stroke-opacity:1;visibility:visible;display:inline;overflow:visible"
   d="M 181.45799,49.934332 L 182.44436,61.864547 C 182.74941,64.063218 184.96458,65.18331 186.44929,65.200452 L 225.26329,59.02742 L 181.45799,49.934332 z "
   id="path2204"
   sodipodi:nodetypes="ccccc" /><path
   style="font-size:12px;fill:#000000;fill-opacity:1;overflow:visible"
   d="M 191.14458,226.40538 C 189.63672,231.23179 186.93032,234.11718 178.79054,232.98417 L 63.588955,217.06144 L 183.95225,240.83168 C 192.09196,241.96349 193.81916,239.82901 195.62879,233.56602 L 219.74488,75.325282 L 191.14458,226.40538 z "
   id="path3075"
   sodipodi:nodetypes="ccccccc" /><path
   sodipodi:nodetypes="cccc"
   id="path2212"
   d="M 189.76837,7.082875 L 174.33826,46.185206 C 174.34733,47.196952 174.56618,49.097423 177.2695,49.814544 L 225.51795,58.868327"
   style="fill:none;fill-opacity:0.75;fill-rule:evenodd;stroke:#000000;stroke-width:4.52679777;stroke-linecap:butt;stroke-linejoin:round;stroke-miterlimit:4;stroke-dasharray:none;stroke-opacity:1" /><path
   style="fill:url(#linearGradient2209);fill-opacity:1;fill-rule:evenodd;stroke:none;stroke-width:1px;stroke-linecap:butt;stroke-linejoin:miter;stroke-opacity:1;overflow:visible"
   d="M 189.98687,7.8281162 L 175.86635,44.645619 C 175.52326,45.396158 175.59862,46.874697 176.9488,47.598748 L 225.48273,57.608394"
   id="path2202"
   sodipodi:nodetypes="cccc" /><g
   id="g1582"
   transform="matrix(2.032911,0,0,2.032911,-446.641,-332.1418)"><path
     style="fill:none;stroke:none;overflow:visible"
     d="M 319.43099,254.51807 L 251.93099,254.51807 L 251.93099,187.01807 L 319.43099,187.01807 L 319.43099,254.51807 z "
     id="path190" /><path
     i:knockout="Off"
     style="fill:#0a0701;stroke:none;overflow:visible"
     d="M 251.74817,219.24791 C 251.74817,237.13635 266.27989,251.6901 284.14208,251.6901 C 302.0052,251.6901 316.53833,237.13635 316.53833,219.24791 C 316.53833,201.41572 302.0052,186.90791 284.14208,186.90791 C 266.27989,186.90838 251.74817,201.41619 251.74817,219.24791 z "
     id="path191" /><path
     i:knockout="Off"
     style="opacity:0.36000001;fill:#999999;stroke:none;overflow:visible"
     d="M 257.55599,223.93541 C 257.55599,241.82385 272.0877,256.3776 289.94989,256.3776 C 307.81302,256.3776 322.34614,241.82385 322.34614,223.93541 C 322.34614,206.10322 307.81349,191.59541 289.94989,191.59541 C 272.0877,191.59588 257.55599,206.10369 257.55599,223.93541 z "
     id="path192" /><path
     style="fill:url(#radialGradient1595);stroke:none;overflow:visible"
     d="M 284.14208,249.34635 C 300.73489,249.34635 314.19458,235.83041 314.19458,219.24791 C 314.19458,202.77088 300.73536,189.25166 284.14208,189.25166 C 267.66739,189.25213 254.09192,202.77088 254.09192,219.24791 C 254.09192,235.82994 267.66739,249.34635 284.14208,249.34635 z "
     id="path202" /><path
     style="fill:url(#radialGradient1597);stroke:none;overflow:visible"
     d="M 274.16005,192.55728 C 274.01145,192.55728 273.8488,192.61822 273.68239,192.71244 C 274.07333,192.59807 274.25802,192.55728 274.16005,192.55728 z M 283.83599,194.44541 L 283.93349,193.02932 L 282.43911,193.124 L 282.63786,194.44541 L 283.83599,194.44541 z M 266.97833,218.90619 C 266.67833,218.62354 266.87895,217.39494 266.87895,217.39494 C 266.87895,217.39494 262.38974,215.03572 257.50208,213.61775 C 256.8988,213.44291 257.20349,212.20213 257.79974,211.73103 L 257.60099,210.40494 C 257.50208,209.74588 258.59942,206.53541 259.69677,206.25322 C 260.79364,205.96822 259.59645,208.14088 259.59645,208.14088 L 258.49911,208.80182 C 258.49911,208.80182 259.79567,210.31213 260.09614,210.31213 C 260.39474,210.31213 260.89349,209.55603 260.89349,209.55603 L 259.49708,208.61432 L 260.79411,208.04619 L 260.87567,207.54791 L 261.09317,207.479 L 263.24005,204.22775 C 264.72364,203.62025 266.54708,202.86838 266.77911,202.75728 C 267.17802,202.56978 269.97083,200.96525 270.46958,200.58697 C 270.96927,200.20775 272.06474,200.30385 272.46317,200.30385 C 272.86349,200.30385 273.46161,200.11447 273.56099,199.07385 C 273.66083,198.03557 274.0602,197.84572 274.35974,198.13025 C 274.6588,198.41197 274.05974,198.88494 274.75864,199.07385 C 275.45708,199.26369 276.05427,199.73572 276.55395,199.26369 C 276.91911,198.91728 276.43067,198.524 276.10161,198.22588 L 281.64036,198.22588 L 282.23989,196.52385 L 280.94333,196.33541 L 276.15364,195.86338 L 276.15364,195.29666 L 275.77161,195.36088 C 276.29005,192.51182 279.3702,192.9815 277.05224,191.3315 C 276.91067,191.23072 274.88286,194.52791 274.36677,194.46416 C 273.43161,194.34041 272.2227,194.33103 271.96489,194.63478 C 271.62552,195.03603 272.72989,193.25385 273.68192,192.71244 C 272.16317,193.16057 267.36411,194.8026 262.28942,200.20728 C 257.4388,205.37432 255.50567,212.33572 255.50567,212.579 C 255.50567,213.05057 256.50364,213.23994 256.60349,213.8076 C 256.70286,214.3715 254.70927,216.26197 254.70927,217.20604 C 254.70927,217.6415 254.23817,223.46244 255.90458,228.25729 C 257.8513,233.85369 262.00536,238.52713 262.48864,238.83416 L 263.4852,238.36072 C 263.4852,238.36072 261.19114,234.29994 261.09224,233.92119 C 260.99286,233.54525 263.68583,228.0665 264.98239,228.25682 C 266.27849,228.44291 265.97989,228.82354 266.77817,228.35057 C 267.57599,227.879 268.07427,224.00479 268.97192,223.62979 C 269.87052,223.2501 270.86708,222.779 270.76911,221.83447 C 270.66786,220.88807 267.27692,219.19072 266.97833,218.90619 z M 288.62333,191.14072 L 285.93036,190.19525 L 286.42958,191.70791 L 288.62333,191.14072 z M 278.54849,194.63478 C 278.84849,194.63478 284.83349,190.6701 284.23395,190.57353 C 283.63677,190.48025 283.53645,190.57353 281.93895,190.3851 C 280.3438,190.19572 278.64645,192.65197 278.24849,193.02978 C 277.85099,193.409 277.98458,194.63478 278.54849,194.63478 z M 306.01208,223.11088 L 306.78458,222.10822 L 306.01208,221.83635 L 305.43364,222.56525 L 304.75864,223.56463 L 305.33661,223.83885 L 306.01208,223.11088 z M 309.39083,226.38932 L 309.19724,224.93291 L 307.9438,224.93291 L 307.8477,226.02275 L 306.68661,225.84322 L 306.39927,224.65822 L 305.82036,224.29588 L 305.14349,225.11432 L 304.46942,224.93291 L 304.27489,225.56807 L 305.04739,225.75229 L 305.04739,231.66791 L 307.7802,232.3251 C 307.71786,232.43525 307.67005,232.52666 307.65364,232.57635 C 307.45911,233.21432 308.4252,233.489 309.1002,233.21432 C 309.35192,233.1126 310.14645,232.3101 310.6452,231.12275 C 311.34083,229.469 311.9488,227.28463 312.0702,226.51166 L 312.38333,225.84322 L 310.45255,226.57119 L 309.39036,226.38979 L 309.39083,226.38932 z M 313.44599,215.37463 L 312.94208,214.39822 C 312.34489,211.03213 310.97614,206.72057 308.04083,202.26697 C 303.62427,195.57228 291.33599,191.71025 291.33599,191.71025 L 290.66145,192.52728 L 290.2752,191.8926 L 289.30911,191.5265 L 289.30911,192.34588 L 290.17864,193.07525 L 289.59927,193.34807 L 287.37833,193.52947 L 282.35802,196.26088 L 282.83989,198.44478 L 282.26005,198.62807 L 281.97177,199.08228 L 283.61333,201.53853 L 283.70989,202.35932 L 282.35849,202.63166 L 282.35849,204.26947 L 281.58692,204.45088 L 281.68349,205.72588 L 275.11724,210.27885 L 275.31036,212.8251 C 275.7927,213.46307 279.55958,217.28713 279.55958,217.28713 C 279.55958,217.28713 283.90255,217.46713 284.86864,216.92244 C 285.83427,216.37635 285.15833,217.4676 285.44849,217.74135 C 285.73677,218.01604 285.83427,219.92525 286.12302,220.10854 C 286.41224,220.28994 286.12302,221.38166 286.50927,221.74682 C 286.89505,222.10822 286.89505,226.48119 286.89505,226.48119 C 286.89505,226.48119 289.21208,230.39291 289.21208,231.39463 C 289.21208,232.39541 289.11599,232.30447 290.95067,232.21447 C 292.78536,232.12354 293.1702,231.39463 293.55645,231.12369 C 293.94364,230.849 293.94364,230.21291 294.32989,229.66541 C 294.71661,229.11885 295.39067,227.02588 296.2602,226.29885 C 297.12927,225.56854 299.4463,225.02244 299.63849,223.74932 C 299.83161,222.47479 300.70067,221.47354 300.70067,221.47354 L 304.87536,217.05744 L 304.75724,217.65182 L 304.6602,219.92479 L 305.91552,219.47104 L 305.81989,217.01197 L 305.36849,216.53525 L 305.43317,216.46588 C 305.43317,216.46588 305.14302,215.92072 304.75817,215.92072 C 304.37145,215.92072 302.05302,216.46588 301.6677,216.37588 C 301.28145,216.284 299.63895,211.91478 299.34974,211.73478 C 299.06005,211.55244 297.2263,208.54775 297.2263,208.54775 C 297.2263,208.54775 301.47411,213.64588 302.15005,215.64697 C 302.54239,216.81229 304.0152,215.7276 305.21427,214.51119 L 305.53067,215.28369 L 306.30224,215.09994 L 306.20567,214.19057 L 307.07474,214.19057 L 307.07474,215.55604 L 306.78458,216.284 L 306.68567,217.46666 L 307.45817,218.19604 L 307.8463,217.56041 L 309.09927,216.37588 L 310.54817,215.64697 L 310.93442,216.37588 L 311.12849,217.3776 L 310.74083,218.46885 L 309.9688,219.10635 L 309.58302,220.7451 L 309.58302,221.56213 L 308.71536,221.01697 L 308.61833,219.28869 L 307.36395,219.3801 L 306.78458,220.9251 L 307.65364,222.20197 L 309.68005,222.47479 L 311.32302,220.9251 L 311.5152,217.92416 L 312.24505,216.95994 C 312.7213,218.18244 313.06114,219.46307 313.06114,220.65463 C 313.06114,221.9615 313.65833,219.749 313.1502,215.76322 L 313.44599,215.37463 z M 289.11645,206.09103 L 283.90302,205.90635 L 286.12208,204.08666 L 287.2813,204.08666 L 289.11599,205.35978 L 289.11645,206.09103 z M 295.48911,205.45353 L 295.48911,206.27291 L 293.26911,206.27291 L 293.46224,206.81947 L 292.10942,207.00322 L 292.01333,207.45697 L 291.0477,207.27557 L 289.30958,206.90994 L 289.59927,206.45619 L 289.88942,205.90728 L 290.85458,204.90744 L 291.24083,205.63635 L 292.6902,205.54494 L 293.46177,204.72557 L 296.4538,205.27166 L 295.48911,205.45447 L 295.48911,205.45353 z M 295.68083,204.26947 L 294.52302,204.45088 L 294.33036,203.63103 L 295.77645,203.4501 L 295.97099,202.63119 L 297.03458,203.72478 L 295.68083,204.26947 z M 301.28145,232.57541 L 300.60458,233.12197 L 300.70114,234.48885 L 301.57067,234.48885 L 301.57067,233.30713 L 302.34317,232.30354 L 302.34317,230.21057 L 301.86083,230.11729 L 301.28145,232.57541 z M 294.81411,229.84775 C 294.81411,229.84775 294.1377,230.02635 294.90927,230.3015 C 295.68083,230.57572 298.77036,225.84322 298.77036,225.84322 L 296.16317,227.47963 L 294.8127,229.84775 L 294.81411,229.84775 z M 289.55802,247.29275 L 288.98099,246.74244 L 287.82224,246.55822 L 287.62958,247.10947 L 286.08552,246.92807 L 285.98895,246.19447 L 284.83114,246.19447 L 283.5763,246.92807 L 281.35724,246.92807 L 281.16505,246.37635 L 277.59458,246.00791 L 277.01474,246.55822 L 275.56817,246.194 L 275.37552,244.90869 L 274.70005,244.81541 L 273.92802,246.194 L 271.32317,246.10119 C 271.78864,246.32244 275.67974,248.64275 281.64599,249.12885 C 289.55802,249.76775 293.32208,247.844 293.32208,247.844 L 293.03286,247.56838 L 289.55802,247.29275 z "
     id="path212" /><path
     style="fill:none;stroke:none;overflow:visible"
     d="M 258.94677,208.64853 C 258.94302,208.51166 258.93224,208.37713 258.93224,208.23932 C 258.93224,207.80807 258.96177,207.38103 259.00395,206.95728 C 258.23145,208.01478 257.6263,209.9765 257.70177,210.4776 L 257.90052,211.81307 C 257.30333,212.28885 256.99864,213.54041 257.60239,213.71713 C 258.63411,214.01854 259.64427,214.36307 260.60192,214.71885 C 259.69395,213.01635 259.13052,211.19291 258.9777,209.28978 C 258.75833,209.04697 258.59895,208.86041 258.59895,208.86041 L 258.94677,208.64853 z "
     id="path213" /><path
     style="stroke:none;overflow:visible"
     d="M 258.97817,209.29025 C 258.96083,209.07791 258.95427,208.86322 258.94677,208.64853"
     id="path214" /><path
     style="stroke:none;overflow:visible"
     d="M 282.03974,190.29135 C 281.85458,190.26932 281.66849,190.28572 281.48239,190.32885 C 281.67927,190.31572 281.87614,190.30541 282.07349,190.29603 C 282.0613,190.29463 282.05286,190.29322 282.03974,190.29135 z "
     id="path216" /><path
     style="stroke:none;overflow:visible"
     d="M 274.26036,192.48228 C 274.11177,192.48228 273.94817,192.54322 273.78177,192.63838 C 274.1727,192.5226 274.35786,192.48228 274.26036,192.48228 z "
     id="path217" /><path
     style="opacity:0.5;fill:url(#radialGradient1599);stroke:none;overflow:visible"
     d="M 309.82442,203.7051 C 304.54911,195.06182 295.01942,189.25213 284.14208,189.25213 C 267.66739,189.25213 254.09192,202.77088 254.09192,219.24791 C 254.09192,219.67447 254.10645,220.09775 254.12427,220.5201 C 259.10427,221.72994 264.62614,222.40869 270.44661,222.40869 C 290.71067,222.40869 307.41599,214.24494 309.82442,203.7051 z "
     id="path224" /><path
     i:knockout="Off"
     style="opacity:0.6;fill:#f0f0f0;stroke:none;overflow:visible"
     d="M 312.78833,220.65416 C 312.78833,217.98979 312.38567,215.41869 311.6427,212.99432 C 311.67645,213.62854 311.69661,214.26604 311.69661,214.90869 C 311.69661,229.16807 303.33083,241.38557 291.44005,246.52729 C 303.58208,244.19807 312.78833,233.48572 312.78833,220.65416 z "
     id="path225" /></g><path
   style="opacity:0.29120878;fill:#000000;fill-opacity:1;fill-rule:evenodd;stroke:#000000;stroke-width:5.03493977;stroke-linecap:butt;stroke-linejoin:miter;stroke-miterlimit:4;stroke-dasharray:none;stroke-opacity:1;overflow:visible"
   d="M 91.189774,74.093193 C 80.991529,75.368851 73.79492,84.952122 72.081877,94.579334 C 64.422985,114.08079 50.626783,131.10733 46.727408,152.05134 C 44.561076,165.98013 53.971431,180.28962 67.131411,184.8119 C 71.633877,187.08889 77.815184,186.14511 81.038524,190.68748 C 83.018382,196.92844 78.555474,202.54551 76.893726,208.28488 C 74.814779,213.37146 69.676184,218.29298 63.767049,216.83462 C 59.647443,216.17 52.567339,216.60866 52.719225,222.17912 C 53.622765,227.13512 59.791317,228.0252 63.855339,226.80755 C 72.360981,224.44338 78.681355,216.83127 80.506396,208.3329 C 82.192577,203.73434 82.118428,198.10302 86.058122,194.63405 C 92.181241,192.27008 94.273168,201.73492 89.780056,204.78624 C 85.734511,212.10492 87.438306,221.88672 81.142627,228.06517 C 76.400586,231.74094 69.969314,228.07875 64.896047,230.86916 C 60.465069,232.27312 58.230642,239.57306 62.990972,241.95193 C 72.655512,244.68816 83.213786,237.76158 86.091433,228.42179 C 88.250873,221.78549 89.937668,214.9271 93.532554,208.8674 C 96.231395,203.85842 93.563405,196.52742 98.967905,192.95326 C 106.9149,188.67757 116.42468,191.82328 124.64109,188.45618 C 139.22889,184.7471 153.49766,177.65776 168.91869,179.01406 C 174.65468,180.33012 180.64573,179.8227 186.37209,181.17493 C 191.82102,180.882 186.54387,170.1915 193.25836,172.39346 C 198.32971,171.56622 200.12571,165.41936 202.90609,161.8169 C 203.27273,156.57881 196.88558,156.28228 193.1162,156.98204 C 188.5544,157.46618 183.58806,157.37775 179.79318,154.43368 C 173.95506,150.89182 168.43779,146.50499 161.67075,144.86565 C 149.78179,140.72836 136.84983,137.98756 127.02316,129.61476 C 119.12603,124.28033 109.18674,124.94714 100.32524,122.59288 C 94.65944,120.08557 93.532434,112.98134 94.40246,107.48099 C 95.439052,98.452197 101.23123,90.755833 102.32597,81.768758 C 102.00728,76.453479 95.98638,73.42941 91.189774,74.093193 z "
   id="path1516" /><g
   style="overflow:visible"
   id="g2403"
   transform="translate(287.9729,37.38669)"><path
     id="path1632"
     d="M -248.21452,35.300194 C -253.81002,36.371928 -261.41596,37.527441 -262.81379,44.184299 C -266.17721,49.282562 -273.04708,49.552572 -278.38812,51.240965 C -281.21637,51.082966 -286.18991,56.873622 -283.39978,57.660584 C -281.29434,56.095483 -276.99437,58.539924 -274.11154,57.174466 C -270.61792,56.716415 -266.24393,55.04894 -264.77678,59.141425 C -262.61758,69.177263 -263.79407,77.651732 -265.57371,84.968542 C -268.4873,97.824452 -270.36378,111.88639 -264.79259,124.27985 C -259.9091,135.50349 -250.99532,142.73274 -239.76877,147.07582 C -233.41633,149.68676 -226.74217,151.41655 -220.02702,152.80019 C -220.34856,156.18321 -221.29479,158.88111 -219.84623,162.17404 C -220.37176,167.25596 -220.68245,172.40473 -221.78045,177.39666 C -224.69469,182.05709 -231.83005,179.13014 -236.56854,180.36861 C -239.34483,180.53572 -242.44429,179.09272 -239.72449,182.59564 C -237.03257,186.51378 -248.59025,188.6035 -241.50859,188.60126 C -235.74115,187.56121 -229.57725,192.73262 -224.46654,188.938 C -219.36585,185.99711 -215.37055,181.01282 -217.41851,174.982 C -217.58162,167.85006 -215.90013,160.86432 -215.21452,153.80019 C -210.62814,154.83374 -209.32831,160.9377 -208.27714,164.78467 C -208.45267,168.44827 -210.77577,171.66291 -207.79305,175.03925 C -207.95519,181.02154 -207.94804,187.00832 -208.21452,192.98769 C -213.36641,193.61154 -220.77664,192.37647 -224.46834,192.56925 C -221.78904,198.29603 -231.3558,199.96888 -232.9161,201.48246 C -229.17976,203.3506 -224.32098,202.36122 -221.26056,205.64011 C -216.47009,208.67746 -211.73981,203.24963 -207.64927,201.2371 C -203.31864,198.63498 -203.19966,194.34685 -204.58176,190.24008 C -203.95369,184.56501 -205.36798,178.54167 -203.50615,173.09972 C -201.26249,167.33935 -208.11393,161.80716 -204.79776,156.46166 C -201.389,152.92068 -196.01652,154.85287 -191.69264,153.73075 C -185.81168,153.19561 -179.98505,152.12878 -174.51676,149.84787 C -165.44985,146.79615 -156.12768,144.56689 -147.08952,141.42519 C -136.83883,142.63061 -126.5191,144.2501 -116.17596,143.36268 C -112.28714,139.98401 -121.07107,137.55442 -123.55181,136.19883 C -126.1881,135.54821 -130.09449,132.6156 -125.20584,134.05609 C -113.8764,136.11651 -102.69034,138.95473 -91.277019,140.55019 C -94.87674,137.99263 -99.499239,137.49489 -103.5292,135.8037 C -108.45996,134.20047 -113.42924,132.71645 -118.33952,131.05019 C -111.73474,129.0634 -104.80535,127.74679 -98.777019,124.23769 C -97.911668,120.39507 -105.73333,121.68135 -108.36683,120.81813 C -116.6292,120.0964 -124.92839,120.04755 -133.21452,119.86269 C -143.93633,111.74973 -157.1921,108.34093 -169.65199,103.87752 C -177.55252,101.39977 -185.75832,99.46689 -192.84624,95.011204 C -201.57446,90.329915 -211.07279,87.32093 -220.75106,85.378367 C -226.68363,83.59434 -233.07819,79.639513 -234.48544,73.20883 C -234.51816,67.16311 -230.29162,62.048236 -230.2394,55.959736 C -229.54409,48.246606 -232.91589,39.261616 -240.39973,36.051017 C -242.90988,35.195551 -245.60022,35.283913 -248.21452,35.300194 z "
     style="fill:#000000;fill-opacity:1;fill-rule:evenodd;stroke:#000000;stroke-width:6;stroke-linecap:butt;stroke-linejoin:round;stroke-miterlimit:4;stroke-dasharray:none;stroke-opacity:1;overflow:visible"
     sodipodi:nodetypes="ccccccccccccccccccccccccccccccccccccccccccccccc" /><path
     d="M -204.78762,193.08856 C -202.30855,193.46792 -202.44844,201.27037 -219.69675,207.33445 C -223.9333,202.23422 -228.0866,203.90844 -233.58301,201.61485 C -235.87691,200.65763 -221.08012,200.10292 -225.08213,192.20316 C -218.31729,193.73095 -211.60848,193.1296 -204.78762,193.08856 z "
     id="path1486"
     style="fill:url(#radialGradient2423);fill-opacity:1;fill-rule:evenodd;stroke:none;stroke-width:0.25pt;stroke-linecap:butt;stroke-linejoin:miter;stroke-opacity:1"
     sodipodi:nodetypes="ccscc" /><path
     d="M -209.07853,159.65791 L -206.59761,159.77893 C -200.58693,175.26955 -205.22605,171.75996 -204.78231,177.38741 L -204.8854,194.10866 C -201.81156,199.23208 -219.82885,207.51937 -219.81644,206.61295 C -205.57122,197.76732 -206.57175,195.24035 -206.75908,195.32729 C -217.46023,200.29366 -231.85472,201.71596 -233.6861,201.53652 C -233.2589,200.71387 -218.39854,199.33564 -209.52781,194.47945 C -218.13687,193.81404 -217.69121,194.07609 -224.85064,192.2029 C -218.03311,193.56454 -212.28993,193.40128 -208.53394,193.16695 L -208.17088,174.42241 C -208.2919,173.19203 -211.74099,173.59543 -208.53394,166.91914 L -209.07853,159.65791 z "
     id="path1488"
     style="fill:url(#linearGradient2425);fill-opacity:1;fill-rule:evenodd;stroke:none;stroke-width:0.25pt;stroke-linecap:butt;stroke-linejoin:miter;stroke-opacity:1"
     sodipodi:nodetypes="cccccsccccccc" /><path
     d="M -213.91935,152.94127 C -203.55193,174.42241 -208.97769,154.99862 -202.24088,154.39352 C -202.24088,154.39352 -205.81098,147.37433 -206.05302,147.37433 C -212.10405,147.07178 -213.91935,152.94127 -213.91935,152.94127 z "
     id="path1490"
     style="fill:url(#linearGradient2427);fill-opacity:1;fill-rule:evenodd;stroke:none;stroke-width:0.25pt;stroke-linecap:butt;stroke-linejoin:miter;stroke-opacity:1" /><path
     d="M -129.0744,133.59913 L -127.34169,126.19575 L -118.36313,131.39386 C -64.91178,148.03834 -103.13632,138.21968 -129.0744,133.59913 z "
     id="path1492"
     style="fill:url(#radialGradient2429);fill-opacity:1;fill-rule:evenodd;stroke:none;stroke-width:0.25pt;stroke-linecap:butt;stroke-linejoin:miter;stroke-opacity:1" /><path
     d="M -135.53267,135.48935 C -85.44172,123.3079 -87.48946,120.7351 -133.79996,120.05252 L -135.53267,135.48935 z "
     id="path1494"
     style="fill:url(#radialGradient2431);fill-opacity:1;fill-rule:evenodd;stroke:none;stroke-width:0.25pt;stroke-linecap:butt;stroke-linejoin:miter;stroke-opacity:1" /><path
     d="M -148.13416,141.47506 C -138.84056,142.68271 -90.00976,149.40351 -131.5947,133.12657 L -148.60672,130.60627 L -148.13416,141.47506 z "
     id="path1496"
     style="fill:url(#radialGradient2433);fill-opacity:1;fill-rule:evenodd;stroke:none;stroke-width:0.25pt;stroke-linecap:butt;stroke-linejoin:miter;stroke-opacity:1" /><path
     d="M -219.24985,180.05379 C -217.34005,185.24123 -224.64375,188.57049 -229.08275,191.20292 C -233.75403,187.69301 -240.43834,189.98993 -245.18704,188.33821 C -238.94147,186.14451 -238.735,182.9443 -241.54809,180.36349 C -232.79913,181.3442 -226.68259,180.15703 -219.24985,180.05379 z "
     id="path1498"
     style="fill:url(#linearGradient2435);fill-opacity:1;fill-rule:evenodd;stroke:none;stroke-width:0.25pt;stroke-linecap:butt;stroke-linejoin:miter;stroke-opacity:1" /><path
     d="M -220.55243,149.98492 L -215.51567,150.53239 C -215.29668,158.85399 -219.34798,169.91295 -217.15809,181.08142 C -220.66742,187.34045 -225.80267,189.88312 -229.31201,191.26442 C -225.3502,188.54034 -220.76901,184.50004 -222.30434,182.39535 C -229.9004,185.21349 -237.18677,186.79285 -244.86025,188.52705 C -237.62918,185.16144 -230.0884,182.57006 -223.39929,180.75293 C -229.79091,181.37675 -236.10511,181.07149 -242.34187,180.53394 C -235.49899,180.67001 -229.12066,180.2641 -222.74232,179.54849 C -221.46488,175.57018 -220.40643,167.10259 -220.22394,160.05843 C -223.2168,158.48901 -219.74947,155.38666 -220.33344,154.58369 L -220.55243,149.98492 z "
     id="path1500"
     style="fill:url(#radialGradient2437);fill-opacity:1;fill-rule:evenodd;stroke:none;stroke-width:0.25pt;stroke-linecap:butt;stroke-linejoin:miter;stroke-opacity:1" /><path
     sodipodi:nodetypes="cssscsscccsc"
     d="M -266.59116,87.782809 C -263.2009,77.591407 -263.34839,73.680171 -264.15708,63.36766 C -264.59579,57.773151 -268.70243,52.280449 -265.43598,47.912307 C -261.15635,42.189257 -263.9869,38.99666 -252.89929,36.407212 C -239.75577,33.337617 -235.62104,38.405765 -232.50498,44.819596 C -226.60126,57.320106 -235.72872,68.97581 -235.00676,73.15981 C -233.88139,79.68177 -225.7928,84.59991 -219.96839,85.81078 C -198.59774,90.25362 -192.87255,96.19837 -185.2877,99.2608 C -163.85612,106.06249 -127.97184,116.2688 -130.01698,126.94189 C -128.48338,140.33795 -162.65946,144.63154 -181.43136,152.42608 C -192.28698,154.0548 -205.77038,156.02215 -214.44316,154.19764 C -231.35176,150.64056 -279.27015,144.50117 -266.59116,87.782809 z "
     id="path1502"
     style="fill:url(#radialGradient2439);fill-opacity:1;fill-rule:evenodd;stroke:none;stroke-width:0.25pt;stroke-linecap:butt;stroke-linejoin:miter;stroke-opacity:1" /><path
     d="M -217.92167,105.63092 C -228.42452,103.68594 -219.28429,93.43749 -216.2879,91.16032 C -210.15216,86.49733 -181.90079,104.07494 -155.37137,110.76564 C -147.18304,113.2941 -141.56207,117.22295 -138.97526,120.4516 C -136.38845,123.68025 -141.254,133.67741 -145.91881,131.77134 C -168.98618,124.30264 -194.85431,113.09961 -217.92167,105.63092 z "
     id="path1504"
     style="fill:url(#linearGradient2441);fill-opacity:1;fill-rule:evenodd;stroke:none;stroke-width:0.25pt;stroke-linecap:butt;stroke-linejoin:miter;stroke-opacity:1" /><path
     d="M -225.18579,103.81521 C -198.1925,105.84217 -207.98127,97.93205 -142.87108,131.69838 C -146.48008,135.99951 -164.92055,149.49616 -184.39922,153.05571 C -191.71608,151.67144 -187.76103,144.05795 -206.34981,148.9029 C -209.41498,151.17706 -227.60827,137.58154 -231.56333,134.36805 C -234.05996,125.37029 -237.14985,119.63545 -222.59028,117.60848 C -238.28693,111.23094 -232.32962,106.33656 -225.18579,103.81521 z "
     id="path1506"
     style="fill:url(#linearGradient2443);fill-opacity:1;fill-rule:evenodd;stroke:none;stroke-width:0.25pt;stroke-linecap:butt;stroke-linejoin:miter;stroke-opacity:1" /><path
     sodipodi:nodetypes="csccs"
     d="M -260.28926,40.086667 C -262.97861,42.894197 -270.84386,55.200818 -268.77465,54.899611 C -264.81087,54.322617 -252.43199,60.590128 -250.0469,67.327908 C -248.09738,61.821568 -244.25869,38.378778 -237.04915,49.012024 C -234.02009,39.75299 -250.79195,30.171998 -260.28926,40.086667 z "
     id="path1508"
     style="fill:url(#radialGradient2445);fill-opacity:1;fill-rule:evenodd;stroke:none;stroke-width:0.25pt;stroke-linecap:butt;stroke-linejoin:miter;stroke-opacity:1;overflow:visible" /><path
     d="M -284.844,58.456068 C -284.29951,55.473038 -283.61428,52.445696 -278.88235,51.454753 C -270.31404,49.660413 -266.23985,47.438504 -262.76918,45.548435 C -263.68076,46.644486 -265.98362,49.617099 -266.19917,51.039504 C -266.30694,51.750706 -259.59066,53.884235 -259.96171,53.914704 L -265.28712,54.351996 C -271.35952,54.685481 -278.97221,53.984298 -284.844,58.456068 z "
     id="path1513"
     style="opacity:1;color:#000000;fill:#ffe71e;fill-opacity:1;fill-rule:evenodd;stroke:#ab8c1c;stroke-width:0.2428882;stroke-linecap:butt;stroke-linejoin:miter;marker:none;marker-start:none;marker-mid:none;marker-end:none;stroke-miterlimit:4;stroke-dasharray:none;stroke-dashoffset:0;stroke-opacity:1;visibility:visible;display:inline;overflow:visible"
     sodipodi:nodetypes="cscsscc" /><path
     d="M -252.56616,45.954411 C -251.88556,44.424472 -247.25836,42.769921 -245.63728,43.910212 C -244.99072,44.365014 -245.08542,48.99661 -247.97813,49.299467 C -250.65095,49.579301 -252.87871,46.656996 -252.56616,45.954411 z "
     id="path1515"
     style="fill:#000000;fill-opacity:1;fill-rule:evenodd;stroke:none;stroke-width:0.25pt;stroke-linecap:butt;stroke-linejoin:miter;stroke-opacity:1;overflow:visible" /><path
     sodipodi:nodetypes="cscc"
     id="path1517"
     d="M -265.48665,55.668345 C -265.48665,55.668345 -263.98192,59.037195 -264.13239,63.353528 C -264.29169,67.922908 -248.63365,69.038447 -248.63365,69.038447 C -248.63365,69.038447 -256.45826,56.194727 -265.48665,55.668345 z "
     style="opacity:0.45303865;fill:url(#linearGradient2447);fill-opacity:1;fill-rule:evenodd;stroke:none;stroke-width:1px;stroke-linecap:butt;stroke-linejoin:miter;stroke-opacity:1;overflow:visible" /><path
     sodipodi:nodetypes="cccccccccc"
     id="path1510"
     d="M -282.79905,57.458291 L -277.79137,58.500227 L -271.74805,57.506968 L -265.56664,56.598511 L -259.19525,54.071136 L -264.94338,54.455624 L -273.45554,54.277111 L -279.09058,55.535852 L -281.77922,56.593193 L -282.79905,57.458291 z "
     style="fill:#ffe71e;fill-opacity:1;fill-rule:evenodd;stroke:#ab8c1c;stroke-width:0.2388097;stroke-linecap:butt;stroke-linejoin:miter;stroke-miterlimit:4;stroke-dasharray:none;stroke-opacity:1;overflow:visible" /><path
     id="path1519"
     d="M -272.84013,52.822783 C -271.62075,51.867812 -268.26744,51.867812 -268.26744,51.867812 L -271.3159,53.300266 L -272.84013,52.822783 z "
     style="fill:#b0921c;fill-opacity:1;fill-rule:evenodd;stroke:none;stroke-width:1px;stroke-linecap:butt;stroke-linejoin:miter;stroke-opacity:1;overflow:visible" /></g></svg>