<?xml version="1.0" encoding="UTF-8" standalone="no"?>
<!-- Created with Sodipodi ("http://www.sodipodi.com/") -->
<svg
   xmlns:dc="http://purl.org/dc/elements/1.1/"
   xmlns:cc="http://web.resource.org/cc/"
   xmlns:rdf="http://www.w3.org/1999/02/22-rdf-syntax-ns#"
   xmlns:svg="http://www.w3.org/2000/svg"
   xmlns="http://www.w3.org/2000/svg"
   xmlns:xlink="http://www.w3.org/1999/xlink"
   xmlns:sodipodi="http://inkscape.sourceforge.net/DTD/sodipodi-0.dtd"
   xmlns:inkscape="http://www.inkscape.org/namespaces/inkscape"
   width="128"
   height="128"
   viewBox="0 0 256 256"
   style="overflow:visible;enable-background:new 0 0 256 256"
   xml:space="preserve"
   id="svg153"
   sodipodi:version="0.32"
   sodipodi:docname="x-office-presentation.svg"
   sodipodi:docbase="/data/img/icons/Chimera/scalable/mimetypes/office"
   inkscape:version="0.43"
   version="1.0"><metadata
   id="metadata29"><rdf:RDF><cc:Work
       rdf:about=""><dc:format>image/svg+xml</dc:format><dc:type
         rdf:resource="http://purl.org/dc/dcmitype/StillImage" /></cc:Work></rdf:RDF></metadata>
  <defs
   id="defs222"><linearGradient
     id="linearGradient2384"><stop
       style="stop-color:#e2e2e2;stop-opacity:1;"
       offset="0"
       id="stop2386" /><stop
       style="stop-color:#474747;stop-opacity:1;"
       offset="1"
       id="stop2388" /></linearGradient><linearGradient
     inkscape:collect="always"
     xlink:href="#linearGradient2384"
     id="linearGradient2447"
     gradientUnits="userSpaceOnUse"
     gradientTransform="matrix(1.429315,0,0,1,-300.246,-40.31146)"
     x1="26.712187"
     y1="106.9031"
     x2="24.318859"
     y2="96.934219" /><radialGradient
     inkscape:collect="always"
     xlink:href="#linearGradient3665"
     id="radialGradient2445"
     gradientUnits="userSpaceOnUse"
     gradientTransform="matrix(0.524032,0,0,0.486559,-371.9026,-4.721192)"
     cx="211.60207"
     cy="113.10805"
     fx="211.60207"
     fy="113.10805"
     r="53.717434" /><linearGradient
     id="linearGradient2316"><stop
       style="stop-color:#c0c0c0;stop-opacity:1;"
       offset="0"
       id="stop2318" /><stop
       style="stop-color:#373737;stop-opacity:1;"
       offset="1"
       id="stop2320" /></linearGradient><linearGradient
     inkscape:collect="always"
     xlink:href="#linearGradient2316"
     id="linearGradient2443"
     gradientUnits="userSpaceOnUse"
     gradientTransform="matrix(0.599602,0,0,0.325558,-365.1949,5.83661)"
     x1="209.51004"
     y1="278.96658"
     x2="334.97629"
     y2="435.53052" /><linearGradient
     id="linearGradient2914"><stop
       style="stop-color:#cbcbcb;stop-opacity:1;"
       offset="0"
       id="stop2916" /><stop
       style="stop-color:#474747;stop-opacity:1;"
       offset="1"
       id="stop2918" /></linearGradient><linearGradient
     inkscape:collect="always"
     xlink:href="#linearGradient2914"
     id="linearGradient2441"
     gradientUnits="userSpaceOnUse"
     gradientTransform="matrix(0.631664,0,0,0.309034,-365.1949,5.83661)"
     x1="235.75317"
     y1="285.14722"
     x2="334.75375"
     y2="437.32922" /><radialGradient
     inkscape:collect="always"
     xlink:href="#linearGradient3665"
     id="radialGradient2439"
     gradientUnits="userSpaceOnUse"
     gradientTransform="matrix(0.387179,0,0,0.504174,-365.1949,5.83661)"
     cx="264.97308"
     cy="239.3893"
     fx="264.97308"
     fy="239.3893"
     r="230.98981" /><radialGradient
     inkscape:collect="always"
     xlink:href="#linearGradient3036"
     id="radialGradient2437"
     gradientUnits="userSpaceOnUse"
     gradientTransform="matrix(0.372821,0,0,0.52359,-365.1949,5.83661)"
     cx="394.8071"
     cy="335.73883"
     fx="394.8071"
     fy="335.73883"
     r="54.393486" /><linearGradient
     inkscape:collect="always"
     xlink:href="#linearGradient3036"
     id="linearGradient2435"
     gradientUnits="userSpaceOnUse"
     gradientTransform="matrix(0.677927,0,0,0.287945,-365.1949,5.83661)"
     x1="208.90097"
     y1="608.96948"
     x2="187.99234"
     y2="646.17664" /><radialGradient
     inkscape:collect="always"
     xlink:href="#linearGradient3665"
     id="radialGradient2433"
     gradientUnits="userSpaceOnUse"
     gradientTransform="matrix(0.702612,0,0,0.277828,-365.1949,5.83661)"
     cx="314.15039"
     cy="463.8114"
     fx="314.15039"
     fy="463.8114"
     r="47.28022" /><radialGradient
     inkscape:collect="always"
     xlink:href="#linearGradient11793"
     id="radialGradient2431"
     gradientUnits="userSpaceOnUse"
     gradientTransform="matrix(0.668036,0,0,0.292208,-365.1949,5.83661)"
     cx="398.33551"
     cy="397.50015"
     fx="398.33551"
     fy="397.50015"
     r="86.741104" /><radialGradient
     inkscape:collect="always"
     xlink:href="#linearGradient11793"
     id="radialGradient2429"
     gradientUnits="userSpaceOnUse"
     gradientTransform="matrix(0.711727,0,0,0.27427,-365.1949,5.83661)"
     cx="382.02158"
     cy="483.98965"
     fx="382.02158"
     fy="483.98965"
     r="62.762577" /><linearGradient
     inkscape:collect="always"
     xlink:href="#linearGradient11793"
     id="linearGradient2427"
     gradientUnits="userSpaceOnUse"
     gradientTransform="matrix(0.38208,0,0,0.510902,-365.1949,5.83661)"
     x1="395.74567"
     y1="292.34103"
     x2="426.67255"
     y2="292.34103" /><linearGradient
     inkscape:collect="always"
     xlink:href="#linearGradient3036"
     id="linearGradient2425"
     gradientUnits="userSpaceOnUse"
     gradientTransform="matrix(0.273844,0,0,0.712835,-365.1949,5.83661)"
     x1="512.39142"
     y1="281.69412"
     x2="593.20197"
     y2="241.04013" /><radialGradient
     inkscape:collect="always"
     xlink:href="#linearGradient3036"
     id="radialGradient2423"
     gradientUnits="userSpaceOnUse"
     gradientTransform="matrix(0.615306,0,0,0.31725,-365.1949,5.83661)"
     cx="262.29004"
     cy="588.35461"
     fx="262.29004"
     fy="588.35461"
     r="57.946537" /><radialGradient
     inkscape:collect="always"
     xlink:href="#linearGradient10457"
     id="radialGradient1351"
     gradientUnits="userSpaceOnUse"
     gradientTransform="scale(2.110067,0.473919)"
     cx="24.734711"
     cy="210.29031"
     fx="24.734711"
     fy="210.29031"
     r="20.929369" /><linearGradient
     id="linearGradient3665"><stop
       id="stop3666"
       offset="0.00000000"
       style="stop-color:#fffaf4;stop-opacity:1.0000000;" /><stop
       id="stop3667"
       offset="1.0000000"
       style="stop-color:#bcbcbc;stop-opacity:1.0000000;" /></linearGradient><linearGradient
     id="linearGradient11793"><stop
       id="stop11794"
       offset="0.00000000"
       style="stop-color:#b4a396;stop-opacity:1.0000000;" /><stop
       id="stop11795"
       offset="1.0000000"
       style="stop-color:#060505;stop-opacity:1.0000000;" /></linearGradient><linearGradient
     id="linearGradient3036"><stop
       id="stop3037"
       offset="0.00000000"
       style="stop-color:#dcc15e;stop-opacity:1.0000000;" /><stop
       id="stop3038"
       offset="1.0000000"
       style="stop-color:#8c673c;stop-opacity:1.0000000;" /></linearGradient><linearGradient
     id="linearGradient10457"><stop
       id="stop10459"
       offset="0"
       style="stop-color:#000000;stop-opacity:0.71428573;" /><stop
       id="stop10461"
       offset="1"
       style="stop-color:#000000;stop-opacity:0;" /></linearGradient><linearGradient
     id="linearGradient6154"
     gradientUnits="userSpaceOnUse"
     x1="27.294901"
     y1="25.4727"
     x2="20.945299"
     y2="11.0039"><stop
       offset="0"
       style="stop-color:#f5f5f5;stop-opacity:1;"
       id="stop6156" /><stop
       offset="1"
       style="stop-color:#e1e1e1;stop-opacity:1;"
       id="stop6158" /></linearGradient><linearGradient
     id="linearGradient4402"
     gradientUnits="userSpaceOnUse"
     x1="24.6035"
     y1="9.3432999"
     x2="24.6035"
     y2="10.4377"><stop
       offset="0"
       style="stop-color:#F0F0F0"
       id="stop4404" /><stop
       offset="1"
       style="stop-color:#686868"
       id="stop4406" /></linearGradient><radialGradient
     gradientUnits="userSpaceOnUse"
     fy="30.991199"
     fx="24.774401"
     r="0.59020001"
     cy="30.991199"
     cx="24.774401"
     id="aigrd7"><stop
       id="stop13046"
       style="stop-color:#F0F0F0"
       offset="0" /><stop
       id="stop13048"
       style="stop-color:#848484"
       offset="1" /></radialGradient><linearGradient
     inkscape:collect="always"
     id="linearGradient6687"><stop
       style="stop-color:#ffffff;stop-opacity:1;"
       offset="0"
       id="stop6689" /><stop
       style="stop-color:#ffffff;stop-opacity:0;"
       offset="1"
       id="stop6691" /></linearGradient><linearGradient
     id="linearGradient6719"><stop
       style="stop-color:#73d216;stop-opacity:1;"
       offset="0"
       id="stop6721" /><stop
       style="stop-color:#d5f7b3;stop-opacity:1.0000000;"
       offset="1.0000000"
       id="stop6723" /></linearGradient><linearGradient
     id="linearGradient6711"><stop
       style="stop-color:#5b8ccb;stop-opacity:1.0000000;"
       offset="0.0000000"
       id="stop6713" /><stop
       style="stop-color:#3465a4;stop-opacity:1.0000000;"
       offset="1.0000000"
       id="stop6715" /></linearGradient><linearGradient
     id="linearGradient6699"><stop
       style="stop-color:#ff7171;stop-opacity:1.0000000;"
       offset="0.0000000"
       id="stop6701" /><stop
       style="stop-color:#cc0000;stop-opacity:1.0000000;"
       offset="1.0000000"
       id="stop6703" /></linearGradient><linearGradient
     inkscape:collect="always"
     id="linearGradient10020"><stop
       style="stop-color:#ffffff;stop-opacity:1;"
       offset="0"
       id="stop10022" /><stop
       style="stop-color:#ffffff;stop-opacity:0;"
       offset="1"
       id="stop10024" /></linearGradient><linearGradient
     inkscape:collect="always"
     xlink:href="#linearGradient6154"
     id="linearGradient1525"
     gradientUnits="userSpaceOnUse"
     gradientTransform="matrix(9.134891,0,0,7.559317,-64.17628,-52.44405)"
     x1="27.294901"
     y1="25.4727"
     x2="20.945299"
     y2="11.0039" /><linearGradient
     inkscape:collect="always"
     xlink:href="#linearGradient10020"
     id="linearGradient1529"
     gradientUnits="userSpaceOnUse"
     gradientTransform="matrix(3.093238,0.508984,-0.496631,3.018165,51.46686,11.73545)"
     x1="23.379572"
     y1="28.369167"
     x2="24.24518"
     y2="6.0000024" /><linearGradient
     inkscape:collect="always"
     xlink:href="#linearGradient4402"
     id="linearGradient1531"
     gradientUnits="userSpaceOnUse"
     gradientTransform="matrix(7.999545,1.544471e-8,1.809229e-7,8.948249,-50.46465,-42.42928)"
     x1="24.919374"
     y1="6.1478682"
     x2="24.919374"
     y2="7.4600263" /><linearGradient
     inkscape:collect="always"
     xlink:href="#linearGradient6699"
     id="linearGradient1535"
     gradientUnits="userSpaceOnUse"
     x1="-22.976406"
     y1="18.516047"
     x2="-14.360273"
     y2="33.016045" /><linearGradient
     inkscape:collect="always"
     xlink:href="#linearGradient6711"
     id="linearGradient1537"
     gradientUnits="userSpaceOnUse"
     x1="-16.387411"
     y1="24.453547"
     x2="-9.7352734"
     y2="28.195539" /><linearGradient
     inkscape:collect="always"
     xlink:href="#linearGradient6719"
     id="linearGradient1539"
     gradientUnits="userSpaceOnUse"
     x1="-17.863041"
     y1="30.827509"
     x2="-20.821646"
     y2="25.015009" /><linearGradient
     inkscape:collect="always"
     xlink:href="#linearGradient6687"
     id="linearGradient1541"
     gradientUnits="userSpaceOnUse"
     x1="-20.75"
     y1="29"
     x2="-19.5"
     y2="18.75" /><radialGradient
     inkscape:collect="always"
     xlink:href="#aigrd7"
     id="radialGradient2298"
     gradientUnits="userSpaceOnUse"
     gradientTransform="matrix(10.83415,1.782729,-1.739462,10.5712,-79.48782,-190.3116)"
     cx="24.774401"
     cy="30.991199"
     fx="24.774401"
     fy="30.991199"
     r="0.59020001" /></defs>
  <sodipodi:namedview
   id="base"
   inkscape:zoom="4.7494004"
   inkscape:cx="89.13614"
   inkscape:cy="50.767986"
   inkscape:window-width="996"
   inkscape:window-height="643"
   inkscape:window-x="276"
   inkscape:window-y="60"
   inkscape:current-layer="layer1" />
  <g
   inkscape:groupmode="layer"
   id="layer2"
   inkscape:label="bot"
   sodipodi:insensitive="true"
   style="display:inline" />
  
  
  <path
   style="font-size:12px;fill:none"
   d="M 6.1064917,187.5664 L 81.19211,22.955289 C 83.237867,16.76541 101.55762,5.8168442 109.64619,7.2576026 L 250.58701,19.106493 C 248.93463,18.110517 246.98214,17.359648 244.78691,16.96867 L 107.11021,3.3322832 C 99.020441,1.8915248 80.701893,12.841287 78.657332,19.029972 L 3.5705181,183.64227 C 2.4047598,187.17063 3.5023661,190.69779 6.1579043,193.34617 C 5.5146451,191.5216 5.4512752,189.5464 6.1064917,187.5664 z "
   id="path170" />
  <g
   id="g171"
   style="font-size:12px;stroke:#000000" />
  
  
  
  
  
  <g
   id="Layer_2"
   style="stroke:#000000">
    <path
   style="fill:none;stroke:none"
   d="M 256,256 L 0,256 L 0,0 L 256,0 L 256,256 z "
   id="path220" />
  </g>
<g
   inkscape:groupmode="layer"
   id="layer1"
   inkscape:label="top"
   style="display:inline"><path
     transform="matrix(2.325711,1.483191e-2,-0.226439,2.561182,51.58134,-34.63621)"
     d="M 96.354244 99.660515 A 44.162361 9.9188194 0 1 1  8.0295219,99.660515 A 44.162361 9.9188194 0 1 1  96.354244 99.660515 z"
     sodipodi:ry="9.9188194"
     sodipodi:rx="44.162361"
     sodipodi:cy="99.660515"
     sodipodi:cx="52.191883"
     id="path9697"
     style="opacity:0.60792954;fill:url(#radialGradient1351);fill-opacity:1;stroke:none;stroke-width:3;stroke-linecap:round;stroke-linejoin:round;stroke-miterlimit:4;stroke-opacity:1;overflow:visible"
     sodipodi:type="arc" /><g
     id="g2287"
     transform="matrix(1.45888,-0.268319,0.263416,1.492141,-87.60391,-51.63103)"><path
       style="fill:#a4a4a4;fill-rule:nonzero;stroke:#555753;stroke-miterlimit:4;stroke-opacity:1;overflow:visible"
       d="M 139.11495,188.19146 L 132.98405,187.18264 L 148.68829,91.743548 L 154.81919,92.752372 L 139.11568,188.18708 L 139.11495,188.19146 z "
       id="path10010"
       inkscape:r_cx="true"
       inkscape:r_cy="true" /><path
       inkscape:r_cy="true"
       inkscape:r_cx="true"
       id="path13009"
       d="M 137.62391,187.94611 L 134.47513,187.42799 L 150.17937,91.988901 L 153.32814,92.507024 L 137.62463,187.94173 L 137.62391,187.94611 z "
       style="fill:#a4a4a4;fill-rule:nonzero;stroke:none;stroke-miterlimit:4;overflow:visible" /><g
       inkscape:r_cy="true"
       inkscape:r_cx="true"
       id="g13020"
       style="fill:#a4a4a4;fill-rule:nonzero;stroke:#555753;stroke-miterlimit:4;stroke-opacity:1;overflow:visible"
       transform="matrix(4.760542,0.783334,-0.764322,4.645003,41.47673,21.22648)"><path
         sodipodi:nodetypes="ccccc"
         style="stroke:#383936;stroke-opacity:1"
         inkscape:r_cy="true"
         inkscape:r_cx="true"
         id="path13022"
         d="M 31.492,35.959 L 25.217,31.321 L 25.151306,31.665948 L 29.016987,35.821789 L 31.492,35.959 z " /><path
         sodipodi:nodetypes="ccccc"
         style="stroke:#30312e;stroke-opacity:1"
         inkscape:r_cy="true"
         inkscape:r_cx="true"
         id="path13024"
         d="M 18.408,35.959 L 24.683,31.321 L 24.63283,31.72338 L 20.64832,35.966636 L 18.408,35.959 z " /></g><g
       transform="matrix(4.760542,0.783334,-0.764322,4.645003,41.47673,21.22648)"
       style="fill:#a4a4a4;fill-rule:nonzero;stroke:none;stroke-miterlimit:4;overflow:visible"
       id="g10004"
       inkscape:r_cx="true"
       inkscape:r_cy="true"><path
         d="M 30.663474,35.906849 L 31.492,35.959 L 25.217,31.321 L 24.778,31.307 L 29.371107,35.768162 L 30.663474,35.906849 z "
         id="path10006"
         inkscape:r_cx="true"
         inkscape:r_cy="true"
         sodipodi:nodetypes="cccccc" /><path
         d="M 19.52988,36.009627 L 18.408,35.959 L 24.683,31.321 L 25.121,31.307 L 20.236225,35.960371 L 19.52988,36.009627 z "
         id="path10008"
         inkscape:r_cx="true"
         inkscape:r_cy="true"
         sodipodi:nodetypes="cccccc" /></g><path
       inkscape:r_cy="true"
       inkscape:r_cx="true"
       id="path13050"
       d="M 143.87151,185.49737 C 143.22965,189.39815 139.47013,192.02592 135.47232,191.36809 C 131.47454,190.71027 128.75522,187.01642 129.39709,183.11564 C 130.03721,179.22545 133.79846,176.58713 137.79624,177.24495 C 141.79405,177.90278 144.51163,181.60718 143.87151,185.49737 z "
       style="fill:url(#radialGradient2298);fill-rule:nonzero;stroke:#555753;stroke-miterlimit:4;stroke-opacity:1;overflow:visible;stroke-width:1.66758068;stroke-dasharray:none" /></g><path
     style="fill:url(#linearGradient1525);fill-rule:nonzero;stroke:#888a85;stroke-width:3.79999995;stroke-linejoin:round;stroke-miterlimit:4;stroke-dasharray:none;stroke-opacity:1;overflow:visible;fill-opacity:1.0"
     d="M 154.61947,164.14329 L 47.14036,151.63709 L 72.152768,25.296021 L 229.06116,18.149619 L 203.45322,170.09863 L 154.61947,164.14329 z "
     id="path13016"
     inkscape:r_cx="true"
     inkscape:r_cy="true"
     sodipodi:nodetypes="cccccc" /><path
     inkscape:r_cy="true"
     inkscape:r_cx="true"
     id="path10018"
     d="M 129.71597,157.61192 L 51.991475,148.05682 L 75.126843,30.319824 L 222.52875,29.750861 L 199.39339,165.35386 L 129.71597,157.61192 z "
     style="fill:none;fill-rule:nonzero;stroke:url(#linearGradient1529);stroke-width:2.5999999;stroke-linejoin:miter;stroke-miterlimit:4;stroke-dasharray:none;stroke-opacity:1;overflow:visible"
     sodipodi:nodetypes="cccccc" /><rect
     style="opacity:1;color:#000000;fill:url(#linearGradient1531);fill-opacity:1;fill-rule:nonzero;stroke:#555753;stroke-width:3.8598597;stroke-linecap:butt;stroke-linejoin:miter;marker:none;marker-start:none;marker-mid:none;marker-end:none;stroke-miterlimit:4;stroke-dasharray:none;stroke-dashoffset:0;stroke-opacity:1;visibility:visible;display:inline;overflow:visible"
     id="rect9222"
     width="171.21805"
     height="14.193555"
     x="66.934212"
     y="9.8955107"
     inkscape:r_cx="true"
     inkscape:r_cy="true"
     rx="8.151619"
     ry="6.889112"
     transform="matrix(0.999606,2.806069e-2,-6.883923e-2,0.997628,0,0)" /><path
     style="opacity:0.15999995;fill:#000000;fill-rule:nonzero;stroke:none;stroke-miterlimit:4;overflow:visible"
     d="M 224.03062,27.017937 L 71.835252,27.017937 L 71.835252,39.072031 C 80.41564,25.97983 224.03062,27.017937 224.03062,27.017937 z "
     id="path13041"
     inkscape:r_cx="true"
     inkscape:r_cy="true" /><g
     id="g2300"
     transform="matrix(1.002235,-2.002054e-2,-0.11164,1,6.459471,3.505062)"><rect
       transform="matrix(0.998028,6.276244e-2,-8.71048e-2,0.996199,0,0)"
       inkscape:r_cy="true"
       inkscape:r_cx="true"
       y="32.580475"
       x="151.61586"
       height="4.0204768"
       width="56.451736"
       id="rect13420"
       style="color:#000000;fill:#000000;fill-opacity:0.22807013;fill-rule:nonzero;stroke:none;stroke-width:0.99813098;stroke-linecap:butt;stroke-linejoin:miter;marker:none;marker-start:none;marker-mid:none;marker-end:none;stroke-miterlimit:4;stroke-dashoffset:0;stroke-opacity:1;visibility:visible;display:inline;overflow:visible" /><rect
       transform="matrix(0.998028,6.276244e-2,-8.71048e-2,0.996199,0,0)"
       style="color:#000000;fill:#000000;fill-opacity:0.22807013;fill-rule:nonzero;stroke:none;stroke-width:0.99813098;stroke-linecap:butt;stroke-linejoin:miter;marker:none;marker-start:none;marker-mid:none;marker-end:none;stroke-miterlimit:4;stroke-dashoffset:0;stroke-opacity:1;visibility:visible;display:inline;overflow:visible"
       id="rect9226"
       width="56.451736"
       height="4.0204768"
       x="151.61586"
       y="40.621426"
       inkscape:r_cx="true"
       inkscape:r_cy="true" /><rect
       transform="matrix(0.998028,6.276244e-2,-8.71048e-2,0.996199,0,0)"
       inkscape:r_cy="true"
       inkscape:r_cx="true"
       y="48.662395"
       x="151.61586"
       height="4.0204768"
       width="56.451736"
       id="rect9228"
       style="color:#000000;fill:#000000;fill-opacity:0.22807013;fill-rule:nonzero;stroke:none;stroke-width:0.99813098;stroke-linecap:butt;stroke-linejoin:miter;marker:none;marker-start:none;marker-mid:none;marker-end:none;stroke-miterlimit:4;stroke-dashoffset:0;stroke-opacity:1;visibility:visible;display:inline;overflow:visible" /><rect
       transform="matrix(0.998028,6.276244e-2,-8.71048e-2,0.996199,0,0)"
       style="color:#000000;fill:#000000;fill-opacity:0.22807013;fill-rule:nonzero;stroke:none;stroke-width:0.99813098;stroke-linecap:butt;stroke-linejoin:miter;marker:none;marker-start:none;marker-mid:none;marker-end:none;stroke-miterlimit:4;stroke-dashoffset:0;stroke-opacity:1;visibility:visible;display:inline;overflow:visible"
       id="rect9230"
       width="56.451736"
       height="4.0204768"
       x="151.61586"
       y="56.703346"
       inkscape:r_cx="true"
       inkscape:r_cy="true" /><rect
       transform="matrix(0.998028,6.276244e-2,-8.71048e-2,0.996199,0,0)"
       inkscape:r_cy="true"
       inkscape:r_cx="true"
       y="64.744301"
       x="151.61586"
       height="4.0204768"
       width="37.634491"
       id="rect9232"
       style="color:#000000;fill:#000000;fill-opacity:0.22807013;fill-rule:nonzero;stroke:none;stroke-width:0.99813098;stroke-linecap:butt;stroke-linejoin:miter;marker:none;marker-start:none;marker-mid:none;marker-end:none;stroke-miterlimit:4;stroke-dashoffset:0;stroke-opacity:1;visibility:visible;display:inline;overflow:visible" /></g><rect
     inkscape:r_cy="true"
     inkscape:r_cx="true"
     y="84.656952"
     x="98.676003"
     height="4.3086853"
     width="111.91207"
     id="rect9234"
     style="color:#000000;fill:#000000;fill-opacity:0.22807013;fill-rule:nonzero;stroke:none;stroke-width:0.99813098;stroke-linecap:butt;stroke-linejoin:miter;marker:none;marker-start:none;marker-mid:none;marker-end:none;stroke-miterlimit:4;stroke-dashoffset:0;stroke-opacity:1;visibility:visible;display:inline;overflow:visible"
     transform="matrix(0.99716,7.531665e-2,-0.217696,0.976017,0,0)" /><rect
     style="color:#000000;fill:#000000;fill-opacity:0.22807013;fill-rule:nonzero;stroke:none;stroke-width:0.99813098;stroke-linecap:butt;stroke-linejoin:miter;marker:none;marker-start:none;marker-mid:none;marker-end:none;stroke-miterlimit:4;stroke-dashoffset:0;stroke-opacity:1;visibility:visible;display:inline;overflow:visible"
     id="rect9236"
     width="111.91199"
     height="4.3086801"
     x="99.145126"
     y="92.617409"
     inkscape:r_cx="true"
     inkscape:r_cy="true"
     transform="matrix(0.996297,8.597625e-2,-0.228121,0.973633,0,0)" /><rect
     inkscape:r_cy="true"
     inkscape:r_cx="true"
     y="100.88049"
     x="99.691154"
     height="4.3086786"
     width="111.91193"
     id="rect9238"
     style="color:#000000;fill:#000000;fill-opacity:0.22807013;fill-rule:nonzero;stroke:none;stroke-width:0.99813098;stroke-linecap:butt;stroke-linejoin:miter;marker:none;marker-start:none;marker-mid:none;marker-end:none;stroke-miterlimit:4;stroke-dashoffset:0;stroke-opacity:1;visibility:visible;display:inline;overflow:visible"
     transform="matrix(0.995811,9.143299e-2,-0.233451,0.972369,0,0)" /><rect
     style="color:#000000;fill:#000000;fill-opacity:0.22807013;fill-rule:nonzero;stroke:none;stroke-width:0.99813098;stroke-linecap:butt;stroke-linejoin:miter;marker:none;marker-start:none;marker-mid:none;marker-end:none;stroke-miterlimit:4;stroke-dashoffset:0;stroke-opacity:1;visibility:visible;display:inline;overflow:visible"
     id="rect9240"
     width="77.851761"
     height="4.3086815"
     x="100.17515"
     y="109.59108"
     inkscape:r_cx="true"
     inkscape:r_cy="true"
     transform="matrix(0.995487,9.489403e-2,-0.23683,0.971551,0,0)" /><g
     style="display:inline;overflow:visible"
     id="g6727"
     transform="matrix(1.929939,0,-0.297202,1.917741,152.5136,11.25653)"
     inkscape:r_cx="true"
     inkscape:r_cy="true"><path
       id="path3931"
       d="M -27.528542,18.092794 C -30.097576,19.791125 -31.511475,22.097833 -31.511475,24.590696 L -31.511475,26.659988 C -31.511475,29.150828 -30.097576,31.458211 -27.528542,33.156541 C -25.102053,34.760445 -21.895416,35.644009 -18.499359,35.644009 C -15.104587,35.644009 -11.89795,34.760445 -9.4701774,33.156541 C -6.9024275,31.458211 -5.4885277,29.151503 -5.4885277,26.659988 L -5.4885277,24.590696 C -5.4885277,22.097833 -6.9030696,19.79045 -9.4701774,18.092794 C -11.897308,16.490239 -15.103945,15.606001 -18.499359,15.606001 C -21.895416,15.606001 -25.102053,16.490239 -27.528542,18.092794 z "
       style="fill:#670000;fill-opacity:1;fill-rule:nonzero;stroke:none;stroke-miterlimit:4"
       inkscape:r_cx="true"
       inkscape:r_cy="true" /><path
       id="path3933"
       d="M -7.0244261,24.453547 C -8.4030105,21.067003 -13.077484,18.573465 -18.636768,18.573465 C -24.196053,18.573465 -28.870526,21.067003 -30.249111,24.453547 L -30.663906,24.453547 L -30.663906,26.523514 C -30.663906,30.913678 -25.27863,34.472213 -18.636768,34.472213 C -11.994265,34.472213 -6.6102729,30.913678 -6.6102729,26.523514 L -6.6102729,24.453547 L -7.0244261,24.453547 L -7.0244261,24.453547 z "
       style="fill:#a40000;fill-rule:nonzero;stroke:none;stroke-miterlimit:4"
       inkscape:r_cx="true"
       inkscape:r_cy="true" /><path
       id="path3935"
       d="M -6.6102729,24.453547 C -6.6102729,28.844385 -11.994265,32.402921 -18.636768,32.402921 C -25.279272,32.402921 -30.663906,28.844385 -30.663906,24.453547 C -30.663906,20.062708 -25.27863,16.504173 -18.636768,16.504173 C -11.994265,16.504173 -6.6102729,20.062708 -6.6102729,24.453547 L -6.6102729,24.453547 z "
       style="fill:url(#linearGradient1535);fill-opacity:1;fill-rule:nonzero;stroke:none;stroke-miterlimit:4"
       inkscape:r_cx="true"
       inkscape:r_cy="true" /><path
       id="path3937"
       d="M -6.6102729,26.833098 L -6.6256833,24.666681 C -7.9297843,29.167459 -10.862246,31.074203 -14.549173,32.007678 L -14.549173,34.002103 C -10.558534,32.998483 -6.9871844,30.713358 -6.6102729,26.833098 L -6.6102729,26.833098 z "
       style="fill:#204a87;fill-rule:nonzero;stroke:none;stroke-miterlimit:4"
       inkscape:r_cx="true"
       inkscape:r_cy="true" /><path
       id="path3939"
       d="M -6.6102729,24.453547 C -6.8857329,29.533025 -13.16802,31.849176 -14.571646,31.937532 L -18.637411,24.453547 L -6.610915,24.453547 L -6.6102729,24.453547 z "
       style="fill:url(#linearGradient1537);fill-opacity:1;fill-rule:nonzero;stroke:none;stroke-miterlimit:4"
       inkscape:r_cx="true"
       inkscape:r_cy="true" /><path
       id="path3941"
       d="M -21.154435,34.298198 L -21.154435,32.228906 C -18.891039,32.523652 -16.814494,32.575587 -14.571646,32.015097 L -14.549173,34.002778 C -16.428593,34.619249 -19.36876,34.648251 -21.154435,34.298873 L -21.154435,34.298198 z "
       style="fill:#4e9a06;fill-rule:nonzero;stroke:none;stroke-miterlimit:4"
       inkscape:r_cx="true"
       inkscape:r_cy="true" /><path
       id="path3943"
       d="M -18.637411,24.454221 L -14.571646,31.937532 C -17.06106,32.88652 -21.154435,32.228906 -21.154435,32.228906 L -18.637411,24.454221 z "
       style="fill:url(#linearGradient1539);fill-opacity:1;fill-rule:nonzero;stroke:none;stroke-miterlimit:4"
       inkscape:r_cx="true"
       inkscape:r_cy="true" /><path
       transform="matrix(0.946982,0,0,0.889701,-0.987461,2.688545)"
       d="M -6.875 24.375 A 11.75 7.75 0 1 1  -30.375,24.375 A 11.75 7.75 0 1 1  -6.875 24.375 z"
       sodipodi:ry="7.75"
       sodipodi:rx="11.75"
       sodipodi:cy="24.375"
       sodipodi:cx="-18.625"
       id="path5959"
       style="opacity:0.31111115;color:#000000;fill:none;fill-opacity:1;fill-rule:evenodd;stroke:url(#linearGradient1541);stroke-width:1.85479879;stroke-linecap:butt;stroke-linejoin:miter;marker:none;marker-start:none;marker-mid:none;marker-end:none;stroke-miterlimit:4;stroke-dasharray:none;stroke-dashoffset:0;stroke-opacity:1;visibility:visible;display:block;overflow:visible"
       sodipodi:type="arc"
       inkscape:r_cx="true"
       inkscape:r_cy="true" /></g><path
     style="opacity:0.29120878;fill:#000000;fill-opacity:1;fill-rule:evenodd;stroke:none;stroke-width:5.03493977;stroke-linecap:butt;stroke-linejoin:miter;stroke-miterlimit:4;stroke-dasharray:none;stroke-opacity:1;overflow:visible"
     d="M 91.4375,71.3125 C 83.623907,71.652915 77.63774,78.155928 74.848813,85.001248 C 68.954889,102.05977 59.197894,117.35983 51.494172,133.59401 C 50.388613,137.65696 47.624856,141.41912 48.130608,145.80534 C 50.015942,149.15497 54.272003,147.5835 57.349609,148.16311 C 62.912638,149.43865 68.668349,149.89732 74.309635,150.84204 C 116.72726,157.0197 159.14488,163.19734 201.5625,169.375 C 199.25515,168.28823 193.80227,165.22208 197.15166,162.47029 C 199.97357,162.00698 205.09357,159.99087 203.33778,156.26975 C 201.44261,153.73646 197.71384,154.4918 194.91674,154.48604 C 188.13004,154.55901 180.54257,153.73596 175.52316,148.64776 C 169.75523,144.74339 163.10293,142.39151 156.55544,140.14757 C 150.01834,137.98197 143.20851,136.52919 136.87999,133.80274 C 131.05211,130.23508 126.10418,124.77157 119.10747,123.50768 C 112.67008,121.52736 105.81945,121.51833 99.372375,119.57946 C 94.382277,116.61056 93.860058,110.00775 94.751917,104.83094 C 95.798221,96.119577 100.67974,88.53839 102.73893,80.101593 C 103.31904,74.165684 96.545037,70.766705 91.4375,71.3125 z "
     id="path1516" /><g
     style="overflow:visible"
     id="g2403"
     transform="translate(287.1306,33.59675)"><path
       id="path1632"
       d="M -248.21452,35.300194 C -253.81002,36.371928 -261.41596,37.527441 -262.81379,44.184299 C -266.17721,49.282562 -273.04708,49.552572 -278.38812,51.240965 C -281.21637,51.082966 -286.18991,56.873622 -283.39978,57.660584 C -281.29434,56.095483 -276.99437,58.539924 -274.11154,57.174466 C -270.61792,56.716415 -266.24393,55.04894 -264.77678,59.141425 C -262.61758,69.177263 -263.79407,77.651732 -265.57371,84.968542 C -268.4873,97.824452 -270.36378,111.88639 -264.79259,124.27985 C -259.9091,135.50349 -250.99532,142.73274 -239.76877,147.07582 C -233.41633,149.68676 -226.74217,151.41655 -220.02702,152.80019 C -220.34856,156.18321 -221.29479,158.88111 -219.84623,162.17404 C -220.37176,167.25596 -220.68245,172.40473 -221.78045,177.39666 C -224.69469,182.05709 -231.83005,179.13014 -236.56854,180.36861 C -239.34483,180.53572 -242.44429,179.09272 -239.72449,182.59564 C -237.03257,186.51378 -248.59025,188.6035 -241.50859,188.60126 C -235.74115,187.56121 -229.57725,192.73262 -224.46654,188.938 C -219.36585,185.99711 -215.37055,181.01282 -217.41851,174.982 C -217.58162,167.85006 -215.90013,160.86432 -215.21452,153.80019 C -210.62814,154.83374 -209.32831,160.9377 -208.27714,164.78467 C -208.45267,168.44827 -210.77577,171.66291 -207.79305,175.03925 C -207.95519,181.02154 -207.94804,187.00832 -208.21452,192.98769 C -213.36641,193.61154 -220.77664,192.37647 -224.46834,192.56925 C -221.78904,198.29603 -231.3558,199.96888 -232.9161,201.48246 C -229.17976,203.3506 -224.32098,202.36122 -221.26056,205.64011 C -216.47009,208.67746 -211.73981,203.24963 -207.64927,201.2371 C -203.31864,198.63498 -203.19966,194.34685 -204.58176,190.24008 C -203.95369,184.56501 -205.36798,178.54167 -203.50615,173.09972 C -201.26249,167.33935 -208.11393,161.80716 -204.79776,156.46166 C -201.389,152.92068 -196.01652,154.85287 -191.69264,153.73075 C -185.81168,153.19561 -179.98505,152.12878 -174.51676,149.84787 C -165.44985,146.79615 -156.12768,144.56689 -147.08952,141.42519 C -136.83883,142.63061 -126.5191,144.2501 -116.17596,143.36268 C -112.28714,139.98401 -121.07107,137.55442 -123.55181,136.19883 C -126.1881,135.54821 -130.09449,132.6156 -125.20584,134.05609 C -113.8764,136.11651 -102.69034,138.95473 -91.277019,140.55019 C -94.87674,137.99263 -99.499239,137.49489 -103.5292,135.8037 C -108.45996,134.20047 -113.42924,132.71645 -118.33952,131.05019 C -111.73474,129.0634 -104.80535,127.74679 -98.777019,124.23769 C -97.911668,120.39507 -105.73333,121.68135 -108.36683,120.81813 C -116.6292,120.0964 -124.92839,120.04755 -133.21452,119.86269 C -143.93633,111.74973 -157.1921,108.34093 -169.65199,103.87752 C -177.55252,101.39977 -185.75832,99.46689 -192.84624,95.011204 C -201.57446,90.329915 -211.07279,87.32093 -220.75106,85.378367 C -226.68363,83.59434 -233.07819,79.639513 -234.48544,73.20883 C -234.51816,67.16311 -230.29162,62.048236 -230.2394,55.959736 C -229.54409,48.246606 -232.91589,39.261616 -240.39973,36.051017 C -242.90988,35.195551 -245.60022,35.283913 -248.21452,35.300194 z "
       style="fill:#000000;fill-opacity:1;fill-rule:evenodd;stroke:#000000;stroke-width:6;stroke-linecap:butt;stroke-linejoin:round;stroke-miterlimit:4;stroke-dasharray:none;stroke-opacity:1;overflow:visible"
       sodipodi:nodetypes="ccccccccccccccccccccccccccccccccccccccccccccccc" /><path
       d="M -204.78762,193.08856 C -202.30855,193.46792 -202.44844,201.27037 -219.69675,207.33445 C -223.9333,202.23422 -228.0866,203.90844 -233.58301,201.61485 C -235.87691,200.65763 -221.08012,200.10292 -225.08213,192.20316 C -218.31729,193.73095 -211.60848,193.1296 -204.78762,193.08856 z "
       id="path1486"
       style="fill:url(#radialGradient2423);fill-opacity:1;fill-rule:evenodd;stroke:none;stroke-width:0.25pt;stroke-linecap:butt;stroke-linejoin:miter;stroke-opacity:1"
       sodipodi:nodetypes="ccscc" /><path
       d="M -209.07853,159.65791 L -206.59761,159.77893 C -200.58693,175.26955 -205.22605,171.75996 -204.78231,177.38741 L -204.8854,194.10866 C -201.81156,199.23208 -219.82885,207.51937 -219.81644,206.61295 C -205.57122,197.76732 -206.57175,195.24035 -206.75908,195.32729 C -217.46023,200.29366 -231.85472,201.71596 -233.6861,201.53652 C -233.2589,200.71387 -218.39854,199.33564 -209.52781,194.47945 C -218.13687,193.81404 -217.69121,194.07609 -224.85064,192.2029 C -218.03311,193.56454 -212.28993,193.40128 -208.53394,193.16695 L -208.17088,174.42241 C -208.2919,173.19203 -211.74099,173.59543 -208.53394,166.91914 L -209.07853,159.65791 z "
       id="path1488"
       style="fill:url(#linearGradient2425);fill-opacity:1;fill-rule:evenodd;stroke:none;stroke-width:0.25pt;stroke-linecap:butt;stroke-linejoin:miter;stroke-opacity:1"
       sodipodi:nodetypes="cccccsccccccc" /><path
       d="M -213.91935,152.94127 C -203.55193,174.42241 -208.97769,154.99862 -202.24088,154.39352 C -202.24088,154.39352 -205.81098,147.37433 -206.05302,147.37433 C -212.10405,147.07178 -213.91935,152.94127 -213.91935,152.94127 z "
       id="path1490"
       style="fill:url(#linearGradient2427);fill-opacity:1;fill-rule:evenodd;stroke:none;stroke-width:0.25pt;stroke-linecap:butt;stroke-linejoin:miter;stroke-opacity:1" /><path
       d="M -129.0744,133.59913 L -127.34169,126.19575 L -118.36313,131.39386 C -64.91178,148.03834 -103.13632,138.21968 -129.0744,133.59913 z "
       id="path1492"
       style="fill:url(#radialGradient2429);fill-opacity:1;fill-rule:evenodd;stroke:none;stroke-width:0.25pt;stroke-linecap:butt;stroke-linejoin:miter;stroke-opacity:1" /><path
       d="M -135.53267,135.48935 C -85.44172,123.3079 -87.48946,120.7351 -133.79996,120.05252 L -135.53267,135.48935 z "
       id="path1494"
       style="fill:url(#radialGradient2431);fill-opacity:1;fill-rule:evenodd;stroke:none;stroke-width:0.25pt;stroke-linecap:butt;stroke-linejoin:miter;stroke-opacity:1" /><path
       d="M -148.13416,141.47506 C -138.84056,142.68271 -90.00976,149.40351 -131.5947,133.12657 L -148.60672,130.60627 L -148.13416,141.47506 z "
       id="path1496"
       style="fill:url(#radialGradient2433);fill-opacity:1;fill-rule:evenodd;stroke:none;stroke-width:0.25pt;stroke-linecap:butt;stroke-linejoin:miter;stroke-opacity:1" /><path
       d="M -219.24985,180.05379 C -217.34005,185.24123 -224.64375,188.57049 -229.08275,191.20292 C -233.75403,187.69301 -240.43834,189.98993 -245.18704,188.33821 C -238.94147,186.14451 -238.735,182.9443 -241.54809,180.36349 C -232.79913,181.3442 -226.68259,180.15703 -219.24985,180.05379 z "
       id="path1498"
       style="fill:url(#linearGradient2435);fill-opacity:1;fill-rule:evenodd;stroke:none;stroke-width:0.25pt;stroke-linecap:butt;stroke-linejoin:miter;stroke-opacity:1" /><path
       d="M -220.55243,149.98492 L -215.51567,150.53239 C -215.29668,158.85399 -219.34798,169.91295 -217.15809,181.08142 C -220.66742,187.34045 -225.80267,189.88312 -229.31201,191.26442 C -225.3502,188.54034 -220.76901,184.50004 -222.30434,182.39535 C -229.9004,185.21349 -237.18677,186.79285 -244.86025,188.52705 C -237.62918,185.16144 -230.0884,182.57006 -223.39929,180.75293 C -229.79091,181.37675 -236.10511,181.07149 -242.34187,180.53394 C -235.49899,180.67001 -229.12066,180.2641 -222.74232,179.54849 C -221.46488,175.57018 -220.40643,167.10259 -220.22394,160.05843 C -223.2168,158.48901 -219.74947,155.38666 -220.33344,154.58369 L -220.55243,149.98492 z "
       id="path1500"
       style="fill:url(#radialGradient2437);fill-opacity:1;fill-rule:evenodd;stroke:none;stroke-width:0.25pt;stroke-linecap:butt;stroke-linejoin:miter;stroke-opacity:1" /><path
       sodipodi:nodetypes="cssscsscccsc"
       d="M -266.59116,87.782809 C -263.2009,77.591407 -263.34839,73.680171 -264.15708,63.36766 C -264.59579,57.773151 -268.70243,52.280449 -265.43598,47.912307 C -261.15635,42.189257 -263.9869,38.99666 -252.89929,36.407212 C -239.75577,33.337617 -235.62104,38.405765 -232.50498,44.819596 C -226.60126,57.320106 -235.72872,68.97581 -235.00676,73.15981 C -233.88139,79.68177 -225.7928,84.59991 -219.96839,85.81078 C -198.59774,90.25362 -192.87255,96.19837 -185.2877,99.2608 C -163.85612,106.06249 -127.97184,116.2688 -130.01698,126.94189 C -128.48338,140.33795 -162.65946,144.63154 -181.43136,152.42608 C -192.28698,154.0548 -205.77038,156.02215 -214.44316,154.19764 C -231.35176,150.64056 -279.27015,144.50117 -266.59116,87.782809 z "
       id="path1502"
       style="fill:url(#radialGradient2439);fill-opacity:1;fill-rule:evenodd;stroke:none;stroke-width:0.25pt;stroke-linecap:butt;stroke-linejoin:miter;stroke-opacity:1" /><path
       d="M -217.92167,105.63092 C -228.42452,103.68594 -219.28429,93.43749 -216.2879,91.16032 C -210.15216,86.49733 -181.90079,104.07494 -155.37137,110.76564 C -147.18304,113.2941 -141.56207,117.22295 -138.97526,120.4516 C -136.38845,123.68025 -141.254,133.67741 -145.91881,131.77134 C -168.98618,124.30264 -194.85431,113.09961 -217.92167,105.63092 z "
       id="path1504"
       style="fill:url(#linearGradient2441);fill-opacity:1;fill-rule:evenodd;stroke:none;stroke-width:0.25pt;stroke-linecap:butt;stroke-linejoin:miter;stroke-opacity:1" /><path
       d="M -225.18579,103.81521 C -198.1925,105.84217 -207.98127,97.93205 -142.87108,131.69838 C -146.48008,135.99951 -164.92055,149.49616 -184.39922,153.05571 C -191.71608,151.67144 -187.76103,144.05795 -206.34981,148.9029 C -209.41498,151.17706 -227.60827,137.58154 -231.56333,134.36805 C -234.05996,125.37029 -237.14985,119.63545 -222.59028,117.60848 C -238.28693,111.23094 -232.32962,106.33656 -225.18579,103.81521 z "
       id="path1506"
       style="fill:url(#linearGradient2443);fill-opacity:1;fill-rule:evenodd;stroke:none;stroke-width:0.25pt;stroke-linecap:butt;stroke-linejoin:miter;stroke-opacity:1" /><path
       sodipodi:nodetypes="csccs"
       d="M -260.28926,40.086667 C -262.97861,42.894197 -270.84386,55.200818 -268.77465,54.899611 C -264.81087,54.322617 -252.43199,60.590128 -250.0469,67.327908 C -248.09738,61.821568 -244.25869,38.378778 -237.04915,49.012024 C -234.02009,39.75299 -250.79195,30.171998 -260.28926,40.086667 z "
       id="path1508"
       style="fill:url(#radialGradient2445);fill-opacity:1;fill-rule:evenodd;stroke:none;stroke-width:0.25pt;stroke-linecap:butt;stroke-linejoin:miter;stroke-opacity:1;overflow:visible" /><path
       d="M -284.844,58.456068 C -284.29951,55.473038 -283.61428,52.445696 -278.88235,51.454753 C -270.31404,49.660413 -266.23985,47.438504 -262.76918,45.548435 C -263.68076,46.644486 -265.98362,49.617099 -266.19917,51.039504 C -266.30694,51.750706 -259.59066,53.884235 -259.96171,53.914704 L -265.28712,54.351996 C -271.35952,54.685481 -278.97221,53.984298 -284.844,58.456068 z "
       id="path1513"
       style="opacity:1;color:#000000;fill:#ffe71e;fill-opacity:1;fill-rule:evenodd;stroke:#ab8c1c;stroke-width:0.2428882;stroke-linecap:butt;stroke-linejoin:miter;marker:none;marker-start:none;marker-mid:none;marker-end:none;stroke-miterlimit:4;stroke-dasharray:none;stroke-dashoffset:0;stroke-opacity:1;visibility:visible;display:inline;overflow:visible"
       sodipodi:nodetypes="cscsscc" /><path
       d="M -252.56616,45.954411 C -251.88556,44.424472 -247.25836,42.769921 -245.63728,43.910212 C -244.99072,44.365014 -245.08542,48.99661 -247.97813,49.299467 C -250.65095,49.579301 -252.87871,46.656996 -252.56616,45.954411 z "
       id="path1515"
       style="fill:#000000;fill-opacity:1;fill-rule:evenodd;stroke:none;stroke-width:0.25pt;stroke-linecap:butt;stroke-linejoin:miter;stroke-opacity:1;overflow:visible" /><path
       sodipodi:nodetypes="cscc"
       id="path1517"
       d="M -265.48665,55.668345 C -265.48665,55.668345 -263.98192,59.037195 -264.13239,63.353528 C -264.29169,67.922908 -248.63365,69.038447 -248.63365,69.038447 C -248.63365,69.038447 -256.45826,56.194727 -265.48665,55.668345 z "
       style="opacity:0.45303865;fill:url(#linearGradient2447);fill-opacity:1;fill-rule:evenodd;stroke:none;stroke-width:1px;stroke-linecap:butt;stroke-linejoin:miter;stroke-opacity:1;overflow:visible" /><path
       sodipodi:nodetypes="cccccccccc"
       id="path1510"
       d="M -282.79905,57.458291 L -277.79137,58.500227 L -271.74805,57.506968 L -265.56664,56.598511 L -259.19525,54.071136 L -264.94338,54.455624 L -273.45554,54.277111 L -279.09058,55.535852 L -281.77922,56.593193 L -282.79905,57.458291 z "
       style="fill:#ffe71e;fill-opacity:1;fill-rule:evenodd;stroke:#ab8c1c;stroke-width:0.2388097;stroke-linecap:butt;stroke-linejoin:miter;stroke-miterlimit:4;stroke-dasharray:none;stroke-opacity:1;overflow:visible" /><path
       id="path1519"
       d="M -272.84013,52.822783 C -271.62075,51.867812 -268.26744,51.867812 -268.26744,51.867812 L -271.3159,53.300266 L -272.84013,52.822783 z "
       style="fill:#b0921c;fill-opacity:1;fill-rule:evenodd;stroke:none;stroke-width:1px;stroke-linecap:butt;stroke-linejoin:miter;stroke-opacity:1;overflow:visible" /></g></g></svg>