<?xml version="1.0" encoding="UTF-8" standalone="no"?>
<!-- Created with Sodipodi ("http://www.sodipodi.com/") -->
<svg
   xmlns:a="http://ns.adobe.com/AdobeSVGViewerExtensions/3.0/"
   xmlns:dc="http://purl.org/dc/elements/1.1/"
   xmlns:cc="http://web.resource.org/cc/"
   xmlns:rdf="http://www.w3.org/1999/02/22-rdf-syntax-ns#"
   xmlns:svg="http://www.w3.org/2000/svg"
   xmlns="http://www.w3.org/2000/svg"
   xmlns:xlink="http://www.w3.org/1999/xlink"
   xmlns:sodipodi="http://inkscape.sourceforge.net/DTD/sodipodi-0.dtd"
   xmlns:inkscape="http://www.inkscape.org/namespaces/inkscape"
   width="128"
   height="128"
   viewBox="0 0 256 256"
   style="overflow:visible;enable-background:new 0 0 256 256"
   xml:space="preserve"
   id="svg153"
   sodipodi:version="0.32"
   sodipodi:docname="x-office-document.svg"
   sodipodi:docbase="/data/img/icons/Chimera/scalable/mimetypes/office"
   inkscape:version="0.43"
   version="1.0"><metadata
   id="metadata29"><rdf:RDF><cc:Work
       rdf:about=""><dc:format>image/svg+xml</dc:format><dc:type
         rdf:resource="http://purl.org/dc/dcmitype/StillImage" /></cc:Work></rdf:RDF></metadata>
  <defs
   id="defs222"><linearGradient
     id="linearGradient2384"><stop
       style="stop-color:#e2e2e2;stop-opacity:1;"
       offset="0"
       id="stop2386" /><stop
       style="stop-color:#474747;stop-opacity:1;"
       offset="1"
       id="stop2388" /></linearGradient><linearGradient
     inkscape:collect="always"
     xlink:href="#linearGradient2384"
     id="linearGradient2447"
     gradientUnits="userSpaceOnUse"
     gradientTransform="matrix(1.429315,0,0,1,-300.246,-40.31146)"
     x1="26.712187"
     y1="106.9031"
     x2="24.318859"
     y2="96.934219" /><radialGradient
     inkscape:collect="always"
     xlink:href="#linearGradient3665"
     id="radialGradient2445"
     gradientUnits="userSpaceOnUse"
     gradientTransform="matrix(0.524032,0,0,0.486559,-371.9026,-4.721192)"
     cx="211.60207"
     cy="113.10805"
     fx="211.60207"
     fy="113.10805"
     r="53.717434" /><linearGradient
     id="linearGradient2316"><stop
       style="stop-color:#c0c0c0;stop-opacity:1;"
       offset="0"
       id="stop2318" /><stop
       style="stop-color:#373737;stop-opacity:1;"
       offset="1"
       id="stop2320" /></linearGradient><linearGradient
     inkscape:collect="always"
     xlink:href="#linearGradient2316"
     id="linearGradient2443"
     gradientUnits="userSpaceOnUse"
     gradientTransform="matrix(0.599602,0,0,0.325558,-365.1949,5.83661)"
     x1="209.51004"
     y1="278.96658"
     x2="334.97629"
     y2="435.53052" /><linearGradient
     id="linearGradient2914"><stop
       style="stop-color:#cbcbcb;stop-opacity:1;"
       offset="0"
       id="stop2916" /><stop
       style="stop-color:#474747;stop-opacity:1;"
       offset="1"
       id="stop2918" /></linearGradient><linearGradient
     inkscape:collect="always"
     xlink:href="#linearGradient2914"
     id="linearGradient2441"
     gradientUnits="userSpaceOnUse"
     gradientTransform="matrix(0.631664,0,0,0.309034,-365.1949,5.83661)"
     x1="235.75317"
     y1="285.14722"
     x2="334.75375"
     y2="437.32922" /><radialGradient
     inkscape:collect="always"
     xlink:href="#linearGradient3665"
     id="radialGradient2439"
     gradientUnits="userSpaceOnUse"
     gradientTransform="matrix(0.387179,0,0,0.504174,-365.1949,5.83661)"
     cx="264.97308"
     cy="239.3893"
     fx="264.97308"
     fy="239.3893"
     r="230.98981" /><radialGradient
     inkscape:collect="always"
     xlink:href="#linearGradient3036"
     id="radialGradient2437"
     gradientUnits="userSpaceOnUse"
     gradientTransform="matrix(0.372821,0,0,0.52359,-365.1949,5.83661)"
     cx="394.8071"
     cy="335.73883"
     fx="394.8071"
     fy="335.73883"
     r="54.393486" /><linearGradient
     inkscape:collect="always"
     xlink:href="#linearGradient3036"
     id="linearGradient2435"
     gradientUnits="userSpaceOnUse"
     gradientTransform="matrix(0.677927,0,0,0.287945,-365.1949,5.83661)"
     x1="208.90097"
     y1="608.96948"
     x2="187.99234"
     y2="646.17664" /><radialGradient
     inkscape:collect="always"
     xlink:href="#linearGradient3665"
     id="radialGradient2433"
     gradientUnits="userSpaceOnUse"
     gradientTransform="matrix(0.702612,0,0,0.277828,-365.1949,5.83661)"
     cx="314.15039"
     cy="463.8114"
     fx="314.15039"
     fy="463.8114"
     r="47.28022" /><radialGradient
     inkscape:collect="always"
     xlink:href="#linearGradient11793"
     id="radialGradient2431"
     gradientUnits="userSpaceOnUse"
     gradientTransform="matrix(0.668036,0,0,0.292208,-365.1949,5.83661)"
     cx="398.33551"
     cy="397.50015"
     fx="398.33551"
     fy="397.50015"
     r="86.741104" /><radialGradient
     inkscape:collect="always"
     xlink:href="#linearGradient11793"
     id="radialGradient2429"
     gradientUnits="userSpaceOnUse"
     gradientTransform="matrix(0.711727,0,0,0.27427,-365.1949,5.83661)"
     cx="382.02158"
     cy="483.98965"
     fx="382.02158"
     fy="483.98965"
     r="62.762577" /><linearGradient
     inkscape:collect="always"
     xlink:href="#linearGradient11793"
     id="linearGradient2427"
     gradientUnits="userSpaceOnUse"
     gradientTransform="matrix(0.38208,0,0,0.510902,-365.1949,5.83661)"
     x1="395.74567"
     y1="292.34103"
     x2="426.67255"
     y2="292.34103" /><linearGradient
     inkscape:collect="always"
     xlink:href="#linearGradient3036"
     id="linearGradient2425"
     gradientUnits="userSpaceOnUse"
     gradientTransform="matrix(0.273844,0,0,0.712835,-365.1949,5.83661)"
     x1="512.39142"
     y1="281.69412"
     x2="593.20197"
     y2="241.04013" /><radialGradient
     inkscape:collect="always"
     xlink:href="#linearGradient3036"
     id="radialGradient2423"
     gradientUnits="userSpaceOnUse"
     gradientTransform="matrix(0.615306,0,0,0.31725,-365.1949,5.83661)"
     cx="262.29004"
     cy="588.35461"
     fx="262.29004"
     fy="588.35461"
     r="57.946537" /><linearGradient
     id="linearGradient9910"><stop
       id="stop9911"
       offset="0.00000000"
       style="stop-color:#534b45;stop-opacity:1.0000000;" /><stop
       id="stop9912"
       offset="1.0000000"
       style="stop-color:#060505;stop-opacity:1.0000000;" /></linearGradient><linearGradient
     id="linearGradient10536"><stop
       id="stop10537"
       offset="0.00000000"
       style="stop-color:#5c544e;stop-opacity:1.0000000;" /><stop
       id="stop10538"
       offset="1.0000000"
       style="stop-color:#5f5751;stop-opacity:1.0000000;" /></linearGradient><linearGradient
     id="linearGradient2407"><stop
       id="stop2408"
       offset="0.00000000"
       style="stop-color:#0b0703;stop-opacity:1.0000000;" /><stop
       id="stop2409"
       offset="1"
       style="stop-color:#694b2a;stop-opacity:1;" /></linearGradient><linearGradient
     id="linearGradient3665"><stop
       id="stop3666"
       offset="0.00000000"
       style="stop-color:#fffaf4;stop-opacity:1.0000000;" /><stop
       id="stop3667"
       offset="1.0000000"
       style="stop-color:#bcbcbc;stop-opacity:1.0000000;" /></linearGradient><linearGradient
     id="linearGradient11793"><stop
       id="stop11794"
       offset="0.00000000"
       style="stop-color:#b4a396;stop-opacity:1.0000000;" /><stop
       id="stop11795"
       offset="1.0000000"
       style="stop-color:#060505;stop-opacity:1.0000000;" /></linearGradient><linearGradient
     id="linearGradient3036"><stop
       id="stop3037"
       offset="0.00000000"
       style="stop-color:#dcc15e;stop-opacity:1.0000000;" /><stop
       id="stop3038"
       offset="1.0000000"
       style="stop-color:#8c673c;stop-opacity:1.0000000;" /></linearGradient><linearGradient
     id="linearGradient11317"><stop
       id="stop11319"
       offset="0.00000000"
       style="stop-color:#000000;stop-opacity:0.48958334;" /><stop
       id="stop11321"
       offset="1"
       style="stop-color:#000000;stop-opacity:0;" /></linearGradient><linearGradient
     inkscape:collect="always"
     xlink:href="#linearGradient11317"
     id="linearGradient1369"
     gradientUnits="userSpaceOnUse"
     gradientTransform="matrix(3.239914,0,0,1.881907,15.04708,-83.77053)"
     x1="49.781834"
     y1="173.45737"
     x2="62.504456"
     y2="157.02299" /><linearGradient
     id="linearGradient2211"><stop
       id="stop2213"
       offset="0"
       style="stop-color:#dedede;stop-opacity:1;" /><stop
       id="stop2215"
       offset="1"
       style="stop-color:#ffffff;stop-opacity:1;" /></linearGradient><linearGradient
     id="linearGradient10457"><stop
       id="stop10459"
       offset="0"
       style="stop-color:#000000;stop-opacity:0.71428573;" /><stop
       id="stop10461"
       offset="1"
       style="stop-color:#000000;stop-opacity:0;" /></linearGradient><radialGradient
     inkscape:collect="always"
     xlink:href="#linearGradient10457"
     id="radialGradient1351"
     gradientUnits="userSpaceOnUse"
     gradientTransform="scale(2.110067,0.473919)"
     cx="24.734711"
     cy="210.29031"
     fx="24.734711"
     fy="210.29031"
     r="20.929369" /><linearGradient
     id="XMLID_2_"
     gradientUnits="userSpaceOnUse"
     x1="101.2012"
     y1="49.471699"
     x2="130.5948"
     y2="153.53371"
     gradientTransform="matrix(1.195649,0,0,1.195649,-16.98509,-42.69663)">
      <stop
   offset="0"
   style="stop-color:#D4D4D4"
   id="stop164" />
      <stop
   offset="1"
   style="stop-color:#F0F0F0"
   id="stop165" />
      <a:midPointStop
   offset="0"
   style="stop-color:#D4D4D4"
   id="midPointStop166" />
      <a:midPointStop
   offset="0.5"
   style="stop-color:#D4D4D4"
   id="midPointStop167" />
      <a:midPointStop
   offset="1"
   style="stop-color:#F0F0F0"
   id="midPointStop168" />
    </linearGradient><linearGradient
     inkscape:collect="always"
     xlink:href="#linearGradient2211"
     id="linearGradient2209"
     x1="213.3185"
     y1="69.450134"
     x2="199.65854"
     y2="69.350571"
     gradientUnits="userSpaceOnUse"
     gradientTransform="matrix(1.194834,4.415806e-2,-4.415806e-2,1.194834,-54.48974,-54.12795)" /><radialGradient
     inkscape:collect="always"
     xlink:href="#linearGradient10457"
     id="radialGradient1492"
     gradientUnits="userSpaceOnUse"
     gradientTransform="scale(2.110067,0.473919)"
     cx="24.734711"
     cy="210.29031"
     fx="24.734711"
     fy="210.29031"
     r="20.929369" /><radialGradient
     inkscape:collect="always"
     xlink:href="#linearGradient3036"
     id="radialGradient1495"
     gradientUnits="userSpaceOnUse"
     gradientTransform="matrix(0.615306,0,0,0.31725,-75.63264,46.11557)"
     cx="262.29004"
     cy="588.35461"
     fx="262.29004"
     fy="588.35461"
     r="57.946537" /><linearGradient
     inkscape:collect="always"
     xlink:href="#linearGradient3036"
     id="linearGradient1498"
     gradientUnits="userSpaceOnUse"
     gradientTransform="matrix(0.273844,0,0,0.712835,-75.63264,46.11557)"
     x1="512.39142"
     y1="281.69412"
     x2="593.20197"
     y2="241.04013" /><linearGradient
     inkscape:collect="always"
     xlink:href="#linearGradient11793"
     id="linearGradient1501"
     gradientUnits="userSpaceOnUse"
     gradientTransform="matrix(0.38208,0,0,0.510902,-75.63264,46.11557)"
     x1="395.74567"
     y1="292.34103"
     x2="426.67255"
     y2="292.34103" /><radialGradient
     inkscape:collect="always"
     xlink:href="#linearGradient11793"
     id="radialGradient1504"
     gradientUnits="userSpaceOnUse"
     gradientTransform="matrix(0.711727,0,0,0.27427,-75.63264,46.11557)"
     cx="382.02158"
     cy="483.98965"
     fx="382.02158"
     fy="483.98965"
     r="62.762577" /><radialGradient
     inkscape:collect="always"
     xlink:href="#linearGradient11793"
     id="radialGradient1506"
     gradientUnits="userSpaceOnUse"
     gradientTransform="matrix(0.668036,0,0,0.292208,-75.63264,46.11557)"
     cx="398.33551"
     cy="397.50015"
     fx="398.33551"
     fy="397.50015"
     r="86.741104" /><radialGradient
     inkscape:collect="always"
     xlink:href="#linearGradient3665"
     id="radialGradient1509"
     gradientUnits="userSpaceOnUse"
     gradientTransform="matrix(0.702612,0,0,0.277828,-75.63264,46.11557)"
     cx="314.15039"
     cy="463.8114"
     fx="314.15039"
     fy="463.8114"
     r="47.28022" /><linearGradient
     inkscape:collect="always"
     xlink:href="#linearGradient3036"
     id="linearGradient1511"
     gradientUnits="userSpaceOnUse"
     gradientTransform="matrix(0.677927,0,0,0.287945,-75.63264,46.11557)"
     x1="208.90097"
     y1="608.96948"
     x2="187.99234"
     y2="646.17664" /><radialGradient
     inkscape:collect="always"
     xlink:href="#linearGradient3036"
     id="radialGradient1513"
     gradientUnits="userSpaceOnUse"
     gradientTransform="matrix(0.372821,0,0,0.52359,-75.63264,46.11557)"
     cx="394.8071"
     cy="335.73883"
     fx="394.8071"
     fy="335.73883"
     r="54.393486" /><radialGradient
     inkscape:collect="always"
     xlink:href="#linearGradient3665"
     id="radialGradient1515"
     gradientUnits="userSpaceOnUse"
     gradientTransform="matrix(0.387179,0,0,0.504174,-75.63264,46.11557)"
     cx="264.97308"
     cy="239.3893"
     fx="264.97308"
     fy="239.3893"
     r="230.98981" /><linearGradient
     inkscape:collect="always"
     xlink:href="#linearGradient10536"
     id="linearGradient1517"
     gradientUnits="userSpaceOnUse"
     gradientTransform="matrix(0.631664,0,0,0.309034,-75.63264,46.11557)"
     x1="289.73938"
     y1="384.22537"
     x2="304.69852"
     y2="287.08762" /><linearGradient
     inkscape:collect="always"
     xlink:href="#linearGradient9910"
     id="linearGradient1519"
     gradientUnits="userSpaceOnUse"
     gradientTransform="matrix(0.599602,0,0,0.325558,-75.63264,46.11557)"
     x1="286.06619"
     y1="314.96295"
     x2="347.12122"
     y2="434.64282" /><radialGradient
     inkscape:collect="always"
     xlink:href="#linearGradient2407"
     id="radialGradient1535"
     gradientUnits="userSpaceOnUse"
     gradientTransform="matrix(0.802041,0,0,0.908045,-158.5037,-11.76591)"
     cx="246.88789"
     cy="110.65253"
     fx="246.99509"
     fy="110.65254"
     r="3.4864721" /><radialGradient
     inkscape:collect="always"
     xlink:href="#linearGradient3036"
     id="radialGradient1538"
     gradientUnits="userSpaceOnUse"
     gradientTransform="matrix(0.432488,-0.434333,0.516116,0.502814,-140.6245,156.9088)"
     cx="252.70433"
     cy="92.478905"
     fx="252.70433"
     fy="92.478905"
     r="10.130138" /><radialGradient
     inkscape:collect="always"
     xlink:href="#linearGradient3036"
     id="radialGradient1540"
     gradientUnits="userSpaceOnUse"
     gradientTransform="matrix(-0.41944,-0.699073,1.32397,-0.852652,11.85407,352.9766)"
     cx="266.17764"
     cy="91.066696"
     fx="266.17764"
     fy="91.066696"
     r="10.130138" /><radialGradient
     inkscape:collect="always"
     xlink:href="#linearGradient3665"
     id="radialGradient1543"
     gradientUnits="userSpaceOnUse"
     gradientTransform="matrix(0.529206,0,0,0.548275,-79.34393,31.09054)"
     cx="211.60207"
     cy="113.10805"
     fx="211.60207"
     fy="113.10805"
     r="53.717434" /><radialGradient
     inkscape:collect="always"
     xlink:href="#linearGradient2407"
     id="radialGradient1548"
     gradientUnits="userSpaceOnUse"
     gradientTransform="matrix(0.256916,0.50273,-0.382256,0.195349,41.31657,-17.85038)"
     cx="180.69714"
     cy="141.74666"
     fx="180.69714"
     fy="141.74666"
     r="25.966787" /><linearGradient
     inkscape:collect="always"
     xlink:href="#linearGradient9910"
     id="linearGradient3196"
     gradientUnits="userSpaceOnUse"
     gradientTransform="matrix(0.599602,0,0,0.325558,-76.07007,45.07024)"
     x1="286.06619"
     y1="314.96295"
     x2="347.12122"
     y2="434.64282" /><linearGradient
     inkscape:collect="always"
     xlink:href="#linearGradient10536"
     id="linearGradient3199"
     gradientUnits="userSpaceOnUse"
     gradientTransform="matrix(0.631664,0,0,0.309034,-76.07007,45.07024)"
     x1="289.73938"
     y1="384.22537"
     x2="304.69852"
     y2="287.08762" /><radialGradient
     inkscape:collect="always"
     xlink:href="#linearGradient3665"
     id="radialGradient3202"
     gradientUnits="userSpaceOnUse"
     gradientTransform="matrix(0.387179,0,0,0.504174,-76.07007,45.07024)"
     cx="264.97308"
     cy="239.3893"
     fx="264.97308"
     fy="239.3893"
     r="230.98981" /><radialGradient
     inkscape:collect="always"
     xlink:href="#linearGradient3036"
     id="radialGradient3205"
     gradientUnits="userSpaceOnUse"
     gradientTransform="matrix(0.372821,0,0,0.52359,-76.07007,45.07024)"
     cx="394.8071"
     cy="335.73883"
     fx="394.8071"
     fy="335.73883"
     r="54.393486" /><linearGradient
     inkscape:collect="always"
     xlink:href="#linearGradient3036"
     id="linearGradient3208"
     gradientUnits="userSpaceOnUse"
     gradientTransform="matrix(0.677927,0,0,0.287945,-76.07007,45.07024)"
     x1="208.90097"
     y1="608.96948"
     x2="187.99234"
     y2="646.17664" /><radialGradient
     inkscape:collect="always"
     xlink:href="#linearGradient3665"
     id="radialGradient3211"
     gradientUnits="userSpaceOnUse"
     gradientTransform="matrix(0.702612,0,0,0.277828,-76.07007,45.07024)"
     cx="314.15039"
     cy="463.8114"
     fx="314.15039"
     fy="463.8114"
     r="47.28022" /><radialGradient
     inkscape:collect="always"
     xlink:href="#linearGradient11793"
     id="radialGradient3214"
     gradientUnits="userSpaceOnUse"
     gradientTransform="matrix(0.668036,0,0,0.292208,-76.07007,45.07024)"
     cx="398.33551"
     cy="397.50015"
     fx="398.33551"
     fy="397.50015"
     r="86.741104" /><radialGradient
     inkscape:collect="always"
     xlink:href="#linearGradient11793"
     id="radialGradient3217"
     gradientUnits="userSpaceOnUse"
     gradientTransform="matrix(0.711727,0,0,0.27427,-76.07007,45.07024)"
     cx="382.02158"
     cy="483.98965"
     fx="382.02158"
     fy="483.98965"
     r="62.762577" /><linearGradient
     inkscape:collect="always"
     xlink:href="#linearGradient11793"
     id="linearGradient3220"
     gradientUnits="userSpaceOnUse"
     gradientTransform="matrix(0.38208,0,0,0.510902,-76.07007,45.07024)"
     x1="395.74567"
     y1="292.34103"
     x2="426.67255"
     y2="292.34103" /><linearGradient
     inkscape:collect="always"
     xlink:href="#linearGradient3036"
     id="linearGradient3223"
     gradientUnits="userSpaceOnUse"
     gradientTransform="matrix(0.273844,0,0,0.712835,-76.07007,45.07024)"
     x1="512.39142"
     y1="281.69412"
     x2="593.20197"
     y2="241.04013" /><radialGradient
     inkscape:collect="always"
     xlink:href="#linearGradient3036"
     id="radialGradient3226"
     gradientUnits="userSpaceOnUse"
     gradientTransform="matrix(0.615306,0,0,0.31725,-76.07007,45.07024)"
     cx="262.29004"
     cy="588.35461"
     fx="262.29004"
     fy="588.35461"
     r="57.946537" /></defs>
  <sodipodi:namedview
   id="base"
   inkscape:zoom="3.3583332"
   inkscape:cx="52.745666"
   inkscape:cy="40.309309"
   inkscape:window-width="1006"
   inkscape:window-height="839"
   inkscape:window-x="31"
   inkscape:window-y="0"
   inkscape:current-layer="layer3" />
  <path
   transform="matrix(2.707034,0.148295,-0.263566,2.548187,9.435841,-36.04555)"
   d="M 96.354244 99.660515 A 44.162361 9.9188194 0 1 1  8.0295219,99.660515 A 44.162361 9.9188194 0 1 1  96.354244 99.660515 z"
   sodipodi:ry="9.9188194"
   sodipodi:rx="44.162361"
   sodipodi:cy="99.660515"
   sodipodi:cx="52.191883"
   id="path9697"
   style="opacity:0.60792954;fill:url(#radialGradient1351);fill-opacity:1;stroke:none;stroke-width:3;stroke-linecap:round;stroke-linejoin:round;stroke-miterlimit:4;stroke-opacity:1"
   sodipodi:type="arc" /><path
   id="path8926"
   d="M 189.86622,196.78795 L 195.66591,242.66018 L 232.75771,222.99027 L 189.86622,196.78795 z "
   style="fill:url(#linearGradient1369);fill-opacity:1;fill-rule:evenodd;stroke:none;stroke-width:1px;stroke-linecap:butt;stroke-linejoin:miter;stroke-opacity:1"
   sodipodi:nodetypes="cccc" />
  
  <path
   style="font-size:12px;fill:url(#XMLID_2_);stroke:#000000;stroke-width:4.9579215;stroke-miterlimit:4;stroke-dasharray:none;stroke-opacity:1"
   d="M 29.344375,208.44191 C 28.557356,212.1155 30.106631,213.87723 34.168438,214.3122 L 185.16789,242.08743 C 190.48964,243.27525 196.16959,240.87704 197.20835,236.95289 L 224.664,61.028715 C 225.25703,59.564933 224.24795,57.745126 222.88284,55.569295 L 190.48353,9.52304 C 189.16548,7.9985518 186.96633,6.4740636 184.13779,5.9565639 L 73.624745,10.143028 C 70.875349,9.5923319 67.614111,11.654127 66.281598,14.994614 L 29.344375,208.44191 z "
   id="path169"
   sodipodi:nodetypes="ccccccccccc" /><path
   sodipodi:nodetypes="cc"
   id="path13660"
   d="M 205.25545,44.950931 L 76.835234,47.368614"
   style="fill:#000000;fill-opacity:0.15789466;fill-rule:evenodd;stroke:#000000;stroke-width:4.98235083px;stroke-linecap:square;stroke-linejoin:miter;stroke-opacity:0.19298245;display:inline" /><path
   sodipodi:nodetypes="cc"
   id="path13662"
   d="M 170.0783,76.454662 L 72.463097,74.343003"
   style="fill:#000000;fill-opacity:0.15789466;fill-rule:evenodd;stroke:#000000;stroke-width:4.98234844px;stroke-linecap:square;stroke-linejoin:miter;stroke-opacity:0.19298245;display:inline" /><path
   sodipodi:nodetypes="cc"
   id="path13668"
   d="M 192.90887,117.66019 L 65.64039,108.94292"
   style="fill:#000000;fill-opacity:0.15789466;fill-rule:evenodd;stroke:#000000;stroke-width:4.98234844px;stroke-linecap:square;stroke-linejoin:miter;stroke-opacity:0.19298245;display:inline" /><path
   sodipodi:nodetypes="cc"
   id="path13682"
   d="M 129.09275,141.12157 L 60.505416,133.63407"
   style="fill:#000000;fill-opacity:0.15789466;fill-rule:evenodd;stroke:#000000;stroke-width:4.98234844px;stroke-linecap:square;stroke-linejoin:miter;stroke-opacity:0.19298245;display:inline" /><path
   sodipodi:nodetypes="cc"
   id="path2464"
   d="M 203.94889,61.765268 L 74.743461,60.744599"
   style="fill:#000000;fill-opacity:0.15789466;fill-rule:evenodd;stroke:#000000;stroke-width:4.98235083px;stroke-linecap:square;stroke-linejoin:miter;stroke-opacity:0.19298245;display:inline" /><path
   sodipodi:nodetypes="cc"
   id="path2470"
   d="M 195.16168,102.47412 L 68.314236,95.811314"
   style="fill:#000000;fill-opacity:0.15789466;fill-rule:evenodd;stroke:#000000;stroke-width:4.98234844px;stroke-linecap:square;stroke-linejoin:miter;stroke-opacity:0.19298245;display:inline" /><path
   sodipodi:nodetypes="cc"
   id="path2472"
   d="M 189.21285,132.47925 L 63.058727,122.10312"
   style="fill:#000000;fill-opacity:0.15789466;fill-rule:evenodd;stroke:#000000;stroke-width:4.98234844px;stroke-linecap:square;stroke-linejoin:miter;stroke-opacity:0.19298245;display:inline" />
  <path
   style="font-size:12px;fill:none"
   d="M 6.1064917,187.5664 L 81.19211,22.955289 C 83.237867,16.76541 101.55762,5.8168442 109.64619,7.2576026 L 250.58701,19.106493 C 248.93463,18.110517 246.98214,17.359648 244.78691,16.96867 L 107.11021,3.3322832 C 99.020441,1.8915248 80.701893,12.841287 78.657332,19.029972 L 3.5705181,183.64227 C 2.4047598,187.17063 3.5023661,190.69779 6.1579043,193.34617 C 5.5146451,191.5216 5.4512752,189.5464 6.1064917,187.5664 z "
   id="path170" />
  <g
   id="g171"
   style="font-size:12px;stroke:#000000" />
  <path
   style="font-size:12px;fill:#cccccc;fill-opacity:1"
   d="M 186.55419,217.53746 C 184.1416,221.7938 181.36487,223.53626 173.01249,223.3731 L 62.724143,217.11033 L 180.6795,232.94729 C 188.81287,234.12389 190.55178,231.99893 192.39585,225.74599 L 221.23067,64.918948 L 186.55419,217.53746 z "
   id="path172"
   sodipodi:nodetypes="ccccccc" />
  
  
  
  
  <g
   id="Layer_2"
   style="stroke:#000000">
    <path
   style="fill:none;stroke:none"
   d="M 256,256 L 0,256 L 0,0 L 256,0 L 256,256 z "
   id="path220" />
  </g>
<path
   style="opacity:1;color:#000000;fill:#b3b3b3;fill-opacity:1;fill-rule:nonzero;stroke:none;stroke-width:1;stroke-linecap:butt;stroke-linejoin:miter;marker:none;marker-start:none;marker-mid:none;marker-end:none;stroke-miterlimit:4;stroke-dasharray:none;stroke-dashoffset:0;stroke-opacity:1;visibility:visible;display:inline;overflow:visible"
   d="M 181.45799,49.934332 L 182.44436,61.864547 C 182.74941,64.063218 184.96458,65.18331 186.44929,65.200452 L 225.26329,59.02742 L 181.45799,49.934332 z "
   id="path2204"
   sodipodi:nodetypes="ccccc" /><path
   style="font-size:12px;fill:#000000;fill-opacity:1;overflow:visible"
   d="M 191.14458,226.40538 C 189.63672,231.23179 186.93032,234.11718 178.79054,232.98417 L 63.588955,217.06144 L 183.95225,240.83168 C 192.09196,241.96349 193.81916,239.82901 195.62879,233.56602 L 219.74488,75.325282 L 191.14458,226.40538 z "
   id="path3075"
   sodipodi:nodetypes="ccccccc" /><path
   sodipodi:nodetypes="cccc"
   id="path2212"
   d="M 189.76837,7.082875 L 174.33826,46.185206 C 174.34733,47.196952 174.56618,49.097423 177.2695,49.814544 L 225.51795,58.868327"
   style="fill:none;fill-opacity:0.75;fill-rule:evenodd;stroke:#000000;stroke-width:4.52679777;stroke-linecap:butt;stroke-linejoin:round;stroke-miterlimit:4;stroke-dasharray:none;stroke-opacity:1" /><path
   style="fill:url(#linearGradient2209);fill-opacity:1;fill-rule:evenodd;stroke:none;stroke-width:1px;stroke-linecap:butt;stroke-linejoin:miter;stroke-opacity:1;overflow:visible"
   d="M 189.98687,7.8281162 L 175.86635,44.645619 C 175.52326,45.396158 175.59862,46.874697 176.9488,47.598748 L 225.48273,57.608394"
   id="path2202"
   sodipodi:nodetypes="cccc" /><g
   id="layer1"
   transform="matrix(0.251747,0,0,0.251747,-20.24586,70.4937)" /><g
   inkscape:groupmode="layer"
   id="layer2"
   inkscape:label="doc" /><g
   inkscape:groupmode="layer"
   id="layer3"
   inkscape:label="bird"><path
     style="opacity:0.29120878;fill:#000000;fill-opacity:1;fill-rule:evenodd;stroke:#000000;stroke-width:5.03493977;stroke-linecap:butt;stroke-linejoin:miter;stroke-miterlimit:4;stroke-dasharray:none;stroke-opacity:1;overflow:visible"
     d="M 91.753998,75.955223 C 74.842771,77.985338 73.354659,98.077692 66.451975,110.13556 C 57.23546,128.17615 42.317428,147.61148 48.994244,168.99251 C 52.411534,187.17902 78.810303,182.86861 82.458093,197.87689 C 80.925139,214.17717 66.457309,219.97535 52.933089,221.88982 C 48.550322,235.59975 79.827116,227.15057 79.502421,214.19585 C 78.910816,207.47598 91.462236,186.04093 91.188469,202.23358 C 88.205831,213.24424 87.752413,232.47809 72.4583,231.73388 C 59.889565,230.96409 53.351728,247.47867 70.154247,244.3412 C 86.829279,241.68406 89.166684,222.69034 93.781228,209.58475 C 94.648434,189.80001 115.29131,192.5979 129.43863,189.26613 C 145.04479,184.40554 161.05934,177.82516 177.76343,181.63429 C 185.12766,186.66081 196.23979,177.36206 185.16455,172.95512 C 193.8014,174.84818 203.34625,175.42353 198.24277,168.32975 C 211.07325,163.56178 202.71269,156.2011 193.01501,159.53934 C 176.80612,156.88607 163.92185,145.2371 147.72025,142.042 C 132.54425,135.68926 119.0334,125.72635 102.15519,124.60267 C 87.440874,118.02235 97.731002,100.04684 101.70708,89.543684 C 104.70106,82.491493 99.951277,74.651506 91.753998,75.955223 z "
     id="path1516" /><path
     transform="matrix(0.848084,0.112426,-8.25723e-2,1.931842,33.01114,36.76659)"
     d="M 96.354244 99.660515 A 44.162361 9.9188194 0 1 1  8.0295219,99.660515 A 44.162361 9.9188194 0 1 1  96.354244 99.660515 z"
     sodipodi:ry="9.9188194"
     sodipodi:rx="44.162361"
     sodipodi:cy="99.660515"
     sodipodi:cx="52.191883"
     id="path1512"
     style="opacity:0.60792954;fill:url(#radialGradient1492);fill-opacity:1;stroke:none;stroke-width:3;stroke-linecap:round;stroke-linejoin:round;stroke-miterlimit:4;stroke-opacity:1;overflow:visible"
     sodipodi:type="arc" /><g
     style="overflow:visible"
     id="g2403"
     transform="translate(290.1814,39.79791)"><path
       id="path1632"
       d="M -248.21452,35.300194 C -253.81002,36.371928 -261.41596,37.527441 -262.81379,44.184299 C -266.17721,49.282562 -273.04708,49.552572 -278.38812,51.240965 C -281.21637,51.082966 -286.18991,56.873622 -283.39978,57.660584 C -281.29434,56.095483 -276.99437,58.539924 -274.11154,57.174466 C -270.61792,56.716415 -266.24393,55.04894 -264.77678,59.141425 C -262.61758,69.177263 -263.79407,77.651732 -265.57371,84.968542 C -268.4873,97.824452 -270.36378,111.88639 -264.79259,124.27985 C -259.9091,135.50349 -250.99532,142.73274 -239.76877,147.07582 C -233.41633,149.68676 -226.74217,151.41655 -220.02702,152.80019 C -220.34856,156.18321 -221.29479,158.88111 -219.84623,162.17404 C -220.37176,167.25596 -220.68245,172.40473 -221.78045,177.39666 C -224.69469,182.05709 -231.83005,179.13014 -236.56854,180.36861 C -239.34483,180.53572 -242.44429,179.09272 -239.72449,182.59564 C -237.03257,186.51378 -248.59025,188.6035 -241.50859,188.60126 C -235.74115,187.56121 -229.57725,192.73262 -224.46654,188.938 C -219.36585,185.99711 -215.37055,181.01282 -217.41851,174.982 C -217.58162,167.85006 -215.90013,160.86432 -215.21452,153.80019 C -210.62814,154.83374 -209.32831,160.9377 -208.27714,164.78467 C -208.45267,168.44827 -210.77577,171.66291 -207.79305,175.03925 C -207.95519,181.02154 -207.94804,187.00832 -208.21452,192.98769 C -213.36641,193.61154 -220.77664,192.37647 -224.46834,192.56925 C -221.78904,198.29603 -231.3558,199.96888 -232.9161,201.48246 C -229.17976,203.3506 -224.32098,202.36122 -221.26056,205.64011 C -216.47009,208.67746 -211.73981,203.24963 -207.64927,201.2371 C -203.31864,198.63498 -203.19966,194.34685 -204.58176,190.24008 C -203.95369,184.56501 -205.36798,178.54167 -203.50615,173.09972 C -201.26249,167.33935 -208.11393,161.80716 -204.79776,156.46166 C -201.389,152.92068 -196.01652,154.85287 -191.69264,153.73075 C -185.81168,153.19561 -179.98505,152.12878 -174.51676,149.84787 C -165.44985,146.79615 -156.12768,144.56689 -147.08952,141.42519 C -136.83883,142.63061 -126.5191,144.2501 -116.17596,143.36268 C -112.28714,139.98401 -121.07107,137.55442 -123.55181,136.19883 C -126.1881,135.54821 -130.09449,132.6156 -125.20584,134.05609 C -113.8764,136.11651 -102.69034,138.95473 -91.277019,140.55019 C -94.87674,137.99263 -99.499239,137.49489 -103.5292,135.8037 C -108.45996,134.20047 -113.42924,132.71645 -118.33952,131.05019 C -111.73474,129.0634 -104.80535,127.74679 -98.777019,124.23769 C -97.911668,120.39507 -105.73333,121.68135 -108.36683,120.81813 C -116.6292,120.0964 -124.92839,120.04755 -133.21452,119.86269 C -143.93633,111.74973 -157.1921,108.34093 -169.65199,103.87752 C -177.55252,101.39977 -185.75832,99.46689 -192.84624,95.011204 C -201.57446,90.329915 -211.07279,87.32093 -220.75106,85.378367 C -226.68363,83.59434 -233.07819,79.639513 -234.48544,73.20883 C -234.51816,67.16311 -230.29162,62.048236 -230.2394,55.959736 C -229.54409,48.246606 -232.91589,39.261616 -240.39973,36.051017 C -242.90988,35.195551 -245.60022,35.283913 -248.21452,35.300194 z "
       style="fill:#000000;fill-opacity:1;fill-rule:evenodd;stroke:#000000;stroke-width:6;stroke-linecap:butt;stroke-linejoin:round;stroke-miterlimit:4;stroke-dasharray:none;stroke-opacity:1;overflow:visible"
       sodipodi:nodetypes="ccccccccccccccccccccccccccccccccccccccccccccccc" /><path
       d="M -204.78762,193.08856 C -202.30855,193.46792 -202.44844,201.27037 -219.69675,207.33445 C -223.9333,202.23422 -228.0866,203.90844 -233.58301,201.61485 C -235.87691,200.65763 -221.08012,200.10292 -225.08213,192.20316 C -218.31729,193.73095 -211.60848,193.1296 -204.78762,193.08856 z "
       id="path1486"
       style="fill:url(#radialGradient2423);fill-opacity:1;fill-rule:evenodd;stroke:none;stroke-width:0.25pt;stroke-linecap:butt;stroke-linejoin:miter;stroke-opacity:1"
       sodipodi:nodetypes="ccscc" /><path
       d="M -209.07853,159.65791 L -206.59761,159.77893 C -200.58693,175.26955 -205.22605,171.75996 -204.78231,177.38741 L -204.8854,194.10866 C -201.81156,199.23208 -219.82885,207.51937 -219.81644,206.61295 C -205.57122,197.76732 -206.57175,195.24035 -206.75908,195.32729 C -217.46023,200.29366 -231.85472,201.71596 -233.6861,201.53652 C -233.2589,200.71387 -218.39854,199.33564 -209.52781,194.47945 C -218.13687,193.81404 -217.69121,194.07609 -224.85064,192.2029 C -218.03311,193.56454 -212.28993,193.40128 -208.53394,193.16695 L -208.17088,174.42241 C -208.2919,173.19203 -211.74099,173.59543 -208.53394,166.91914 L -209.07853,159.65791 z "
       id="path1488"
       style="fill:url(#linearGradient2425);fill-opacity:1;fill-rule:evenodd;stroke:none;stroke-width:0.25pt;stroke-linecap:butt;stroke-linejoin:miter;stroke-opacity:1"
       sodipodi:nodetypes="cccccsccccccc" /><path
       d="M -213.91935,152.94127 C -203.55193,174.42241 -208.97769,154.99862 -202.24088,154.39352 C -202.24088,154.39352 -205.81098,147.37433 -206.05302,147.37433 C -212.10405,147.07178 -213.91935,152.94127 -213.91935,152.94127 z "
       id="path1490"
       style="fill:url(#linearGradient2427);fill-opacity:1;fill-rule:evenodd;stroke:none;stroke-width:0.25pt;stroke-linecap:butt;stroke-linejoin:miter;stroke-opacity:1" /><path
       d="M -129.0744,133.59913 L -127.34169,126.19575 L -118.36313,131.39386 C -64.91178,148.03834 -103.13632,138.21968 -129.0744,133.59913 z "
       id="path1492"
       style="fill:url(#radialGradient2429);fill-opacity:1;fill-rule:evenodd;stroke:none;stroke-width:0.25pt;stroke-linecap:butt;stroke-linejoin:miter;stroke-opacity:1" /><path
       d="M -135.53267,135.48935 C -85.44172,123.3079 -87.48946,120.7351 -133.79996,120.05252 L -135.53267,135.48935 z "
       id="path1494"
       style="fill:url(#radialGradient2431);fill-opacity:1;fill-rule:evenodd;stroke:none;stroke-width:0.25pt;stroke-linecap:butt;stroke-linejoin:miter;stroke-opacity:1" /><path
       d="M -148.13416,141.47506 C -138.84056,142.68271 -90.00976,149.40351 -131.5947,133.12657 L -148.60672,130.60627 L -148.13416,141.47506 z "
       id="path1496"
       style="fill:url(#radialGradient2433);fill-opacity:1;fill-rule:evenodd;stroke:none;stroke-width:0.25pt;stroke-linecap:butt;stroke-linejoin:miter;stroke-opacity:1" /><path
       d="M -219.24985,180.05379 C -217.34005,185.24123 -224.64375,188.57049 -229.08275,191.20292 C -233.75403,187.69301 -240.43834,189.98993 -245.18704,188.33821 C -238.94147,186.14451 -238.735,182.9443 -241.54809,180.36349 C -232.79913,181.3442 -226.68259,180.15703 -219.24985,180.05379 z "
       id="path1498"
       style="fill:url(#linearGradient2435);fill-opacity:1;fill-rule:evenodd;stroke:none;stroke-width:0.25pt;stroke-linecap:butt;stroke-linejoin:miter;stroke-opacity:1" /><path
       d="M -220.55243,149.98492 L -215.51567,150.53239 C -215.29668,158.85399 -219.34798,169.91295 -217.15809,181.08142 C -220.66742,187.34045 -225.80267,189.88312 -229.31201,191.26442 C -225.3502,188.54034 -220.76901,184.50004 -222.30434,182.39535 C -229.9004,185.21349 -237.18677,186.79285 -244.86025,188.52705 C -237.62918,185.16144 -230.0884,182.57006 -223.39929,180.75293 C -229.79091,181.37675 -236.10511,181.07149 -242.34187,180.53394 C -235.49899,180.67001 -229.12066,180.2641 -222.74232,179.54849 C -221.46488,175.57018 -220.40643,167.10259 -220.22394,160.05843 C -223.2168,158.48901 -219.74947,155.38666 -220.33344,154.58369 L -220.55243,149.98492 z "
       id="path1500"
       style="fill:url(#radialGradient2437);fill-opacity:1;fill-rule:evenodd;stroke:none;stroke-width:0.25pt;stroke-linecap:butt;stroke-linejoin:miter;stroke-opacity:1" /><path
       sodipodi:nodetypes="cssscsscccsc"
       d="M -266.59116,87.782809 C -263.2009,77.591407 -263.34839,73.680171 -264.15708,63.36766 C -264.59579,57.773151 -268.70243,52.280449 -265.43598,47.912307 C -261.15635,42.189257 -263.9869,38.99666 -252.89929,36.407212 C -239.75577,33.337617 -235.62104,38.405765 -232.50498,44.819596 C -226.60126,57.320106 -235.72872,68.97581 -235.00676,73.15981 C -233.88139,79.68177 -225.7928,84.59991 -219.96839,85.81078 C -198.59774,90.25362 -192.87255,96.19837 -185.2877,99.2608 C -163.85612,106.06249 -127.97184,116.2688 -130.01698,126.94189 C -128.48338,140.33795 -162.65946,144.63154 -181.43136,152.42608 C -192.28698,154.0548 -205.77038,156.02215 -214.44316,154.19764 C -231.35176,150.64056 -279.27015,144.50117 -266.59116,87.782809 z "
       id="path1502"
       style="fill:url(#radialGradient2439);fill-opacity:1;fill-rule:evenodd;stroke:none;stroke-width:0.25pt;stroke-linecap:butt;stroke-linejoin:miter;stroke-opacity:1" /><path
       d="M -217.92167,105.63092 C -228.42452,103.68594 -219.28429,93.43749 -216.2879,91.16032 C -210.15216,86.49733 -181.90079,104.07494 -155.37137,110.76564 C -147.18304,113.2941 -141.56207,117.22295 -138.97526,120.4516 C -136.38845,123.68025 -141.254,133.67741 -145.91881,131.77134 C -168.98618,124.30264 -194.85431,113.09961 -217.92167,105.63092 z "
       id="path1504"
       style="fill:url(#linearGradient2441);fill-opacity:1;fill-rule:evenodd;stroke:none;stroke-width:0.25pt;stroke-linecap:butt;stroke-linejoin:miter;stroke-opacity:1" /><path
       d="M -225.18579,103.81521 C -198.1925,105.84217 -207.98127,97.93205 -142.87108,131.69838 C -146.48008,135.99951 -164.92055,149.49616 -184.39922,153.05571 C -191.71608,151.67144 -187.76103,144.05795 -206.34981,148.9029 C -209.41498,151.17706 -227.60827,137.58154 -231.56333,134.36805 C -234.05996,125.37029 -237.14985,119.63545 -222.59028,117.60848 C -238.28693,111.23094 -232.32962,106.33656 -225.18579,103.81521 z "
       id="path1506"
       style="fill:url(#linearGradient2443);fill-opacity:1;fill-rule:evenodd;stroke:none;stroke-width:0.25pt;stroke-linecap:butt;stroke-linejoin:miter;stroke-opacity:1" /><path
       sodipodi:nodetypes="csccs"
       d="M -260.28926,40.086667 C -262.97861,42.894197 -270.84386,55.200818 -268.77465,54.899611 C -264.81087,54.322617 -252.43199,60.590128 -250.0469,67.327908 C -248.09738,61.821568 -244.25869,38.378778 -237.04915,49.012024 C -234.02009,39.75299 -250.79195,30.171998 -260.28926,40.086667 z "
       id="path1508"
       style="fill:url(#radialGradient2445);fill-opacity:1;fill-rule:evenodd;stroke:none;stroke-width:0.25pt;stroke-linecap:butt;stroke-linejoin:miter;stroke-opacity:1;overflow:visible" /><path
       d="M -284.844,58.456068 C -284.29951,55.473038 -283.61428,52.445696 -278.88235,51.454753 C -270.31404,49.660413 -266.23985,47.438504 -262.76918,45.548435 C -263.68076,46.644486 -265.98362,49.617099 -266.19917,51.039504 C -266.30694,51.750706 -259.59066,53.884235 -259.96171,53.914704 L -265.28712,54.351996 C -271.35952,54.685481 -278.97221,53.984298 -284.844,58.456068 z "
       id="path1513"
       style="opacity:1;color:#000000;fill:#ffe71e;fill-opacity:1;fill-rule:evenodd;stroke:#ab8c1c;stroke-width:0.2428882;stroke-linecap:butt;stroke-linejoin:miter;marker:none;marker-start:none;marker-mid:none;marker-end:none;stroke-miterlimit:4;stroke-dasharray:none;stroke-dashoffset:0;stroke-opacity:1;visibility:visible;display:inline;overflow:visible"
       sodipodi:nodetypes="cscsscc" /><path
       d="M -252.56616,45.954411 C -251.88556,44.424472 -247.25836,42.769921 -245.63728,43.910212 C -244.99072,44.365014 -245.08542,48.99661 -247.97813,49.299467 C -250.65095,49.579301 -252.87871,46.656996 -252.56616,45.954411 z "
       id="path1515"
       style="fill:#000000;fill-opacity:1;fill-rule:evenodd;stroke:none;stroke-width:0.25pt;stroke-linecap:butt;stroke-linejoin:miter;stroke-opacity:1;overflow:visible" /><path
       sodipodi:nodetypes="cscc"
       id="path1517"
       d="M -265.48665,55.668345 C -265.48665,55.668345 -263.98192,59.037195 -264.13239,63.353528 C -264.29169,67.922908 -248.63365,69.038447 -248.63365,69.038447 C -248.63365,69.038447 -256.45826,56.194727 -265.48665,55.668345 z "
       style="opacity:0.45303865;fill:url(#linearGradient2447);fill-opacity:1;fill-rule:evenodd;stroke:none;stroke-width:1px;stroke-linecap:butt;stroke-linejoin:miter;stroke-opacity:1;overflow:visible" /><path
       sodipodi:nodetypes="cccccccccc"
       id="path1510"
       d="M -282.79905,57.458291 L -277.79137,58.500227 L -271.74805,57.506968 L -265.56664,56.598511 L -259.19525,54.071136 L -264.94338,54.455624 L -273.45554,54.277111 L -279.09058,55.535852 L -281.77922,56.593193 L -282.79905,57.458291 z "
       style="fill:#ffe71e;fill-opacity:1;fill-rule:evenodd;stroke:#ab8c1c;stroke-width:0.2388097;stroke-linecap:butt;stroke-linejoin:miter;stroke-miterlimit:4;stroke-dasharray:none;stroke-opacity:1;overflow:visible" /><path
       id="path1519"
       d="M -272.84013,52.822783 C -271.62075,51.867812 -268.26744,51.867812 -268.26744,51.867812 L -271.3159,53.300266 L -272.84013,52.822783 z "
       style="fill:#b0921c;fill-opacity:1;fill-rule:evenodd;stroke:none;stroke-width:1px;stroke-linecap:butt;stroke-linejoin:miter;stroke-opacity:1;overflow:visible" /></g></g></svg>