<?xml version="1.0" encoding="UTF-8" standalone="no"?>
<!-- Created with Sodipodi ("http://www.sodipodi.com/") -->
<svg
   xmlns:i="&amp;ns_ai;"
   xmlns:a="http://ns.adobe.com/AdobeSVGViewerExtensions/3.0/"
   xmlns:dc="http://purl.org/dc/elements/1.1/"
   xmlns:cc="http://web.resource.org/cc/"
   xmlns:rdf="http://www.w3.org/1999/02/22-rdf-syntax-ns#"
   xmlns:svg="http://www.w3.org/2000/svg"
   xmlns="http://www.w3.org/2000/svg"
   xmlns:xlink="http://www.w3.org/1999/xlink"
   xmlns:sodipodi="http://inkscape.sourceforge.net/DTD/sodipodi-0.dtd"
   xmlns:inkscape="http://www.inkscape.org/namespaces/inkscape"
   width="128"
   height="128"
   viewBox="0 0 256 256"
   style="overflow:visible;enable-background:new 0 0 256 256"
   xml:space="preserve"
   id="svg153"
   sodipodi:version="0.32"
   sodipodi:docname="gnome-mime-application-pdf.svg"
   sodipodi:docbase="/data/img/icons/Chimera/scalable/mimetypes/other"
   inkscape:version="0.43"
   version="1.0"><metadata
   id="metadata29"><rdf:RDF><cc:Work
       rdf:about=""><dc:format>image/svg+xml</dc:format><dc:type
         rdf:resource="http://purl.org/dc/dcmitype/StillImage" /></cc:Work></rdf:RDF></metadata>
  <defs
   id="defs222"><linearGradient
     id="linearGradient11317"><stop
       id="stop11319"
       offset="0.00000000"
       style="stop-color:#000000;stop-opacity:0.48958334;" /><stop
       id="stop11321"
       offset="1"
       style="stop-color:#000000;stop-opacity:0;" /></linearGradient><linearGradient
     inkscape:collect="always"
     xlink:href="#linearGradient11317"
     id="linearGradient1369"
     gradientUnits="userSpaceOnUse"
     gradientTransform="matrix(3.239914,0,0,1.881907,15.04708,-83.77053)"
     x1="49.781834"
     y1="173.45737"
     x2="62.504456"
     y2="157.02299" /><linearGradient
     id="linearGradient2211"><stop
       id="stop2213"
       offset="0"
       style="stop-color:#dedede;stop-opacity:1;" /><stop
       id="stop2215"
       offset="1"
       style="stop-color:#ffffff;stop-opacity:1;" /></linearGradient><linearGradient
     id="linearGradient10457"><stop
       id="stop10459"
       offset="0"
       style="stop-color:#000000;stop-opacity:0.71428573;" /><stop
       id="stop10461"
       offset="1"
       style="stop-color:#000000;stop-opacity:0;" /></linearGradient><radialGradient
     inkscape:collect="always"
     xlink:href="#linearGradient10457"
     id="radialGradient1351"
     gradientUnits="userSpaceOnUse"
     gradientTransform="scale(2.110067,0.473919)"
     cx="24.734711"
     cy="210.29031"
     fx="24.734711"
     fy="210.29031"
     r="20.929369" /><linearGradient
     id="XMLID_2_"
     gradientUnits="userSpaceOnUse"
     x1="101.2012"
     y1="49.471699"
     x2="130.5948"
     y2="153.53371"
     gradientTransform="matrix(1.195649,0,0,1.195649,-16.98509,-42.69663)">
      <stop
   offset="0"
   style="stop-color:#D4D4D4"
   id="stop164" />
      <stop
   offset="1"
   style="stop-color:#F0F0F0"
   id="stop165" />
      <a:midPointStop
   offset="0"
   style="stop-color:#D4D4D4"
   id="midPointStop166" />
      <a:midPointStop
   offset="0.5"
   style="stop-color:#D4D4D4"
   id="midPointStop167" />
      <a:midPointStop
   offset="1"
   style="stop-color:#F0F0F0"
   id="midPointStop168" />
    </linearGradient><linearGradient
     inkscape:collect="always"
     xlink:href="#linearGradient2211"
     id="linearGradient2209"
     x1="213.3185"
     y1="69.450134"
     x2="199.65854"
     y2="69.350571"
     gradientUnits="userSpaceOnUse"
     gradientTransform="matrix(1.194834,4.415806e-2,-4.415806e-2,1.194834,-54.48974,-54.12795)" /></defs>
  <sodipodi:namedview
   id="base"
   inkscape:zoom="1.6791666"
   inkscape:cx="103.83483"
   inkscape:cy="18.015039"
   inkscape:window-width="996"
   inkscape:window-height="643"
   inkscape:window-x="276"
   inkscape:window-y="29"
   inkscape:current-layer="svg153" />
  <path
   transform="matrix(2.707034,0.148295,-0.263566,2.548187,9.435841,-36.04555)"
   d="M 96.354244 99.660515 A 44.162361 9.9188194 0 1 1  8.0295219,99.660515 A 44.162361 9.9188194 0 1 1  96.354244 99.660515 z"
   sodipodi:ry="9.9188194"
   sodipodi:rx="44.162361"
   sodipodi:cy="99.660515"
   sodipodi:cx="52.191883"
   id="path9697"
   style="opacity:0.60792954;fill:url(#radialGradient1351);fill-opacity:1;stroke:none;stroke-width:3;stroke-linecap:round;stroke-linejoin:round;stroke-miterlimit:4;stroke-opacity:1"
   sodipodi:type="arc" /><path
   id="path8926"
   d="M 189.86622,196.78795 L 195.66591,242.66018 L 232.75771,222.99027 L 189.86622,196.78795 z "
   style="fill:url(#linearGradient1369);fill-opacity:1;fill-rule:evenodd;stroke:none;stroke-width:1px;stroke-linecap:butt;stroke-linejoin:miter;stroke-opacity:1"
   sodipodi:nodetypes="cccc" />
  
  <path
   style="font-size:12px;fill:url(#XMLID_2_);stroke:#000000;stroke-width:4.9579215;stroke-miterlimit:4;stroke-dasharray:none;stroke-opacity:1"
   d="M 29.344375,208.44191 C 28.557356,212.1155 30.106631,213.87723 34.168438,214.3122 L 185.16789,242.08743 C 190.48964,243.27525 196.16959,240.87704 197.20835,236.95289 L 224.664,61.028715 C 225.25703,59.564933 224.24795,57.745126 222.88284,55.569295 L 190.48353,9.52304 C 189.16548,7.9985518 186.96633,6.4740636 184.13779,5.9565639 L 73.624745,10.143028 C 70.875349,9.5923319 67.614111,11.654127 66.281598,14.994614 L 29.344375,208.44191 z "
   id="path169"
   sodipodi:nodetypes="ccccccccccc" />
  <path
   style="font-size:12px;fill:none"
   d="M 6.1064917,187.5664 L 81.19211,22.955289 C 83.237867,16.76541 101.55762,5.8168442 109.64619,7.2576026 L 250.58701,19.106493 C 248.93463,18.110517 246.98214,17.359648 244.78691,16.96867 L 107.11021,3.3322832 C 99.020441,1.8915248 80.701893,12.841287 78.657332,19.029972 L 3.5705181,183.64227 C 2.4047598,187.17063 3.5023661,190.69779 6.1579043,193.34617 C 5.5146451,191.5216 5.4512752,189.5464 6.1064917,187.5664 z "
   id="path170" />
  <g
   id="g171"
   style="font-size:12px;stroke:#000000" />
  <path
   style="font-size:12px;fill:#cccccc;fill-opacity:1"
   d="M 186.55419,217.53746 C 184.1416,221.7938 181.36487,223.53626 173.01249,223.3731 L 62.724143,217.11033 L 180.6795,232.94729 C 188.81287,234.12389 190.55178,231.99893 192.39585,225.74599 L 221.23067,64.918948 L 186.55419,217.53746 z "
   id="path172"
   sodipodi:nodetypes="ccccccc" />
  
  
  
  
  <g
   id="Layer_2"
   style="stroke:#000000">
    <path
   style="fill:none;stroke:none"
   d="M 256,256 L 0,256 L 0,0 L 256,0 L 256,256 z "
   id="path220" />
  </g>
<path
   style="opacity:1;color:#000000;fill:#b3b3b3;fill-opacity:1;fill-rule:nonzero;stroke:none;stroke-width:1;stroke-linecap:butt;stroke-linejoin:miter;marker:none;marker-start:none;marker-mid:none;marker-end:none;stroke-miterlimit:4;stroke-dasharray:none;stroke-dashoffset:0;stroke-opacity:1;visibility:visible;display:inline;overflow:visible"
   d="M 181.45799,49.934332 L 182.44436,61.864547 C 182.74941,64.063218 184.96458,65.18331 186.44929,65.200452 L 225.26329,59.02742 L 181.45799,49.934332 z "
   id="path2204"
   sodipodi:nodetypes="ccccc" /><path
   style="font-size:12px;fill:#000000;fill-opacity:1;overflow:visible"
   d="M 191.14458,226.40538 C 189.63672,231.23179 186.93032,234.11718 178.79054,232.98417 L 63.588955,217.06144 L 183.95225,240.83168 C 192.09196,241.96349 193.81916,239.82901 195.62879,233.56602 L 219.74488,75.325282 L 191.14458,226.40538 z "
   id="path3075"
   sodipodi:nodetypes="ccccccc" /><path
   sodipodi:nodetypes="cccc"
   id="path2212"
   d="M 189.76837,7.082875 L 174.33826,46.185206 C 174.34733,47.196952 174.56618,49.097423 177.2695,49.814544 L 225.51795,58.868327"
   style="fill:none;fill-opacity:0.75;fill-rule:evenodd;stroke:#000000;stroke-width:4.52679777;stroke-linecap:butt;stroke-linejoin:round;stroke-miterlimit:4;stroke-dasharray:none;stroke-opacity:1" /><path
   style="fill:url(#linearGradient2209);fill-opacity:1;fill-rule:evenodd;stroke:none;stroke-width:1px;stroke-linecap:butt;stroke-linejoin:miter;stroke-opacity:1;overflow:visible"
   d="M 189.98687,7.8281162 L 175.86635,44.645619 C 175.52326,45.396158 175.59862,46.874697 176.9488,47.598748 L 225.48273,57.608394"
   id="path2202"
   sodipodi:nodetypes="cccc" /><g
   id="g1418"
   transform="matrix(2.044566,0,0,2.044566,-65.03172,-29.68863)"><g
     transform="matrix(0.46875,0,0,0.46875,24.00274,9.424969)"
     i:knockout="Off"
     style="opacity:0.36000001;stroke:#000000;overflow:visible"
     id="g190">
      <g
   id="g191">
        <path
   i:knockout="Off"
   style="fill:none;stroke:none"
   d="M 54.818,165.84 C 81.402,160.736 120.861,150.386 157.686,160.953 C 187.07,169.234 183.329,189.394 158.194,174.976 C 149.118,169.558 144.51,163.18 138.567,156.692 C 127.29,143.931 117.003,132.253 108.017,118.851 C 101.509,108.154 92.823,97.774 92.995,87.635 C 93.157,83.321 99.387,60.039 114.718,69.143 C 128.828,77.812 104.814,96.945 100.564,103.081 C 94.587,114.067 86.283,123.859 80.306,134.845 C 73.753,147.447 67.2,160.048 60.037,172.433 C 58.505,174.802 52.447,187.945 45.006,185.659 C 35.008,182.826 43.773,171.741 46.411,170.13 C 49.163,168.196 53.748,166.915 56.881,165.846"
   id="path192" />
        <path
   i:knockout="Off"
   style="fill:#999999;stroke:none"
   d="M 54.818,173.48 C 81.774,168.418 108.507,162.734 136.12,164.884 C 148.877,165.877 163.146,168.834 173.311,177.12 C 174.779,178.316 176.062,179.738 177.059,181.346 C 177.408,181.909 177.645,182.523 177.869,183.141 C 177.892,178.274 177.916,173.407 177.938,168.539 C 177.838,168.829 177.681,169.085 177.467,169.307 C 175.521,171.534 171.309,170.578 168.923,169.978 C 156.447,166.843 147.738,156.429 139.602,147.251 C 129.402,135.747 119.245,124.199 110.314,111.662 C 106.22,105.916 102.348,99.882 98.703,93.841 C 97.02,91.051 95.617,88.135 94.5,85.076 C 91.952,78.097 92.883,99.7 93.719,94.664 C 93.842,93.92 94.033,93.202 94.232,92.476 C 96.04,85.888 100.104,77.743 107.795,77.275 C 110.564,77.107 113.347,78.49 115.566,79.99 C 116.653,80.725 117.476,81.727 118.103,82.866 C 120.165,88.063 120.274,83.466 118.433,69.072 C 118.229,69.926 117.87,70.741 117.529,71.546 C 115.22,76.994 110.7,81.559 106.72,85.822 C 102.669,90.161 99.798,94.138 96.65,99.213 C 91.279,107.871 84.987,115.899 80.028,124.82 C 74.69,134.424 69.873,144.323 64.556,153.944 C 61.292,159.85 58.136,166.487 53.667,171.613 C 51.878,173.666 49.651,175.188 46.912,175.467 C 45.489,175.613 44.041,174.935 42.806,174.335 C 42.134,173.959 41.587,173.446 41.165,172.795 C 47.047,181.515 38.595,193.126 41.815,186.144 C 44.71,179.868 50.93,178.235 56.878,175.851 C 58.468,175.213 57.879,167.07 57.879,165.843 C 57.879,165.325 57.637,155.634 56.878,155.835 C 47.869,158.226 40.672,162.138 39.66,172.26 C 39.038,178.477 38.095,186.906 40.611,192.847 C 42.453,197.196 48.142,196.797 51.324,194.625 C 54.538,192.43 56.785,188.545 58.702,185.258 C 61.86,179.842 64.91,174.362 67.911,168.857 C 75.43,155.064 82.3,141.204 91.218,128.233 C 94.753,123.091 97.634,116.892 101.601,112.144 C 104.076,109.182 106.895,106.495 109.488,103.636 C 116.176,96.261 119.817,89.489 120.095,79.395 C 120.36,69.78 120.621,57.058 107.793,56.826 C 100.409,56.693 96.132,65.714 94.154,71.538 C 90.797,81.423 91.119,93.285 93.51,103.281 C 95.071,109.806 99.283,115.735 102.867,121.281 C 106.874,127.481 110.822,133.656 115.26,139.563 C 124.026,151.234 133.902,162.066 143.609,172.949 C 150.769,180.976 161.183,189.149 172.461,189.433 C 182.158,189.677 179.493,174.962 179.002,169.049 C 178.299,160.574 169.344,156.551 162.276,154.12 C 134.707,144.641 104.075,148.349 76.151,153.817 C 69.026,155.213 61.935,156.776 54.815,158.196 C 52.81,158.6 54.602,173.521 54.818,173.48 z "
   id="path193" />
      </g>
    </g><g
     transform="matrix(0.46875,0,0,0.46875,24.00274,9.424969)"
     i:knockout="Off"
     id="g194"
     style="stroke:#000000;overflow:visible">
      <g
   id="g195">
        <path
   i:knockout="Off"
   style="fill:none;stroke:none"
   d="M 48.818,156.84 C 75.402,151.736 114.861,141.386 151.686,151.953 C 181.07,160.234 177.329,180.394 152.194,165.976 C 143.118,160.558 138.51,154.18 132.567,147.692 C 121.289,134.931 111.003,123.253 102.017,109.851 C 95.509,99.154 86.823,88.774 86.995,78.635 C 87.157,74.321 93.387,51.039 108.718,60.143 C 122.828,68.812 98.814,87.945 94.564,94.081 C 88.587,105.067 80.283,114.859 74.306,125.845 C 67.753,138.447 61.2,151.048 54.037,163.433 C 52.505,165.802 46.447,178.945 39.006,176.659 C 29.008,173.826 37.773,162.741 40.411,161.13 C 43.163,159.196 47.748,157.915 50.881,156.846"
   id="path196" />
        <path
   i:knockout="Off"
   style="fill:#f70019;stroke:none"
   d="M 48.818,164.48 C 75.774,159.418 102.507,153.734 130.12,155.884 C 142.877,156.877 157.146,159.834 167.311,168.12 C 168.779,169.316 170.062,170.738 171.059,172.346 C 171.408,172.909 171.645,173.523 171.869,174.141 C 171.892,169.274 171.916,164.407 171.939,159.539 C 171.838,159.829 171.681,160.085 171.467,160.307 C 169.521,162.534 165.31,161.578 162.923,160.978 C 150.446,157.843 141.738,147.428 133.601,138.251 C 123.401,126.747 113.245,115.199 104.314,102.662 C 100.221,96.916 96.348,90.882 92.703,84.841 C 91.02,82.051 89.617,79.135 88.5,76.076 C 85.952,69.097 86.883,90.7 87.719,85.664 C 87.842,84.92 88.033,84.202 88.232,83.476 C 90.04,76.888 94.104,68.743 101.795,68.275 C 104.564,68.107 107.347,69.49 109.566,70.99 C 110.653,71.725 111.476,72.727 112.103,73.866 C 114.165,79.063 114.274,74.466 112.433,60.072 C 112.229,60.926 111.87,61.741 111.529,62.546 C 109.22,67.994 104.7,72.559 100.72,76.822 C 96.669,81.161 93.798,85.138 90.65,90.213 C 85.279,98.871 78.987,106.899 74.028,115.819 C 68.69,125.423 63.873,135.323 58.556,144.944 C 55.292,150.85 52.136,157.487 47.667,162.613 C 45.878,164.666 43.651,166.188 40.912,166.467 C 39.489,166.613 38.041,165.935 36.806,165.335 C 36.134,164.959 35.587,164.446 35.165,163.795 C 41.047,172.515 32.595,184.126 35.815,177.144 C 38.71,170.868 44.93,169.235 50.878,166.851 C 52.468,166.213 51.879,158.07 51.879,156.843 C 51.879,156.325 51.637,146.634 50.878,146.835 C 41.869,149.226 34.672,153.138 33.66,163.26 C 33.038,169.477 32.095,177.906 34.611,183.847 C 36.453,188.196 42.142,187.797 45.324,185.625 C 48.538,183.43 50.785,179.545 52.702,176.258 C 55.86,170.842 58.91,165.362 61.911,159.857 C 69.43,146.064 76.3,132.203 85.218,119.233 C 88.753,114.091 91.634,107.892 95.601,103.144 C 98.076,100.182 100.896,97.495 103.488,94.636 C 110.176,87.261 113.817,80.489 114.095,70.395 C 114.36,60.78 114.621,48.058 101.793,47.826 C 94.41,47.693 90.132,56.714 88.154,62.538 C 84.797,72.423 85.119,84.285 87.51,94.281 C 89.071,100.806 93.283,106.735 96.867,112.281 C 100.874,118.481 104.822,124.656 109.259,130.563 C 118.026,142.234 127.901,153.066 137.608,163.949 C 144.768,171.976 155.182,180.149 166.46,180.433 C 176.157,180.677 173.492,165.962 173.001,160.049 C 172.298,151.574 163.343,147.551 156.275,145.12 C 128.707,135.641 98.073,139.349 70.15,144.817 C 63.025,146.213 55.934,147.776 48.814,149.196 C 46.81,149.6 48.602,164.521 48.818,164.48 z "
   id="path197" />
      </g>
    </g></g></svg>