<?xml version="1.0" encoding="UTF-8" standalone="no"?>
<!-- Created with Sodipodi ("http://www.sodipodi.com/") -->
<svg
   xmlns:a="http://ns.adobe.com/AdobeSVGViewerExtensions/3.0/"
   xmlns:i="&amp;ns_ai;"
   xmlns:dc="http://purl.org/dc/elements/1.1/"
   xmlns:cc="http://web.resource.org/cc/"
   xmlns:rdf="http://www.w3.org/1999/02/22-rdf-syntax-ns#"
   xmlns:svg="http://www.w3.org/2000/svg"
   xmlns="http://www.w3.org/2000/svg"
   xmlns:xlink="http://www.w3.org/1999/xlink"
   xmlns:sodipodi="http://inkscape.sourceforge.net/DTD/sodipodi-0.dtd"
   xmlns:inkscape="http://www.inkscape.org/namespaces/inkscape"
   width="128"
   height="128"
   viewBox="0 0 256 256"
   style="overflow:visible;enable-background:new 0 0 256 256"
   xml:space="preserve"
   id="svg153"
   sodipodi:version="0.32"
   sodipodi:docname="gnome-mime-text (copy).svg"
   sodipodi:docbase="/data/img/icons/Chimera/scalable/mimetypes/text"
   inkscape:version="0.43"
   version="1.0"><metadata
   id="metadata29"><rdf:RDF><cc:Work
       rdf:about=""><dc:format>image/svg+xml</dc:format><dc:type
         rdf:resource="http://purl.org/dc/dcmitype/StillImage" /></cc:Work></rdf:RDF></metadata>
  <defs
   id="defs222"><linearGradient
     gradientTransform="matrix(0.8214,-0.5704,0.5704,0.8214,-85.32,98.286)"
     y2="82.9252"
     x2="134.1342"
     y1="75.5078"
     x1="126.7168"
     gradientUnits="userSpaceOnUse"
     id="XMLID_9_">
      <stop
   id="stop225"
   style="stop-color:#FFFFFF"
   offset="0" />
      <stop
   id="stop226"
   style="stop-color:#FFE649"
   offset="1" />
      <a:midPointStop
   id="midPointStop227"
   style="stop-color:#FFFFFF"
   offset="0" />
      <a:midPointStop
   id="midPointStop228"
   style="stop-color:#FFFFFF"
   offset="0.5" />
      <a:midPointStop
   id="midPointStop229"
   style="stop-color:#FFE649"
   offset="1" />
    </linearGradient><linearGradient
     y2="163.7643"
     x2="120.4124"
     y1="168.2646"
     x1="116.9121"
     gradientUnits="userSpaceOnUse"
     id="XMLID_8_">
      <stop
   id="stop218"
   style="stop-color:#C2BAAD"
   offset="0" />
      <stop
   id="stop219"
   style="stop-color:#D4CCBF"
   offset="1" />
      <a:midPointStop
   id="midPointStop220"
   style="stop-color:#C2BAAD"
   offset="0" />
      <a:midPointStop
   id="midPointStop221"
   style="stop-color:#C2BAAD"
   offset="0.5" />
      <a:midPointStop
   id="midPointStop222"
   style="stop-color:#D4CCBF"
   offset="1" />
    </linearGradient><linearGradient
     gradientTransform="matrix(0.8214,-0.5704,0.5704,0.8214,-85.32,98.286)"
     y2="171.1127"
     x2="139.748"
     y1="159.0645"
     x1="127.6997"
     gradientUnits="userSpaceOnUse"
     id="XMLID_7_">
      <stop
   id="stop211"
   style="stop-color:#FEDBB1"
   offset="0" />
      <stop
   id="stop212"
   style="stop-color:#DEAF78"
   offset="1" />
      <a:midPointStop
   id="midPointStop213"
   style="stop-color:#FEDBB1"
   offset="0" />
      <a:midPointStop
   id="midPointStop214"
   style="stop-color:#FEDBB1"
   offset="0.5" />
      <a:midPointStop
   id="midPointStop215"
   style="stop-color:#DEAF78"
   offset="1" />
    </linearGradient><linearGradient
     gradientTransform="matrix(0.8214,-0.5704,0.5704,0.8214,-85.32,98.286)"
     y2="85.2563"
     x2="120.6206"
     y1="85.2563"
     x1="133.9443"
     gradientUnits="userSpaceOnUse"
     id="XMLID_6_">
      <stop
   id="stop204"
   style="stop-color:#FF7300"
   offset="0" />
      <stop
   id="stop205"
   style="stop-color:#FF9900"
   offset="0.6629" />
      <a:midPointStop
   id="midPointStop206"
   style="stop-color:#FF7300"
   offset="0" />
      <a:midPointStop
   id="midPointStop207"
   style="stop-color:#FF7300"
   offset="0.5" />
      <a:midPointStop
   id="midPointStop208"
   style="stop-color:#FF9900"
   offset="0.6629" />
    </linearGradient><linearGradient
     gradientTransform="matrix(0.8214,-0.5704,0.5704,0.8214,-85.32,98.286)"
     y2="85.2573"
     x2="136.8195"
     y1="85.2573"
     x1="121.1802"
     gradientUnits="userSpaceOnUse"
     id="XMLID_5_">
      <stop
   id="stop193"
   style="stop-color:#FEE382"
   offset="0" />
      <stop
   id="stop194"
   style="stop-color:#FFE649"
   offset="0.5449" />
      <stop
   id="stop195"
   style="stop-color:#FFE34C"
   offset="0.6371" />
      <stop
   id="stop196"
   style="stop-color:#FED953"
   offset="1" />
      <a:midPointStop
   id="midPointStop197"
   style="stop-color:#FEE382"
   offset="0" />
      <a:midPointStop
   id="midPointStop198"
   style="stop-color:#FEE382"
   offset="0.5" />
      <a:midPointStop
   id="midPointStop199"
   style="stop-color:#FFE649"
   offset="0.5449" />
      <a:midPointStop
   id="midPointStop200"
   style="stop-color:#FFE649"
   offset="0.4068" />
      <a:midPointStop
   id="midPointStop201"
   style="stop-color:#FED953"
   offset="1" />
    </linearGradient><linearGradient
     id="linearGradient11317"><stop
       id="stop11319"
       offset="0.00000000"
       style="stop-color:#000000;stop-opacity:0.48958334;" /><stop
       id="stop11321"
       offset="1"
       style="stop-color:#000000;stop-opacity:0;" /></linearGradient><linearGradient
     inkscape:collect="always"
     xlink:href="#linearGradient11317"
     id="linearGradient1369"
     gradientUnits="userSpaceOnUse"
     gradientTransform="matrix(3.239914,0,0,1.881907,15.04708,-83.77053)"
     x1="49.781834"
     y1="173.45737"
     x2="62.504456"
     y2="157.02299" /><linearGradient
     id="linearGradient2211"><stop
       id="stop2213"
       offset="0"
       style="stop-color:#dedede;stop-opacity:1;" /><stop
       id="stop2215"
       offset="1"
       style="stop-color:#ffffff;stop-opacity:1;" /></linearGradient><linearGradient
     id="linearGradient10457"><stop
       id="stop10459"
       offset="0"
       style="stop-color:#000000;stop-opacity:0.71428573;" /><stop
       id="stop10461"
       offset="1"
       style="stop-color:#000000;stop-opacity:0;" /></linearGradient><radialGradient
     inkscape:collect="always"
     xlink:href="#linearGradient10457"
     id="radialGradient1351"
     gradientUnits="userSpaceOnUse"
     gradientTransform="scale(2.110067,0.473919)"
     cx="24.734711"
     cy="210.29031"
     fx="24.734711"
     fy="210.29031"
     r="20.929369" /><linearGradient
     id="XMLID_2_"
     gradientUnits="userSpaceOnUse"
     x1="101.2012"
     y1="49.471699"
     x2="130.5948"
     y2="153.53371"
     gradientTransform="matrix(1.195649,0,0,1.195649,-16.98509,-42.69663)">
      <stop
   offset="0"
   style="stop-color:#D4D4D4"
   id="stop164" />
      <stop
   offset="1"
   style="stop-color:#F0F0F0"
   id="stop165" />
      <a:midPointStop
   offset="0"
   style="stop-color:#D4D4D4"
   id="midPointStop166" />
      <a:midPointStop
   offset="0.5"
   style="stop-color:#D4D4D4"
   id="midPointStop167" />
      <a:midPointStop
   offset="1"
   style="stop-color:#F0F0F0"
   id="midPointStop168" />
    </linearGradient><linearGradient
     inkscape:collect="always"
     xlink:href="#linearGradient2211"
     id="linearGradient2209"
     x1="213.3185"
     y1="69.450134"
     x2="199.65854"
     y2="69.350571"
     gradientUnits="userSpaceOnUse"
     gradientTransform="matrix(1.194834,4.415806e-2,-4.415806e-2,1.194834,-54.48974,-54.12795)" /></defs>
  <sodipodi:namedview
   id="base"
   inkscape:zoom="2.3747002"
   inkscape:cx="95.405424"
   inkscape:cy="86.109011"
   inkscape:window-width="1006"
   inkscape:window-height="839"
   inkscape:window-x="31"
   inkscape:window-y="0"
   inkscape:current-layer="svg153" />
  <path
   transform="matrix(2.707034,0.148295,-0.263566,2.548187,9.435841,-36.04555)"
   d="M 96.354244 99.660515 A 44.162361 9.9188194 0 1 1  8.0295219,99.660515 A 44.162361 9.9188194 0 1 1  96.354244 99.660515 z"
   sodipodi:ry="9.9188194"
   sodipodi:rx="44.162361"
   sodipodi:cy="99.660515"
   sodipodi:cx="52.191883"
   id="path9697"
   style="opacity:0.60792954;fill:url(#radialGradient1351);fill-opacity:1;stroke:none;stroke-width:3;stroke-linecap:round;stroke-linejoin:round;stroke-miterlimit:4;stroke-opacity:1"
   sodipodi:type="arc" /><path
   style="font-size:12px;fill:url(#XMLID_2_);stroke:#000000;stroke-width:4.9579215;stroke-miterlimit:4;stroke-dasharray:none;stroke-opacity:1"
   d="M 29.344375,208.44191 C 28.557356,212.1155 30.106631,213.87723 34.168438,214.3122 L 185.16789,242.08743 C 190.48964,243.27525 196.16959,240.87704 197.20835,236.95289 L 224.664,61.028715 C 225.25703,59.564933 224.24795,57.745126 222.88284,55.569295 L 190.48353,9.52304 C 189.16548,7.9985518 186.96633,6.4740636 184.13779,5.9565639 L 73.624745,10.143028 C 70.875349,9.5923319 67.614111,11.654127 66.281598,14.994614 L 29.344375,208.44191 z "
   id="path169"
   sodipodi:nodetypes="ccccccccccc" /><path
   id="path8926"
   d="M 189.86622,196.78795 L 195.66591,242.66018 L 232.75771,222.99027 L 189.86622,196.78795 z "
   style="fill:url(#linearGradient1369);fill-opacity:1;fill-rule:evenodd;stroke:none;stroke-width:1px;stroke-linecap:butt;stroke-linejoin:miter;stroke-opacity:1"
   sodipodi:nodetypes="cccc" />
  
  
  <path
   style="font-size:12px;fill:none"
   d="M 6.1064917,187.5664 L 81.19211,22.955289 C 83.237867,16.76541 101.55762,5.8168442 109.64619,7.2576026 L 250.58701,19.106493 C 248.93463,18.110517 246.98214,17.359648 244.78691,16.96867 L 107.11021,3.3322832 C 99.020441,1.8915248 80.701893,12.841287 78.657332,19.029972 L 3.5705181,183.64227 C 2.4047598,187.17063 3.5023661,190.69779 6.1579043,193.34617 C 5.5146451,191.5216 5.4512752,189.5464 6.1064917,187.5664 z "
   id="path170" />
  <g
   id="g171"
   style="font-size:12px;stroke:#000000" />
  <path
   style="font-size:12px;fill:#cccccc;fill-opacity:1"
   d="M 186.55419,217.53746 C 184.1416,221.7938 181.36487,223.53626 173.01249,223.3731 L 62.724143,217.11033 L 180.6795,232.94729 C 188.81287,234.12389 190.55178,231.99893 192.39585,225.74599 L 221.23067,64.918948 L 186.55419,217.53746 z "
   id="path172"
   sodipodi:nodetypes="ccccccc" />
  
  
  
  
  <g
   id="Layer_2"
   style="stroke:#000000">
    <path
   style="fill:none;stroke:none"
   d="M 256,256 L 0,256 L 0,0 L 256,0 L 256,256 z "
   id="path220" />
  </g>
<path
   style="font-size:12px;fill:#000000;fill-opacity:1;overflow:visible"
   d="M 191.14458,226.40538 C 189.63672,231.23179 186.93032,234.11718 178.79054,232.98417 L 63.588955,217.06144 L 183.95225,240.83168 C 192.09196,241.96349 193.81916,239.82901 195.62879,233.56602 L 219.74488,75.325282 L 191.14458,226.40538 z "
   id="path3075"
   sodipodi:nodetypes="ccccccc" /><g
   id="layer1"
   transform="matrix(0.251747,0,0,0.251747,-20.24586,70.4937)" /><g
   inkscape:groupmode="layer"
   id="layer2"
   inkscape:label="doc"><g
     id="g1374"
     style="stroke:#a3a3a3;stroke-opacity:1;overflow:visible;enable-background:new 0 0 256 256"><path
       style="fill:#000000;fill-opacity:0.15789466;fill-rule:evenodd;stroke:#a3a3a3;stroke-width:4.98235083px;stroke-linecap:square;stroke-linejoin:miter;stroke-opacity:1;display:inline;overflow:visible;enable-background:new 0 0 256 256"
       d="M 205.25545,44.950931 L 76.835234,47.368614"
       id="path13660"
       sodipodi:nodetypes="cc" /><path
       style="fill:#000000;fill-opacity:0.15789466;fill-rule:evenodd;stroke:#a3a3a3;stroke-width:4.98234844px;stroke-linecap:square;stroke-linejoin:miter;stroke-opacity:1;display:inline;overflow:visible;enable-background:new 0 0 256 256"
       d="M 170.0783,76.454662 L 72.463097,74.343003"
       id="path13662"
       sodipodi:nodetypes="cc" /><path
       style="fill:#000000;fill-opacity:0.15789466;fill-rule:evenodd;stroke:#a3a3a3;stroke-width:4.98234844px;stroke-linecap:square;stroke-linejoin:miter;stroke-opacity:1;display:inline;overflow:visible;enable-background:new 0 0 256 256"
       d="M 192.99933,116.03596 L 65.549931,110.56715"
       id="path13668"
       sodipodi:nodetypes="cc" /><path
       style="fill:#000000;fill-opacity:0.15789466;fill-rule:evenodd;stroke:#a3a3a3;stroke-width:4.98235083px;stroke-linecap:square;stroke-linejoin:miter;stroke-opacity:1;display:inline;overflow:visible;enable-background:new 0 0 256 256"
       d="M 203.94889,61.765268 L 74.743461,60.744599"
       id="path2464"
       sodipodi:nodetypes="cc" /><path
       style="fill:#000000;fill-opacity:0.15789466;fill-rule:evenodd;stroke:#a3a3a3;stroke-width:4.98234844px;stroke-linecap:square;stroke-linejoin:miter;stroke-opacity:1;display:inline;overflow:visible;enable-background:new 0 0 256 256"
       d="M 196.89764,101.69861 L 68.560459,97.454578"
       id="path2470"
       sodipodi:nodetypes="cc" /><path
       style="fill:#000000;fill-opacity:0.15789466;fill-rule:evenodd;stroke:#a3a3a3;stroke-width:4.98234844px;stroke-linecap:square;stroke-linejoin:miter;stroke-opacity:1;display:inline;overflow:visible;enable-background:new 0 0 256 256"
       d="M 189.32918,130.78785 L 62.942395,123.79452"
       id="path2472"
       sodipodi:nodetypes="cc" /><path
       style="fill:#000000;fill-opacity:0.15789466;fill-rule:evenodd;stroke:#a3a3a3;stroke-width:4.98234844px;stroke-linecap:square;stroke-linejoin:miter;stroke-opacity:1;display:inline;overflow:visible"
       d="M 179.94104,179.38657 L 55.373625,168.6871"
       id="path1563"
       sodipodi:nodetypes="cc" /><path
       style="fill:#000000;fill-opacity:0.15789466;fill-rule:evenodd;stroke:#a3a3a3;stroke-width:4.98234844px;stroke-linecap:square;stroke-linejoin:miter;stroke-opacity:1;display:inline;overflow:visible"
       d="M 116.54603,203.26906 L 49.643116,194.93934"
       id="path1565"
       sodipodi:nodetypes="cc" /><path
       style="fill:#000000;fill-opacity:0.15789466;fill-rule:evenodd;stroke:#a3a3a3;stroke-width:4.98234844px;stroke-linecap:square;stroke-linejoin:miter;stroke-opacity:1;display:inline;overflow:visible"
       d="M 183.87828,163.77938 L 57.451937,155.43215"
       id="path1567"
       sodipodi:nodetypes="cc" /><path
       style="fill:#000000;fill-opacity:0.15789466;fill-rule:evenodd;stroke:#a3a3a3;stroke-width:4.98234844px;stroke-linecap:square;stroke-linejoin:miter;stroke-opacity:1;display:inline;overflow:visible"
       d="M 176.24502,195.46895 L 52.196427,181.72397"
       id="path1569"
       sodipodi:nodetypes="cc" /></g></g><path
   style="opacity:1;color:#000000;fill:#616161;fill-opacity:0.46153846;fill-rule:nonzero;stroke:none;stroke-width:1;stroke-linecap:butt;stroke-linejoin:miter;marker:none;marker-start:none;marker-mid:none;marker-end:none;stroke-miterlimit:4;stroke-dasharray:none;stroke-dashoffset:0;stroke-opacity:1;visibility:visible;display:inline;overflow:visible"
   d="M 181.45799,49.934332 L 182.44436,61.864547 C 182.74941,64.063218 184.96458,65.18331 186.44929,65.200452 L 225.26329,59.02742 L 181.45799,49.934332 z "
   id="path2204"
   sodipodi:nodetypes="ccccc" /><path
   sodipodi:nodetypes="cccc"
   id="path2212"
   d="M 189.76837,7.082875 L 174.33826,46.185206 C 174.34733,47.196952 174.56618,49.097423 177.2695,49.814544 L 225.51795,58.868327"
   style="fill:none;fill-opacity:0.75;fill-rule:evenodd;stroke:#000000;stroke-width:4.52679777;stroke-linecap:butt;stroke-linejoin:round;stroke-miterlimit:4;stroke-dasharray:none;stroke-opacity:1" /><path
   style="fill:url(#linearGradient2209);fill-opacity:1;fill-rule:evenodd;stroke:none;stroke-width:1px;stroke-linecap:butt;stroke-linejoin:miter;stroke-opacity:1;overflow:visible"
   d="M 189.98687,7.8281162 L 175.86635,44.645619 C 175.52326,45.396158 175.59862,46.874697 176.9488,47.598748 L 225.48273,57.608394"
   id="path2202"
   sodipodi:nodetypes="cccc" /><g
   transform="matrix(0.893665,-0.17664,0.17664,0.893665,-15.46074,7.586499)"
   style="overflow:visible"
   id="g1440"><path
     i:knockout="Off"
     style="opacity:0.36000001;fill:#999999;stroke:none"
     d="M 120.818,148.511 L 69.505,74.617 L 51.982,113.032 L 91,169.218 C 91,169.218 91.691,168.739 92.358,168.275 C 95.788,169.929 122.528,182.839 122.528,182.839 C 122.528,182.839 119.773,153.272 119.421,149.482 C 120.111,149.002 120.818,148.511 120.818,148.511 z "
     id="path190" /><path
     i:knockout="Off"
     style="stroke:none"
     d="M 38.889,27.484 L 12.216,46.007 L 95,165.218 C 95,165.218 95.691,164.739 96.358,164.275 C 99.788,165.929 126.528,178.839 126.528,178.839 C 126.528,178.839 123.773,149.272 123.421,145.482 C 124.111,145.003 124.818,144.511 124.818,144.511 L 42.035,25.299 L 38.889,27.484 z "
     id="path191" /><path
     i:knockout="Off"
     style="fill:url(#XMLID_5_);stroke:none"
     d="M 119.487,143.55 L 95.96,159.889 L 17.546,46.968 L 41.073,30.63 L 119.487,143.55 z "
     id="path202" /><path
     i:knockout="Off"
     style="fill:url(#XMLID_6_);stroke:none"
     d="M 112.883,148.136 L 102.564,155.302 L 24.15,42.382 L 34.468,35.216 L 112.883,148.136 z "
     id="path209" /><path
     i:knockout="Off"
     style="fill:url(#XMLID_7_);stroke:none"
     d="M 119.414,143.546 L 122.105,172.429 L 95.981,159.818 L 119.414,143.546 z "
     id="path216" /><path
     i:knockout="Off"
     style="fill:url(#XMLID_8_);stroke:none"
     d="M 120.843,158.873 L 122.105,172.429 L 109.845,166.51 L 120.843,158.873 z "
     id="path223" /><path
     i:knockout="Off"
     style="opacity:0.4;fill:url(#XMLID_9_);stroke:none"
     d="M 19.545,47.329 C 21.103,49.572 83.291,139.125 86.755,144.113 C 88.67,135.008 88.131,127.396 85.057,120.397 C 82.264,114.258 78.53,108.569 74.919,103.068 C 70.034,95.627 64.982,87.932 62.175,78.985 C 60.44,72.925 59.608,66.52 59.66,59.915 C 59.2,59.251 42.2,34.771 40.713,32.629 C 38.697,34.029 21.561,45.929 19.545,47.329 z "
     id="path230" /></g></svg>