<?xml version="1.0" encoding="UTF-8" standalone="no"?>
<!-- Created with Inkscape (http://www.inkscape.org/) -->
<svg
   xmlns:dc="http://purl.org/dc/elements/1.1/"
   xmlns:cc="http://web.resource.org/cc/"
   xmlns:rdf="http://www.w3.org/1999/02/22-rdf-syntax-ns#"
   xmlns:svg="http://www.w3.org/2000/svg"
   xmlns="http://www.w3.org/2000/svg"
   xmlns:xlink="http://www.w3.org/1999/xlink"
   xmlns:sodipodi="http://sodipodi.sourceforge.net/DTD/sodipodi-0.dtd"
   xmlns:inkscape="http://www.inkscape.org/namespaces/inkscape"
   version="1.0"
   width="128"
   height="128"
   viewBox="0 0 256 256"
   id="svg153"
   xml:space="preserve"
   sodipodi:version="0.32"
   inkscape:version="0.44"
   sodipodi:docname="gnome-mime-application-x-ruby.svg"
   sodipodi:docbase="/data/img/icons/Chimera/scalable/mimetypes/text"><metadata
   id="metadata32"><rdf:RDF><cc:Work
       rdf:about=""><dc:format>image/svg+xml</dc:format><dc:type
         rdf:resource="http://purl.org/dc/dcmitype/StillImage" /></cc:Work></rdf:RDF></metadata><sodipodi:namedview
   inkscape:window-height="627"
   inkscape:window-width="906"
   inkscape:pageshadow="2"
   inkscape:pageopacity="0.0"
   borderopacity="1.0"
   bordercolor="#666666"
   pagecolor="#ffffff"
   id="base"
   inkscape:zoom="2.3091456"
   inkscape:cx="16.546242"
   inkscape:cy="53.573266"
   inkscape:window-x="84"
   inkscape:window-y="263"
   inkscape:current-layer="svg153" />
  <defs
   id="defs222"><linearGradient
     inkscape:collect="always"
     id="linearGradient2044"><stop
       style="stop-color:#701108;stop-opacity:1;"
       offset="0"
       id="stop2046" /><stop
       style="stop-color:#b10e00;stop-opacity:1"
       offset="1"
       id="stop2048" /></linearGradient><linearGradient
     inkscape:collect="always"
     xlink:href="#linearGradient2044"
     id="linearGradient2050"
     x1="382.85715"
     y1="218.45074"
     x2="345.76141"
     y2="218.45074"
     gradientUnits="userSpaceOnUse"
     gradientTransform="translate(10.10153,10.10153)" /><linearGradient
     inkscape:collect="always"
     id="linearGradient2071"><stop
       style="stop-color:#a70716;stop-opacity:1"
       offset="0"
       id="stop2073" /><stop
       style="stop-color:#940600;stop-opacity:1"
       offset="1"
       id="stop2075" /></linearGradient><linearGradient
     inkscape:collect="always"
     xlink:href="#linearGradient2071"
     id="linearGradient2077"
     x1="240.71428"
     y1="396.64792"
     x2="261.42856"
     y2="341.64789"
     gradientUnits="userSpaceOnUse"
     gradientTransform="translate(10.10153,10.10153)" /><linearGradient
     id="linearGradient2060"><stop
       style="stop-color:#b40f00;stop-opacity:1"
       offset="0"
       id="stop2062" /><stop
       style="stop-color:#ae1100;stop-opacity:0;"
       offset="1"
       id="stop2064" /></linearGradient><linearGradient
     inkscape:collect="always"
     xlink:href="#linearGradient2060"
     id="linearGradient2066"
     x1="225"
     y1="291.64792"
     x2="195"
     y2="325.93359"
     gradientUnits="userSpaceOnUse"
     gradientTransform="translate(10.10153,10.10153)" /><linearGradient
     inkscape:collect="always"
     id="linearGradient2079"><stop
       style="stop-color:#bd1e12;stop-opacity:1"
       offset="0"
       id="stop2081" /><stop
       style="stop-color:#9b110a;stop-opacity:0;"
       offset="1"
       id="stop2083" /></linearGradient><linearGradient
     inkscape:collect="always"
     xlink:href="#linearGradient2079"
     id="linearGradient2085"
     x1="199.42857"
     y1="343.79077"
     x2="192.36357"
     y2="310.21933"
     gradientUnits="userSpaceOnUse"
     gradientTransform="translate(10.10153,10.10153)" /><linearGradient
     inkscape:collect="always"
     id="linearGradient2052"><stop
       style="stop-color:#c10e0c;stop-opacity:1;"
       offset="0"
       id="stop2054" /><stop
       style="stop-color:#c10e0c;stop-opacity:0;"
       offset="1"
       id="stop2056" /></linearGradient><linearGradient
     inkscape:collect="always"
     xlink:href="#linearGradient2052"
     id="linearGradient2058"
     x1="347.14285"
     y1="210.21933"
     x2="311.42856"
     y2="209.50504"
     gradientUnits="userSpaceOnUse"
     gradientTransform="translate(10.10153,10.10153)" /><linearGradient
     inkscape:collect="always"
     id="linearGradient2036"><stop
       style="stop-color:#c10e0c;stop-opacity:1"
       offset="0"
       id="stop2038" /><stop
       style="stop-color:#830600;stop-opacity:0;"
       offset="1"
       id="stop2040" /></linearGradient><linearGradient
     inkscape:collect="always"
     xlink:href="#linearGradient2036"
     id="linearGradient2042"
     x1="347.85715"
     y1="268.79074"
     x2="330"
     y2="232.47075"
     gradientUnits="userSpaceOnUse"
     gradientTransform="translate(10.10153,10.10153)" /><linearGradient
     inkscape:collect="always"
     id="linearGradient2020"><stop
       style="stop-color:#a70800;stop-opacity:1"
       offset="0"
       id="stop2022" /><stop
       style="stop-color:#870600;stop-opacity:0;"
       offset="1"
       id="stop2024" /></linearGradient><linearGradient
     inkscape:collect="always"
     xlink:href="#linearGradient2020"
     id="linearGradient2026"
     x1="299.28571"
     y1="328.07645"
     x2="310.71429"
     y2="275.21933"
     gradientUnits="userSpaceOnUse"
     gradientTransform="translate(10.10153,10.10153)" /><linearGradient
     id="linearGradient2012"><stop
       style="stop-color:#a70105;stop-opacity:1"
       offset="0"
       id="stop2014" /><stop
       id="stop2068"
       offset="0.5"
       style="stop-color:#cf2119;stop-opacity:1;" /><stop
       style="stop-color:#fbe9e8;stop-opacity:1"
       offset="1"
       id="stop2016" /></linearGradient><linearGradient
     inkscape:collect="always"
     xlink:href="#linearGradient2012"
     id="linearGradient2018"
     x1="231.05357"
     y1="395.21933"
     x2="225.33929"
     y2="338.35934"
     gradientUnits="userSpaceOnUse"
     gradientTransform="translate(10.10153,10.10153)" /><linearGradient
     inkscape:collect="always"
     id="linearGradient2028"><stop
       style="stop-color:#980000;stop-opacity:1"
       offset="0"
       id="stop2030" /><stop
       style="stop-color:#ee4249;stop-opacity:1"
       offset="1"
       id="stop2032" /></linearGradient><linearGradient
     inkscape:collect="always"
     xlink:href="#linearGradient2028"
     id="linearGradient2034"
     x1="315.71426"
     y1="344.50504"
     x2="377.85715"
     y2="394.50504"
     gradientUnits="userSpaceOnUse"
     gradientTransform="translate(10.10153,10.10153)" /><linearGradient
     id="linearGradient2212"><stop
       id="stop2214"
       offset="0"
       style="stop-color:#d4d4d4;stop-opacity:1" /><stop
       id="stop2216"
       offset="1"
       style="stop-color:#f0f0f0;stop-opacity:1" /></linearGradient><linearGradient
     id="linearGradient11317"><stop
       style="stop-color:#000000;stop-opacity:0.48958334"
       offset="0"
       id="stop11319" /><stop
       style="stop-color:#000000;stop-opacity:0"
       offset="1"
       id="stop11321" /></linearGradient><linearGradient
     x1="49.781834"
     y1="173.45737"
     x2="62.504456"
     y2="157.02299"
     id="linearGradient1369"
     xlink:href="#linearGradient11317"
     gradientUnits="userSpaceOnUse"
     gradientTransform="matrix(3.239914,0,0,1.881907,15.04708,-83.77053)" /><linearGradient
     id="linearGradient2211"><stop
       style="stop-color:#dedede;stop-opacity:1"
       offset="0"
       id="stop2213" /><stop
       style="stop-color:#ffffff;stop-opacity:1"
       offset="1"
       id="stop2215" /></linearGradient><linearGradient
     id="linearGradient10457"><stop
       style="stop-color:#000000;stop-opacity:0.71428573"
       offset="0"
       id="stop10459" /><stop
       style="stop-color:#000000;stop-opacity:0"
       offset="1"
       id="stop10461" /></linearGradient><radialGradient
     cx="24.734711"
     cy="210.29031"
     r="20.929369"
     fx="24.734711"
     fy="210.29031"
     id="radialGradient1351"
     xlink:href="#linearGradient10457"
     gradientUnits="userSpaceOnUse"
     gradientTransform="scale(2.110067,0.473919)" /><linearGradient
     x1="213.3185"
     y1="69.450134"
     x2="199.65854"
     y2="69.350571"
     id="linearGradient2209"
     xlink:href="#linearGradient2211"
     gradientUnits="userSpaceOnUse"
     gradientTransform="matrix(1.194834,4.415806e-2,-4.415806e-2,1.194834,-54.48974,-54.12795)" /><linearGradient
     inkscape:collect="always"
     xlink:href="#linearGradient2212"
     id="linearGradient2210"
     x1="100.77267"
     y1="15.772676"
     x2="142.30296"
     y2="146.83488"
     gradientUnits="userSpaceOnUse" /><radialGradient
     inkscape:collect="always"
     xlink:href="#linearGradient10457"
     id="radialGradient3326"
     gradientUnits="userSpaceOnUse"
     gradientTransform="matrix(4.079797,-0.219284,0.400241,3.497697,-74.71156,-582.9744)"
     cx="24.734711"
     cy="210.29031"
     fx="24.734711"
     fy="210.29031"
     r="20.929369" /></defs>
  
  <path
   d="M 96.354244 99.660515 A 44.162361 9.9188194 0 1 1  8.0295219,99.660515 A 44.162361 9.9188194 0 1 1  96.354244 99.660515 z"
   transform="matrix(2.707034,0.148295,-0.263566,2.548187,9.435841,-36.04555)"
   style="opacity:0.60792954;fill:url(#radialGradient1351);fill-opacity:1;stroke:none;stroke-width:3;stroke-linecap:round;stroke-linejoin:round;stroke-miterlimit:4;stroke-opacity:1"
   id="path9697" /><path
   d="M 189.86622,196.78795 L 195.66591,242.66018 L 232.75771,222.99027 L 189.86622,196.78795 z "
   style="fill:url(#linearGradient1369);fill-opacity:1.0;fill-rule:evenodd;stroke:none;stroke-width:1px;stroke-linecap:butt;stroke-linejoin:miter;stroke-opacity:1"
   id="path8926" />
  
  <path
   d="M 29.344375,208.44191 C 28.557356,212.1155 30.106631,213.87723 34.168438,214.3122 L 185.16789,242.08743 C 190.48964,243.27525 196.16959,240.87704 197.20835,236.95289 L 224.664,61.028715 C 225.25703,59.564933 224.24795,57.745126 222.88284,55.569295 L 190.48353,9.52304 C 189.16548,7.9985518 186.96633,6.4740636 184.13779,5.9565639 L 73.624745,10.143028 C 70.875349,9.5923319 67.614111,11.654127 66.281598,14.994614 L 29.344375,208.44191 z "
   style="stroke:#000000;stroke-width:4.9579215;stroke-miterlimit:4;stroke-dasharray:none;stroke-opacity:1;fill-opacity:1.0;fill:url(#linearGradient2210)"
   id="path169" />
  <path
   d="M 6.1064917,187.5664 L 81.19211,22.955289 C 83.237867,16.76541 101.55762,5.8168442 109.64619,7.2576026 L 250.58701,19.106493 C 248.93463,18.110517 246.98214,17.359648 244.78691,16.96867 L 107.11021,3.3322832 C 99.020441,1.8915248 80.701893,12.841287 78.657332,19.029972 L 3.5705181,183.64227 C 2.4047598,187.17063 3.5023661,190.69779 6.1579043,193.34617 C 5.5146451,191.5216 5.4512752,189.5464 6.1064917,187.5664 z "
   style="font-size:12px;fill:none"
   id="path170" />
  <g
   style="font-size:12px;stroke:#000000"
   id="g171" />
  <path
   d="M 186.55419,217.53746 C 184.1416,221.7938 181.36487,223.53626 173.01249,223.3731 L 62.724143,217.11033 L 180.6795,232.94729 C 188.81287,234.12389 190.55178,231.99893 192.39585,225.74599 L 221.23067,64.918948 L 186.55419,217.53746 z "
   style="font-size:12px;fill:#cccccc;fill-opacity:1"
   id="path172" />
  
  
  
  
  <g
   style="stroke:#000000"
   id="Layer_2">
    <path
   d="M 256,256 L 0,256 L 0,0 L 256,0 L 256,256 z "
   style="fill:none;stroke:none"
   id="path220" />
  </g>
<path
   d="M 181.45799,49.934332 L 182.44436,61.864547 C 182.74941,64.063218 184.96458,65.18331 186.44929,65.200452 L 225.26329,59.02742 L 181.45799,49.934332 z "
   style="opacity:1;color:#000000;fill:#b3b3b3;fill-opacity:1;fill-rule:nonzero;stroke:none;stroke-width:1;stroke-linecap:butt;stroke-linejoin:miter;marker:none;marker-start:none;marker-mid:none;marker-end:none;stroke-miterlimit:4;stroke-dasharray:none;stroke-dashoffset:0;stroke-opacity:1;visibility:visible;display:inline;overflow:visible"
   id="path2204" /><path
   d="M 191.14458,226.40538 C 189.63672,231.23179 186.93032,234.11718 178.79054,232.98417 L 63.588955,217.06144 L 183.95225,240.83168 C 192.09196,241.96349 193.81916,239.82901 195.62879,233.56602 L 219.74488,75.325282 L 191.14458,226.40538 z "
   style="font-size:12px;fill:#000000;fill-opacity:1;overflow:visible"
   id="path3075" /><path
   style="fill:black;fill-opacity:0.14364642"
   d="M 115.99879,59.841806 L 87.061296,70.65431 C 77.948176,79.12992 60.261316,95.901404 59.623796,96.216804 C 58.992976,96.538924 47.918536,117.38312 42.623796,127.3418 L 43.123796,128.8418 L 41.373796,165.7168 C 41.375576,165.78094 41.371796,165.84046 41.373796,165.9043 C 42.172236,191.3741 60.242836,192.1689 68.436296,192.4043 L 68.873796,192.4043 L 166.74879,185.7793 L 166.74879,185.6543 L 166.74879,185.5293 L 166.87379,185.6543 L 166.81129,185.1543 L 173.99879,90.404304 L 174.06129,90.154304 C 174.09429,89.839194 174.09699,89.532084 174.12379,89.216804 L 174.31129,86.654304 L 174.24879,86.779304 C 174.34591,83.553654 174.09019,80.33489 173.31129,77.3418 C 173.30067,77.29678 173.25963,77.26167 173.24879,77.21681 C 173.10921,76.69122 172.98277,76.16687 172.81129,75.65431 C 170.78341,69.13489 166.25023,64.511726 159.18629,61.966806 C 157.30905,61.290492 155.30151,60.70769 153.06129,60.341806 L 152.99879,60.341806 L 152.93629,60.341806 L 116.43629,60.154306 L 115.99879,59.841806 z M 68.873796,192.1543 L 68.748796,192.2168 L 68.873796,192.1543 z "
   id="path3332"
   sodipodi:nodetypes="ccscccsccccccccccccsscscccccccc" /><path
   d="M 189.76837,7.082875 L 174.33826,46.185206 C 174.34733,47.196952 174.56618,49.097423 177.2695,49.814544 L 225.51795,58.868327"
   style="fill:none;fill-opacity:0.75;fill-rule:evenodd;stroke:#000000;stroke-width:4.52679777;stroke-linecap:butt;stroke-linejoin:round;stroke-miterlimit:4;stroke-dasharray:none;stroke-opacity:1"
   id="path2212" /><path
   d="M 189.98687,7.8281162 L 175.86635,44.645619 C 175.52326,45.396158 175.59862,46.874697 176.9488,47.598748 L 225.48273,57.608394"
   style="fill:url(#linearGradient2209);fill-opacity:1;fill-rule:evenodd;stroke:none;stroke-width:1px;stroke-linecap:butt;stroke-linejoin:miter;stroke-opacity:1;overflow:visible"
   id="path2202" /><path
   style="fill:white;fill-opacity:1;fill-rule:evenodd;stroke:none;stroke-width:1px;stroke-linecap:butt;stroke-linejoin:miter;stroke-opacity:1"
   d="M 93.691052,49.150571 L 129.70869,49.150571 L 149.83619,62.39235 L 144.00982,173.09363 L 47.609657,179.44969 L 29.600836,174.68264 L 21.126097,163.55955 L 20.066755,129.66059 L 22.18544,109.53309 L 37.016234,84.638541 L 64.559135,60.273666 L 93.691052,49.150571 z "
   id="path2437" /><g
   transform="matrix(0.67107,0,0,0.67107,-116.6019,-95.85546)"
   id="g2361"><path
     style="fill:url(#linearGradient2034);fill-opacity:1"
     id="path4"
     d="M 242.8451,412.68228 L 389.3151,402.74228 L 400.5951,255.05228 L 355.9651,345.51228 L 242.8451,412.68228 z " /><path
     style="fill:#881203;fill-opacity:1"
     id="path6"
     d="M 342.6751,361.03228 L 389.5551,402.64228 L 376.9651,315.75228 L 342.6751,361.03228 z " /><path
     style="fill:#8c1106;fill-opacity:1"
     id="path8"
     d="M 243.3351,412.49228 L 389.7251,402.64228 L 297.4951,395.40228 L 243.3351,412.49228 z " /><path
     style="fill:url(#linearGradient2018);fill-opacity:1"
     id="path10"
     d="M 215.8051,347.87228 L 243.4651,412.51228 L 266.5051,337.03228 L 215.8051,347.87228 z " /><path
     style="fill:url(#linearGradient2026);fill-opacity:1"
     id="path12"
     d="M 260.7951,335.11228 L 342.6651,361.28228 L 321.4651,278.24228 L 260.7951,335.11228 z " /><path
     style="fill:url(#linearGradient2042);fill-opacity:1"
     id="path14"
     d="M 322.4651,284.20228 L 395.7851,279.41228 L 338.4351,232.57228 L 322.4651,284.20228 z " /><path
     style="fill:url(#linearGradient2058);fill-opacity:1"
     id="path16"
     d="M 313.9551,215.62228 L 368.9651,215.87228 L 335.2351,234.51228 L 313.9551,215.62228 z " /><path
     style="fill:url(#linearGradient2085);fill-opacity:1"
     id="path18"
     d="M 205.1651,316.72228 L 202.4651,373.19228 L 216.5951,347.42228 L 205.1651,316.72228 z " /><path
     style="fill:white"
     id="path20"
     d="M 204.4051,315.75228 L 215.9051,348.37228 L 265.8751,337.16228 L 322.9251,284.14228 L 339.0251,233.00228 L 313.6751,215.10228 L 270.5751,231.23228 C 256.9951,243.86228 230.6451,268.85228 229.6951,269.32228 C 228.7551,269.80228 212.2951,300.91228 204.4051,315.75228 z " /><path
     style="fill:url(#linearGradient2066);fill-opacity:1"
     id="path22"
     d="M 244.7851,257.15228 C 274.2151,227.97228 312.1551,210.73228 326.7151,225.42228 C 341.2651,240.11228 325.8351,275.81228 296.4051,304.98228 C 266.9751,334.15228 229.5051,352.34228 214.9551,337.65228 C 200.3951,322.97228 215.3551,286.32228 244.7851,257.15228 z " /><path
     style="fill:#800600;fill-opacity:1"
     id="path26"
     d="M 323.0251,283.99228 L 342.5151,361.19228 C 365.4451,337.08228 386.0251,311.16228 396.1051,279.10228 L 323.0251,283.99228 z " /><path
     style="fill:#6c0500;fill-opacity:1"
     id="path28"
     d="M 395.9051,279.49228 C 403.7051,255.95228 405.5051,222.18228 368.7251,215.91228 L 338.5451,232.58228 L 395.9051,279.49228 z " /><path
     style="fill:#9b110a;fill-opacity:1"
     id="path30"
     d="M 202.4651,372.85228 C 203.5451,411.70228 231.5751,412.28228 243.5151,412.62228 L 215.9351,348.21228 L 202.4651,372.85228 z " /><path
     style="fill:#830600;fill-opacity:1"
     id="path32"
     d="M 323.1351,284.11228 C 340.7551,294.94228 376.2651,316.69228 376.9851,317.09228 C 378.1051,317.72228 392.2951,293.16228 395.5151,279.28228 L 323.1351,284.11228 z " /><path
     style="fill:url(#linearGradient2077);fill-opacity:1"
     id="path24"
     d="M 243.4651,412.48228 L 266.3251,336.76228 L 342.2451,361.15228 C 314.7951,386.89228 284.2651,408.65228 243.4651,412.48228 z " /><path
     style="fill:#870600;fill-opacity:1"
     id="path34"
     d="M 266.2951,336.76228 L 296.8551,395.72228 C 314.9251,385.92228 329.0751,373.98228 342.0351,361.19228 L 266.2951,336.76228 z " /><path
     style="fill:#870f0a;fill-opacity:1"
     id="path36"
     d="M 215.8151,348.29228 L 211.4851,399.85228 C 219.6551,411.01228 230.8951,411.98228 242.6851,411.11228 C 234.1551,389.88228 217.1151,347.43228 215.8151,348.29228 z " /><path
     style="fill:url(#linearGradient2050);fill-opacity:1"
     id="path38"
     d="M 338.3651,232.71228 L 399.0751,241.23228 C 395.8351,227.50228 385.8851,218.64228 368.9251,215.87228 L 338.3651,232.71228 z " /></g></svg>