<?xml version="1.0" encoding="UTF-8" standalone="no"?>
<!-- Created with Sodipodi ("http://www.sodipodi.com/") -->
<svg
   xmlns:a="http://ns.adobe.com/AdobeSVGViewerExtensions/3.0/"
   xmlns:dc="http://purl.org/dc/elements/1.1/"
   xmlns:cc="http://web.resource.org/cc/"
   xmlns:rdf="http://www.w3.org/1999/02/22-rdf-syntax-ns#"
   xmlns:svg="http://www.w3.org/2000/svg"
   xmlns="http://www.w3.org/2000/svg"
   xmlns:xlink="http://www.w3.org/1999/xlink"
   xmlns:sodipodi="http://inkscape.sourceforge.net/DTD/sodipodi-0.dtd"
   xmlns:inkscape="http://www.inkscape.org/namespaces/inkscape"
   width="128"
   height="128"
   viewBox="0 0 256 256"
   style="overflow:visible;enable-background:new 0 0 256 256"
   xml:space="preserve"
   id="svg153"
   sodipodi:version="0.32"
   sodipodi:docname="gnome-mime-application-x-gnumeric.svg"
   sodipodi:docbase="/data/img/icons/Chimera/scalable/mimetypes/office"
   inkscape:version="0.43"
   version="1.0"><metadata
   id="metadata29"><rdf:RDF><cc:Work
       rdf:about=""><dc:format>image/svg+xml</dc:format><dc:type
         rdf:resource="http://purl.org/dc/dcmitype/StillImage" /></cc:Work></rdf:RDF></metadata>
  <defs
   id="defs222"><linearGradient
   inkscape:collect="always"
   id="linearGradient2456"><stop
     style="stop-color:#000000;stop-opacity:1;"
     offset="0"
     id="stop2458" /><stop
     style="stop-color:#000000;stop-opacity:0;"
     offset="1"
     id="stop2460" /></linearGradient><linearGradient
   inkscape:collect="always"
   id="linearGradient6687"><stop
     style="stop-color:#ffffff;stop-opacity:1;"
     offset="0"
     id="stop6689" /><stop
     style="stop-color:#ffffff;stop-opacity:0;"
     offset="1"
     id="stop6691" /></linearGradient><linearGradient
   id="linearGradient6719"><stop
     style="stop-color:#73d216;stop-opacity:1;"
     offset="0"
     id="stop6721" /><stop
     style="stop-color:#d5f7b3;stop-opacity:1.0000000;"
     offset="1.0000000"
     id="stop6723" /></linearGradient><linearGradient
   id="linearGradient6711"><stop
     style="stop-color:#5b8ccb;stop-opacity:1.0000000;"
     offset="0.0000000"
     id="stop6713" /><stop
     style="stop-color:#3465a4;stop-opacity:1.0000000;"
     offset="1.0000000"
     id="stop6715" /></linearGradient><linearGradient
   id="linearGradient6699"><stop
     style="stop-color:#ff7171;stop-opacity:1.0000000;"
     offset="0.0000000"
     id="stop6701" /><stop
     style="stop-color:#cc0000;stop-opacity:1.0000000;"
     offset="1.0000000"
     id="stop6703" /></linearGradient><linearGradient
   id="linearGradient11317"><stop
     id="stop11319"
     offset="0.00000000"
     style="stop-color:#000000;stop-opacity:0.48958334;" /><stop
     id="stop11321"
     offset="1"
     style="stop-color:#000000;stop-opacity:0;" /></linearGradient><linearGradient
   inkscape:collect="always"
   xlink:href="#linearGradient11317"
   id="linearGradient1369"
   gradientUnits="userSpaceOnUse"
   gradientTransform="matrix(3.239914,0,0,1.881907,15.04708,-83.77053)"
   x1="49.781834"
   y1="173.45737"
   x2="62.504456"
   y2="157.02299" /><linearGradient
   id="linearGradient2211"><stop
     id="stop2213"
     offset="0"
     style="stop-color:#dedede;stop-opacity:1;" /><stop
     id="stop2215"
     offset="1"
     style="stop-color:#ffffff;stop-opacity:1;" /></linearGradient><linearGradient
   id="linearGradient10457"><stop
     id="stop10459"
     offset="0"
     style="stop-color:#000000;stop-opacity:0.71428573;" /><stop
     id="stop10461"
     offset="1"
     style="stop-color:#000000;stop-opacity:0;" /></linearGradient><radialGradient
   inkscape:collect="always"
   xlink:href="#linearGradient10457"
   id="radialGradient1351"
   gradientUnits="userSpaceOnUse"
   gradientTransform="scale(2.110067,0.473919)"
   cx="24.734711"
   cy="210.29031"
   fx="24.734711"
   fy="210.29031"
   r="20.929369" />
    <linearGradient
   id="XMLID_1_"
   gradientUnits="userSpaceOnUse"
   x1="131.2803"
   y1="242.2021"
   x2="131.2803"
   y2="225.9855">
      <stop
   offset="0"
   style="stop-color:#CCCCCC"
   id="stop156" />
      <stop
   offset="1"
   style="stop-color:#000000"
   id="stop157" />
      <a:midPointStop
   offset="0"
   style="stop-color:#CCCCCC"
   id="midPointStop158" />
      <a:midPointStop
   offset="0.5"
   style="stop-color:#CCCCCC"
   id="midPointStop159" />
      <a:midPointStop
   offset="1"
   style="stop-color:#000000"
   id="midPointStop160" />
    </linearGradient>
    <linearGradient
   id="XMLID_2_"
   gradientUnits="userSpaceOnUse"
   x1="101.2012"
   y1="49.471699"
   x2="130.5948"
   y2="153.53371"
   gradientTransform="matrix(1.195649,0,0,1.195649,-16.98509,-42.69663)">
      <stop
   offset="0"
   style="stop-color:#D4D4D4"
   id="stop164" />
      <stop
   offset="1"
   style="stop-color:#F0F0F0"
   id="stop165" />
      <a:midPointStop
   offset="0"
   style="stop-color:#D4D4D4"
   id="midPointStop166" />
      <a:midPointStop
   offset="0.5"
   style="stop-color:#D4D4D4"
   id="midPointStop167" />
      <a:midPointStop
   offset="1"
   style="stop-color:#F0F0F0"
   id="midPointStop168" />
    </linearGradient>
    <radialGradient
   id="XMLID_3_"
   cx="122.9863"
   cy="61.2827"
   r="7.46"
   fx="122.9863"
   fy="61.2827"
   gradientTransform="matrix(0.8964,3.46e-2,-0.3107,1.1036,32.3881,-10.5311)"
   gradientUnits="userSpaceOnUse">
      <stop
   offset="0.8595"
   style="stop-color:#C2C2C2"
   id="stop174" />
      <stop
   offset="1"
   style="stop-color:#000000"
   id="stop175" />
      <a:midPointStop
   offset="0.8595"
   style="stop-color:#C2C2C2"
   id="midPointStop176" />
      <a:midPointStop
   offset="0.5"
   style="stop-color:#C2C2C2"
   id="midPointStop177" />
      <a:midPointStop
   offset="1"
   style="stop-color:#000000"
   id="midPointStop178" />
    </radialGradient>
    <radialGradient
   id="XMLID_4_"
   cx="183.2773"
   cy="65.596703"
   r="8.1346998"
   fx="183.2773"
   fy="65.596703"
   gradientTransform="matrix(0.8964,3.46e-2,-0.3107,1.1036,32.3881,-10.5311)"
   gradientUnits="userSpaceOnUse">
      <stop
   offset="0.8595"
   style="stop-color:#C2C2C2"
   id="stop181" />
      <stop
   offset="1"
   style="stop-color:#000000"
   id="stop182" />
      <a:midPointStop
   offset="0.8595"
   style="stop-color:#C2C2C2"
   id="midPointStop183" />
      <a:midPointStop
   offset="0.5"
   style="stop-color:#C2C2C2"
   id="midPointStop184" />
      <a:midPointStop
   offset="1"
   style="stop-color:#000000"
   id="midPointStop185" />
    </radialGradient>
  <linearGradient
   inkscape:collect="always"
   xlink:href="#linearGradient2211"
   id="linearGradient2209"
   x1="213.3185"
   y1="69.450134"
   x2="199.65854"
   y2="69.350571"
   gradientUnits="userSpaceOnUse"
   gradientTransform="matrix(1.194834,4.415806e-2,-4.415806e-2,1.194834,-54.48974,-54.12795)" /><radialGradient
   inkscape:collect="always"
   xlink:href="#linearGradient2456"
   id="radialGradient1751"
   gradientUnits="userSpaceOnUse"
   gradientTransform="scale(1.164226,0.85894)"
   cx="28.283663"
   cy="47.400623"
   fx="28.283663"
   fy="47.400623"
   r="13.804391" /><linearGradient
   inkscape:collect="always"
   xlink:href="#linearGradient6699"
   id="linearGradient1753"
   gradientUnits="userSpaceOnUse"
   x1="-22.976406"
   y1="18.516047"
   x2="-14.360273"
   y2="33.016045" /><linearGradient
   inkscape:collect="always"
   xlink:href="#linearGradient6711"
   id="linearGradient1755"
   gradientUnits="userSpaceOnUse"
   x1="-16.387411"
   y1="24.453547"
   x2="-9.7352734"
   y2="28.195539" /><linearGradient
   inkscape:collect="always"
   xlink:href="#linearGradient6719"
   id="linearGradient1757"
   gradientUnits="userSpaceOnUse"
   x1="-17.863041"
   y1="30.827509"
   x2="-20.821646"
   y2="25.015009" /><linearGradient
   inkscape:collect="always"
   xlink:href="#linearGradient6687"
   id="linearGradient1759"
   gradientUnits="userSpaceOnUse"
   x1="-20.750000"
   y1="29.000000"
   x2="-19.500000"
   y2="18.750000" /><linearGradient
   inkscape:collect="always"
   xlink:href="#linearGradient6687"
   id="linearGradient1761"
   gradientUnits="userSpaceOnUse"
   x1="-20.750000"
   y1="29.000000"
   x2="-19.500000"
   y2="18.750000" /></defs>
  <sodipodi:namedview
   id="base"
   inkscape:zoom="2.3747002"
   inkscape:cx="92.950877"
   inkscape:cy="69.31051"
   inkscape:window-width="996"
   inkscape:window-height="643"
   inkscape:window-x="254"
   inkscape:window-y="188"
   inkscape:current-layer="svg153" />
  <path
   transform="matrix(2.707034,0.148295,-0.263566,2.548187,9.435841,-36.04555)"
   d="M 96.354244 99.660515 A 44.162361 9.9188194 0 1 1  8.0295219,99.660515 A 44.162361 9.9188194 0 1 1  96.354244 99.660515 z"
   sodipodi:ry="9.9188194"
   sodipodi:rx="44.162361"
   sodipodi:cy="99.660515"
   sodipodi:cx="52.191883"
   id="path9697"
   style="opacity:0.60792954;fill:url(#radialGradient1351);fill-opacity:1;stroke:none;stroke-width:3;stroke-linecap:round;stroke-linejoin:round;stroke-miterlimit:4;stroke-opacity:1"
   sodipodi:type="arc" /><path
   id="path8926"
   d="M 189.86622,196.78795 L 195.66591,242.66018 L 232.75771,222.99027 L 189.86622,196.78795 z "
   style="fill:url(#linearGradient1369);fill-opacity:1;fill-rule:evenodd;stroke:none;stroke-width:1px;stroke-linecap:butt;stroke-linejoin:miter;stroke-opacity:1"
   sodipodi:nodetypes="cccc" />
  
  <path
   style="font-size:12px;fill:url(#XMLID_2_);stroke:#000000;stroke-width:4.9579215;stroke-miterlimit:4;stroke-dasharray:none;stroke-opacity:1"
   d="M 29.344375,208.44191 C 28.557356,212.1155 30.106631,213.87723 34.168438,214.3122 L 185.16789,242.08743 C 190.48964,243.27525 196.16959,240.87704 197.20835,236.95289 L 224.664,61.028715 C 225.25703,59.564933 224.24795,57.745126 222.88284,55.569295 L 190.48353,9.52304 C 189.16548,7.9985518 186.96633,6.4740636 184.13779,5.9565639 L 73.624745,10.143028 C 70.875349,9.5923319 67.614111,11.654127 66.281598,14.994614 L 29.344375,208.44191 z "
   id="path169"
   sodipodi:nodetypes="ccccccccccc" />
  <path
   style="font-size:12px;fill:none"
   d="M 6.1064917,187.5664 L 81.19211,22.955289 C 83.237867,16.76541 101.55762,5.8168442 109.64619,7.2576026 L 250.58701,19.106493 C 248.93463,18.110517 246.98214,17.359648 244.78691,16.96867 L 107.11021,3.3322832 C 99.020441,1.8915248 80.701893,12.841287 78.657332,19.029972 L 3.5705181,183.64227 C 2.4047598,187.17063 3.5023661,190.69779 6.1579043,193.34617 C 5.5146451,191.5216 5.4512752,189.5464 6.1064917,187.5664 z "
   id="path170" />
  <g
   id="g171"
   style="font-size:12px;stroke:#000000" />
  <path
   style="font-size:12px;fill:#cccccc;fill-opacity:1"
   d="M 186.55419,217.53746 C 184.1416,221.7938 181.36487,223.53626 173.01249,223.3731 L 62.724143,217.11033 L 180.6795,232.94729 C 188.81287,234.12389 190.55178,231.99893 192.39585,225.74599 L 221.23067,64.918948 L 186.55419,217.53746 z "
   id="path172"
   sodipodi:nodetypes="ccccccc" />
  
  
  
  
  <g
   id="Layer_2"
   style="stroke:#000000">
    <path
   style="fill:none;stroke:none"
   d="M 256,256 L 0,256 L 0,0 L 256,0 L 256,256 z "
   id="path220" />
  </g>
<path
   style="opacity:1;color:#000000;fill:#b3b3b3;fill-opacity:1;fill-rule:nonzero;stroke:none;stroke-width:1;stroke-linecap:butt;stroke-linejoin:miter;marker:none;marker-start:none;marker-mid:none;marker-end:none;stroke-miterlimit:4;stroke-dasharray:none;stroke-dashoffset:0;stroke-opacity:1;visibility:visible;display:inline;overflow:visible"
   d="M 181.45799,49.934332 L 182.44436,61.864547 C 182.74941,64.063218 184.96458,65.18331 186.44929,65.200452 L 225.26329,59.02742 L 181.45799,49.934332 z "
   id="path2204"
   sodipodi:nodetypes="ccccc" /><path
   style="font-size:12px;fill:#000000;fill-opacity:1;overflow:visible"
   d="M 191.14458,226.40538 C 189.63672,231.23179 186.93032,234.11718 178.79054,232.98417 L 63.588955,217.06144 L 183.95225,240.83168 C 192.09196,241.96349 193.81916,239.82901 195.62879,233.56602 L 219.74488,75.325282 L 191.14458,226.40538 z "
   id="path3075"
   sodipodi:nodetypes="ccccccc" /><path
   sodipodi:nodetypes="cccc"
   id="path2212"
   d="M 189.76837,7.082875 L 174.33826,46.185206 C 174.34733,47.196952 174.56618,49.097423 177.2695,49.814544 L 225.51795,58.868327"
   style="fill:none;fill-opacity:0.75;fill-rule:evenodd;stroke:#000000;stroke-width:4.52679777;stroke-linecap:butt;stroke-linejoin:round;stroke-miterlimit:4;stroke-dasharray:none;stroke-opacity:1" /><g
   id="g1716"
   transform="matrix(1.015863,-4.433029e-2,-0.199939,1.003613,4.43387,1.354736)"><path
     sodipodi:nodetypes="cccccccc"
     style="color:#000000;fill:#000000;fill-opacity:0.21052629;fill-rule:evenodd;stroke:none;stroke-width:0.60787594;stroke-linecap:square;stroke-linejoin:round;marker:none;marker-start:none;marker-mid:none;marker-end:none;stroke-miterlimit:4;stroke-dashoffset:0;stroke-opacity:1;visibility:visible;display:inline;overflow:visible"
     d="M 82.164891,23.889093 L 82.164891,49.948993 L 82.164891,207.62783 L 128.44402,215.56602 L 128.95202,50.125907 L 213.16886,50.125907 L 192.84537,23.83057 L 82.164891,23.889093 z "
     id="rect13655" /><path
     style="fill:#000000;fill-opacity:0.15789466;fill-rule:evenodd;stroke:#000000;stroke-width:4.95598078px;stroke-linecap:square;stroke-linejoin:miter;stroke-opacity:0.19298245;display:inline"
     d="M 210.83145,47.512644 L 84.252363,46.242836"
     id="path13660"
     sodipodi:nodetypes="cc" /><path
     style="fill:#000000;fill-opacity:0.15789466;fill-rule:evenodd;stroke:#000000;stroke-width:4.95597839px;stroke-linecap:square;stroke-linejoin:miter;stroke-opacity:0.19298245;display:inline"
     d="M 211.08296,80.268945 L 83.331088,77.269117"
     id="path13662"
     sodipodi:nodetypes="cc" /><path
     style="fill:#000000;fill-opacity:0.15789466;fill-rule:evenodd;stroke:#000000;stroke-width:4.95597839px;stroke-linecap:square;stroke-linejoin:miter;stroke-opacity:0.19298245;display:inline"
     d="M 210.66153,115.9443 L 84.500645,110.49721"
     id="path13664"
     sodipodi:nodetypes="cc" /><path
     style="fill:#000000;fill-opacity:0.15789466;fill-rule:evenodd;stroke:#000000;stroke-width:4.95597839px;stroke-linecap:square;stroke-linejoin:miter;stroke-opacity:0.19298245;display:inline"
     d="M 211.15974,152.07987 L 84.500645,141.99528"
     id="path13666"
     sodipodi:nodetypes="cc" /><path
     style="fill:#000000;fill-opacity:0.15789466;fill-rule:evenodd;stroke:#000000;stroke-width:4.95597839px;stroke-linecap:square;stroke-linejoin:miter;stroke-opacity:0.19298245;display:inline"
     d="M 211.91055,189.48523 L 84.503406,173.49334"
     id="path13668"
     sodipodi:nodetypes="cc" /><path
     style="fill:#000000;fill-opacity:0.15789466;fill-rule:evenodd;stroke:#000000;stroke-width:4.95597839px;stroke-linecap:square;stroke-linejoin:miter;stroke-opacity:0.19298245;display:inline"
     d="M 211.81803,228.95154 L 84.500645,204.99141"
     id="path13682"
     sodipodi:nodetypes="cc" /><path
     style="fill:#000000;fill-opacity:0.15789466;fill-rule:evenodd;stroke:#000000;stroke-width:4.95598078px;stroke-linecap:square;stroke-linejoin:miter;stroke-opacity:0.19298245;display:inline"
     d="M 210.88399,63.250102 L 85.342211,61.189166"
     id="path2464"
     sodipodi:nodetypes="cc" /><path
     style="fill:none;fill-opacity:0.15789466;fill-rule:evenodd;stroke:#000000;stroke-width:4.95597839px;stroke-linecap:square;stroke-linejoin:miter;stroke-opacity:0.19298245;display:inline"
     d="M 210.57986,97.674115 L 84.920443,92.668764"
     id="path2466"
     sodipodi:nodetypes="cc" /><path
     style="fill:#000000;fill-opacity:0.15789466;fill-rule:evenodd;stroke:#000000;stroke-width:4.95597839px;stroke-linecap:square;stroke-linejoin:miter;stroke-opacity:0.19298245;display:inline"
     d="M 211.32961,132.98161 L 84.500645,126.24624"
     id="path2468"
     sodipodi:nodetypes="cc" /><path
     style="fill:#000000;fill-opacity:0.15789466;fill-rule:evenodd;stroke:#000000;stroke-width:4.95597839px;stroke-linecap:square;stroke-linejoin:miter;stroke-opacity:0.19298245;display:inline"
     d="M 211.74288,170.79178 L 84.500645,157.74431"
     id="path2470"
     sodipodi:nodetypes="cc" /><path
     style="fill:#000000;fill-opacity:0.15789466;fill-rule:evenodd;stroke:#000000;stroke-width:4.95597839px;stroke-linecap:square;stroke-linejoin:miter;stroke-opacity:0.19298245;display:inline"
     d="M 211.82129,209.00675 L 84.500645,189.24238"
     id="path2472"
     sodipodi:nodetypes="cc" /><path
     id="path2485"
     d="M 211.06146,50.847446 L 211.73118,228.52985"
     style="fill:none;fill-opacity:0.75;fill-rule:evenodd;stroke:#000000;stroke-width:4.95597935px;stroke-linecap:square;stroke-linejoin:miter;stroke-opacity:0.15789466;display:inline"
     sodipodi:nodetypes="cc" /><path
     id="path2487"
     d="M 182.75722,26.500729 L 183.32894,222.6411"
     style="fill:none;fill-opacity:0.75;fill-rule:evenodd;stroke:#000000;stroke-width:4.95597982px;stroke-linecap:square;stroke-linejoin:miter;stroke-opacity:0.15789466;display:inline"
     sodipodi:nodetypes="cc" /><path
     id="path2489"
     d="M 154.68494,26.500729 L 153.50396,217.94819"
     style="fill:none;fill-opacity:0.75;fill-rule:evenodd;stroke:#000000;stroke-width:4.95597982px;stroke-linecap:square;stroke-linejoin:miter;stroke-opacity:0.15789466;display:inline"
     sodipodi:nodetypes="cc" /><path
     id="path2491"
     d="M 126.61267,26.500729 L 126.43953,212.53804"
     style="fill:none;fill-opacity:0.75;fill-rule:evenodd;stroke:#000000;stroke-width:4.95597982px;stroke-linecap:square;stroke-linejoin:miter;stroke-opacity:0.15789466;display:inline"
     sodipodi:nodetypes="cc" /><path
     id="path2493"
     d="M 84.504248,26.500729 L 84.504248,204.99307"
     style="fill:none;fill-opacity:0.75;fill-rule:evenodd;stroke:#000000;stroke-width:4.95597982px;stroke-linecap:square;stroke-linejoin:miter;stroke-opacity:0.15789466;display:inline" /><path
     style="fill:#000000;fill-opacity:0.15789466;fill-rule:evenodd;stroke:#000000;stroke-width:4.95597982px;stroke-linecap:square;stroke-linejoin:miter;stroke-opacity:0.19298245;display:inline"
     d="M 190.34045,25.60887 L 84.501721,26.513932"
     id="path2495"
     sodipodi:nodetypes="cc" /></g><path
   style="fill:url(#linearGradient2209);fill-opacity:1;fill-rule:evenodd;stroke:none;stroke-width:1px;stroke-linecap:butt;stroke-linejoin:miter;stroke-opacity:1;overflow:visible"
   d="M 189.98687,7.8281162 L 175.86635,44.645619 C 175.52326,45.396158 175.59862,46.874697 176.9488,47.598748 L 225.48273,57.608394"
   id="path2202"
   sodipodi:nodetypes="cccc" /><g
   id="g1738"
   transform="matrix(0.854995,0,0,0.854995,12.86477,26.73994)"><path
     transform="matrix(5.174988,0,0,5.174988,-87.03026,-86.06878)"
     d="M 48.999998 40.714287 A 16.071428 11.857142 0 1 1  16.857141,40.714287 A 16.071428 11.857142 0 1 1  48.999998 40.714287 z"
     sodipodi:ry="11.857142"
     sodipodi:rx="16.071428"
     sodipodi:cy="40.714287"
     sodipodi:cx="32.92857"
     id="path1693"
     style="fill:url(#radialGradient1751);fill-opacity:1;fill-rule:evenodd;stroke:none;stroke-width:1px;stroke-linecap:butt;stroke-linejoin:miter;stroke-opacity:1;display:inline"
     sodipodi:type="arc" /><g
     inkscape:r_cy="true"
     inkscape:r_cx="true"
     transform="matrix(5.624987,0,0,5.624987,184.2227,-35.38369)"
     id="g6727"
     style="display:inline"><path
       inkscape:r_cy="true"
       inkscape:r_cx="true"
       style="fill:#670000;fill-opacity:1;fill-rule:nonzero;stroke:none;stroke-miterlimit:4"
       d="M -27.528542,18.092794 C -30.097576,19.791125 -31.511475,22.097833 -31.511475,24.590696 L -31.511475,26.659988 C -31.511475,29.150828 -30.097576,31.458211 -27.528542,33.156541 C -25.102053,34.760445 -21.895416,35.644009 -18.499359,35.644009 C -15.104587,35.644009 -11.89795,34.760445 -9.4701774,33.156541 C -6.9024275,31.458211 -5.4885277,29.151503 -5.4885277,26.659988 L -5.4885277,24.590696 C -5.4885277,22.097833 -6.9030696,19.79045 -9.4701774,18.092794 C -11.897308,16.490239 -15.103945,15.606001 -18.499359,15.606001 C -21.895416,15.606001 -25.102053,16.490239 -27.528542,18.092794 z "
       id="path3931" /><path
       inkscape:r_cy="true"
       inkscape:r_cx="true"
       style="fill:#a40000;fill-rule:nonzero;stroke:none;stroke-miterlimit:4"
       d="M -7.0244261,24.453547 C -8.4030105,21.067003 -13.077484,18.573465 -18.636768,18.573465 C -24.196053,18.573465 -28.870526,21.067003 -30.249111,24.453547 L -30.663906,24.453547 L -30.663906,26.523514 C -30.663906,30.913678 -25.27863,34.472213 -18.636768,34.472213 C -11.994265,34.472213 -6.6102729,30.913678 -6.6102729,26.523514 L -6.6102729,24.453547 L -7.0244261,24.453547 L -7.0244261,24.453547 z "
       id="path3933" /><path
       inkscape:r_cy="true"
       inkscape:r_cx="true"
       style="fill:url(#linearGradient1753);fill-opacity:1;fill-rule:nonzero;stroke:none;stroke-miterlimit:4"
       d="M -6.6102729,24.453547 C -6.6102729,28.844385 -11.994265,32.402921 -18.636768,32.402921 C -25.279272,32.402921 -30.663906,28.844385 -30.663906,24.453547 C -30.663906,20.062708 -25.27863,16.504173 -18.636768,16.504173 C -11.994265,16.504173 -6.6102729,20.062708 -6.6102729,24.453547 L -6.6102729,24.453547 z "
       id="path3935" /><path
       inkscape:r_cy="true"
       inkscape:r_cx="true"
       style="fill:#204a87;fill-rule:nonzero;stroke:none;stroke-miterlimit:4"
       d="M -6.6102729,26.833098 L -6.6256833,24.666681 C -7.9297843,29.167459 -10.862246,31.074203 -14.549173,32.007678 L -14.549173,34.002103 C -10.558534,32.998483 -6.9871844,30.713358 -6.6102729,26.833098 L -6.6102729,26.833098 z "
       id="path3937" /><path
       inkscape:r_cy="true"
       inkscape:r_cx="true"
       style="fill:url(#linearGradient1755);fill-opacity:1;fill-rule:nonzero;stroke:none;stroke-miterlimit:4"
       d="M -6.6102729,24.453547 C -6.8857329,29.533025 -13.16802,31.849176 -14.571646,31.937532 L -18.637411,24.453547 L -6.610915,24.453547 L -6.6102729,24.453547 z "
       id="path3939" /><path
       inkscape:r_cy="true"
       inkscape:r_cx="true"
       style="fill:#4e9a06;fill-rule:nonzero;stroke:none;stroke-miterlimit:4"
       d="M -21.154435,34.298198 L -21.154435,32.228906 C -18.891039,32.523652 -16.814494,32.575587 -14.571646,32.015097 L -14.549173,34.002778 C -16.428593,34.619249 -19.36876,34.648251 -21.154435,34.298873 L -21.154435,34.298198 z "
       id="path3941" /><path
       inkscape:r_cy="true"
       inkscape:r_cx="true"
       style="fill:url(#linearGradient1757);fill-opacity:1;fill-rule:nonzero;stroke:none;stroke-miterlimit:4"
       d="M -18.637411,24.454221 L -14.571646,31.937532 C -17.06106,32.88652 -21.154435,32.228906 -21.154435,32.228906 L -18.637411,24.454221 z "
       id="path3943" /><path
       inkscape:r_cy="true"
       inkscape:r_cx="true"
       sodipodi:type="arc"
       style="opacity:0.31111115;color:#000000;fill:none;fill-opacity:1;fill-rule:evenodd;stroke:url(#linearGradient1759);stroke-width:1.02083337;stroke-linecap:butt;stroke-linejoin:miter;marker:none;marker-start:none;marker-mid:none;marker-end:none;stroke-miterlimit:4;stroke-dasharray:none;stroke-dashoffset:0;stroke-opacity:1;visibility:visible;display:block;overflow:visible"
       id="path5959"
       sodipodi:cx="-18.625"
       sodipodi:cy="24.375"
       sodipodi:rx="11.75"
       sodipodi:ry="7.75"
       d="M -6.875 24.375 A 11.75 7.75 0 1 1  -30.375,24.375 A 11.75 7.75 0 1 1  -6.875 24.375 z"
       transform="matrix(0.979592,0,0,0.979592,-0.380102,0.497449)" /><path
       inkscape:r_cy="true"
       inkscape:r_cx="true"
       transform="matrix(0.979592,0,0,0.979592,-0.380102,2.497449)"
       d="M -6.875 24.375 A 11.75 7.75 0 1 1  -30.375,24.375 A 11.75 7.75 0 1 1  -6.875 24.375 z"
       sodipodi:ry="7.75"
       sodipodi:rx="11.75"
       sodipodi:cy="24.375"
       sodipodi:cx="-18.625"
       id="path6707"
       style="opacity:0.13333327;color:#000000;fill:none;fill-opacity:1;fill-rule:evenodd;stroke:url(#linearGradient1761);stroke-width:1.02083337;stroke-linecap:butt;stroke-linejoin:miter;marker:none;marker-start:none;marker-mid:none;marker-end:none;stroke-miterlimit:4;stroke-dasharray:none;stroke-dashoffset:0;stroke-opacity:1;visibility:visible;display:block;overflow:visible"
       sodipodi:type="arc" /></g></g></svg>