<?xml version="1.0" encoding="UTF-8" standalone="no"?>
<!-- Created with Sodipodi ("http://www.sodipodi.com/") -->
<svg
   xmlns:a="http://ns.adobe.com/AdobeSVGViewerExtensions/3.0/"
   xmlns:dc="http://purl.org/dc/elements/1.1/"
   xmlns:cc="http://web.resource.org/cc/"
   xmlns:rdf="http://www.w3.org/1999/02/22-rdf-syntax-ns#"
   xmlns:svg="http://www.w3.org/2000/svg"
   xmlns="http://www.w3.org/2000/svg"
   xmlns:xlink="http://www.w3.org/1999/xlink"
   xmlns:sodipodi="http://inkscape.sourceforge.net/DTD/sodipodi-0.dtd"
   xmlns:inkscape="http://www.inkscape.org/namespaces/inkscape"
   width="128"
   height="128"
   viewBox="0 0 256 256"
   style="overflow:visible;enable-background:new 0 0 256 256"
   xml:space="preserve"
   id="svg153"
   sodipodi:version="0.32"
   sodipodi:docname="gnome-mime-video.svg"
   sodipodi:docbase="/data/img/icons/Chimera/scalable/mimetypes/media"
   inkscape:version="0.43"
   version="1.0"><metadata
   id="metadata29"><rdf:RDF><cc:Work
       rdf:about=""><dc:format>image/svg+xml</dc:format><dc:type
         rdf:resource="http://purl.org/dc/dcmitype/StillImage" /></cc:Work></rdf:RDF></metadata>
  <defs
   id="defs222"><linearGradient
     y2="28.3922"
     x2="26.5278"
     y1="-3.2012"
     x1="-1.2432"
     gradientUnits="userSpaceOnUse"
     id="aigrd6">
			<stop
   id="stop52"
   style="stop-color:#FFFFFF"
   offset="0" />
			<stop
   id="stop54"
   style="stop-color:#959595"
   offset="1" />
		</linearGradient><radialGradient
     gradientUnits="userSpaceOnUse"
     fy="24.5933"
     fx="31.3135"
     r="14.4316"
     cy="24.5933"
     cx="31.3135"
     id="aigrd5">
			<stop
   id="stop43"
   style="stop-color:#767676"
   offset="0" />
			<stop
   id="stop45"
   style="stop-color:#484848"
   offset="1" />
		</radialGradient><radialGradient
     gradientUnits="userSpaceOnUse"
     fy="22.6138"
     fx="9.3418"
     r="14.1515"
     cy="22.6138"
     cx="9.3418"
     id="aigrd4">
			<stop
   id="stop36"
   style="stop-color:#767676"
   offset="0" />
			<stop
   id="stop38"
   style="stop-color:#484848"
   offset="1" />
		</radialGradient><radialGradient
     gradientUnits="userSpaceOnUse"
     fy="29.0337"
     fx="23.1567"
     r="26.966"
     cy="29.0337"
     cx="23.1567"
     id="aigrd3">
			<stop
   id="stop27"
   style="stop-color:#767676"
   offset="0" />
			<stop
   id="stop29"
   style="stop-color:#484848"
   offset="1" />
		</radialGradient><radialGradient
     gradientUnits="userSpaceOnUse"
     fy="12.3457"
     fx="13.5024"
     r="10.8808"
     cy="12.3457"
     cx="13.5024"
     id="aigrd2">
			<stop
   id="stop20"
   style="stop-color:#454545"
   offset="0" />
			<stop
   id="stop22"
   style="stop-color:#333333"
   offset="1" />
		</radialGradient><linearGradient
     y2="25.8145"
     x2="24.3907"
     y1="19.1899"
     x1="18.6235"
     gradientUnits="userSpaceOnUse"
     id="aigrd1">
			<stop
   id="stop13"
   style="stop-color:#959595"
   offset="0" />
			<stop
   id="stop15"
   style="stop-color:#5B5B5B"
   offset="1" />
		</linearGradient><linearGradient
     id="linearGradient11317"><stop
       id="stop11319"
       offset="0.00000000"
       style="stop-color:#000000;stop-opacity:0.48958334;" /><stop
       id="stop11321"
       offset="1"
       style="stop-color:#000000;stop-opacity:0;" /></linearGradient><linearGradient
     inkscape:collect="always"
     xlink:href="#linearGradient11317"
     id="linearGradient1369"
     gradientUnits="userSpaceOnUse"
     gradientTransform="matrix(3.239914,0,0,1.881907,15.04708,-83.77053)"
     x1="49.781834"
     y1="173.45737"
     x2="62.504456"
     y2="157.02299" /><linearGradient
     id="linearGradient2211"><stop
       id="stop2213"
       offset="0"
       style="stop-color:#dedede;stop-opacity:1;" /><stop
       id="stop2215"
       offset="1"
       style="stop-color:#ffffff;stop-opacity:1;" /></linearGradient><linearGradient
     id="linearGradient10457"><stop
       id="stop10459"
       offset="0"
       style="stop-color:#000000;stop-opacity:0.71428573;" /><stop
       id="stop10461"
       offset="1"
       style="stop-color:#000000;stop-opacity:0;" /></linearGradient><radialGradient
     inkscape:collect="always"
     xlink:href="#linearGradient10457"
     id="radialGradient1351"
     gradientUnits="userSpaceOnUse"
     gradientTransform="scale(2.110067,0.473919)"
     cx="24.734711"
     cy="210.29031"
     fx="24.734711"
     fy="210.29031"
     r="20.929369" /><linearGradient
     id="XMLID_2_"
     gradientUnits="userSpaceOnUse"
     x1="101.2012"
     y1="49.471699"
     x2="130.5948"
     y2="153.53371"
     gradientTransform="matrix(1.195649,0,0,1.195649,-16.98509,-42.69663)">
      <stop
   offset="0"
   style="stop-color:#D4D4D4"
   id="stop164" />
      <stop
   offset="1"
   style="stop-color:#F0F0F0"
   id="stop165" />
      <a:midPointStop
   offset="0"
   style="stop-color:#D4D4D4"
   id="midPointStop166" />
      <a:midPointStop
   offset="0.5"
   style="stop-color:#D4D4D4"
   id="midPointStop167" />
      <a:midPointStop
   offset="1"
   style="stop-color:#F0F0F0"
   id="midPointStop168" />
    </linearGradient><linearGradient
     inkscape:collect="always"
     xlink:href="#linearGradient2211"
     id="linearGradient2209"
     x1="213.3185"
     y1="69.450134"
     x2="199.65854"
     y2="69.350571"
     gradientUnits="userSpaceOnUse"
     gradientTransform="matrix(1.194834,4.415806e-2,-4.415806e-2,1.194834,-54.48974,-54.12795)" /></defs>
  <sodipodi:namedview
   id="base"
   inkscape:zoom="2.3747002"
   inkscape:cx="88.80902"
   inkscape:cy="54.036608"
   inkscape:window-width="996"
   inkscape:window-height="643"
   inkscape:window-x="0"
   inkscape:window-y="39"
   inkscape:current-layer="svg153" />
  <path
   transform="matrix(2.707034,0.148295,-0.263566,2.548187,9.435841,-36.04555)"
   d="M 96.354244 99.660515 A 44.162361 9.9188194 0 1 1  8.0295219,99.660515 A 44.162361 9.9188194 0 1 1  96.354244 99.660515 z"
   sodipodi:ry="9.9188194"
   sodipodi:rx="44.162361"
   sodipodi:cy="99.660515"
   sodipodi:cx="52.191883"
   id="path9697"
   style="opacity:0.60792954;fill:url(#radialGradient1351);fill-opacity:1;stroke:none;stroke-width:3;stroke-linecap:round;stroke-linejoin:round;stroke-miterlimit:4;stroke-opacity:1"
   sodipodi:type="arc" /><path
   id="path8926"
   d="M 189.86622,196.78795 L 195.66591,242.66018 L 232.75771,222.99027 L 189.86622,196.78795 z "
   style="fill:url(#linearGradient1369);fill-opacity:1;fill-rule:evenodd;stroke:none;stroke-width:1px;stroke-linecap:butt;stroke-linejoin:miter;stroke-opacity:1"
   sodipodi:nodetypes="cccc" />
  
  <path
   style="font-size:12px;fill:url(#XMLID_2_);stroke:#000000;stroke-width:4.9579215;stroke-miterlimit:4;stroke-dasharray:none;stroke-opacity:1"
   d="M 29.344375,208.44191 C 28.557356,212.1155 30.106631,213.87723 34.168438,214.3122 L 185.16789,242.08743 C 190.48964,243.27525 196.16959,240.87704 197.20835,236.95289 L 224.664,61.028715 C 225.25703,59.564933 224.24795,57.745126 222.88284,55.569295 L 190.48353,9.52304 C 189.16548,7.9985518 186.96633,6.4740636 184.13779,5.9565639 L 73.624745,10.143028 C 70.875349,9.5923319 67.614111,11.654127 66.281598,14.994614 L 29.344375,208.44191 z "
   id="path169"
   sodipodi:nodetypes="ccccccccccc" />
  <path
   style="font-size:12px;fill:none"
   d="M 6.1064917,187.5664 L 81.19211,22.955289 C 83.237867,16.76541 101.55762,5.8168442 109.64619,7.2576026 L 250.58701,19.106493 C 248.93463,18.110517 246.98214,17.359648 244.78691,16.96867 L 107.11021,3.3322832 C 99.020441,1.8915248 80.701893,12.841287 78.657332,19.029972 L 3.5705181,183.64227 C 2.4047598,187.17063 3.5023661,190.69779 6.1579043,193.34617 C 5.5146451,191.5216 5.4512752,189.5464 6.1064917,187.5664 z "
   id="path170" />
  <g
   id="g171"
   style="font-size:12px;stroke:#000000" />
  <path
   style="font-size:12px;fill:#cccccc;fill-opacity:1"
   d="M 186.55419,217.53746 C 184.1416,221.7938 181.36487,223.53626 173.01249,223.3731 L 62.724143,217.11033 L 180.6795,232.94729 C 188.81287,234.12389 190.55178,231.99893 192.39585,225.74599 L 221.23067,64.918948 L 186.55419,217.53746 z "
   id="path172"
   sodipodi:nodetypes="ccccccc" />
  
  
  
  
  <g
   id="Layer_2"
   style="stroke:#000000">
    <path
   style="fill:none;stroke:none"
   d="M 256,256 L 0,256 L 0,0 L 256,0 L 256,256 z "
   id="path220" />
  </g>
<path
   style="opacity:1;color:#000000;fill:#b3b3b3;fill-opacity:1;fill-rule:nonzero;stroke:none;stroke-width:1;stroke-linecap:butt;stroke-linejoin:miter;marker:none;marker-start:none;marker-mid:none;marker-end:none;stroke-miterlimit:4;stroke-dasharray:none;stroke-dashoffset:0;stroke-opacity:1;visibility:visible;display:inline;overflow:visible"
   d="M 181.45799,49.934332 L 182.44436,61.864547 C 182.74941,64.063218 184.96458,65.18331 186.44929,65.200452 L 225.26329,59.02742 L 181.45799,49.934332 z "
   id="path2204"
   sodipodi:nodetypes="ccccc" /><path
   style="font-size:12px;fill:#000000;fill-opacity:1;overflow:visible"
   d="M 191.14458,226.40538 C 189.63672,231.23179 186.93032,234.11718 178.79054,232.98417 L 63.588955,217.06144 L 183.95225,240.83168 C 192.09196,241.96349 193.81916,239.82901 195.62879,233.56602 L 219.74488,75.325282 L 191.14458,226.40538 z "
   id="path3075"
   sodipodi:nodetypes="ccccccc" /><path
   sodipodi:nodetypes="cccc"
   id="path2212"
   d="M 189.76837,7.082875 L 174.33826,46.185206 C 174.34733,47.196952 174.56618,49.097423 177.2695,49.814544 L 225.51795,58.868327"
   style="fill:none;fill-opacity:0.75;fill-rule:evenodd;stroke:#000000;stroke-width:4.52679777;stroke-linecap:butt;stroke-linejoin:round;stroke-miterlimit:4;stroke-dasharray:none;stroke-opacity:1" /><path
   style="fill:url(#linearGradient2209);fill-opacity:1;fill-rule:evenodd;stroke:none;stroke-width:1px;stroke-linecap:butt;stroke-linejoin:miter;stroke-opacity:1;overflow:visible"
   d="M 189.98687,7.8281162 L 175.86635,44.645619 C 175.52326,45.396158 175.59862,46.874697 176.9488,47.598748 L 225.48273,57.608394"
   id="path2202"
   sodipodi:nodetypes="cccc" /><g
   transform="matrix(4.036342,0,0,4.036342,6.290902,37.04437)"
   id="g1474"><g
     style="fill-rule:nonzero;stroke:#000000;stroke-miterlimit:4"
     id="Layer_x0020_2">
		<path
   id="path5"
   d="M 45.5,39 L 1.7,39 L 1.7,0 L 45.5,0 L 45.5,39 z "
   style="fill:none;stroke:none" />
	</g><g
     style="fill:#e6e6e6;fill-rule:nonzero;stroke:#000000;stroke-miterlimit:4"
     id="Layer_x0020_4">
		<path
   id="path8"
   d="M 10.2,24 C 11.4,28.4 17.1,29 21.7,29.5 C 23.8,29.7 26.5,30 27.2,30.7 C 29,32.5 27,36.3 27,36.3 L 25.3,39.4 L 28.6,38.3 C 31.5,37.3 39.6,35.2 42.9,37.5 L 45.2,39.2 L 45,36.3 C 44.6,31.5 43.4,28.2 41.1,26.3 C 37.9,23.6 33.3,24 28.4,24.5 C 23.2,25 17.3,25.6 12.2,22.4 L 9.3,20.6 L 10.2,23.9 L 10.2,24 z "
   style="fill:#000000;stroke:none" />
		<path
   id="path10"
   d="M 14.5,0.5 C 11.4,1.3 8.2,3.2 5.7,5.7 C 3.2,8.3 1.3,11.4 0.5,14.5 C 0.2,15.8 0,17.1 0,18.3 C 0,19.5 0.2,20.7 0.5,21.9 C 1.2,24.1 2.4,26 4.2,27.3 C 6.2,30.1 9.4,31.6 13.2,31.6 C 17.7,31.6 22.4,29.6 25.9,26 C 29.5,22.4 31.5,17.8 31.5,13.3 C 31.5,9.6 30,6.5 27.4,4.5 C 26.1,2.7 24.2,1.3 21.9,0.6 C 19.6,-0.1 17,-0.1 14.4,0.6 L 14.5,0.5 z "
   style="fill:#000000;stroke:none" />
		<linearGradient
   y2="25.814501"
   x2="24.390699"
   y1="19.189899"
   x1="18.623501"
   gradientUnits="userSpaceOnUse"
   id="linearGradient1540">
			<stop
   id="stop1542"
   style="stop-color:#959595"
   offset="0" />
			<stop
   id="stop1544"
   style="stop-color:#5B5B5B"
   offset="1" />
		</linearGradient>
		<path
   id="path17"
   d="M 16.6,4 C 10.7,5.5 5.3,11 3.8,16.9 C 2.1,23.6 5.6,29.7 12.8,29.7 C 21.4,29.7 29.5,21.6 29.5,13 C 29.5,5.7 23.3,2.2 16.6,4 z M 12.9,20.7 C 12.5,23.1 10.4,25.1 8.3,25.3 C 6.3,25.4 5.2,23.6 5.7,21.4 C 6.2,19.3 8,17.4 9.9,17.2 C 11.9,16.9 13.2,18.5 12.9,20.7 L 12.9,20.7 z M 14.5,10.6 C 14.2,12.5 12.3,14.4 10.4,14.7 C 8.6,15 7.5,13.7 7.9,11.9 C 8.3,10.2 10,8.5 11.7,8.1 C 13.5,7.7 14.8,8.8 14.5,10.6 L 14.5,10.6 z M 24.5,19.6 C 24.4,22.2 22,24.6 19.4,24.7 C 16.9,24.8 15.2,22.9 15.6,20.4 C 15.9,18.1 18,16 20.3,15.7 C 22.7,15.4 24.7,17 24.6,19.5 L 24.5,19.6 z M 25.1,8.5 C 25,10.6 22.9,12.7 20.5,13.1 C 18.2,13.5 16.7,12.1 17,10.2 C 17.3,8.3 19.1,6.5 21.2,6 C 23.4,5.5 25.2,6.6 25.1,8.6 L 25.1,8.5 z "
   style="fill:url(#aigrd1);stroke:none" />
		<radialGradient
   gradientUnits="userSpaceOnUse"
   fy="12.3457"
   fx="13.5024"
   r="10.8808"
   cy="12.3457"
   cx="13.5024"
   id="radialGradient1547">
			<stop
   id="stop1549"
   style="stop-color:#454545"
   offset="0" />
			<stop
   id="stop1551"
   style="stop-color:#333333"
   offset="1" />
		</radialGradient>
		<path
   id="path24"
   d="M 24,13.6 C 24,18.9 18.9,24 13.5,24 C 9,24 6.8,20.2 7.9,16 C 8.9,12.3 12.2,8.9 15.9,8 C 20.1,6.9 24,9.1 24,13.6 z "
   style="fill:url(#aigrd2);stroke:none" />
		<radialGradient
   gradientUnits="userSpaceOnUse"
   fy="29.033701"
   fx="23.1567"
   r="26.966"
   cy="29.033701"
   cx="23.1567"
   id="radialGradient1554">
			<stop
   id="stop1556"
   style="stop-color:#767676"
   offset="0" />
			<stop
   id="stop1558"
   style="stop-color:#484848"
   offset="1" />
		</radialGradient>
		<path
   id="path31"
   d="M 22.5,12.1 C 22.5,17.4 17.4,22.5 12,22.5 C 7.5,22.5 5.3,18.7 6.4,14.5 C 7.4,10.8 10.7,7.4 14.4,6.5 C 18.6,5.4 22.5,7.6 22.5,12.1 z "
   style="fill:url(#aigrd3);stroke:none" />
		<path
   id="path33"
   d="M 27.3,6.5 C 30.8,10 30.9,17.9 25.5,23.9 C 20.1,30 12,31.3 7.2,28 C 20.7,34.4 34.6,16.3 27.3,6.4 L 27.3,6.5 z "
   style="fill:#3b3b3b;stroke:none" />
		<radialGradient
   gradientUnits="userSpaceOnUse"
   fy="22.6138"
   fx="9.3417997"
   r="14.1515"
   cy="22.6138"
   cx="9.3417997"
   id="radialGradient1562">
			<stop
   id="stop1564"
   style="stop-color:#767676"
   offset="0" />
			<stop
   id="stop1566"
   style="stop-color:#484848"
   offset="1" />
		</radialGradient>
		<path
   id="path40"
   d="M 43.6,36.4 C 39.1,33.2 28.1,37 28.1,37 C 28.1,37 30.7,32.3 28.1,29.8 C 25.5,27.2 13.1,29.4 11.5,23.7 C 25,32 42.1,16.4 43.6,36.5 L 43.6,36.4 z "
   style="fill:url(#aigrd4);stroke:none" />
		<radialGradient
   gradientUnits="userSpaceOnUse"
   fy="24.5933"
   fx="31.313499"
   r="14.4316"
   cy="24.5933"
   cx="31.313499"
   id="radialGradient1569">
			<stop
   id="stop1571"
   style="stop-color:#767676"
   offset="0" />
			<stop
   id="stop1573"
   style="stop-color:#484848"
   offset="1" />
		</radialGradient>
		<path
   id="path47"
   d="M 43.5,36.3 C 39,33.1 28,36.9 28,36.9 C 28,36.9 33.8,27.7 22.5,26.1 C 36,24.7 43,24 43.5,36.3 z "
   style="fill:url(#aigrd5);stroke:none" />
		<path
   id="path49"
   d="M 29.2,29 C 30.6,34.1 28.1,36.9 28.1,36.9 C 28.1,36.9 30.4,32.8 28.6,29.3 C 26.4,25.1 16.6,29 11.5,23.6 C 16.8,28.9 27.7,23.4 29.2,29 L 29.2,29 z "
   style="fill:#9f9f9f;stroke:none" />
		<linearGradient
   y2="28.3922"
   x2="26.5278"
   y1="-3.2012"
   x1="-1.2431999"
   gradientUnits="userSpaceOnUse"
   id="linearGradient1577">
			<stop
   id="stop1579"
   style="stop-color:#FFFFFF"
   offset="0" />
			<stop
   id="stop1581"
   style="stop-color:#959595"
   offset="1" />
		</linearGradient>
		<path
   id="path56"
   d="M 14.5,1.8 C 8.6,3.4 3.2,8.8 1.7,14.7 C 0,21.4 3.5,27.5 10.7,27.5 C 19.3,27.5 27.4,19.4 27.4,10.8 C 27.4,3.5 21.2,0 14.5,1.8 L 14.5,1.8 z M 10.8,18.6 C 10.4,21 8.3,23 6.3,23.1 C 4.3,23.2 3.2,21.4 3.7,19.2 C 4.2,17.1 6,15.2 7.9,15 C 9.9,14.7 11.2,16.3 10.9,18.5 L 10.8,18.6 z M 12.4,8.4 C 12.1,10.3 10.2,12.2 8.3,12.5 C 6.5,12.8 5.4,11.5 5.8,9.7 C 6.2,8 7.8,6.3 9.6,5.9 C 11.4,5.5 12.7,6.6 12.4,8.4 L 12.4,8.4 z M 22.4,17.5 C 22.3,20.1 19.9,22.5 17.3,22.6 C 14.8,22.7 13.1,20.8 13.5,18.3 C 13.8,16 15.9,13.9 18.2,13.6 C 20.6,13.3 22.6,14.9 22.5,17.4 L 22.4,17.5 z M 23,6.3 C 22.9,8.4 20.8,10.5 18.4,10.9 C 16.1,11.3 14.6,9.9 14.9,8 C 15.1,6 17,4.2 19.1,3.7 C 21.3,3.2 23.1,4.3 23,6.3 L 23,6.3 z "
   style="fill:url(#aigrd6);stroke:none" />
		<path
   id="path58"
   d="M 21.2,14.5 C 19.7,13.2 17,13.3 15.2,15.1 C 13.3,17 12.4,20.1 14.8,21.9 C 11.2,17.4 17.4,12.2 21.2,14.5 L 21.2,14.5 z "
   style="fill:#3b3b3b;stroke:none" />
		<path
   id="path60"
   d="M 14.8,21.9 C 19.7,25.2 25.3,17.4 21.2,14.5 C 25,18.4 19.2,24.4 14.8,21.9 L 14.8,21.9 z "
   style="stroke:none" />
		<path
   id="path62"
   d="M 11.8,6.4 C 11.1,5.7 9.3,5.4 7.3,7.2 C 6,8.4 4.8,10.9 6.5,12.2 C 4.3,10.1 9,4.7 11.8,6.4 z "
   style="fill:#545454;stroke:none" />
		<path
   id="path64"
   d="M 6.4,12.1 C 7.1,12.8 8.9,13.1 10.9,11.3 C 12.2,10.1 13.4,7.6 11.7,6.3 C 13.8,8.4 9.2,13.8 6.3,12.1 L 6.4,12.1 z "
   style="stroke:none" />
		<path
   id="path66"
   d="M 9.8,15.5 C 9.1,14.8 7.2,14.6 5.3,16.3 C 3.2,18.3 2.9,21.4 4.6,22.6 C 2.2,19.5 6.6,14 9.8,15.4 L 9.8,15.5 z "
   style="fill:#454545;stroke:none" />
		<path
   id="path68"
   d="M 4.8,22.8 C 5.5,23.5 7.4,23.7 9.3,22 C 11.4,20 11.7,16.9 10,15.7 C 12.4,18.8 8,24.3 4.8,22.9 L 4.8,22.8 z "
   style="stroke:none" />
		<path
   id="path70"
   d="M 21.9,4 C 21.2,3.3 18.5,3.2 16.5,5 C 14.7,6.7 14.2,8.8 15.7,10.2 C 13.1,6.8 18.7,2.5 21.8,3.9 L 21.9,4 z "
   style="fill:#545454;stroke:none" />
		<path
   id="path72"
   d="M 16.2,10.7 C 16.9,11.4 19.6,11.5 21.6,9.7 C 23.4,8 23.9,5.9 22.4,4.5 C 25,7.9 19.4,12.2 16.3,10.8 L 16.2,10.7 z "
   style="stroke:none" />
		<path
   id="path74"
   d="M 25.1,4.3 C 28.6,7.8 28.7,15.7 23.3,21.7 C 17.9,27.8 9.8,29.1 5,25.8 C 18.5,32.2 32.4,14.1 25.1,4.2 L 25.1,4.3 z "
   style="fill:#3b3b3b;stroke:none" />
	</g></g></svg>