<?xml version="1.0" encoding="UTF-8" standalone="no"?>
<!-- Created with Inkscape (http://www.inkscape.org/) -->
<svg
   xmlns:dc="http://purl.org/dc/elements/1.1/"
   xmlns:cc="http://web.resource.org/cc/"
   xmlns:rdf="http://www.w3.org/1999/02/22-rdf-syntax-ns#"
   xmlns:svg="http://www.w3.org/2000/svg"
   xmlns="http://www.w3.org/2000/svg"
   xmlns:xlink="http://www.w3.org/1999/xlink"
   xmlns:sodipodi="http://inkscape.sourceforge.net/DTD/sodipodi-0.dtd"
   xmlns:inkscape="http://www.inkscape.org/namespaces/inkscape"
   width="48"
   height="48"
   id="svg2"
   sodipodi:version="0.32"
   inkscape:version="0.43"
   version="1.0"
   sodipodi:docbase="/home/ulisse/Desktop/actions/scalable"
   sodipodi:docname="dialog-ok_an.svg"
   inkscape:export-filename="/home/ulisse/Desktop/actions/dialog-ok_an.png"
   inkscape:export-xdpi="90"
   inkscape:export-ydpi="90">
  <defs
     id="defs4">
    <linearGradient
       id="linearGradient8662"
       inkscape:collect="always">
      <stop
         id="stop8664"
         offset="0"
         style="stop-color:#000000;stop-opacity:1;" />
      <stop
         id="stop8666"
         offset="1"
         style="stop-color:#000000;stop-opacity:0;" />
    </linearGradient>
    <radialGradient
       inkscape:collect="always"
       xlink:href="#linearGradient8662"
       id="radialGradient1444"
       gradientUnits="userSpaceOnUse"
       gradientTransform="matrix(1,0,0,0.536723,-1.618813e-15,16.87306)"
       cx="24.837126"
       cy="36.421127"
       fx="24.837126"
       fy="36.421127"
       r="15.644737" />
    <linearGradient
       inkscape:collect="always"
       id="linearGradient2192">
      <stop
         style="stop-color:#ffffff;stop-opacity:1;"
         offset="0"
         id="stop2194" />
      <stop
         style="stop-color:#ffffff;stop-opacity:0.49805447"
         offset="1"
         id="stop2196" />
    </linearGradient>
    <linearGradient
       inkscape:collect="always"
       xlink:href="#linearGradient2192"
       id="linearGradient2218"
       x1="33.451149"
       y1="34.823627"
       x2="20.683052"
       y2="15.37819"
       gradientUnits="userSpaceOnUse" />
    <linearGradient
       inkscape:collect="always"
       xlink:href="#linearGradient2192"
       id="linearGradient2197"
       x1="26.281414"
       y1="26.693396"
       x2="29.842636"
       y2="13.687682"
       gradientUnits="userSpaceOnUse" />
  </defs>
  <sodipodi:namedview
     id="base"
     pagecolor="#ffffff"
     bordercolor="#a8a8a8"
     borderopacity="1"
     inkscape:pageopacity="0.0"
     inkscape:pageshadow="2"
     inkscape:zoom="11.2"
     inkscape:cx="19.987546"
     inkscape:cy="22.90445"
     inkscape:document-units="px"
     inkscape:current-layer="layer1"
     inkscape:showpageshadow="false"
     inkscape:grid-bbox="true"
     showgrid="true"
     inkscape:grid-points="false"
     gridspacingx="0.5px"
     gridspacingy="0.5px"
     gridempspacing="2"
     inkscape:window-width="944"
     inkscape:window-height="756"
     inkscape:window-x="139"
     inkscape:window-y="85"
     fill="#729fcf" />
  <metadata
     id="metadata7">
    <rdf:RDF>
      <cc:Work
         rdf:about="">
        <dc:format>image/svg+xml</dc:format>
        <dc:type
           rdf:resource="http://purl.org/dc/dcmitype/StillImage" />
        <dc:creator>
          <cc:Agent>
            <dc:title>Ulisse Perusin</dc:title>
          </cc:Agent>
        </dc:creator>
        <dc:title>OK</dc:title>
        <dc:subject>
          <rdf:Bag>
            <rdf:li>dialog</rdf:li>
            <rdf:li>ok</rdf:li>
          </rdf:Bag>
        </dc:subject>
        <cc:license
           rdf:resource="http://creativecommons.org/licenses/by-nc-sa/2.0/" />
      </cc:Work>
      <cc:License
         rdf:about="http://creativecommons.org/licenses/by-nc-sa/2.0/">
        <cc:permits
           rdf:resource="http://web.resource.org/cc/Reproduction" />
        <cc:permits
           rdf:resource="http://web.resource.org/cc/Distribution" />
        <cc:requires
           rdf:resource="http://web.resource.org/cc/Notice" />
        <cc:requires
           rdf:resource="http://web.resource.org/cc/Attribution" />
        <cc:prohibits
           rdf:resource="http://web.resource.org/cc/CommercialUse" />
        <cc:permits
           rdf:resource="http://web.resource.org/cc/DerivativeWorks" />
        <cc:requires
           rdf:resource="http://web.resource.org/cc/ShareAlike" />
      </cc:License>
    </rdf:RDF>
  </metadata>
  <g
     inkscape:label="Livello 1"
     inkscape:groupmode="layer"
     id="layer1">
    <path
       transform="matrix(1.246426,0,0,0.595458,-4.457629,20.31274)"
       d="M 40.481863 36.421127 A 15.644737 8.3968935 0 1 1  9.1923885,36.421127 A 15.644737 8.3968935 0 1 1  40.481863 36.421127 z"
       sodipodi:ry="8.3968935"
       sodipodi:rx="15.644737"
       sodipodi:cy="36.421127"
       sodipodi:cx="24.837126"
       id="path8660"
       style="opacity:0.20454544;color:#000000;fill:url(#radialGradient1444);fill-opacity:1;fill-rule:evenodd;stroke:none;stroke-width:1;stroke-linecap:butt;stroke-linejoin:miter;marker:none;marker-start:none;marker-mid:none;marker-end:none;stroke-miterlimit:10;stroke-dasharray:none;stroke-dashoffset:0;stroke-opacity:1;visibility:visible;display:inline;overflow:visible"
       sodipodi:type="arc" />
    <path
       style="fill:#729fcf;fill-opacity:1;fill-rule:evenodd;stroke:#3465a4;stroke-width:1;stroke-linecap:round;stroke-linejoin:round;stroke-miterlimit:4;stroke-dasharray:none;stroke-opacity:1"
       d="M 3.5,27.5 L 19.5,38 L 19.5,32.581803 L 41,32.5 C 43.47279,32.499754 45.499753,30.462227 45.5,28 L 45.5,11 C 45.5,10 45,9.5 44,9.5 L 38,9.5 C 37,9.5 36.5,10 36.5,10.958443 L 36.5,23.5 L 19.455259,23.5 L 19.5,18 L 3.5,27.5 z "
       id="path2177"
       sodipodi:nodetypes="ccccccccccccc" />
    <path
       sodipodi:type="inkscape:offset"
       inkscape:radius="-1.0288239"
       inkscape:original="M 38 9.5 C 37 9.5 36.5 10.010307 36.5 10.96875 L 36.5 23.5 L 19.46875 23.5 L 19.5 18 L 3.5 27.5 L 19.5 38 L 19.5 32.59375 L 41 32.5 C 43.47279 32.499754 45.499753 30.462227 45.5 28 L 45.5 11 C 45.5 10 45 9.5 44 9.5 L 38 9.5 z "
       xlink:href="#path2177"
       style="fill:none;fill-opacity:1;fill-rule:evenodd;stroke:url(#linearGradient2218);stroke-width:1;stroke-linecap:round;stroke-linejoin:miter;stroke-miterlimit:4;stroke-dasharray:none;stroke-opacity:1;opacity:0.4"
       id="path2208"
       inkscape:href="#path2177"
       d="M 41,11.53125 C 39.048706,11.53125 37.53125,13.048706 37.53125,15 L 37.53125,21.46875 C 37.531869,21.742444 37.423418,22.005106 37.229887,22.198637 C 37.036356,22.392168 36.773694,22.500619 36.5,22.5 L 19.5,22.53125 C 19.226306,22.531869 18.963644,22.423418 18.770113,22.229887 C 18.576582,22.036356 18.468131,21.773694 18.46875,21.5 L 18.46875,19 C 18.468917,18.349491 18.214697,17.793445 17.71875,17.3125 C 17.241079,16.849276 16.6428,16.607085 15.96875,16.625 C 15.494953,16.641889 15.067341,16.774582 14.71875,17 L 3.65625,23.96875 C 2.9539322,24.421923 2.53125,25.17626 2.53125,26 C 2.5312499,26.823738 2.9539336,27.578078 3.65625,28.03125 L 14.5625,35.125 C 15.323215,35.605385 16.249286,35.644277 17.03125,35.21875 C 17.810278,34.794821 18.464487,33.802843 18.46875,33 L 18.46875,30.5 C 18.468131,30.226306 18.576582,29.963644 18.770113,29.770113 C 18.963644,29.576582 19.226306,29.468131 19.5,29.46875 L 41,29.46875 C 42.907693,29.46856 44.46856,27.897649 44.46875,26 L 44.46875,15.03125 C 44.46875,13.029427 42.954122,11.53125 41,11.53125 z " />
    <path
       style="fill:url(#linearGradient2197);fill-opacity:1.0;fill-rule:evenodd;stroke:none;stroke-width:1;stroke-linecap:round;stroke-linejoin:miter;stroke-miterlimit:4;stroke-dasharray:none;stroke-opacity:1;opacity:0.3"
       d="M 4.5,27.5 C 16.517857,32.767857 24.160714,21.553571 45.5,28 L 45,11 C 45,10.299107 44.723214,10 44,10 L 38,10 C 37.276786,10.011161 36.977679,10.299107 37,11 L 37,24 L 19,24 L 19,19 L 4.5,27.5 z "
       id="path2187"
       sodipodi:nodetypes="cccccccccc" />
  </g>
</svg>
