<?xml version="1.0" encoding="UTF-8" standalone="no"?>
<!-- Created with Inkscape (http://www.inkscape.org/) -->
<svg
   xmlns:dc="http://purl.org/dc/elements/1.1/"
   xmlns:cc="http://web.resource.org/cc/"
   xmlns:rdf="http://www.w3.org/1999/02/22-rdf-syntax-ns#"
   xmlns:svg="http://www.w3.org/2000/svg"
   xmlns="http://www.w3.org/2000/svg"
   xmlns:xlink="http://www.w3.org/1999/xlink"
   xmlns:sodipodi="http://sodipodi.sourceforge.net/DTD/sodipodi-0.dtd"
   xmlns:inkscape="http://www.inkscape.org/namespaces/inkscape"
   width="128"
   height="128"
   id="svg1325"
   sodipodi:version="0.32"
   inkscape:version="0.44"
   version="1.0"
   sodipodi:docbase="/home/dev/crabgrass/trunk/public/images/smallsvgs"
   sodipodi:docname="bullhorn2.svg">
  <defs
     id="defs1327">
    <linearGradient
       id="linearGradient2935">
      <stop
         id="stop2937"
         offset="0"
         style="stop-color:black;stop-opacity:1;" />
      <stop
         id="stop2939"
         offset="1"
         style="stop-color:white;stop-opacity:1;" />
    </linearGradient>
    <linearGradient
       id="linearGradient2853">
      <stop
         style="stop-color:#888a85;stop-opacity:1;"
         offset="0"
         id="stop2855" />
      <stop
         style="stop-color:white;stop-opacity:1;"
         offset="1"
         id="stop2857" />
    </linearGradient>
    <linearGradient
       inkscape:collect="always"
       xlink:href="#linearGradient2853"
       id="linearGradient2788"
       gradientUnits="userSpaceOnUse"
       x1="67.714287"
       y1="80.85714"
       x2="47.64286"
       y2="46.928574" />
    <linearGradient
       inkscape:collect="always"
       xlink:href="#linearGradient2935"
       id="linearGradient2790"
       gradientUnits="userSpaceOnUse"
       gradientTransform="matrix(1.036095,4.798327e-6,-4.228654e-5,1.036366,0.94286,-0.815871)"
       x1="107.44796"
       y1="38.563469"
       x2="56.196178"
       y2="59.771328" />
    <linearGradient
       inkscape:collect="always"
       xlink:href="#linearGradient2853"
       id="linearGradient2808"
       gradientUnits="userSpaceOnUse"
       x1="67.714287"
       y1="80.85714"
       x2="47.64286"
       y2="46.928574" />
    <linearGradient
       inkscape:collect="always"
       xlink:href="#linearGradient2935"
       id="linearGradient2810"
       gradientUnits="userSpaceOnUse"
       gradientTransform="matrix(1.036095,4.798327e-6,-4.228654e-5,1.036366,0.94286,-0.815871)"
       x1="107.44796"
       y1="38.563469"
       x2="56.196178"
       y2="59.771328" />
  </defs>
  <sodipodi:namedview
     id="base"
     pagecolor="#ffffff"
     bordercolor="#666666"
     borderopacity="1.0"
     inkscape:pageopacity="0.0"
     inkscape:pageshadow="2"
     inkscape:zoom="2.8"
     inkscape:cx="99.053689"
     inkscape:cy="62.468659"
     inkscape:document-units="px"
     inkscape:current-layer="layer1"
     inkscape:window-width="898"
     inkscape:window-height="593"
     inkscape:window-x="0"
     inkscape:window-y="24" />
  <metadata
     id="metadata1330">
    <rdf:RDF>
      <cc:Work
         rdf:about="">
        <dc:format>image/svg+xml</dc:format>
        <dc:type
           rdf:resource="http://purl.org/dc/dcmitype/StillImage" />
      </cc:Work>
    </rdf:RDF>
  </metadata>
  <g
     inkscape:label="Layer 1"
     inkscape:groupmode="layer"
     id="layer1">
    <g
       id="g2775"
       transform="matrix(1.341157,0,0,1.341157,-0.402137,-22.5511)">
      <path
         sodipodi:nodetypes="cssssssssssssssssssc"
         id="path2913"
         d="M 45.585127,105.86225 C 45.423318,105.26841 45.261316,103.45564 45.225122,101.83386 C 45.188938,100.21209 44.697169,98.328487 44.13229,97.64808 C 43.567419,96.967639 43.072871,95.671503 43.033299,94.767767 C 42.993728,93.864022 42.460235,92.623619 41.847763,92.011296 C 40.154127,90.318099 37.931294,81.437917 38.846624,80.021785 C 40.987023,76.710336 70.123477,81.365115 77.154858,86.141829 C 83.231541,90.26996 86.290397,87.363822 88.064642,75.776688 C 91.071631,56.138907 79.752541,21.643249 70.30179,21.643249 C 67.868977,21.643249 65.233991,24.4294 64.265239,28.026105 C 63.336513,31.474253 57.465188,36.895703 47.153475,43.826712 C 39.466344,48.993619 35.637549,50.206302 25.926071,54.713473 L 10.995851,61.642702 C 5.8369825,64.036972 4.3773376,66.324179 3.9432565,70.174376 C 3.1265894,77.417924 6.5731851,80.141115 17.672719,81.022176 C 23.279204,81.467202 24.305624,81.771583 26.400419,83.610356 C 28.758356,85.680129 29.167748,86.68658 32.837165,99.434651 C 33.929563,103.22979 35.90796,105.89156 38.31927,106.81037 C 38.913268,107.0367 40.857296,107.15892 42.639311,107.08194 C 45.129407,106.97438 45.811245,106.69207 45.585127,105.86225 z "
         style="fill:white;fill-opacity:1;stroke:#2e3436;stroke-width:5.29999971;stroke-miterlimit:4;stroke-dasharray:none;stroke-opacity:1" />
      <path
         id="path2843"
         d="M 29.042838,60.124668 L 63.857593,33.934235 L 64.202292,49.097117 L 65.581095,60.81389 L 71.785704,78.389048 L 77.300913,84.247434 L 50.758972,79.07827 L 35.247448,78.044437 L 29.042838,60.124668 z "
         style="fill:url(#linearGradient2788);fill-opacity:1;fill-rule:evenodd;stroke:none;stroke-width:1px;stroke-linecap:butt;stroke-linejoin:miter;stroke-opacity:1" />
      <path
         style="fill:#888a85;fill-opacity:1"
         d="M 45.983772,105.8909 C 45.821962,105.29706 45.65996,103.48429 45.623767,101.86252 C 45.587583,100.24074 45.095814,98.357141 44.530933,97.676734 C 43.966063,96.996295 43.471514,95.700159 43.431943,94.796427 C 43.392371,93.892688 42.858878,92.652279 42.246406,92.039957 C 40.552769,90.34676 38.329935,81.466583 39.245265,80.050452 C 41.385665,76.739006 70.522134,81.393782 77.553519,86.170493 C 83.630201,90.298626 86.689058,87.392482 88.463305,75.805356 C 91.470295,56.167577 80.151203,21.671936 70.700448,21.671936 C 68.267633,21.671936 65.632645,24.458086 64.663893,28.05479 C 63.735167,31.502937 57.863838,36.924385 47.552121,43.855392 C 39.864986,49.022295 36.299158,50.85107 26.324706,54.742145 C 17.830551,58.055736 15.55166,59.982586 14.20249,64.991714 C 13.379246,68.048228 13.858323,74.262789 15.098903,76.619876 C 15.481397,77.346606 15.610342,78.125156 15.38546,78.349992 C 15.160577,78.574821 14.448799,77.495962 13.803743,75.95253 C 12.473847,72.770486 12.694975,63.236216 14.131985,61.799584 C 16.01516,59.916904 14.729526,59.85669 11.394478,61.671377 C 6.3988221,64.389649 4.775961,66.35285 4.3418796,70.203046 C 3.5252082,77.44659 6.9718096,80.169785 18.07135,81.050838 C 23.677838,81.495865 24.704258,81.800249 26.799054,83.639023 C 29.156992,85.708794 29.566384,86.715246 33.235803,99.463305 C 34.328202,103.25844 36.306599,105.92021 38.717911,106.83902 C 39.31191,107.06535 41.255938,107.18757 43.037954,107.11059 C 45.528051,107.00303 46.20989,106.72073 45.983772,105.8909 z M 69.703619,80.213427 C 65.242112,78.270913 55.058751,76.40981 48.798009,76.39273 C 41.689788,76.373338 38.532049,75.154387 36.079497,71.48316 C 34.375292,68.93211 33.229443,62.42639 33.966932,59.488747 C 34.788613,56.215775 38.780221,52.665873 47.438077,47.508297 C 52.141917,44.706177 57.578846,40.985862 59.520123,39.240932 C 61.46141,37.496009 63.164129,36.067598 63.303942,36.066684 C 63.443765,36.065777 63.454913,38.952061 63.328718,42.480651 C 62.944256,53.230889 66.041835,67.09027 71.105941,77.278043 C 72.237506,79.554476 72.946186,81.390585 72.680785,81.358294 C 72.415385,81.325995 71.075664,80.810806 69.703619,80.213427 z M 10.697873,76.738178 C 9.4054923,73.589663 8.9616251,68.372983 9.8097795,66.300785 C 10.455115,64.724127 10.551998,64.955996 10.591985,68.172879 C 10.617089,70.192277 10.988213,72.849947 11.416696,74.078802 C 11.845199,75.307664 12.058191,76.894616 11.890021,77.605368 C 11.649705,78.621084 11.394584,78.435507 10.697873,76.738178 z M 7.4070491,75.432179 C 6.1719899,72.477051 5.955176,67.329488 7.0375853,66.660696 C 7.480884,66.386797 7.7575958,67.597362 7.7575958,69.810542 C 7.7575958,71.787643 8.0906634,74.281079 8.4977492,75.35151 C 9.6290912,78.326412 8.6470018,78.399048 7.4070491,75.432179 z M 71.345263,73.349754 C 69.215363,68.676357 64.906381,46.145821 66.142492,46.145821 C 67.30972,46.145821 70.886541,51.327282 72.219091,54.948539 C 73.751593,59.113174 74.119185,70.286394 72.825386,73.377813 L 72.122961,75.056182 L 71.345263,73.349754 z "
         id="path2861"
         sodipodi:nodetypes="csssssssssssssssssssssssccsssssssssccssssccsssccssccc" />
      <path
         transform="matrix(0.965008,1.719372e-2,0.151094,0.967756,-15.25948,-0.925589)"
         d="M 98.214283 56.035713 A 12.142857 34.464287 0 1 1  73.92857,56.035713 A 12.142857 34.464287 0 1 1  98.214283 56.035713 z"
         sodipodi:ry="34.464287"
         sodipodi:rx="12.142857"
         sodipodi:cy="56.035713"
         sodipodi:cx="86.071426"
         id="path2925"
         style="opacity:1;color:black;fill:url(#linearGradient2790);fill-opacity:1;fill-rule:nonzero;stroke:#2e3436;stroke-width:3.10869217;stroke-linecap:square;stroke-linejoin:miter;marker:none;marker-start:none;marker-mid:none;marker-end:none;stroke-miterlimit:4;stroke-dasharray:none;stroke-dashoffset:0;stroke-opacity:1;visibility:visible;display:inline;overflow:visible"
         sodipodi:type="arc" />
      <path
         sodipodi:type="arc"
         style="opacity:1;color:black;fill:none;fill-opacity:1;fill-rule:nonzero;stroke:white;stroke-width:3.80430984;stroke-linecap:square;stroke-linejoin:miter;marker:none;marker-start:none;marker-mid:none;marker-end:none;stroke-miterlimit:4;stroke-dasharray:none;stroke-dashoffset:0;stroke-opacity:0.57377046;visibility:visible;display:inline;overflow:visible"
         id="path2941"
         sodipodi:cx="86.071426"
         sodipodi:cy="56.035713"
         sodipodi:rx="12.142857"
         sodipodi:ry="34.464287"
         d="M 98.214283 56.035713 A 12.142857 34.464287 0 1 1  73.92857,56.035713 A 12.142857 34.464287 0 1 1  98.214283 56.035713 z"
         transform="matrix(0.733116,1.511843e-2,0.131335,0.850947,5.893145,5.798541)" />
      <path
         id="path2974"
         d="M 32.838834,80.099206 C 29.798944,80.099206 26.917234,81.17404 24.393676,83.0844 C 25.27673,83.438349 25.95409,83.934236 26.806578,84.682534 C 29.164515,86.752305 29.561514,87.734893 33.230931,100.48296 C 34.32332,104.27811 36.308974,106.95174 38.720284,107.87056 C 39.314293,108.09688 41.251332,108.21892 43.033348,108.14194 C 45.523444,108.03438 46.215271,107.76562 45.989153,106.9358 C 45.827344,106.34196 45.663411,104.51701 45.627218,102.89524 C 45.591034,101.27346 45.106291,99.384311 44.541412,98.703904 C 43.976541,98.023468 43.465016,96.743051 43.425444,95.839315 C 43.385873,94.93557 42.861626,93.677519 42.249154,93.065196 C 40.716865,91.533303 38.764855,84.144741 39.08222,81.69734 C 39.078398,81.695314 39.086042,81.669204 39.08222,81.667187 C 38.81016,81.561307 38.538786,81.43914 38.267865,81.305345 C 36.551539,80.529663 34.729681,80.099206 32.838834,80.099206 z "
         style="fill:#555753;fill-opacity:1;stroke:#2e3436;stroke-width:0.99999988" />
      <path
         sodipodi:nodetypes="cssssssssscscsccsssssccssssc"
         id="path2984"
         d="M 30.240673,53.551215 C 29.039763,54.041659 27.754475,54.529325 26.319705,55.089041 C 17.825552,58.402641 15.544034,60.332086 14.194863,65.341217 C 13.371631,68.397745 13.859122,74.62337 15.099702,76.980454 C 15.482198,77.707196 15.596037,78.474367 15.371154,78.699201 C 15.146273,78.924044 14.447823,77.86051 13.802767,76.317078 C 12.472872,73.135042 12.697531,63.581577 14.134541,62.14495 C 16.017718,60.262274 14.724911,60.209648 11.389863,62.024336 C 6.3942087,64.742615 4.7662013,66.707569 4.3321198,70.557765 C 3.5154503,77.801323 6.9559692,80.531962 18.055509,81.413012 C 21.410525,81.679337 23.12888,81.882104 24.419543,82.408076 C 26.937236,80.50699 29.802553,79.422884 32.834545,79.422884 C 34.725399,79.422884 36.547743,79.85334 38.263578,80.629022 C 34.651945,78.846292 31.196328,74.629565 29.335834,69.140553 C 27.245364,62.973037 27.752004,56.934288 30.240673,53.551215 z M 10.334217,65.703058 C 10.523671,65.668804 10.55052,66.526928 10.575508,68.537483 C 10.600623,70.556897 10.991541,73.218709 11.420024,74.447561 C 11.848519,75.676435 12.040613,77.264765 11.872444,77.975518 C 11.63213,78.991241 11.392864,78.798403 10.696153,77.101068 C 9.4037843,73.952562 8.9431593,68.740163 9.791314,66.667969 C 10.033321,66.07673 10.22055,65.723611 10.334217,65.703058 z M 7.197443,66.969504 C 7.5473835,67.047989 7.7403463,68.229243 7.7403463,70.16577 C 7.7403483,72.142882 8.0872929,74.643575 8.4943786,75.714009 C 9.6257329,78.688915 8.6485245,78.771338 7.4085721,75.804469 C 6.1735148,72.849351 5.9642273,67.6986 7.0466365,67.029811 C 7.1020484,66.995585 7.1474476,66.958291 7.197443,66.969504 z "
         style="fill:#729fcf;fill-opacity:1;stroke:none" />
    </g>
  </g>
</svg>
