<?xml version="1.0" encoding="UTF-8" standalone="no"?>
<!-- Created with Inkscape (http://www.inkscape.org/) -->
<svg
   xmlns:dc="http://purl.org/dc/elements/1.1/"
   xmlns:cc="http://web.resource.org/cc/"
   xmlns:rdf="http://www.w3.org/1999/02/22-rdf-syntax-ns#"
   xmlns:svg="http://www.w3.org/2000/svg"
   xmlns="http://www.w3.org/2000/svg"
   xmlns:sodipodi="http://sodipodi.sourceforge.net/DTD/sodipodi-0.dtd"
   xmlns:inkscape="http://www.inkscape.org/namespaces/inkscape"
   width="119.1984"
   height="90.251244"
   id="svg2947"
   sodipodi:version="0.32"
   inkscape:version="0.44"
   version="1.0"
   sodipodi:docbase="/home/dev/crabgrass/trunk/public/images/smallsvgs"
   sodipodi:docname="bullhorn-bw.svg">
  <defs
     id="defs2949" />
  <sodipodi:namedview
     id="base"
     pagecolor="#ffffff"
     bordercolor="#666666"
     borderopacity="1.0"
     gridtolerance="10000"
     guidetolerance="10"
     objecttolerance="10"
     inkscape:pageopacity="0.0"
     inkscape:pageshadow="2"
     inkscape:zoom="0.35"
     inkscape:cx="375"
     inkscape:cy="520"
     inkscape:document-units="px"
     inkscape:current-layer="layer1"
     inkscape:window-width="898"
     inkscape:window-height="592"
     inkscape:window-x="5"
     inkscape:window-y="48" />
  <metadata
     id="metadata2952">
    <rdf:RDF>
      <cc:Work
         rdf:about="">
        <dc:format>image/svg+xml</dc:format>
        <dc:type
           rdf:resource="http://purl.org/dc/dcmitype/StillImage" />
      </cc:Work>
    </rdf:RDF>
  </metadata>
  <g
     inkscape:label="Layer 1"
     inkscape:groupmode="layer"
     id="layer1"
     transform="translate(-208.9722,-232.9508)">
    <path
       style="fill:black;fill-opacity:1"
       d="M 252.23587,321.91416 C 252.06821,321.29872 251.90036,319.42003 251.86287,317.73928 C 251.82538,316.05853 251.31585,314.10643 250.73059,313.40128 C 250.14533,312.6961 249.63293,311.35283 249.59193,310.41623 C 249.55093,309.47963 248.99818,308.19411 248.36359,307.55952 C 246.60882,305.80475 244.30575,296.60164 245.25412,295.13401 C 247.47179,291.70214 277.65997,296.52619 284.94515,301.47661 C 291.24119,305.75487 294.41046,302.74304 296.24874,290.73454 C 299.36427,270.38263 287.63661,234.63254 277.84472,234.63254 C 275.32409,234.63254 272.59398,237.52001 271.59027,241.24751 C 270.62801,244.82105 264.54475,250.43965 253.86083,257.6227 C 245.89622,262.9775 242.20168,264.87278 231.86718,268.90536 C 223.06643,272.33945 220.70527,274.33637 219.30741,279.52766 C 218.45445,282.69532 218.95082,289.13588 220.23618,291.57868 C 220.63247,292.33184 220.76608,293.1387 220.53308,293.37171 C 220.30007,293.60472 219.5626,292.48663 218.89426,290.88707 C 217.51637,287.58931 217.74548,277.70832 219.23436,276.21944 C 221.1855,274.2683 219.85347,274.2059 216.39803,276.08657 C 211.22205,278.9037 209.54062,280.93829 209.09087,284.9285 C 208.24472,292.43546 211.81573,295.25768 223.31591,296.17078 C 229.12477,296.63199 230.18824,296.94744 232.35865,298.85308 C 234.80171,300.99812 235.22588,302.04117 239.02775,315.25282 C 240.15958,319.18597 242.20939,321.94453 244.70773,322.89676 C 245.32318,323.13132 247.33737,323.25798 249.18371,323.1782 C 251.7637,323.06673 252.47014,322.77416 252.23587,321.91416 z M 276.8119,295.30291 C 272.18936,293.28976 261.63841,291.36098 255.15169,291.34327 C 247.78689,291.32318 244.51516,290.0599 241.97409,286.25517 C 240.20837,283.61135 239.02116,276.86904 239.78527,273.82457 C 240.63661,270.43258 244.77229,266.75358 253.74267,261.40845 C 258.6163,258.50443 264.24947,254.64882 266.26083,252.84044 C 268.27219,251.03206 270.03637,249.5517 270.18123,249.55076 C 270.3261,249.54982 270.33764,252.54106 270.20689,256.19797 C 269.80856,267.33915 273.01794,281.70253 278.26484,292.26078 C 279.43725,294.62 280.17151,296.52288 279.89654,296.48941 C 279.62156,296.45594 278.23347,295.92202 276.8119,295.30291 z M 215.67629,291.70129 C 214.33726,288.43827 213.87737,283.03189 214.75614,280.88433 C 215.42477,279.25034 215.52515,279.49064 215.56657,282.82451 C 215.59259,284.91734 215.9771,287.67166 216.42106,288.9452 C 216.86503,290.21875 217.08571,291.86341 216.91147,292.60001 C 216.66248,293.65266 216.39814,293.46034 215.67629,291.70129 z M 212.26667,290.34779 C 210.98704,287.2852 210.7624,281.95044 211.88388,281.25733 C 212.34317,280.97347 212.62988,282.22806 212.62988,284.52172 C 212.62988,286.57072 212.97497,289.15483 213.39675,290.26419 C 214.56893,293.34728 213.55139,293.42255 212.26667,290.34779 z M 278.5128,288.18964 C 276.30603,283.34629 271.84151,259.99643 273.12223,259.99643 C 274.3316,259.99643 278.03752,265.36631 279.41818,269.11926 C 281.006,273.43534 281.38685,285.01488 280.04636,288.21872 L 279.31858,289.95812 L 278.5128,288.18964 z M 322.67145,293.12802 C 327.27063,283.43616 328.4694,277.54377 328.11145,266.38831 C 327.81309,257.09023 327.67598,256.3774 325.14639,250.97234 C 321.25427,242.65591 315.37624,236.75038 307.86823,233.61334 C 305.05316,232.43712 305.05983,232.45022 309.50584,236.82773 C 316.67243,243.88392 320.62134,253.43112 322.43133,268.07744 C 323.49013,276.64533 322.33897,288.32816 319.72682,295.52456 C 317.42178,301.87484 319.2122,300.41768 322.67145,293.12802 z M 313.00993,289.62355 C 321.66446,271.39955 317.75111,252.25052 303.63937,243.771 C 298.06652,240.42237 297.60487,240.73411 301.98229,244.88999 C 309.02125,251.57272 312.59946,262.06143 312.58458,275.96819 C 312.57678,283.26313 311.98784,287.30143 310.04532,293.37978 C 308.92773,296.87684 310.52863,294.84847 313.00993,289.62355 z M 304.23774,287.03881 C 306.92617,281.40872 306.99846,281.03268 306.99846,272.67837 C 306.99846,265.14428 306.78627,263.69054 305.25623,260.74242 C 303.24176,256.86089 298.94175,252.13746 296.03205,250.60998 C 292.81131,248.91921 292.70663,249.35925 295.61812,252.34996 C 302.78556,259.71238 305.88117,276.53925 302.22771,288.27784 C 301.45013,290.77618 300.96313,292.82028 301.14548,292.82028 C 301.32783,292.82028 302.71935,290.21862 304.23774,287.03881 z "
       id="path1953"
       sodipodi:nodetypes="csssssssssssssssssssssssccsssssssssccssssccsssccssccccssssssccssssccssssssc" />
  </g>
</svg>
