<?xml version="1.0" encoding="UTF-8" standalone="no"?>
<!-- Created with Inkscape (http://www.inkscape.org/) -->
<svg
   xmlns:dc="http://purl.org/dc/elements/1.1/"
   xmlns:cc="http://web.resource.org/cc/"
   xmlns:rdf="http://www.w3.org/1999/02/22-rdf-syntax-ns#"
   xmlns:svg="http://www.w3.org/2000/svg"
   xmlns="http://www.w3.org/2000/svg"
   xmlns:xlink="http://www.w3.org/1999/xlink"
   xmlns:sodipodi="http://sodipodi.sourceforge.net/DTD/sodipodi-0.dtd"
   xmlns:inkscape="http://www.inkscape.org/namespaces/inkscape"
   width="128"
   height="128"
   id="svg1325"
   sodipodi:version="0.32"
   inkscape:version="0.44"
   version="1.0"
   sodipodi:docbase="/home/dev/crabgrass/trunk/public/images/smallsvgs"
   sodipodi:docname="bullhorn.svg">
  <defs
     id="defs1327">
    <linearGradient
       id="linearGradient2935">
      <stop
         id="stop2937"
         offset="0"
         style="stop-color:black;stop-opacity:1;" />
      <stop
         id="stop2939"
         offset="1"
         style="stop-color:white;stop-opacity:1;" />
    </linearGradient>
    <linearGradient
       id="linearGradient2853">
      <stop
         style="stop-color:#888a85;stop-opacity:1;"
         offset="0"
         id="stop2855" />
      <stop
         style="stop-color:white;stop-opacity:1;"
         offset="1"
         id="stop2857" />
    </linearGradient>
    <linearGradient
       inkscape:collect="always"
       xlink:href="#linearGradient2853"
       id="linearGradient2788"
       gradientUnits="userSpaceOnUse"
       x1="67.714287"
       y1="80.85714"
       x2="47.64286"
       y2="46.928574" />
    <linearGradient
       inkscape:collect="always"
       xlink:href="#linearGradient2935"
       id="linearGradient2790"
       gradientUnits="userSpaceOnUse"
       gradientTransform="matrix(1.036095,4.798327e-6,-4.228654e-5,1.036366,0.94286,-0.815871)"
       x1="107.44796"
       y1="38.563469"
       x2="56.196178"
       y2="59.771328" />
    <linearGradient
       inkscape:collect="always"
       xlink:href="#linearGradient2853"
       id="linearGradient2808"
       gradientUnits="userSpaceOnUse"
       x1="67.714287"
       y1="80.85714"
       x2="47.64286"
       y2="46.928574" />
    <linearGradient
       inkscape:collect="always"
       xlink:href="#linearGradient2935"
       id="linearGradient2810"
       gradientUnits="userSpaceOnUse"
       gradientTransform="matrix(1.036095,4.798327e-6,-4.228654e-5,1.036366,0.94286,-0.815871)"
       x1="107.44796"
       y1="38.563469"
       x2="56.196178"
       y2="59.771328" />
  </defs>
  <sodipodi:namedview
     id="base"
     pagecolor="#ffffff"
     bordercolor="#666666"
     borderopacity="1.0"
     inkscape:pageopacity="0.0"
     inkscape:pageshadow="2"
     inkscape:zoom="2.8"
     inkscape:cx="99.053689"
     inkscape:cy="62.64723"
     inkscape:document-units="px"
     inkscape:current-layer="layer1"
     inkscape:window-width="898"
     inkscape:window-height="593"
     inkscape:window-x="97"
     inkscape:window-y="42" />
  <metadata
     id="metadata1330">
    <rdf:RDF>
      <cc:Work
         rdf:about="">
        <dc:format>image/svg+xml</dc:format>
        <dc:type
           rdf:resource="http://purl.org/dc/dcmitype/StillImage" />
      </cc:Work>
    </rdf:RDF>
  </metadata>
  <g
     inkscape:label="Layer 1"
     inkscape:groupmode="layer"
     id="layer1">
    <g
       id="g2775"
       transform="matrix(1.341157,0,0,1.341157,1.383577,-23.97967)">
      <path
         id="path2843"
         d="M 23.450652,59.592079 L 63.857593,33.934235 L 64.202292,49.097117 L 65.581095,60.81389 L 71.785704,78.389048 L 77.300913,84.247434 L 48.096026,81.208627 C 42.925518,80.864016 38.079661,79.012863 32.584502,80.174794 L 23.450652,59.592079 z "
         style="fill:url(#linearGradient2788);fill-opacity:1;fill-rule:evenodd;stroke:none;stroke-width:1px;stroke-linecap:butt;stroke-linejoin:miter;stroke-opacity:1"
         sodipodi:nodetypes="ccccccccc" />
      <path
         sodipodi:nodetypes="cssssssssscscsccsssssccssssc"
         id="path2984"
         d="M 37.696921,50.888269 C 36.496011,51.378713 28.287064,54.529325 26.852294,55.089041 C 18.358141,58.402641 16.076623,60.332086 14.727452,65.341217 C 13.90422,68.397745 14.391711,74.62337 15.632291,76.980454 C 16.014787,77.707196 16.128626,78.474367 15.903743,78.699201 C 15.678862,78.924044 14.980412,77.86051 14.335356,76.317078 C 13.005461,73.135042 13.23012,63.581577 14.66713,62.14495 C 16.550307,60.262274 15.2575,60.209648 11.922452,62.024336 C 6.9267979,64.742615 5.2987905,66.707569 4.864709,70.557765 C 4.0480395,77.801323 7.4885584,80.531962 18.588098,81.413012 C 21.943114,81.679337 23.661469,81.882104 24.952132,82.408076 C 27.469825,80.50699 31.302686,79.757207 34.166018,80.754357 C 39.518701,82.618419 44.270286,78.521867 45.986121,79.297549 C 42.374488,77.514819 38.652576,71.966619 36.792082,66.477607 C 34.701612,60.310091 35.208252,54.271342 37.696921,50.888269 z M 13.529752,64.904174 C 13.719206,64.86992 11.083109,66.526928 11.108097,68.537483 C 11.133212,70.556897 11.52413,73.218709 11.952613,74.447561 C 12.381108,75.676435 12.573202,77.264765 12.405033,77.975518 C 12.164719,78.991241 11.925453,78.798403 11.228742,77.101068 C 9.9363735,73.952562 12.138694,67.941279 12.986849,65.869085 C 13.228856,65.277846 13.416085,64.924727 13.529752,64.904174 z M 7.7300322,66.969504 C 8.0799727,67.047989 8.2729355,68.229243 8.2729355,70.16577 C 8.2729375,72.142882 8.6198821,74.643575 9.0269678,75.714009 C 10.158322,78.688915 9.1811137,78.771338 7.9411613,75.804469 C 6.706104,72.849351 6.4968165,67.6986 7.5792257,67.029811 C 7.6346376,66.995585 7.6800368,66.958291 7.7300322,66.969504 z "
         style="fill:#729fcf;fill-opacity:1;stroke:#abc8e4;stroke-opacity:1" />
      <path
         sodipodi:nodetypes="cssssssssssssssssssc"
         id="path2913"
         d="M 45.585127,105.86225 C 45.423318,105.26841 45.261316,103.45564 45.225122,101.83386 C 45.188938,100.21209 44.697169,98.328487 44.13229,97.64808 C 43.567419,96.967639 43.072871,95.671503 43.033299,94.767767 C 42.993728,93.864022 42.460235,92.623619 41.847763,92.011296 C 40.154127,90.318099 38.730178,83.035685 39.645508,81.619553 C 41.785907,78.308104 70.123477,81.365115 77.154858,86.141829 C 83.231541,90.26996 86.290397,87.363822 88.064642,75.776688 C 91.071631,56.138907 79.752541,21.643249 70.30179,21.643249 C 67.868977,21.643249 65.233991,24.4294 64.265239,28.026105 C 63.336513,31.474253 57.465188,36.895703 47.153475,43.826712 C 39.466344,48.993619 35.637549,50.206302 25.926071,54.713473 L 10.995851,61.642702 C 5.8369825,64.036972 4.3773376,66.324179 3.9432565,70.174376 C 3.1265894,77.417924 6.5731851,80.141115 17.672719,81.022176 C 23.279204,81.467202 24.305624,81.771583 26.400419,83.610356 C 28.758356,85.680129 29.167748,86.68658 32.837165,99.434651 C 33.929563,103.22979 35.90796,105.89156 38.31927,106.81037 C 38.913268,107.0367 40.857296,107.15892 42.639311,107.08194 C 45.129407,106.97438 45.811245,106.69207 45.585127,105.86225 z "
         style="fill:none;fill-opacity:1;stroke:#2e3436;stroke-width:3.51040184;stroke-miterlimit:4;stroke-dasharray:none;stroke-opacity:1" />
      <path
         transform="matrix(0.965008,1.719372e-2,0.151094,0.967756,-15.25948,-0.925589)"
         d="M 98.214283 56.035713 A 12.142857 34.464287 0 1 1  73.92857,56.035713 A 12.142857 34.464287 0 1 1  98.214283 56.035713 z"
         sodipodi:ry="34.464287"
         sodipodi:rx="12.142857"
         sodipodi:cy="56.035713"
         sodipodi:cx="86.071426"
         id="path2925"
         style="opacity:1;color:black;fill:url(#linearGradient2790);fill-opacity:1;fill-rule:nonzero;stroke:#2e3436;stroke-width:3.34012035;stroke-linecap:square;stroke-linejoin:miter;marker:none;marker-start:none;marker-mid:none;marker-end:none;stroke-miterlimit:4;stroke-dasharray:none;stroke-dashoffset:0;stroke-opacity:1;visibility:visible;display:inline;overflow:visible"
         sodipodi:type="arc" />
      <path
         sodipodi:type="arc"
         style="opacity:1;color:black;fill:none;fill-opacity:1;fill-rule:nonzero;stroke:white;stroke-width:3.8038646;stroke-linecap:square;stroke-linejoin:miter;marker:none;marker-start:none;marker-mid:none;marker-end:none;stroke-miterlimit:4;stroke-dasharray:none;stroke-dashoffset:0;stroke-opacity:0.57377044;visibility:visible;display:inline;overflow:visible"
         id="path2941"
         sodipodi:cx="86.071426"
         sodipodi:cy="56.035713"
         sodipodi:rx="12.142857"
         sodipodi:ry="34.464287"
         d="M 98.214283 56.035713 A 12.142857 34.464287 0 1 1  73.92857,56.035713 A 12.142857 34.464287 0 1 1  98.214283 56.035713 z"
         transform="matrix(0.733116,1.511843e-2,0.131335,0.850947,5.893145,5.798541)" />
      <path
         id="path2974"
         d="M 32.838834,80.099206 C 29.798944,80.099206 26.917234,81.17404 24.393676,83.0844 C 25.27673,83.438349 25.95409,83.934236 26.806578,84.682534 C 29.164515,86.752305 29.561514,87.734893 33.230931,100.48296 C 34.32332,104.27811 36.308974,106.95174 38.720284,107.87056 C 39.314293,108.09688 41.251332,108.21892 43.033348,108.14194 C 45.523444,108.03438 46.215271,107.76562 45.989153,106.9358 C 45.827344,106.34196 45.663411,104.51701 45.627218,102.89524 C 45.591034,101.27346 45.106291,99.384311 44.541412,98.703904 C 43.976541,98.023468 43.465016,96.743051 43.425444,95.839315 C 43.385873,94.93557 42.861626,93.677519 42.249154,93.065196 C 40.716865,91.533303 38.764855,84.144741 39.08222,81.69734 C 39.078398,81.695314 39.086042,81.669204 39.08222,81.667187 C 38.81016,81.561307 38.805081,81.43914 38.53416,81.305345 C 36.817834,80.529663 34.729681,80.099206 32.838834,80.099206 z "
         style="fill:#555753;fill-opacity:1;stroke:#2e3436;stroke-width:0.99999988"
         sodipodi:nodetypes="ccssssssssscscc" />
    </g>
  </g>
</svg>
