<?xml version="1.0" encoding="UTF-8" standalone="no"?>
<!-- Created with Inkscape (http://www.inkscape.org/) -->
<svg
   xmlns:dc="http://purl.org/dc/elements/1.1/"
   xmlns:cc="http://web.resource.org/cc/"
   xmlns:rdf="http://www.w3.org/1999/02/22-rdf-syntax-ns#"
   xmlns:svg="http://www.w3.org/2000/svg"
   xmlns="http://www.w3.org/2000/svg"
   xmlns:xlink="http://www.w3.org/1999/xlink"
   xmlns:sodipodi="http://sodipodi.sourceforge.net/DTD/sodipodi-0.dtd"
   xmlns:inkscape="http://www.inkscape.org/namespaces/inkscape"
   width="64px"
   height="64px"
   id="svg2780"
   sodipodi:version="0.32"
   inkscape:version="0.44"
   sodipodi:docbase="/home/dev/crabgrass/trunk/public/images/svg"
   sodipodi:docname="hand-icon.svg"
   inkscape:export-filename="/home/elijah/dev/img/sources/drawing.png"
   inkscape:export-xdpi="22.5"
   inkscape:export-ydpi="22.5">
  <defs
     id="defs2782">
    <linearGradient
       inkscape:collect="always"
       id="linearGradient2896">
      <stop
         style="stop-color:#ce5c00;stop-opacity:1;"
         offset="0"
         id="stop2898" />
      <stop
         style="stop-color:#ce5c00;stop-opacity:0;"
         offset="1"
         id="stop2901" />
    </linearGradient>
    <linearGradient
       id="linearGradient2775">
      <stop
         style="stop-color:#515151;stop-opacity:1;"
         offset="0"
         id="stop2777" />
      <stop
         style="stop-color:#cbcbcb;stop-opacity:1;"
         offset="1"
         id="stop2779" />
    </linearGradient>
    <linearGradient
       id="linearGradient2892">
      <stop
         style="stop-color:white;stop-opacity:1;"
         offset="0"
         id="stop2894" />
      <stop
         style="stop-color:#1dff50;stop-opacity:0;"
         offset="1"
         id="stop2896" />
    </linearGradient>
    <linearGradient
       id="linearGradient2872">
      <stop
         style="stop-color:aqua;stop-opacity:1"
         offset="0"
         id="stop2874" />
      <stop
         id="stop2902"
         offset="0"
         style="stop-color:#00bfff;stop-opacity:0.99607843;" />
      <stop
         id="stop2900"
         offset="1"
         style="stop-color:#0056ae;stop-opacity:0.99215686;" />
    </linearGradient>
    <linearGradient
       id="linearGradient2817">
      <stop
         style="stop-color:#f8ff37;stop-opacity:1;"
         offset="0"
         id="stop2819" />
      <stop
         id="stop2912"
         offset="0"
         style="stop-color:#c0e633;stop-opacity:1;" />
      <stop
         id="stop2910"
         offset="1"
         style="stop-color:#1f9900;stop-opacity:1;" />
    </linearGradient>
    <linearGradient
       id="linearGradient2809">
      <stop
         style="stop-color:#b3ffae;stop-opacity:1;"
         offset="0"
         id="stop2811" />
      <stop
         style="stop-color:white;stop-opacity:1;"
         offset="1"
         id="stop2813" />
    </linearGradient>
    <linearGradient
       inkscape:collect="always"
       xlink:href="#linearGradient2896"
       id="linearGradient2903"
       x1="41.155869"
       y1="44.211773"
       x2="15.695457"
       y2="22.961773"
       gradientUnits="userSpaceOnUse" />
  </defs>
  <sodipodi:namedview
     id="base"
     pagecolor="#ffffff"
     bordercolor="#666666"
     borderopacity="1.0"
     inkscape:pageopacity="0.0"
     inkscape:pageshadow="2"
     inkscape:zoom="4"
     inkscape:cx="52.40387"
     inkscape:cy="29.423928"
     inkscape:current-layer="layer1"
     showgrid="true"
     inkscape:document-units="px"
     inkscape:grid-bbox="true"
     inkscape:window-width="898"
     inkscape:window-height="593"
     inkscape:window-x="33"
     inkscape:window-y="293" />
  <metadata
     id="metadata2785">
    <rdf:RDF>
      <cc:Work
         rdf:about="">
        <dc:format>image/svg+xml</dc:format>
        <dc:type
           rdf:resource="http://purl.org/dc/dcmitype/StillImage" />
      </cc:Work>
    </rdf:RDF>
  </metadata>
  <g
     inkscape:groupmode="layer"
     id="layer2"
     inkscape:label="extra">
    <path
       style="fill:white;fill-opacity:1;stroke:white;stroke-width:2.609;stroke-linejoin:round;stroke-miterlimit:4;stroke-dasharray:none;stroke-opacity:1;display:block"
       d="M 36.168292,61.625 L 24.675772,60.88487 L 23.688282,49.452975 C 23.688282,49.452975 18.156076,38.469492 14.747559,36.783105 C 11.338221,35.094081 7.3603706,31.717786 7.3603706,31.717786 C 7.3603706,31.717786 11.905881,27.778206 15.883732,30.592066 C 19.861567,33.40681 19.861567,33.969244 19.861567,33.969244 C 19.861567,33.969244 24.406255,35.658268 25.544069,27.214903 C 26.681047,18.773291 29.996464,6.4517592 29.996464,6.4517592 C 29.996464,6.4517592 32.268809,3.0745966 33.974299,5.3260384 C 35.678967,7.5774801 30.65645,26.653353 30.65645,26.653353 L 40.583885,5.5225785 C 40.583885,5.5225785 43.425545,2.7087184 43.994045,6.085881 C 44.560895,9.463044 36.908255,27.214019 36.908255,27.214019 L 46.695205,12.56997 C 46.695205,12.56997 50.673045,10.319412 50.673045,13.695691 C 50.673045,17.071985 41.453785,28.903042 41.453785,28.903042 L 53.526155,21.717021 C 53.526155,21.717021 57.503165,20.5913 56.935495,23.967593 C 56.367815,27.343888 45.061595,30.176172 42.022275,37.34377 C 38.983755,44.513136 36.168292,61.625 36.168292,61.625 z "
       id="path2904"
       inkscape:export-xdpi="23.382143"
       inkscape:export-ydpi="23.382143"
       sodipodi:nodetypes="cccscscscsccsccsccscc" />
    <path
       sodipodi:nodetypes="cccscscscsccsccsccscc"
       inkscape:export-ydpi="23.382143"
       inkscape:export-xdpi="23.382143"
       id="path2892"
       d="M 103.66829,61.9455 L 92.175772,61.20537 L 91.188282,49.773475 C 91.188282,49.773475 85.656076,38.789992 82.247559,37.103605 C 78.838221,35.414581 74.860371,32.038286 74.860371,32.038286 C 74.860371,32.038286 79.405881,28.098706 83.383732,30.912566 C 87.361567,33.72731 87.361567,34.289744 87.361567,34.289744 C 87.361567,34.289744 91.906255,35.978768 93.044069,27.535403 C 94.181047,19.093791 97.496464,6.7722591 97.496464,6.7722591 C 97.496464,6.7722591 99.768809,3.3950965 101.4743,5.6465383 C 103.17897,7.89798 98.15645,26.973853 98.15645,26.973853 L 108.08389,5.8430784 C 108.08389,5.8430784 110.92554,3.0292183 111.49404,6.4063809 C 112.0609,9.7835439 104.40825,27.534519 104.40825,27.534519 L 114.19521,12.89047 C 114.19521,12.89047 118.17305,10.639912 118.17305,14.016191 C 118.17305,17.392485 108.95379,29.223542 108.95379,29.223542 L 121.02616,22.037521 C 121.02616,22.037521 125.00316,20.9118 124.4355,24.288093 C 123.86782,27.664388 112.56159,30.496672 109.52228,37.66427 C 106.48376,44.833636 103.66829,61.9455 103.66829,61.9455 z "
       style="fill:white;fill-opacity:1;stroke:white;stroke-width:2.60899997;stroke-linejoin:round;stroke-miterlimit:4;stroke-dasharray:none;stroke-opacity:1;display:block" />
  </g>
  <g
     id="layer1"
     inkscape:label="Layer 1"
     inkscape:groupmode="layer">
    <path
       inkscape:export-ydpi="23.382143"
       inkscape:export-xdpi="23.382143"
       id="path2825"
       d="M 35.918292,62 L 24.800772,61.13487 L 23.688282,49.452975 C 23.688282,49.452975 18.156076,38.469492 14.747559,36.783105 C 11.338221,35.094081 7.3603706,31.717786 7.3603706,31.717786 C 7.3603706,31.717786 11.905881,27.778206 15.883732,30.592066 C 19.861567,33.40681 19.861567,33.969244 19.861567,33.969244 C 19.861567,33.969244 24.406255,35.658268 25.544069,27.214903 C 26.681047,18.773291 29.996464,6.4517592 29.996464,6.4517592 C 29.996464,6.4517592 32.268809,3.0745966 33.974299,5.3260384 C 35.678967,7.5774801 30.65645,26.653353 30.65645,26.653353 L 40.583885,5.5225785 C 40.583885,5.5225785 43.425545,2.7087184 43.994045,6.085881 C 44.560895,9.463044 36.908255,27.214019 36.908255,27.214019 L 46.695205,12.56997 C 46.695205,12.56997 50.673045,10.319412 50.673045,13.695691 C 50.673045,17.071985 41.453785,28.903042 41.453785,28.903042 L 53.526155,21.717021 C 53.526155,21.717021 57.503165,20.5913 56.935495,23.967593 C 56.367815,27.343888 45.061595,30.176172 42.022275,37.34377 C 38.983755,44.513136 35.918292,62 35.918292,62 z "
       style="fill:url(#linearGradient2903);fill-opacity:1.0;stroke:white;stroke-width:2.409;stroke-miterlimit:4;stroke-dasharray:none;stroke-opacity:0.76502734;display:block" />
    <path
       style="fill:#7b3600;fill-opacity:1;stroke:none;stroke-width:4.10900021;stroke-linejoin:round;stroke-miterlimit:4;stroke-opacity:1;display:block"
       d="M 42.656356,2.4375 C 42.149086,2.4313729 41.671386,2.5583457 41.312606,2.6875 C 39.877496,3.2041175 39.062606,4.125 39.062606,4.125 C 38.893326,4.2974848 38.755796,4.4984818 38.656356,4.71875 L 36.125106,10.125 C 36.132686,10.05895 36.149176,9.971597 36.156356,9.90625 C 36.278346,8.7952904 36.344186,7.776995 36.312606,6.875 C 36.281026,5.973005 36.343636,5.1877989 35.562606,4.15625 C 34.854366,3.2212887 33.653845,2.5625 32.562605,2.5625 C 31.471365,2.5625 30.688165,3.0093341 30.093855,3.4375 C 28.905235,4.2938318 28.218855,5.375 28.218855,5.375 C 28.090775,5.5661183 27.995705,5.77739 27.937605,6 C 27.937605,6 24.609811,18.296873 23.437605,27 C 22.919472,30.844915 21.831616,31.742944 21.312605,32 C 21.014098,32.147844 20.973064,32.072603 20.843855,32.0625 C 20.803733,32.021344 20.793953,31.980926 20.750105,31.9375 C 20.113949,31.307457 19.041696,30.444642 17.000105,29 C 14.340926,27.118944 11.316258,27.473414 9.3126047,28.25 C 7.3089527,29.026586 5.9376047,30.25 5.9376047,30.25 C 5.4952337,30.644664 5.2441167,31.219695 5.2501047,31.8125 C 5.2560897,32.405304 5.5186017,32.958102 5.9688547,33.34375 C 5.9688547,33.34375 9.965727,36.797198 13.781355,38.6875 C 14.036983,38.813973 14.988895,39.647848 15.906355,40.8125 C 16.823815,41.977152 17.809179,43.470622 18.687605,44.90625 C 20.36283,47.6441 21.507182,49.954886 21.625105,50.1875 L 22.562605,61.125 C 22.64883,62.134506 23.458061,62.930472 24.468855,63 L 35.968856,63.75 C 37.022406,63.816034 37.954576,63.072998 38.125106,62.03125 C 38.125106,62.03125 38.832656,57.782702 39.906356,52.65625 C 40.980056,47.529798 42.464796,41.472633 43.843856,38.21875 C 45.044026,35.38838 48.232936,33.043576 51.437606,31.0625 C 53.039936,30.071962 54.610316,29.171569 55.937606,28.21875 C 57.264896,27.265931 58.587326,26.272448 58.906356,24.375 C 59.110216,23.162514 58.911276,21.91196 58.187606,21 C 57.463936,20.08804 56.459456,19.742543 55.687606,19.625 C 54.143916,19.389915 52.906356,19.8125 52.906356,19.8125 C 52.730706,19.862859 52.562556,19.936425 52.406356,20.03125 L 48.625106,22.28125 C 49.449616,21.0223 50.313246,19.763989 50.968856,18.5625 C 51.888286,16.877523 52.656356,15.560322 52.656356,13.78125 C 52.656356,12.533754 52.193086,11.211259 51.187606,10.5 C 50.182126,9.788741 49.123216,9.796058 48.343856,9.90625 C 46.785136,10.126635 45.625106,10.84375 45.625106,10.84375 C 45.424686,10.958679 45.245086,11.106587 45.093856,11.28125 C 45.396996,10.249881 45.648116,9.26431 45.812606,8.40625 C 45.988036,7.4911113 46.126496,6.7516502 45.968856,5.8125 C 45.772466,4.6458607 45.264716,3.5124926 44.218856,2.875 C 43.695926,2.5562537 43.163626,2.4436271 42.656356,2.4375 z M 42.593856,4.5 C 43.176646,4.5000778 43.724416,4.8898139 43.937606,6.15625 C 44.504466,9.533413 36.843856,27.28125 36.843856,27.28125 L 46.625106,12.625 C 46.625106,12.625 50.625106,10.404971 50.625106,13.78125 C 50.625106,17.157544 41.406356,28.96875 41.406356,28.96875 L 53.468856,21.78125 C 53.468856,21.78125 57.442766,20.654957 56.875106,24.03125 C 56.307426,27.407544 45.008166,30.238652 41.968856,37.40625 C 38.930336,44.575618 35.843856,62.0625 35.843856,62.0625 L 24.750105,61.21875 L 23.625105,49.53125 C 23.625107,49.531249 18.096125,38.530137 14.687605,36.84375 C 11.278266,35.154728 7.3126047,31.78125 7.3126047,31.78125 C 7.3126077,31.78125 11.834755,27.84239 15.812605,30.65625 C 19.790447,33.470995 19.812605,34.03125 19.812605,34.03125 C 19.812603,34.031249 24.331045,35.724615 25.468855,27.28125 C 26.605838,18.839639 29.937605,6.53125 29.937605,6.53125 C 29.937605,6.5312498 32.200865,3.154808 33.906355,5.40625 C 35.611026,7.6576922 30.593855,26.71875 30.593855,26.71875 L 40.531356,5.59375 C 40.531356,5.5937499 41.622546,4.4998704 42.593856,4.5 z "
       id="path2894" />
  </g>
</svg>
